M48
; DRILL file KiCad 10.0.3 date 2026-06-24T21:58:35
; FORMAT={-:-/ absolute / metric / decimal}
; #@! TF.CreationDate,2026-06-24T21:58:35+08:00
; #@! TF.GenerationSoftware,Kicad,Pcbnew,10.0.3
; #@! TF.FileFunction,MixedPlating,1,2
FMAT,2
METRIC
; #@! TA.AperFunction,Plated,PTH,ComponentDrill
T1C0.200
; #@! TA.AperFunction,Plated,PTH,ViaDrill
T2C0.300
; #@! TA.AperFunction,Plated,PTH,ComponentDrill
T3C0.800
; #@! TA.AperFunction,Plated,PTH,ComponentDrill
T4C0.950
; #@! TA.AperFunction,Plated,PTH,ComponentDrill
T5C1.000
; #@! TA.AperFunction,Plated,PTH,ComponentDrill
T6C1.200
; #@! TA.AperFunction,Plated,PTH,ComponentDrill
T7C1.300
; #@! TA.AperFunction,NonPlated,NPTH,ComponentDrill
T8C3.200
%
G90
G05
T1
X144.059Y-61.036
X144.059Y-62.436
X144.76Y-60.336
X144.76Y-61.736
X144.76Y-63.136
X145.459Y-61.036
X145.459Y-62.436
X146.159Y-60.336
X146.159Y-61.736
X146.159Y-63.136
X146.859Y-61.036
X146.859Y-62.436
T2
X89.5Y-79.5
X89.5Y-87.5
X98.5Y-67.5
X98.5Y-72.5
X107.0Y-74.0
X112.0Y-74.0
X119.989Y-74.011
X124.0Y-74.0
X126.0Y-59.0
X128.5Y-72.5
X129.5Y-63.25
X133.0Y-53.0
X134.5Y-58.5
X136.1Y-57.5
X136.5Y-58.5
X139.545Y-65.602
X139.82Y-53.109
X141.089Y-69.619
X147.594Y-65.046
X147.594Y-66.569
X148.102Y-64.284
X148.102Y-65.807
X153.79Y-54.379
X156.9Y-58.441
X156.9Y-59.457
X157.246Y-66.272
X157.246Y-68.811
X160.525Y-54.25
X160.525Y-58.06
X165.0Y-64.25
X165.166Y-56.263
X165.213Y-52.215
X189.0Y-49.75
X194.5Y-51.5
X195.545Y-62.771
X198.0Y-49.5
T3
X79.8Y-115.75
X81.25Y-108.25
X86.275Y-115.75
X87.725Y-108.25
X99.99Y-112.917
X107.49Y-115.317
X120.31Y-112.917
X127.81Y-115.317
X140.63Y-112.917
X148.13Y-115.317
X159.5Y-71.5
X160.95Y-112.917
X162.0Y-71.5
X168.45Y-115.317
X181.27Y-112.917
X188.77Y-115.317
X201.47Y-112.777
X208.97Y-115.177
T4
X181.376Y-54.631
X181.376Y-63.521
X183.876Y-54.631
X183.876Y-63.521
X186.376Y-54.631
X186.376Y-63.521
X188.876Y-54.631
X188.876Y-63.521
X206.545Y-54.021
X206.545Y-56.521
X206.545Y-59.021
X206.545Y-61.521
X206.545Y-64.022
X206.545Y-66.522
T5
X58.0Y-69.92
X63.0Y-99.0
X68.0Y-99.0
X73.0Y-69.92
X83.0Y-78.18
X83.0Y-80.72
X83.0Y-90.88
X83.0Y-98.5
T6
X60.932Y-57.25
X60.932Y-61.06
X103.56Y-123.0
X107.37Y-123.0
X123.88Y-123.0
X127.69Y-123.0
X144.2Y-123.0
X148.01Y-123.0
X164.52Y-123.0
X168.33Y-123.0
X184.84Y-123.0
X188.65Y-123.0
X202.184Y-123.0
X205.994Y-123.0
T7
X59.5Y-109.0
X59.5Y-114.0
X71.0Y-109.3
X71.0Y-125.0
X82.0Y-124.5
X83.0Y-52.4
X83.0Y-68.1
X87.0Y-124.5
X92.0Y-124.5
X97.91Y-85.197
X97.91Y-97.397
X103.91Y-83.197
X109.91Y-85.197
X109.91Y-97.397
X118.23Y-85.197
X118.23Y-97.397
X124.23Y-83.197
X130.23Y-85.197
X130.23Y-97.397
X138.55Y-85.197
X138.55Y-97.397
X144.55Y-83.197
X150.55Y-85.197
X150.55Y-97.397
X158.87Y-85.197
X158.87Y-97.397
X164.87Y-83.197
X170.87Y-85.197
X170.87Y-97.397
X179.19Y-85.197
X179.19Y-97.397
X185.19Y-83.197
X191.19Y-85.197
X191.19Y-97.397
X199.51Y-85.197
X199.51Y-97.397
X205.51Y-83.197
X211.51Y-85.197
X211.51Y-97.397
T8
X57.0Y-50.0
X57.0Y-127.0
X214.0Y-50.0
X214.0Y-127.0
M30
