M48
; DRILL file KiCad 10.0.3 date 2026-06-13T18:48:25
; FORMAT={-:-/ absolute / metric / decimal}
; #@! TF.CreationDate,2026-06-13T18:48:25+08:00
; #@! TF.GenerationSoftware,Kicad,Pcbnew,10.0.3
; #@! TF.FileFunction,MixedPlating,1,2
FMAT,2
METRIC
; #@! TA.AperFunction,Plated,PTH,ComponentDrill
T1C0.200
; #@! TA.AperFunction,Plated,PTH,ViaDrill
T2C0.300
; #@! TA.AperFunction,Plated,PTH,ComponentDrill
T3C0.800
; #@! TA.AperFunction,Plated,PTH,ComponentDrill
T4C0.950
; #@! TA.AperFunction,Plated,PTH,ComponentDrill
T5C1.000
; #@! TA.AperFunction,Plated,PTH,ComponentDrill
T6C1.200
; #@! TA.AperFunction,Plated,PTH,ComponentDrill
T7C1.300
; #@! TA.AperFunction,Plated,PTH,ComponentDrill
T8C1.400
; #@! TA.AperFunction,NonPlated,NPTH,ComponentDrill
T9C3.200
%
G90
G05
T1
X144.059Y-61.036
X144.059Y-62.436
X144.76Y-60.336
X144.76Y-61.736
X144.76Y-63.136
X145.459Y-61.036
X145.459Y-62.436
X146.159Y-60.336
X146.159Y-61.736
X146.159Y-63.136
X146.859Y-61.036
X146.859Y-62.436
T2
X72.0Y-65.0
X89.5Y-79.5
X89.5Y-87.5
X98.5Y-67.5
X98.5Y-72.5
X107.0Y-74.0
X112.0Y-74.0
X122.545Y-72.0
X127.909Y-64.791
X133.159Y-65.371
X134.275Y-57.806
X134.386Y-52.726
X139.545Y-65.602
X139.82Y-53.109
X141.089Y-69.619
X147.594Y-65.046
X147.594Y-66.569
X148.102Y-64.284
X148.102Y-65.807
X153.79Y-54.379
X156.9Y-58.441
X156.9Y-59.457
X157.246Y-66.272
X157.246Y-68.811
X160.525Y-54.25
X160.525Y-58.06
X162.834Y-71.776
X163.415Y-66.249
X165.166Y-56.263
X165.213Y-52.215
X166.5Y-49.971
X173.5Y-49.971
X176.0Y-49.971
X182.05Y-49.971
X182.626Y-59.5
X190.0Y-49.5
X194.5Y-51.5
X195.545Y-62.771
T3
X55.8Y-117.5
X63.3Y-118.9
X72.0Y-60.0
X74.5Y-60.0
X77.9Y-113.2
X79.3Y-105.7
X99.99Y-112.917
X107.49Y-115.317
X120.31Y-112.917
X127.81Y-115.317
X140.63Y-112.917
X148.13Y-115.317
X160.95Y-112.917
X168.45Y-115.317
X181.27Y-112.917
X188.77Y-115.317
X201.47Y-112.777
X208.97Y-115.177
T4
X181.376Y-54.631
X181.376Y-63.521
X183.876Y-54.631
X183.876Y-63.521
X186.376Y-54.631
X186.376Y-63.521
X188.876Y-54.631
X188.876Y-63.521
X206.545Y-54.021
X206.545Y-56.521
X206.545Y-59.021
X206.545Y-61.521
X206.545Y-64.022
X206.545Y-66.522
T5
X58.0Y-69.92
X63.0Y-99.0
X68.0Y-99.0
X73.0Y-69.92
X83.0Y-78.18
X83.0Y-80.72
X83.0Y-90.88
X83.0Y-98.5
T6
X103.56Y-123.0
X107.37Y-123.0
X123.88Y-123.0
X127.69Y-123.0
X144.2Y-123.0
X148.01Y-123.0
X164.52Y-123.0
X168.33Y-123.0
X184.84Y-123.0
X188.65Y-123.0
X202.184Y-123.0
X205.994Y-123.0
T7
X59.5Y-106.5
X59.5Y-111.5
X62.0Y-57.0
X62.0Y-62.0
X71.0Y-109.3
X71.0Y-125.0
X83.0Y-52.4
X83.0Y-68.1
X97.91Y-85.197
X97.91Y-97.397
X103.91Y-83.197
X109.91Y-85.197
X109.91Y-97.397
X118.23Y-85.197
X118.23Y-97.397
X124.23Y-83.197
X130.23Y-85.197
X130.23Y-97.397
X138.55Y-85.197
X138.55Y-97.397
X144.55Y-83.197
X150.55Y-85.197
X150.55Y-97.397
X158.87Y-85.197
X158.87Y-97.397
X164.87Y-83.197
X170.87Y-85.197
X170.87Y-97.397
X179.19Y-85.197
X179.19Y-97.397
X185.19Y-83.197
X191.19Y-85.197
X191.19Y-97.397
X199.51Y-85.197
X199.51Y-97.397
X205.51Y-83.197
X211.51Y-85.197
X211.51Y-97.397
T8
X82.0Y-120.5
X87.08Y-120.5
X92.16Y-120.5
T9
X57.0Y-50.0
X57.0Y-127.0
X214.0Y-50.0
X214.0Y-127.0
M30
