%TF.GenerationSoftware,KiCad,Pcbnew,10.0.3*%
%TF.CreationDate,2026-06-03T05:42:01+08:00*%
%TF.ProjectId,Sprinkler System,53707269-6e6b-46c6-9572-205379737465,rev?*%
%TF.SameCoordinates,Original*%
%TF.FileFunction,AssemblyDrawing,Top*%
%FSLAX46Y46*%
G04 Gerber Fmt 4.6, Leading zero omitted, Abs format (unit mm)*
G04 Created by KiCad (PCBNEW 10.0.3) date 2026-06-03 05:42:01*
%MOMM*%
%LPD*%
G01*
G04 APERTURE LIST*
%ADD10C,0.300000*%
%ADD11C,0.200000*%
%ADD12C,0.100000*%
%ADD13C,0.150000*%
%ADD14C,0.080000*%
%ADD15C,0.120000*%
%ADD16C,0.127000*%
G04 APERTURE END LIST*
D10*
X42021185Y-91928570D02*
X41949757Y-92071427D01*
X41949757Y-92071427D02*
X41878328Y-92142856D01*
X41878328Y-92142856D02*
X41735471Y-92214284D01*
X41735471Y-92214284D02*
X41664042Y-92214284D01*
X41664042Y-92214284D02*
X41521185Y-92142856D01*
X41521185Y-92142856D02*
X41449757Y-92071427D01*
X41449757Y-92071427D02*
X41378328Y-91928570D01*
X41378328Y-91928570D02*
X41378328Y-91642856D01*
X41378328Y-91642856D02*
X41449757Y-91499999D01*
X41449757Y-91499999D02*
X41521185Y-91428570D01*
X41521185Y-91428570D02*
X41664042Y-91357141D01*
X41664042Y-91357141D02*
X41735471Y-91357141D01*
X41735471Y-91357141D02*
X41878328Y-91428570D01*
X41878328Y-91428570D02*
X41949757Y-91499999D01*
X41949757Y-91499999D02*
X42021185Y-91642856D01*
X42021185Y-91642856D02*
X42021185Y-91928570D01*
X42021185Y-91928570D02*
X42092614Y-92071427D01*
X42092614Y-92071427D02*
X42164042Y-92142856D01*
X42164042Y-92142856D02*
X42306900Y-92214284D01*
X42306900Y-92214284D02*
X42592614Y-92214284D01*
X42592614Y-92214284D02*
X42735471Y-92142856D01*
X42735471Y-92142856D02*
X42806900Y-92071427D01*
X42806900Y-92071427D02*
X42878328Y-91928570D01*
X42878328Y-91928570D02*
X42878328Y-91642856D01*
X42878328Y-91642856D02*
X42806900Y-91499999D01*
X42806900Y-91499999D02*
X42735471Y-91428570D01*
X42735471Y-91428570D02*
X42592614Y-91357141D01*
X42592614Y-91357141D02*
X42306900Y-91357141D01*
X42306900Y-91357141D02*
X42164042Y-91428570D01*
X42164042Y-91428570D02*
X42092614Y-91499999D01*
X42092614Y-91499999D02*
X42021185Y-91642856D01*
X41378328Y-89999999D02*
X41378328Y-90714285D01*
X41378328Y-90714285D02*
X42092614Y-90785713D01*
X42092614Y-90785713D02*
X42021185Y-90714285D01*
X42021185Y-90714285D02*
X41949757Y-90571428D01*
X41949757Y-90571428D02*
X41949757Y-90214285D01*
X41949757Y-90214285D02*
X42021185Y-90071428D01*
X42021185Y-90071428D02*
X42092614Y-89999999D01*
X42092614Y-89999999D02*
X42235471Y-89928570D01*
X42235471Y-89928570D02*
X42592614Y-89928570D01*
X42592614Y-89928570D02*
X42735471Y-89999999D01*
X42735471Y-89999999D02*
X42806900Y-90071428D01*
X42806900Y-90071428D02*
X42878328Y-90214285D01*
X42878328Y-90214285D02*
X42878328Y-90571428D01*
X42878328Y-90571428D02*
X42806900Y-90714285D01*
X42806900Y-90714285D02*
X42735471Y-90785713D01*
X42878328Y-88142857D02*
X41878328Y-88142857D01*
X42021185Y-88142857D02*
X41949757Y-88071428D01*
X41949757Y-88071428D02*
X41878328Y-87928571D01*
X41878328Y-87928571D02*
X41878328Y-87714285D01*
X41878328Y-87714285D02*
X41949757Y-87571428D01*
X41949757Y-87571428D02*
X42092614Y-87500000D01*
X42092614Y-87500000D02*
X42878328Y-87500000D01*
X42092614Y-87500000D02*
X41949757Y-87428571D01*
X41949757Y-87428571D02*
X41878328Y-87285714D01*
X41878328Y-87285714D02*
X41878328Y-87071428D01*
X41878328Y-87071428D02*
X41949757Y-86928571D01*
X41949757Y-86928571D02*
X42092614Y-86857142D01*
X42092614Y-86857142D02*
X42878328Y-86857142D01*
X42878328Y-86142857D02*
X41878328Y-86142857D01*
X42021185Y-86142857D02*
X41949757Y-86071428D01*
X41949757Y-86071428D02*
X41878328Y-85928571D01*
X41878328Y-85928571D02*
X41878328Y-85714285D01*
X41878328Y-85714285D02*
X41949757Y-85571428D01*
X41949757Y-85571428D02*
X42092614Y-85500000D01*
X42092614Y-85500000D02*
X42878328Y-85500000D01*
X42092614Y-85500000D02*
X41949757Y-85428571D01*
X41949757Y-85428571D02*
X41878328Y-85285714D01*
X41878328Y-85285714D02*
X41878328Y-85071428D01*
X41878328Y-85071428D02*
X41949757Y-84928571D01*
X41949757Y-84928571D02*
X42092614Y-84857142D01*
X42092614Y-84857142D02*
X42878328Y-84857142D01*
D11*
X58500000Y-46000000D02*
X43413580Y-46000000D01*
X43413580Y-131000000D02*
X58500000Y-131000000D01*
X44000000Y-46000000D02*
X44000000Y-131000000D01*
X44000000Y-46000000D02*
X44586421Y-47126504D01*
X44000000Y-46000000D02*
X43413579Y-47126504D01*
X44000000Y-131000000D02*
X43413579Y-129873496D01*
X44000000Y-131000000D02*
X44586421Y-129873496D01*
D12*
X133119047Y-41857419D02*
X132547619Y-41857419D01*
X132833333Y-41857419D02*
X132833333Y-40857419D01*
X132833333Y-40857419D02*
X132738095Y-41000276D01*
X132738095Y-41000276D02*
X132642857Y-41095514D01*
X132642857Y-41095514D02*
X132547619Y-41143133D01*
X134023809Y-40857419D02*
X133547619Y-40857419D01*
X133547619Y-40857419D02*
X133500000Y-41333609D01*
X133500000Y-41333609D02*
X133547619Y-41285990D01*
X133547619Y-41285990D02*
X133642857Y-41238371D01*
X133642857Y-41238371D02*
X133880952Y-41238371D01*
X133880952Y-41238371D02*
X133976190Y-41285990D01*
X133976190Y-41285990D02*
X134023809Y-41333609D01*
X134023809Y-41333609D02*
X134071428Y-41428847D01*
X134071428Y-41428847D02*
X134071428Y-41666942D01*
X134071428Y-41666942D02*
X134023809Y-41762180D01*
X134023809Y-41762180D02*
X133976190Y-41809800D01*
X133976190Y-41809800D02*
X133880952Y-41857419D01*
X133880952Y-41857419D02*
X133642857Y-41857419D01*
X133642857Y-41857419D02*
X133547619Y-41809800D01*
X133547619Y-41809800D02*
X133500000Y-41762180D01*
X134404762Y-40857419D02*
X135071428Y-40857419D01*
X135071428Y-40857419D02*
X134642857Y-41857419D01*
X136214286Y-41857419D02*
X136214286Y-41190752D01*
X136214286Y-41285990D02*
X136261905Y-41238371D01*
X136261905Y-41238371D02*
X136357143Y-41190752D01*
X136357143Y-41190752D02*
X136500000Y-41190752D01*
X136500000Y-41190752D02*
X136595238Y-41238371D01*
X136595238Y-41238371D02*
X136642857Y-41333609D01*
X136642857Y-41333609D02*
X136642857Y-41857419D01*
X136642857Y-41333609D02*
X136690476Y-41238371D01*
X136690476Y-41238371D02*
X136785714Y-41190752D01*
X136785714Y-41190752D02*
X136928571Y-41190752D01*
X136928571Y-41190752D02*
X137023810Y-41238371D01*
X137023810Y-41238371D02*
X137071429Y-41333609D01*
X137071429Y-41333609D02*
X137071429Y-41857419D01*
X137547619Y-41857419D02*
X137547619Y-41190752D01*
X137547619Y-41285990D02*
X137595238Y-41238371D01*
X137595238Y-41238371D02*
X137690476Y-41190752D01*
X137690476Y-41190752D02*
X137833333Y-41190752D01*
X137833333Y-41190752D02*
X137928571Y-41238371D01*
X137928571Y-41238371D02*
X137976190Y-41333609D01*
X137976190Y-41333609D02*
X137976190Y-41857419D01*
X137976190Y-41333609D02*
X138023809Y-41238371D01*
X138023809Y-41238371D02*
X138119047Y-41190752D01*
X138119047Y-41190752D02*
X138261904Y-41190752D01*
X138261904Y-41190752D02*
X138357143Y-41238371D01*
X138357143Y-41238371D02*
X138404762Y-41333609D01*
X138404762Y-41333609D02*
X138404762Y-41857419D01*
X57000000Y-51000000D02*
X57000000Y-41913580D01*
X214000000Y-41913580D02*
X214000000Y-53000000D01*
X57000000Y-42500000D02*
X214000000Y-42500000D01*
X57000000Y-42500000D02*
X58126504Y-41913579D01*
X57000000Y-42500000D02*
X58126504Y-43086421D01*
X214000000Y-42500000D02*
X212873496Y-43086421D01*
X214000000Y-42500000D02*
X212873496Y-41913579D01*
X46357419Y-91023808D02*
X46357419Y-90357142D01*
X46357419Y-90357142D02*
X47357419Y-90785713D01*
X46357419Y-90071427D02*
X46357419Y-89404761D01*
X46357419Y-89404761D02*
X47357419Y-89833332D01*
X47357419Y-88261903D02*
X46690752Y-88261903D01*
X46785990Y-88261903D02*
X46738371Y-88214284D01*
X46738371Y-88214284D02*
X46690752Y-88119046D01*
X46690752Y-88119046D02*
X46690752Y-87976189D01*
X46690752Y-87976189D02*
X46738371Y-87880951D01*
X46738371Y-87880951D02*
X46833609Y-87833332D01*
X46833609Y-87833332D02*
X47357419Y-87833332D01*
X46833609Y-87833332D02*
X46738371Y-87785713D01*
X46738371Y-87785713D02*
X46690752Y-87690475D01*
X46690752Y-87690475D02*
X46690752Y-87547618D01*
X46690752Y-87547618D02*
X46738371Y-87452379D01*
X46738371Y-87452379D02*
X46833609Y-87404760D01*
X46833609Y-87404760D02*
X47357419Y-87404760D01*
X47357419Y-86928570D02*
X46690752Y-86928570D01*
X46785990Y-86928570D02*
X46738371Y-86880951D01*
X46738371Y-86880951D02*
X46690752Y-86785713D01*
X46690752Y-86785713D02*
X46690752Y-86642856D01*
X46690752Y-86642856D02*
X46738371Y-86547618D01*
X46738371Y-86547618D02*
X46833609Y-86499999D01*
X46833609Y-86499999D02*
X47357419Y-86499999D01*
X46833609Y-86499999D02*
X46738371Y-86452380D01*
X46738371Y-86452380D02*
X46690752Y-86357142D01*
X46690752Y-86357142D02*
X46690752Y-86214285D01*
X46690752Y-86214285D02*
X46738371Y-86119046D01*
X46738371Y-86119046D02*
X46833609Y-86071427D01*
X46833609Y-86071427D02*
X47357419Y-86071427D01*
X56500000Y-50000000D02*
X47413580Y-50000000D01*
X47413580Y-127000000D02*
X59500000Y-127000000D01*
X48000000Y-50000000D02*
X48000000Y-127000000D01*
X48000000Y-50000000D02*
X48586421Y-51126504D01*
X48000000Y-50000000D02*
X47413579Y-51126504D01*
X48000000Y-127000000D02*
X47413579Y-125873496D01*
X48000000Y-127000000D02*
X48586421Y-125873496D01*
D10*
X131928572Y-36878328D02*
X131071429Y-36878328D01*
X131500000Y-36878328D02*
X131500000Y-35378328D01*
X131500000Y-35378328D02*
X131357143Y-35592614D01*
X131357143Y-35592614D02*
X131214286Y-35735471D01*
X131214286Y-35735471D02*
X131071429Y-35806900D01*
X133214286Y-35378328D02*
X132928571Y-35378328D01*
X132928571Y-35378328D02*
X132785714Y-35449757D01*
X132785714Y-35449757D02*
X132714286Y-35521185D01*
X132714286Y-35521185D02*
X132571428Y-35735471D01*
X132571428Y-35735471D02*
X132500000Y-36021185D01*
X132500000Y-36021185D02*
X132500000Y-36592614D01*
X132500000Y-36592614D02*
X132571428Y-36735471D01*
X132571428Y-36735471D02*
X132642857Y-36806900D01*
X132642857Y-36806900D02*
X132785714Y-36878328D01*
X132785714Y-36878328D02*
X133071428Y-36878328D01*
X133071428Y-36878328D02*
X133214286Y-36806900D01*
X133214286Y-36806900D02*
X133285714Y-36735471D01*
X133285714Y-36735471D02*
X133357143Y-36592614D01*
X133357143Y-36592614D02*
X133357143Y-36235471D01*
X133357143Y-36235471D02*
X133285714Y-36092614D01*
X133285714Y-36092614D02*
X133214286Y-36021185D01*
X133214286Y-36021185D02*
X133071428Y-35949757D01*
X133071428Y-35949757D02*
X132785714Y-35949757D01*
X132785714Y-35949757D02*
X132642857Y-36021185D01*
X132642857Y-36021185D02*
X132571428Y-36092614D01*
X132571428Y-36092614D02*
X132500000Y-36235471D01*
X134714285Y-35378328D02*
X133999999Y-35378328D01*
X133999999Y-35378328D02*
X133928571Y-36092614D01*
X133928571Y-36092614D02*
X133999999Y-36021185D01*
X133999999Y-36021185D02*
X134142857Y-35949757D01*
X134142857Y-35949757D02*
X134499999Y-35949757D01*
X134499999Y-35949757D02*
X134642857Y-36021185D01*
X134642857Y-36021185D02*
X134714285Y-36092614D01*
X134714285Y-36092614D02*
X134785714Y-36235471D01*
X134785714Y-36235471D02*
X134785714Y-36592614D01*
X134785714Y-36592614D02*
X134714285Y-36735471D01*
X134714285Y-36735471D02*
X134642857Y-36806900D01*
X134642857Y-36806900D02*
X134499999Y-36878328D01*
X134499999Y-36878328D02*
X134142857Y-36878328D01*
X134142857Y-36878328D02*
X133999999Y-36806900D01*
X133999999Y-36806900D02*
X133928571Y-36735471D01*
X136571427Y-36878328D02*
X136571427Y-35878328D01*
X136571427Y-36021185D02*
X136642856Y-35949757D01*
X136642856Y-35949757D02*
X136785713Y-35878328D01*
X136785713Y-35878328D02*
X136999999Y-35878328D01*
X136999999Y-35878328D02*
X137142856Y-35949757D01*
X137142856Y-35949757D02*
X137214285Y-36092614D01*
X137214285Y-36092614D02*
X137214285Y-36878328D01*
X137214285Y-36092614D02*
X137285713Y-35949757D01*
X137285713Y-35949757D02*
X137428570Y-35878328D01*
X137428570Y-35878328D02*
X137642856Y-35878328D01*
X137642856Y-35878328D02*
X137785713Y-35949757D01*
X137785713Y-35949757D02*
X137857142Y-36092614D01*
X137857142Y-36092614D02*
X137857142Y-36878328D01*
X138571427Y-36878328D02*
X138571427Y-35878328D01*
X138571427Y-36021185D02*
X138642856Y-35949757D01*
X138642856Y-35949757D02*
X138785713Y-35878328D01*
X138785713Y-35878328D02*
X138999999Y-35878328D01*
X138999999Y-35878328D02*
X139142856Y-35949757D01*
X139142856Y-35949757D02*
X139214285Y-36092614D01*
X139214285Y-36092614D02*
X139214285Y-36878328D01*
X139214285Y-36092614D02*
X139285713Y-35949757D01*
X139285713Y-35949757D02*
X139428570Y-35878328D01*
X139428570Y-35878328D02*
X139642856Y-35878328D01*
X139642856Y-35878328D02*
X139785713Y-35949757D01*
X139785713Y-35949757D02*
X139857142Y-36092614D01*
X139857142Y-36092614D02*
X139857142Y-36878328D01*
D12*
X218000000Y-49500000D02*
X218000000Y-37413580D01*
X53000000Y-37413580D02*
X53000000Y-49500000D01*
X218000000Y-38000000D02*
X53000000Y-38000000D01*
X218000000Y-38000000D02*
X216873496Y-38586421D01*
X218000000Y-38000000D02*
X216873496Y-37413579D01*
X53000000Y-38000000D02*
X54126504Y-37413579D01*
X53000000Y-38000000D02*
X54126504Y-38586421D01*
D13*
X124970476Y-121954819D02*
X124970476Y-122669104D01*
X124970476Y-122669104D02*
X124922857Y-122811961D01*
X124922857Y-122811961D02*
X124827619Y-122907200D01*
X124827619Y-122907200D02*
X124684762Y-122954819D01*
X124684762Y-122954819D02*
X124589524Y-122954819D01*
X125399048Y-122050057D02*
X125446667Y-122002438D01*
X125446667Y-122002438D02*
X125541905Y-121954819D01*
X125541905Y-121954819D02*
X125780000Y-121954819D01*
X125780000Y-121954819D02*
X125875238Y-122002438D01*
X125875238Y-122002438D02*
X125922857Y-122050057D01*
X125922857Y-122050057D02*
X125970476Y-122145295D01*
X125970476Y-122145295D02*
X125970476Y-122240533D01*
X125970476Y-122240533D02*
X125922857Y-122383390D01*
X125922857Y-122383390D02*
X125351429Y-122954819D01*
X125351429Y-122954819D02*
X125970476Y-122954819D01*
X126922857Y-122954819D02*
X126351429Y-122954819D01*
X126637143Y-122954819D02*
X126637143Y-121954819D01*
X126637143Y-121954819D02*
X126541905Y-122097676D01*
X126541905Y-122097676D02*
X126446667Y-122192914D01*
X126446667Y-122192914D02*
X126351429Y-122240533D01*
D14*
X132038666Y-63091030D02*
X132014857Y-63114840D01*
X132014857Y-63114840D02*
X131943428Y-63138649D01*
X131943428Y-63138649D02*
X131895809Y-63138649D01*
X131895809Y-63138649D02*
X131824381Y-63114840D01*
X131824381Y-63114840D02*
X131776762Y-63067220D01*
X131776762Y-63067220D02*
X131752952Y-63019601D01*
X131752952Y-63019601D02*
X131729143Y-62924363D01*
X131729143Y-62924363D02*
X131729143Y-62852935D01*
X131729143Y-62852935D02*
X131752952Y-62757697D01*
X131752952Y-62757697D02*
X131776762Y-62710078D01*
X131776762Y-62710078D02*
X131824381Y-62662459D01*
X131824381Y-62662459D02*
X131895809Y-62638649D01*
X131895809Y-62638649D02*
X131943428Y-62638649D01*
X131943428Y-62638649D02*
X132014857Y-62662459D01*
X132014857Y-62662459D02*
X132038666Y-62686268D01*
X132229143Y-62686268D02*
X132252952Y-62662459D01*
X132252952Y-62662459D02*
X132300571Y-62638649D01*
X132300571Y-62638649D02*
X132419619Y-62638649D01*
X132419619Y-62638649D02*
X132467238Y-62662459D01*
X132467238Y-62662459D02*
X132491047Y-62686268D01*
X132491047Y-62686268D02*
X132514857Y-62733887D01*
X132514857Y-62733887D02*
X132514857Y-62781506D01*
X132514857Y-62781506D02*
X132491047Y-62852935D01*
X132491047Y-62852935D02*
X132205333Y-63138649D01*
X132205333Y-63138649D02*
X132514857Y-63138649D01*
D13*
X103738095Y-71806819D02*
X104309523Y-71806819D01*
X104023809Y-72806819D02*
X104023809Y-71806819D01*
X104642857Y-72806819D02*
X104642857Y-71806819D01*
X104642857Y-71806819D02*
X105023809Y-71806819D01*
X105023809Y-71806819D02*
X105119047Y-71854438D01*
X105119047Y-71854438D02*
X105166666Y-71902057D01*
X105166666Y-71902057D02*
X105214285Y-71997295D01*
X105214285Y-71997295D02*
X105214285Y-72140152D01*
X105214285Y-72140152D02*
X105166666Y-72235390D01*
X105166666Y-72235390D02*
X105119047Y-72283009D01*
X105119047Y-72283009D02*
X105023809Y-72330628D01*
X105023809Y-72330628D02*
X104642857Y-72330628D01*
X106166666Y-72806819D02*
X105595238Y-72806819D01*
X105880952Y-72806819D02*
X105880952Y-71806819D01*
X105880952Y-71806819D02*
X105785714Y-71949676D01*
X105785714Y-71949676D02*
X105690476Y-72044914D01*
X105690476Y-72044914D02*
X105595238Y-72092533D01*
X103738095Y-71804819D02*
X104309523Y-71804819D01*
X104023809Y-72804819D02*
X104023809Y-71804819D01*
X104642857Y-72804819D02*
X104642857Y-71804819D01*
X104642857Y-71804819D02*
X105023809Y-71804819D01*
X105023809Y-71804819D02*
X105119047Y-71852438D01*
X105119047Y-71852438D02*
X105166666Y-71900057D01*
X105166666Y-71900057D02*
X105214285Y-71995295D01*
X105214285Y-71995295D02*
X105214285Y-72138152D01*
X105214285Y-72138152D02*
X105166666Y-72233390D01*
X105166666Y-72233390D02*
X105119047Y-72281009D01*
X105119047Y-72281009D02*
X105023809Y-72328628D01*
X105023809Y-72328628D02*
X104642857Y-72328628D01*
X106166666Y-72804819D02*
X105595238Y-72804819D01*
X105880952Y-72804819D02*
X105880952Y-71804819D01*
X105880952Y-71804819D02*
X105785714Y-71947676D01*
X105785714Y-71947676D02*
X105690476Y-72042914D01*
X105690476Y-72042914D02*
X105595238Y-72090533D01*
D14*
X162966166Y-58541649D02*
X162799500Y-58303554D01*
X162680452Y-58541649D02*
X162680452Y-58041649D01*
X162680452Y-58041649D02*
X162870928Y-58041649D01*
X162870928Y-58041649D02*
X162918547Y-58065459D01*
X162918547Y-58065459D02*
X162942357Y-58089268D01*
X162942357Y-58089268D02*
X162966166Y-58136887D01*
X162966166Y-58136887D02*
X162966166Y-58208316D01*
X162966166Y-58208316D02*
X162942357Y-58255935D01*
X162942357Y-58255935D02*
X162918547Y-58279744D01*
X162918547Y-58279744D02*
X162870928Y-58303554D01*
X162870928Y-58303554D02*
X162680452Y-58303554D01*
X163251881Y-58255935D02*
X163204262Y-58232125D01*
X163204262Y-58232125D02*
X163180452Y-58208316D01*
X163180452Y-58208316D02*
X163156643Y-58160697D01*
X163156643Y-58160697D02*
X163156643Y-58136887D01*
X163156643Y-58136887D02*
X163180452Y-58089268D01*
X163180452Y-58089268D02*
X163204262Y-58065459D01*
X163204262Y-58065459D02*
X163251881Y-58041649D01*
X163251881Y-58041649D02*
X163347119Y-58041649D01*
X163347119Y-58041649D02*
X163394738Y-58065459D01*
X163394738Y-58065459D02*
X163418547Y-58089268D01*
X163418547Y-58089268D02*
X163442357Y-58136887D01*
X163442357Y-58136887D02*
X163442357Y-58160697D01*
X163442357Y-58160697D02*
X163418547Y-58208316D01*
X163418547Y-58208316D02*
X163394738Y-58232125D01*
X163394738Y-58232125D02*
X163347119Y-58255935D01*
X163347119Y-58255935D02*
X163251881Y-58255935D01*
X163251881Y-58255935D02*
X163204262Y-58279744D01*
X163204262Y-58279744D02*
X163180452Y-58303554D01*
X163180452Y-58303554D02*
X163156643Y-58351173D01*
X163156643Y-58351173D02*
X163156643Y-58446411D01*
X163156643Y-58446411D02*
X163180452Y-58494030D01*
X163180452Y-58494030D02*
X163204262Y-58517840D01*
X163204262Y-58517840D02*
X163251881Y-58541649D01*
X163251881Y-58541649D02*
X163347119Y-58541649D01*
X163347119Y-58541649D02*
X163394738Y-58517840D01*
X163394738Y-58517840D02*
X163418547Y-58494030D01*
X163418547Y-58494030D02*
X163442357Y-58446411D01*
X163442357Y-58446411D02*
X163442357Y-58351173D01*
X163442357Y-58351173D02*
X163418547Y-58303554D01*
X163418547Y-58303554D02*
X163394738Y-58279744D01*
X163394738Y-58279744D02*
X163347119Y-58255935D01*
X141691071Y-107877030D02*
X141667262Y-107900840D01*
X141667262Y-107900840D02*
X141595833Y-107924649D01*
X141595833Y-107924649D02*
X141548214Y-107924649D01*
X141548214Y-107924649D02*
X141476786Y-107900840D01*
X141476786Y-107900840D02*
X141429167Y-107853220D01*
X141429167Y-107853220D02*
X141405357Y-107805601D01*
X141405357Y-107805601D02*
X141381548Y-107710363D01*
X141381548Y-107710363D02*
X141381548Y-107638935D01*
X141381548Y-107638935D02*
X141405357Y-107543697D01*
X141405357Y-107543697D02*
X141429167Y-107496078D01*
X141429167Y-107496078D02*
X141476786Y-107448459D01*
X141476786Y-107448459D02*
X141548214Y-107424649D01*
X141548214Y-107424649D02*
X141595833Y-107424649D01*
X141595833Y-107424649D02*
X141667262Y-107448459D01*
X141667262Y-107448459D02*
X141691071Y-107472268D01*
X141881548Y-107472268D02*
X141905357Y-107448459D01*
X141905357Y-107448459D02*
X141952976Y-107424649D01*
X141952976Y-107424649D02*
X142072024Y-107424649D01*
X142072024Y-107424649D02*
X142119643Y-107448459D01*
X142119643Y-107448459D02*
X142143452Y-107472268D01*
X142143452Y-107472268D02*
X142167262Y-107519887D01*
X142167262Y-107519887D02*
X142167262Y-107567506D01*
X142167262Y-107567506D02*
X142143452Y-107638935D01*
X142143452Y-107638935D02*
X141857738Y-107924649D01*
X141857738Y-107924649D02*
X142167262Y-107924649D01*
X142357738Y-107472268D02*
X142381547Y-107448459D01*
X142381547Y-107448459D02*
X142429166Y-107424649D01*
X142429166Y-107424649D02*
X142548214Y-107424649D01*
X142548214Y-107424649D02*
X142595833Y-107448459D01*
X142595833Y-107448459D02*
X142619642Y-107472268D01*
X142619642Y-107472268D02*
X142643452Y-107519887D01*
X142643452Y-107519887D02*
X142643452Y-107567506D01*
X142643452Y-107567506D02*
X142619642Y-107638935D01*
X142619642Y-107638935D02*
X142333928Y-107924649D01*
X142333928Y-107924649D02*
X142643452Y-107924649D01*
D13*
X184793166Y-65676319D02*
X184793166Y-66390604D01*
X184793166Y-66390604D02*
X184745547Y-66533461D01*
X184745547Y-66533461D02*
X184650309Y-66628700D01*
X184650309Y-66628700D02*
X184507452Y-66676319D01*
X184507452Y-66676319D02*
X184412214Y-66676319D01*
X185745547Y-65676319D02*
X185269357Y-65676319D01*
X185269357Y-65676319D02*
X185221738Y-66152509D01*
X185221738Y-66152509D02*
X185269357Y-66104890D01*
X185269357Y-66104890D02*
X185364595Y-66057271D01*
X185364595Y-66057271D02*
X185602690Y-66057271D01*
X185602690Y-66057271D02*
X185697928Y-66104890D01*
X185697928Y-66104890D02*
X185745547Y-66152509D01*
X185745547Y-66152509D02*
X185793166Y-66247747D01*
X185793166Y-66247747D02*
X185793166Y-66485842D01*
X185793166Y-66485842D02*
X185745547Y-66581080D01*
X185745547Y-66581080D02*
X185697928Y-66628700D01*
X185697928Y-66628700D02*
X185602690Y-66676319D01*
X185602690Y-66676319D02*
X185364595Y-66676319D01*
X185364595Y-66676319D02*
X185269357Y-66628700D01*
X185269357Y-66628700D02*
X185221738Y-66581080D01*
D14*
X126349976Y-58033649D02*
X126111881Y-58033649D01*
X126111881Y-58033649D02*
X126111881Y-57533649D01*
X126516643Y-57771744D02*
X126683310Y-57771744D01*
X126754738Y-58033649D02*
X126516643Y-58033649D01*
X126516643Y-58033649D02*
X126516643Y-57533649D01*
X126516643Y-57533649D02*
X126754738Y-57533649D01*
X126969024Y-58033649D02*
X126969024Y-57533649D01*
X126969024Y-57533649D02*
X127088072Y-57533649D01*
X127088072Y-57533649D02*
X127159500Y-57557459D01*
X127159500Y-57557459D02*
X127207119Y-57605078D01*
X127207119Y-57605078D02*
X127230929Y-57652697D01*
X127230929Y-57652697D02*
X127254738Y-57747935D01*
X127254738Y-57747935D02*
X127254738Y-57819363D01*
X127254738Y-57819363D02*
X127230929Y-57914601D01*
X127230929Y-57914601D02*
X127207119Y-57962220D01*
X127207119Y-57962220D02*
X127159500Y-58009840D01*
X127159500Y-58009840D02*
X127088072Y-58033649D01*
X127088072Y-58033649D02*
X126969024Y-58033649D01*
X127730929Y-58033649D02*
X127445215Y-58033649D01*
X127588072Y-58033649D02*
X127588072Y-57533649D01*
X127588072Y-57533649D02*
X127540453Y-57605078D01*
X127540453Y-57605078D02*
X127492834Y-57652697D01*
X127492834Y-57652697D02*
X127445215Y-57676506D01*
X131668071Y-58033649D02*
X131501405Y-57795554D01*
X131382357Y-58033649D02*
X131382357Y-57533649D01*
X131382357Y-57533649D02*
X131572833Y-57533649D01*
X131572833Y-57533649D02*
X131620452Y-57557459D01*
X131620452Y-57557459D02*
X131644262Y-57581268D01*
X131644262Y-57581268D02*
X131668071Y-57628887D01*
X131668071Y-57628887D02*
X131668071Y-57700316D01*
X131668071Y-57700316D02*
X131644262Y-57747935D01*
X131644262Y-57747935D02*
X131620452Y-57771744D01*
X131620452Y-57771744D02*
X131572833Y-57795554D01*
X131572833Y-57795554D02*
X131382357Y-57795554D01*
X132144262Y-58033649D02*
X131858548Y-58033649D01*
X132001405Y-58033649D02*
X132001405Y-57533649D01*
X132001405Y-57533649D02*
X131953786Y-57605078D01*
X131953786Y-57605078D02*
X131906167Y-57652697D01*
X131906167Y-57652697D02*
X131858548Y-57676506D01*
X132620452Y-58033649D02*
X132334738Y-58033649D01*
X132477595Y-58033649D02*
X132477595Y-57533649D01*
X132477595Y-57533649D02*
X132429976Y-57605078D01*
X132429976Y-57605078D02*
X132382357Y-57652697D01*
X132382357Y-57652697D02*
X132334738Y-57676506D01*
D13*
X56054819Y-113833333D02*
X56769104Y-113833333D01*
X56769104Y-113833333D02*
X56911961Y-113880952D01*
X56911961Y-113880952D02*
X57007200Y-113976190D01*
X57007200Y-113976190D02*
X57054819Y-114119047D01*
X57054819Y-114119047D02*
X57054819Y-114214285D01*
X56150057Y-113404761D02*
X56102438Y-113357142D01*
X56102438Y-113357142D02*
X56054819Y-113261904D01*
X56054819Y-113261904D02*
X56054819Y-113023809D01*
X56054819Y-113023809D02*
X56102438Y-112928571D01*
X56102438Y-112928571D02*
X56150057Y-112880952D01*
X56150057Y-112880952D02*
X56245295Y-112833333D01*
X56245295Y-112833333D02*
X56340533Y-112833333D01*
X56340533Y-112833333D02*
X56483390Y-112880952D01*
X56483390Y-112880952D02*
X57054819Y-113452380D01*
X57054819Y-113452380D02*
X57054819Y-112833333D01*
X55666666Y-127454819D02*
X55333333Y-126978628D01*
X55095238Y-127454819D02*
X55095238Y-126454819D01*
X55095238Y-126454819D02*
X55476190Y-126454819D01*
X55476190Y-126454819D02*
X55571428Y-126502438D01*
X55571428Y-126502438D02*
X55619047Y-126550057D01*
X55619047Y-126550057D02*
X55666666Y-126645295D01*
X55666666Y-126645295D02*
X55666666Y-126788152D01*
X55666666Y-126788152D02*
X55619047Y-126883390D01*
X55619047Y-126883390D02*
X55571428Y-126931009D01*
X55571428Y-126931009D02*
X55476190Y-126978628D01*
X55476190Y-126978628D02*
X55095238Y-126978628D01*
X56095238Y-126931009D02*
X56428571Y-126931009D01*
X56571428Y-127454819D02*
X56095238Y-127454819D01*
X56095238Y-127454819D02*
X56095238Y-126454819D01*
X56095238Y-126454819D02*
X56571428Y-126454819D01*
X57333333Y-126931009D02*
X57000000Y-126931009D01*
X57000000Y-127454819D02*
X57000000Y-126454819D01*
X57000000Y-126454819D02*
X57476190Y-126454819D01*
X58000000Y-126454819D02*
X58000000Y-126692914D01*
X57761905Y-126597676D02*
X58000000Y-126692914D01*
X58000000Y-126692914D02*
X58238095Y-126597676D01*
X57857143Y-126883390D02*
X58000000Y-126692914D01*
X58000000Y-126692914D02*
X58142857Y-126883390D01*
X58761905Y-126454819D02*
X58761905Y-126692914D01*
X58523810Y-126597676D02*
X58761905Y-126692914D01*
X58761905Y-126692914D02*
X59000000Y-126597676D01*
X58619048Y-126883390D02*
X58761905Y-126692914D01*
X58761905Y-126692914D02*
X58904762Y-126883390D01*
X70931009Y-117833333D02*
X70931009Y-118166666D01*
X71454819Y-118166666D02*
X70454819Y-118166666D01*
X70454819Y-118166666D02*
X70454819Y-117690476D01*
X71454819Y-116785714D02*
X71454819Y-117357142D01*
X71454819Y-117071428D02*
X70454819Y-117071428D01*
X70454819Y-117071428D02*
X70597676Y-117166666D01*
X70597676Y-117166666D02*
X70692914Y-117261904D01*
X70692914Y-117261904D02*
X70740533Y-117357142D01*
X64954819Y-85221904D02*
X65764342Y-85221904D01*
X65764342Y-85221904D02*
X65859580Y-85174285D01*
X65859580Y-85174285D02*
X65907200Y-85126666D01*
X65907200Y-85126666D02*
X65954819Y-85031428D01*
X65954819Y-85031428D02*
X65954819Y-84840952D01*
X65954819Y-84840952D02*
X65907200Y-84745714D01*
X65907200Y-84745714D02*
X65859580Y-84698095D01*
X65859580Y-84698095D02*
X65764342Y-84650476D01*
X65764342Y-84650476D02*
X64954819Y-84650476D01*
X64954819Y-84269523D02*
X64954819Y-83650476D01*
X64954819Y-83650476D02*
X65335771Y-83983809D01*
X65335771Y-83983809D02*
X65335771Y-83840952D01*
X65335771Y-83840952D02*
X65383390Y-83745714D01*
X65383390Y-83745714D02*
X65431009Y-83698095D01*
X65431009Y-83698095D02*
X65526247Y-83650476D01*
X65526247Y-83650476D02*
X65764342Y-83650476D01*
X65764342Y-83650476D02*
X65859580Y-83698095D01*
X65859580Y-83698095D02*
X65907200Y-83745714D01*
X65907200Y-83745714D02*
X65954819Y-83840952D01*
X65954819Y-83840952D02*
X65954819Y-84126666D01*
X65954819Y-84126666D02*
X65907200Y-84221904D01*
X65907200Y-84221904D02*
X65859580Y-84269523D01*
X122988571Y-114572319D02*
X122655238Y-114096128D01*
X122417143Y-114572319D02*
X122417143Y-113572319D01*
X122417143Y-113572319D02*
X122798095Y-113572319D01*
X122798095Y-113572319D02*
X122893333Y-113619938D01*
X122893333Y-113619938D02*
X122940952Y-113667557D01*
X122940952Y-113667557D02*
X122988571Y-113762795D01*
X122988571Y-113762795D02*
X122988571Y-113905652D01*
X122988571Y-113905652D02*
X122940952Y-114000890D01*
X122940952Y-114000890D02*
X122893333Y-114048509D01*
X122893333Y-114048509D02*
X122798095Y-114096128D01*
X122798095Y-114096128D02*
X122417143Y-114096128D01*
X123274286Y-113572319D02*
X123607619Y-114572319D01*
X123607619Y-114572319D02*
X123940952Y-113572319D01*
X124226667Y-113667557D02*
X124274286Y-113619938D01*
X124274286Y-113619938D02*
X124369524Y-113572319D01*
X124369524Y-113572319D02*
X124607619Y-113572319D01*
X124607619Y-113572319D02*
X124702857Y-113619938D01*
X124702857Y-113619938D02*
X124750476Y-113667557D01*
X124750476Y-113667557D02*
X124798095Y-113762795D01*
X124798095Y-113762795D02*
X124798095Y-113858033D01*
X124798095Y-113858033D02*
X124750476Y-114000890D01*
X124750476Y-114000890D02*
X124179048Y-114572319D01*
X124179048Y-114572319D02*
X124798095Y-114572319D01*
X125750476Y-114572319D02*
X125179048Y-114572319D01*
X125464762Y-114572319D02*
X125464762Y-113572319D01*
X125464762Y-113572319D02*
X125369524Y-113715176D01*
X125369524Y-113715176D02*
X125274286Y-113810414D01*
X125274286Y-113810414D02*
X125179048Y-113858033D01*
D14*
X197723571Y-61748649D02*
X197556905Y-61510554D01*
X197437857Y-61748649D02*
X197437857Y-61248649D01*
X197437857Y-61248649D02*
X197628333Y-61248649D01*
X197628333Y-61248649D02*
X197675952Y-61272459D01*
X197675952Y-61272459D02*
X197699762Y-61296268D01*
X197699762Y-61296268D02*
X197723571Y-61343887D01*
X197723571Y-61343887D02*
X197723571Y-61415316D01*
X197723571Y-61415316D02*
X197699762Y-61462935D01*
X197699762Y-61462935D02*
X197675952Y-61486744D01*
X197675952Y-61486744D02*
X197628333Y-61510554D01*
X197628333Y-61510554D02*
X197437857Y-61510554D01*
X198199762Y-61748649D02*
X197914048Y-61748649D01*
X198056905Y-61748649D02*
X198056905Y-61248649D01*
X198056905Y-61248649D02*
X198009286Y-61320078D01*
X198009286Y-61320078D02*
X197961667Y-61367697D01*
X197961667Y-61367697D02*
X197914048Y-61391506D01*
X198509285Y-61248649D02*
X198556904Y-61248649D01*
X198556904Y-61248649D02*
X198604523Y-61272459D01*
X198604523Y-61272459D02*
X198628333Y-61296268D01*
X198628333Y-61296268D02*
X198652142Y-61343887D01*
X198652142Y-61343887D02*
X198675952Y-61439125D01*
X198675952Y-61439125D02*
X198675952Y-61558173D01*
X198675952Y-61558173D02*
X198652142Y-61653411D01*
X198652142Y-61653411D02*
X198628333Y-61701030D01*
X198628333Y-61701030D02*
X198604523Y-61724840D01*
X198604523Y-61724840D02*
X198556904Y-61748649D01*
X198556904Y-61748649D02*
X198509285Y-61748649D01*
X198509285Y-61748649D02*
X198461666Y-61724840D01*
X198461666Y-61724840D02*
X198437857Y-61701030D01*
X198437857Y-61701030D02*
X198414047Y-61653411D01*
X198414047Y-61653411D02*
X198390238Y-61558173D01*
X198390238Y-61558173D02*
X198390238Y-61439125D01*
X198390238Y-61439125D02*
X198414047Y-61343887D01*
X198414047Y-61343887D02*
X198437857Y-61296268D01*
X198437857Y-61296268D02*
X198461666Y-61272459D01*
X198461666Y-61272459D02*
X198509285Y-61248649D01*
X202651071Y-107877030D02*
X202627262Y-107900840D01*
X202627262Y-107900840D02*
X202555833Y-107924649D01*
X202555833Y-107924649D02*
X202508214Y-107924649D01*
X202508214Y-107924649D02*
X202436786Y-107900840D01*
X202436786Y-107900840D02*
X202389167Y-107853220D01*
X202389167Y-107853220D02*
X202365357Y-107805601D01*
X202365357Y-107805601D02*
X202341548Y-107710363D01*
X202341548Y-107710363D02*
X202341548Y-107638935D01*
X202341548Y-107638935D02*
X202365357Y-107543697D01*
X202365357Y-107543697D02*
X202389167Y-107496078D01*
X202389167Y-107496078D02*
X202436786Y-107448459D01*
X202436786Y-107448459D02*
X202508214Y-107424649D01*
X202508214Y-107424649D02*
X202555833Y-107424649D01*
X202555833Y-107424649D02*
X202627262Y-107448459D01*
X202627262Y-107448459D02*
X202651071Y-107472268D01*
X202841548Y-107472268D02*
X202865357Y-107448459D01*
X202865357Y-107448459D02*
X202912976Y-107424649D01*
X202912976Y-107424649D02*
X203032024Y-107424649D01*
X203032024Y-107424649D02*
X203079643Y-107448459D01*
X203079643Y-107448459D02*
X203103452Y-107472268D01*
X203103452Y-107472268D02*
X203127262Y-107519887D01*
X203127262Y-107519887D02*
X203127262Y-107567506D01*
X203127262Y-107567506D02*
X203103452Y-107638935D01*
X203103452Y-107638935D02*
X202817738Y-107924649D01*
X202817738Y-107924649D02*
X203127262Y-107924649D01*
X203579642Y-107424649D02*
X203341547Y-107424649D01*
X203341547Y-107424649D02*
X203317738Y-107662744D01*
X203317738Y-107662744D02*
X203341547Y-107638935D01*
X203341547Y-107638935D02*
X203389166Y-107615125D01*
X203389166Y-107615125D02*
X203508214Y-107615125D01*
X203508214Y-107615125D02*
X203555833Y-107638935D01*
X203555833Y-107638935D02*
X203579642Y-107662744D01*
X203579642Y-107662744D02*
X203603452Y-107710363D01*
X203603452Y-107710363D02*
X203603452Y-107829411D01*
X203603452Y-107829411D02*
X203579642Y-107877030D01*
X203579642Y-107877030D02*
X203555833Y-107900840D01*
X203555833Y-107900840D02*
X203508214Y-107924649D01*
X203508214Y-107924649D02*
X203389166Y-107924649D01*
X203389166Y-107924649D02*
X203341547Y-107900840D01*
X203341547Y-107900840D02*
X203317738Y-107877030D01*
X93227149Y-71583333D02*
X92989054Y-71749999D01*
X93227149Y-71869047D02*
X92727149Y-71869047D01*
X92727149Y-71869047D02*
X92727149Y-71678571D01*
X92727149Y-71678571D02*
X92750959Y-71630952D01*
X92750959Y-71630952D02*
X92774768Y-71607142D01*
X92774768Y-71607142D02*
X92822387Y-71583333D01*
X92822387Y-71583333D02*
X92893816Y-71583333D01*
X92893816Y-71583333D02*
X92941435Y-71607142D01*
X92941435Y-71607142D02*
X92965244Y-71630952D01*
X92965244Y-71630952D02*
X92989054Y-71678571D01*
X92989054Y-71678571D02*
X92989054Y-71869047D01*
X93227149Y-71107142D02*
X93227149Y-71392856D01*
X93227149Y-71249999D02*
X92727149Y-71249999D01*
X92727149Y-71249999D02*
X92798578Y-71297618D01*
X92798578Y-71297618D02*
X92846197Y-71345237D01*
X92846197Y-71345237D02*
X92870006Y-71392856D01*
X162966166Y-54477649D02*
X162799500Y-54239554D01*
X162680452Y-54477649D02*
X162680452Y-53977649D01*
X162680452Y-53977649D02*
X162870928Y-53977649D01*
X162870928Y-53977649D02*
X162918547Y-54001459D01*
X162918547Y-54001459D02*
X162942357Y-54025268D01*
X162942357Y-54025268D02*
X162966166Y-54072887D01*
X162966166Y-54072887D02*
X162966166Y-54144316D01*
X162966166Y-54144316D02*
X162942357Y-54191935D01*
X162942357Y-54191935D02*
X162918547Y-54215744D01*
X162918547Y-54215744D02*
X162870928Y-54239554D01*
X162870928Y-54239554D02*
X162680452Y-54239554D01*
X163394738Y-54144316D02*
X163394738Y-54477649D01*
X163275690Y-53953840D02*
X163156643Y-54310982D01*
X163156643Y-54310982D02*
X163466166Y-54310982D01*
D15*
X129204976Y-70095355D02*
X129204976Y-70742974D01*
X129204976Y-70742974D02*
X129243071Y-70819164D01*
X129243071Y-70819164D02*
X129281166Y-70857260D01*
X129281166Y-70857260D02*
X129357357Y-70895355D01*
X129357357Y-70895355D02*
X129509738Y-70895355D01*
X129509738Y-70895355D02*
X129585928Y-70857260D01*
X129585928Y-70857260D02*
X129624023Y-70819164D01*
X129624023Y-70819164D02*
X129662119Y-70742974D01*
X129662119Y-70742974D02*
X129662119Y-70095355D01*
X130462118Y-70895355D02*
X130004975Y-70895355D01*
X130233547Y-70895355D02*
X130233547Y-70095355D01*
X130233547Y-70095355D02*
X130157356Y-70209640D01*
X130157356Y-70209640D02*
X130081166Y-70285831D01*
X130081166Y-70285831D02*
X130004975Y-70323926D01*
D13*
X119968095Y-103649938D02*
X119872857Y-103602319D01*
X119872857Y-103602319D02*
X119730000Y-103602319D01*
X119730000Y-103602319D02*
X119587143Y-103649938D01*
X119587143Y-103649938D02*
X119491905Y-103745176D01*
X119491905Y-103745176D02*
X119444286Y-103840414D01*
X119444286Y-103840414D02*
X119396667Y-104030890D01*
X119396667Y-104030890D02*
X119396667Y-104173747D01*
X119396667Y-104173747D02*
X119444286Y-104364223D01*
X119444286Y-104364223D02*
X119491905Y-104459461D01*
X119491905Y-104459461D02*
X119587143Y-104554700D01*
X119587143Y-104554700D02*
X119730000Y-104602319D01*
X119730000Y-104602319D02*
X119825238Y-104602319D01*
X119825238Y-104602319D02*
X119968095Y-104554700D01*
X119968095Y-104554700D02*
X120015714Y-104507080D01*
X120015714Y-104507080D02*
X120015714Y-104173747D01*
X120015714Y-104173747D02*
X119825238Y-104173747D01*
X120920476Y-103602319D02*
X120444286Y-103602319D01*
X120444286Y-103602319D02*
X120396667Y-104078509D01*
X120396667Y-104078509D02*
X120444286Y-104030890D01*
X120444286Y-104030890D02*
X120539524Y-103983271D01*
X120539524Y-103983271D02*
X120777619Y-103983271D01*
X120777619Y-103983271D02*
X120872857Y-104030890D01*
X120872857Y-104030890D02*
X120920476Y-104078509D01*
X120920476Y-104078509D02*
X120968095Y-104173747D01*
X120968095Y-104173747D02*
X120968095Y-104411842D01*
X120968095Y-104411842D02*
X120920476Y-104507080D01*
X120920476Y-104507080D02*
X120872857Y-104554700D01*
X120872857Y-104554700D02*
X120777619Y-104602319D01*
X120777619Y-104602319D02*
X120539524Y-104602319D01*
X120539524Y-104602319D02*
X120444286Y-104554700D01*
X120444286Y-104554700D02*
X120396667Y-104507080D01*
X121872857Y-104602319D02*
X121396667Y-104602319D01*
X121396667Y-104602319D02*
X121396667Y-103602319D01*
X122206191Y-104078509D02*
X122539524Y-104078509D01*
X122682381Y-104602319D02*
X122206191Y-104602319D01*
X122206191Y-104602319D02*
X122206191Y-103602319D01*
X122206191Y-103602319D02*
X122682381Y-103602319D01*
X123110953Y-104221366D02*
X123872858Y-104221366D01*
X124872857Y-104602319D02*
X124301429Y-104602319D01*
X124587143Y-104602319D02*
X124587143Y-103602319D01*
X124587143Y-103602319D02*
X124491905Y-103745176D01*
X124491905Y-103745176D02*
X124396667Y-103840414D01*
X124396667Y-103840414D02*
X124301429Y-103888033D01*
X125301429Y-104221366D02*
X126063334Y-104221366D01*
X126539524Y-104602319D02*
X126539524Y-103602319D01*
X126539524Y-103602319D02*
X126777619Y-103602319D01*
X126777619Y-103602319D02*
X126920476Y-103649938D01*
X126920476Y-103649938D02*
X127015714Y-103745176D01*
X127015714Y-103745176D02*
X127063333Y-103840414D01*
X127063333Y-103840414D02*
X127110952Y-104030890D01*
X127110952Y-104030890D02*
X127110952Y-104173747D01*
X127110952Y-104173747D02*
X127063333Y-104364223D01*
X127063333Y-104364223D02*
X127015714Y-104459461D01*
X127015714Y-104459461D02*
X126920476Y-104554700D01*
X126920476Y-104554700D02*
X126777619Y-104602319D01*
X126777619Y-104602319D02*
X126539524Y-104602319D01*
X128110952Y-104507080D02*
X128063333Y-104554700D01*
X128063333Y-104554700D02*
X127920476Y-104602319D01*
X127920476Y-104602319D02*
X127825238Y-104602319D01*
X127825238Y-104602319D02*
X127682381Y-104554700D01*
X127682381Y-104554700D02*
X127587143Y-104459461D01*
X127587143Y-104459461D02*
X127539524Y-104364223D01*
X127539524Y-104364223D02*
X127491905Y-104173747D01*
X127491905Y-104173747D02*
X127491905Y-104030890D01*
X127491905Y-104030890D02*
X127539524Y-103840414D01*
X127539524Y-103840414D02*
X127587143Y-103745176D01*
X127587143Y-103745176D02*
X127682381Y-103649938D01*
X127682381Y-103649938D02*
X127825238Y-103602319D01*
X127825238Y-103602319D02*
X127920476Y-103602319D01*
X127920476Y-103602319D02*
X128063333Y-103649938D01*
X128063333Y-103649938D02*
X128110952Y-103697557D01*
X129015714Y-103602319D02*
X128539524Y-103602319D01*
X128539524Y-103602319D02*
X128491905Y-104078509D01*
X128491905Y-104078509D02*
X128539524Y-104030890D01*
X128539524Y-104030890D02*
X128634762Y-103983271D01*
X128634762Y-103983271D02*
X128872857Y-103983271D01*
X128872857Y-103983271D02*
X128968095Y-104030890D01*
X128968095Y-104030890D02*
X129015714Y-104078509D01*
X129015714Y-104078509D02*
X129063333Y-104173747D01*
X129063333Y-104173747D02*
X129063333Y-104411842D01*
X129063333Y-104411842D02*
X129015714Y-104507080D01*
X129015714Y-104507080D02*
X128968095Y-104554700D01*
X128968095Y-104554700D02*
X128872857Y-104602319D01*
X128872857Y-104602319D02*
X128634762Y-104602319D01*
X128634762Y-104602319D02*
X128539524Y-104554700D01*
X128539524Y-104554700D02*
X128491905Y-104507080D01*
X123015714Y-92352319D02*
X123015714Y-91352319D01*
X123587142Y-92352319D02*
X123158571Y-91780890D01*
X123587142Y-91352319D02*
X123015714Y-91923747D01*
X123968095Y-91447557D02*
X124015714Y-91399938D01*
X124015714Y-91399938D02*
X124110952Y-91352319D01*
X124110952Y-91352319D02*
X124349047Y-91352319D01*
X124349047Y-91352319D02*
X124444285Y-91399938D01*
X124444285Y-91399938D02*
X124491904Y-91447557D01*
X124491904Y-91447557D02*
X124539523Y-91542795D01*
X124539523Y-91542795D02*
X124539523Y-91638033D01*
X124539523Y-91638033D02*
X124491904Y-91780890D01*
X124491904Y-91780890D02*
X123920476Y-92352319D01*
X123920476Y-92352319D02*
X124539523Y-92352319D01*
X125491904Y-92352319D02*
X124920476Y-92352319D01*
X125206190Y-92352319D02*
X125206190Y-91352319D01*
X125206190Y-91352319D02*
X125110952Y-91495176D01*
X125110952Y-91495176D02*
X125015714Y-91590414D01*
X125015714Y-91590414D02*
X124920476Y-91638033D01*
D14*
X126488571Y-107924649D02*
X126321905Y-107686554D01*
X126202857Y-107924649D02*
X126202857Y-107424649D01*
X126202857Y-107424649D02*
X126393333Y-107424649D01*
X126393333Y-107424649D02*
X126440952Y-107448459D01*
X126440952Y-107448459D02*
X126464762Y-107472268D01*
X126464762Y-107472268D02*
X126488571Y-107519887D01*
X126488571Y-107519887D02*
X126488571Y-107591316D01*
X126488571Y-107591316D02*
X126464762Y-107638935D01*
X126464762Y-107638935D02*
X126440952Y-107662744D01*
X126440952Y-107662744D02*
X126393333Y-107686554D01*
X126393333Y-107686554D02*
X126202857Y-107686554D01*
X126679048Y-107472268D02*
X126702857Y-107448459D01*
X126702857Y-107448459D02*
X126750476Y-107424649D01*
X126750476Y-107424649D02*
X126869524Y-107424649D01*
X126869524Y-107424649D02*
X126917143Y-107448459D01*
X126917143Y-107448459D02*
X126940952Y-107472268D01*
X126940952Y-107472268D02*
X126964762Y-107519887D01*
X126964762Y-107519887D02*
X126964762Y-107567506D01*
X126964762Y-107567506D02*
X126940952Y-107638935D01*
X126940952Y-107638935D02*
X126655238Y-107924649D01*
X126655238Y-107924649D02*
X126964762Y-107924649D01*
X127440952Y-107924649D02*
X127155238Y-107924649D01*
X127298095Y-107924649D02*
X127298095Y-107424649D01*
X127298095Y-107424649D02*
X127250476Y-107496078D01*
X127250476Y-107496078D02*
X127202857Y-107543697D01*
X127202857Y-107543697D02*
X127155238Y-107567506D01*
X121371071Y-107877030D02*
X121347262Y-107900840D01*
X121347262Y-107900840D02*
X121275833Y-107924649D01*
X121275833Y-107924649D02*
X121228214Y-107924649D01*
X121228214Y-107924649D02*
X121156786Y-107900840D01*
X121156786Y-107900840D02*
X121109167Y-107853220D01*
X121109167Y-107853220D02*
X121085357Y-107805601D01*
X121085357Y-107805601D02*
X121061548Y-107710363D01*
X121061548Y-107710363D02*
X121061548Y-107638935D01*
X121061548Y-107638935D02*
X121085357Y-107543697D01*
X121085357Y-107543697D02*
X121109167Y-107496078D01*
X121109167Y-107496078D02*
X121156786Y-107448459D01*
X121156786Y-107448459D02*
X121228214Y-107424649D01*
X121228214Y-107424649D02*
X121275833Y-107424649D01*
X121275833Y-107424649D02*
X121347262Y-107448459D01*
X121347262Y-107448459D02*
X121371071Y-107472268D01*
X121561548Y-107472268D02*
X121585357Y-107448459D01*
X121585357Y-107448459D02*
X121632976Y-107424649D01*
X121632976Y-107424649D02*
X121752024Y-107424649D01*
X121752024Y-107424649D02*
X121799643Y-107448459D01*
X121799643Y-107448459D02*
X121823452Y-107472268D01*
X121823452Y-107472268D02*
X121847262Y-107519887D01*
X121847262Y-107519887D02*
X121847262Y-107567506D01*
X121847262Y-107567506D02*
X121823452Y-107638935D01*
X121823452Y-107638935D02*
X121537738Y-107924649D01*
X121537738Y-107924649D02*
X121847262Y-107924649D01*
X122323452Y-107924649D02*
X122037738Y-107924649D01*
X122180595Y-107924649D02*
X122180595Y-107424649D01*
X122180595Y-107424649D02*
X122132976Y-107496078D01*
X122132976Y-107496078D02*
X122085357Y-107543697D01*
X122085357Y-107543697D02*
X122037738Y-107567506D01*
D13*
X104650476Y-121954819D02*
X104650476Y-122669104D01*
X104650476Y-122669104D02*
X104602857Y-122811961D01*
X104602857Y-122811961D02*
X104507619Y-122907200D01*
X104507619Y-122907200D02*
X104364762Y-122954819D01*
X104364762Y-122954819D02*
X104269524Y-122954819D01*
X105079048Y-122050057D02*
X105126667Y-122002438D01*
X105126667Y-122002438D02*
X105221905Y-121954819D01*
X105221905Y-121954819D02*
X105460000Y-121954819D01*
X105460000Y-121954819D02*
X105555238Y-122002438D01*
X105555238Y-122002438D02*
X105602857Y-122050057D01*
X105602857Y-122050057D02*
X105650476Y-122145295D01*
X105650476Y-122145295D02*
X105650476Y-122240533D01*
X105650476Y-122240533D02*
X105602857Y-122383390D01*
X105602857Y-122383390D02*
X105031429Y-122954819D01*
X105031429Y-122954819D02*
X105650476Y-122954819D01*
X106269524Y-121954819D02*
X106364762Y-121954819D01*
X106364762Y-121954819D02*
X106460000Y-122002438D01*
X106460000Y-122002438D02*
X106507619Y-122050057D01*
X106507619Y-122050057D02*
X106555238Y-122145295D01*
X106555238Y-122145295D02*
X106602857Y-122335771D01*
X106602857Y-122335771D02*
X106602857Y-122573866D01*
X106602857Y-122573866D02*
X106555238Y-122764342D01*
X106555238Y-122764342D02*
X106507619Y-122859580D01*
X106507619Y-122859580D02*
X106460000Y-122907200D01*
X106460000Y-122907200D02*
X106364762Y-122954819D01*
X106364762Y-122954819D02*
X106269524Y-122954819D01*
X106269524Y-122954819D02*
X106174286Y-122907200D01*
X106174286Y-122907200D02*
X106126667Y-122859580D01*
X106126667Y-122859580D02*
X106079048Y-122764342D01*
X106079048Y-122764342D02*
X106031429Y-122573866D01*
X106031429Y-122573866D02*
X106031429Y-122335771D01*
X106031429Y-122335771D02*
X106079048Y-122145295D01*
X106079048Y-122145295D02*
X106126667Y-122050057D01*
X106126667Y-122050057D02*
X106174286Y-122002438D01*
X106174286Y-122002438D02*
X106269524Y-121954819D01*
D14*
X187448571Y-107924649D02*
X187281905Y-107686554D01*
X187162857Y-107924649D02*
X187162857Y-107424649D01*
X187162857Y-107424649D02*
X187353333Y-107424649D01*
X187353333Y-107424649D02*
X187400952Y-107448459D01*
X187400952Y-107448459D02*
X187424762Y-107472268D01*
X187424762Y-107472268D02*
X187448571Y-107519887D01*
X187448571Y-107519887D02*
X187448571Y-107591316D01*
X187448571Y-107591316D02*
X187424762Y-107638935D01*
X187424762Y-107638935D02*
X187400952Y-107662744D01*
X187400952Y-107662744D02*
X187353333Y-107686554D01*
X187353333Y-107686554D02*
X187162857Y-107686554D01*
X187639048Y-107472268D02*
X187662857Y-107448459D01*
X187662857Y-107448459D02*
X187710476Y-107424649D01*
X187710476Y-107424649D02*
X187829524Y-107424649D01*
X187829524Y-107424649D02*
X187877143Y-107448459D01*
X187877143Y-107448459D02*
X187900952Y-107472268D01*
X187900952Y-107472268D02*
X187924762Y-107519887D01*
X187924762Y-107519887D02*
X187924762Y-107567506D01*
X187924762Y-107567506D02*
X187900952Y-107638935D01*
X187900952Y-107638935D02*
X187615238Y-107924649D01*
X187615238Y-107924649D02*
X187924762Y-107924649D01*
X188353333Y-107591316D02*
X188353333Y-107924649D01*
X188234285Y-107400840D02*
X188115238Y-107757982D01*
X188115238Y-107757982D02*
X188424761Y-107757982D01*
D13*
X203274476Y-121954819D02*
X203274476Y-122669104D01*
X203274476Y-122669104D02*
X203226857Y-122811961D01*
X203226857Y-122811961D02*
X203131619Y-122907200D01*
X203131619Y-122907200D02*
X202988762Y-122954819D01*
X202988762Y-122954819D02*
X202893524Y-122954819D01*
X203703048Y-122050057D02*
X203750667Y-122002438D01*
X203750667Y-122002438D02*
X203845905Y-121954819D01*
X203845905Y-121954819D02*
X204084000Y-121954819D01*
X204084000Y-121954819D02*
X204179238Y-122002438D01*
X204179238Y-122002438D02*
X204226857Y-122050057D01*
X204226857Y-122050057D02*
X204274476Y-122145295D01*
X204274476Y-122145295D02*
X204274476Y-122240533D01*
X204274476Y-122240533D02*
X204226857Y-122383390D01*
X204226857Y-122383390D02*
X203655429Y-122954819D01*
X203655429Y-122954819D02*
X204274476Y-122954819D01*
X205179238Y-121954819D02*
X204703048Y-121954819D01*
X204703048Y-121954819D02*
X204655429Y-122431009D01*
X204655429Y-122431009D02*
X204703048Y-122383390D01*
X204703048Y-122383390D02*
X204798286Y-122335771D01*
X204798286Y-122335771D02*
X205036381Y-122335771D01*
X205036381Y-122335771D02*
X205131619Y-122383390D01*
X205131619Y-122383390D02*
X205179238Y-122431009D01*
X205179238Y-122431009D02*
X205226857Y-122526247D01*
X205226857Y-122526247D02*
X205226857Y-122764342D01*
X205226857Y-122764342D02*
X205179238Y-122859580D01*
X205179238Y-122859580D02*
X205131619Y-122907200D01*
X205131619Y-122907200D02*
X205036381Y-122954819D01*
X205036381Y-122954819D02*
X204798286Y-122954819D01*
X204798286Y-122954819D02*
X204703048Y-122907200D01*
X204703048Y-122907200D02*
X204655429Y-122859580D01*
D14*
X126923166Y-63091030D02*
X126899357Y-63114840D01*
X126899357Y-63114840D02*
X126827928Y-63138649D01*
X126827928Y-63138649D02*
X126780309Y-63138649D01*
X126780309Y-63138649D02*
X126708881Y-63114840D01*
X126708881Y-63114840D02*
X126661262Y-63067220D01*
X126661262Y-63067220D02*
X126637452Y-63019601D01*
X126637452Y-63019601D02*
X126613643Y-62924363D01*
X126613643Y-62924363D02*
X126613643Y-62852935D01*
X126613643Y-62852935D02*
X126637452Y-62757697D01*
X126637452Y-62757697D02*
X126661262Y-62710078D01*
X126661262Y-62710078D02*
X126708881Y-62662459D01*
X126708881Y-62662459D02*
X126780309Y-62638649D01*
X126780309Y-62638649D02*
X126827928Y-62638649D01*
X126827928Y-62638649D02*
X126899357Y-62662459D01*
X126899357Y-62662459D02*
X126923166Y-62686268D01*
X127399357Y-63138649D02*
X127113643Y-63138649D01*
X127256500Y-63138649D02*
X127256500Y-62638649D01*
X127256500Y-62638649D02*
X127208881Y-62710078D01*
X127208881Y-62710078D02*
X127161262Y-62757697D01*
X127161262Y-62757697D02*
X127113643Y-62781506D01*
D13*
X184793166Y-56786319D02*
X184793166Y-57500604D01*
X184793166Y-57500604D02*
X184745547Y-57643461D01*
X184745547Y-57643461D02*
X184650309Y-57738700D01*
X184650309Y-57738700D02*
X184507452Y-57786319D01*
X184507452Y-57786319D02*
X184412214Y-57786319D01*
X185697928Y-56786319D02*
X185507452Y-56786319D01*
X185507452Y-56786319D02*
X185412214Y-56833938D01*
X185412214Y-56833938D02*
X185364595Y-56881557D01*
X185364595Y-56881557D02*
X185269357Y-57024414D01*
X185269357Y-57024414D02*
X185221738Y-57214890D01*
X185221738Y-57214890D02*
X185221738Y-57595842D01*
X185221738Y-57595842D02*
X185269357Y-57691080D01*
X185269357Y-57691080D02*
X185316976Y-57738700D01*
X185316976Y-57738700D02*
X185412214Y-57786319D01*
X185412214Y-57786319D02*
X185602690Y-57786319D01*
X185602690Y-57786319D02*
X185697928Y-57738700D01*
X185697928Y-57738700D02*
X185745547Y-57691080D01*
X185745547Y-57691080D02*
X185793166Y-57595842D01*
X185793166Y-57595842D02*
X185793166Y-57357747D01*
X185793166Y-57357747D02*
X185745547Y-57262509D01*
X185745547Y-57262509D02*
X185697928Y-57214890D01*
X185697928Y-57214890D02*
X185602690Y-57167271D01*
X185602690Y-57167271D02*
X185412214Y-57167271D01*
X185412214Y-57167271D02*
X185316976Y-57214890D01*
X185316976Y-57214890D02*
X185269357Y-57262509D01*
X185269357Y-57262509D02*
X185221738Y-57357747D01*
X201248095Y-103649938D02*
X201152857Y-103602319D01*
X201152857Y-103602319D02*
X201010000Y-103602319D01*
X201010000Y-103602319D02*
X200867143Y-103649938D01*
X200867143Y-103649938D02*
X200771905Y-103745176D01*
X200771905Y-103745176D02*
X200724286Y-103840414D01*
X200724286Y-103840414D02*
X200676667Y-104030890D01*
X200676667Y-104030890D02*
X200676667Y-104173747D01*
X200676667Y-104173747D02*
X200724286Y-104364223D01*
X200724286Y-104364223D02*
X200771905Y-104459461D01*
X200771905Y-104459461D02*
X200867143Y-104554700D01*
X200867143Y-104554700D02*
X201010000Y-104602319D01*
X201010000Y-104602319D02*
X201105238Y-104602319D01*
X201105238Y-104602319D02*
X201248095Y-104554700D01*
X201248095Y-104554700D02*
X201295714Y-104507080D01*
X201295714Y-104507080D02*
X201295714Y-104173747D01*
X201295714Y-104173747D02*
X201105238Y-104173747D01*
X202200476Y-103602319D02*
X201724286Y-103602319D01*
X201724286Y-103602319D02*
X201676667Y-104078509D01*
X201676667Y-104078509D02*
X201724286Y-104030890D01*
X201724286Y-104030890D02*
X201819524Y-103983271D01*
X201819524Y-103983271D02*
X202057619Y-103983271D01*
X202057619Y-103983271D02*
X202152857Y-104030890D01*
X202152857Y-104030890D02*
X202200476Y-104078509D01*
X202200476Y-104078509D02*
X202248095Y-104173747D01*
X202248095Y-104173747D02*
X202248095Y-104411842D01*
X202248095Y-104411842D02*
X202200476Y-104507080D01*
X202200476Y-104507080D02*
X202152857Y-104554700D01*
X202152857Y-104554700D02*
X202057619Y-104602319D01*
X202057619Y-104602319D02*
X201819524Y-104602319D01*
X201819524Y-104602319D02*
X201724286Y-104554700D01*
X201724286Y-104554700D02*
X201676667Y-104507080D01*
X203152857Y-104602319D02*
X202676667Y-104602319D01*
X202676667Y-104602319D02*
X202676667Y-103602319D01*
X203486191Y-104078509D02*
X203819524Y-104078509D01*
X203962381Y-104602319D02*
X203486191Y-104602319D01*
X203486191Y-104602319D02*
X203486191Y-103602319D01*
X203486191Y-103602319D02*
X203962381Y-103602319D01*
X204390953Y-104221366D02*
X205152858Y-104221366D01*
X206152857Y-104602319D02*
X205581429Y-104602319D01*
X205867143Y-104602319D02*
X205867143Y-103602319D01*
X205867143Y-103602319D02*
X205771905Y-103745176D01*
X205771905Y-103745176D02*
X205676667Y-103840414D01*
X205676667Y-103840414D02*
X205581429Y-103888033D01*
X206581429Y-104221366D02*
X207343334Y-104221366D01*
X207819524Y-104602319D02*
X207819524Y-103602319D01*
X207819524Y-103602319D02*
X208057619Y-103602319D01*
X208057619Y-103602319D02*
X208200476Y-103649938D01*
X208200476Y-103649938D02*
X208295714Y-103745176D01*
X208295714Y-103745176D02*
X208343333Y-103840414D01*
X208343333Y-103840414D02*
X208390952Y-104030890D01*
X208390952Y-104030890D02*
X208390952Y-104173747D01*
X208390952Y-104173747D02*
X208343333Y-104364223D01*
X208343333Y-104364223D02*
X208295714Y-104459461D01*
X208295714Y-104459461D02*
X208200476Y-104554700D01*
X208200476Y-104554700D02*
X208057619Y-104602319D01*
X208057619Y-104602319D02*
X207819524Y-104602319D01*
X209390952Y-104507080D02*
X209343333Y-104554700D01*
X209343333Y-104554700D02*
X209200476Y-104602319D01*
X209200476Y-104602319D02*
X209105238Y-104602319D01*
X209105238Y-104602319D02*
X208962381Y-104554700D01*
X208962381Y-104554700D02*
X208867143Y-104459461D01*
X208867143Y-104459461D02*
X208819524Y-104364223D01*
X208819524Y-104364223D02*
X208771905Y-104173747D01*
X208771905Y-104173747D02*
X208771905Y-104030890D01*
X208771905Y-104030890D02*
X208819524Y-103840414D01*
X208819524Y-103840414D02*
X208867143Y-103745176D01*
X208867143Y-103745176D02*
X208962381Y-103649938D01*
X208962381Y-103649938D02*
X209105238Y-103602319D01*
X209105238Y-103602319D02*
X209200476Y-103602319D01*
X209200476Y-103602319D02*
X209343333Y-103649938D01*
X209343333Y-103649938D02*
X209390952Y-103697557D01*
X210295714Y-103602319D02*
X209819524Y-103602319D01*
X209819524Y-103602319D02*
X209771905Y-104078509D01*
X209771905Y-104078509D02*
X209819524Y-104030890D01*
X209819524Y-104030890D02*
X209914762Y-103983271D01*
X209914762Y-103983271D02*
X210152857Y-103983271D01*
X210152857Y-103983271D02*
X210248095Y-104030890D01*
X210248095Y-104030890D02*
X210295714Y-104078509D01*
X210295714Y-104078509D02*
X210343333Y-104173747D01*
X210343333Y-104173747D02*
X210343333Y-104411842D01*
X210343333Y-104411842D02*
X210295714Y-104507080D01*
X210295714Y-104507080D02*
X210248095Y-104554700D01*
X210248095Y-104554700D02*
X210152857Y-104602319D01*
X210152857Y-104602319D02*
X209914762Y-104602319D01*
X209914762Y-104602319D02*
X209819524Y-104554700D01*
X209819524Y-104554700D02*
X209771905Y-104507080D01*
X204295714Y-92352319D02*
X204295714Y-91352319D01*
X204867142Y-92352319D02*
X204438571Y-91780890D01*
X204867142Y-91352319D02*
X204295714Y-91923747D01*
X205248095Y-91447557D02*
X205295714Y-91399938D01*
X205295714Y-91399938D02*
X205390952Y-91352319D01*
X205390952Y-91352319D02*
X205629047Y-91352319D01*
X205629047Y-91352319D02*
X205724285Y-91399938D01*
X205724285Y-91399938D02*
X205771904Y-91447557D01*
X205771904Y-91447557D02*
X205819523Y-91542795D01*
X205819523Y-91542795D02*
X205819523Y-91638033D01*
X205819523Y-91638033D02*
X205771904Y-91780890D01*
X205771904Y-91780890D02*
X205200476Y-92352319D01*
X205200476Y-92352319D02*
X205819523Y-92352319D01*
X206724285Y-91352319D02*
X206248095Y-91352319D01*
X206248095Y-91352319D02*
X206200476Y-91828509D01*
X206200476Y-91828509D02*
X206248095Y-91780890D01*
X206248095Y-91780890D02*
X206343333Y-91733271D01*
X206343333Y-91733271D02*
X206581428Y-91733271D01*
X206581428Y-91733271D02*
X206676666Y-91780890D01*
X206676666Y-91780890D02*
X206724285Y-91828509D01*
X206724285Y-91828509D02*
X206771904Y-91923747D01*
X206771904Y-91923747D02*
X206771904Y-92161842D01*
X206771904Y-92161842D02*
X206724285Y-92257080D01*
X206724285Y-92257080D02*
X206676666Y-92304700D01*
X206676666Y-92304700D02*
X206581428Y-92352319D01*
X206581428Y-92352319D02*
X206343333Y-92352319D01*
X206343333Y-92352319D02*
X206248095Y-92304700D01*
X206248095Y-92304700D02*
X206200476Y-92257080D01*
X169629167Y-53630200D02*
X169772024Y-53677819D01*
X169772024Y-53677819D02*
X170010119Y-53677819D01*
X170010119Y-53677819D02*
X170105357Y-53630200D01*
X170105357Y-53630200D02*
X170152976Y-53582580D01*
X170152976Y-53582580D02*
X170200595Y-53487342D01*
X170200595Y-53487342D02*
X170200595Y-53392104D01*
X170200595Y-53392104D02*
X170152976Y-53296866D01*
X170152976Y-53296866D02*
X170105357Y-53249247D01*
X170105357Y-53249247D02*
X170010119Y-53201628D01*
X170010119Y-53201628D02*
X169819643Y-53154009D01*
X169819643Y-53154009D02*
X169724405Y-53106390D01*
X169724405Y-53106390D02*
X169676786Y-53058771D01*
X169676786Y-53058771D02*
X169629167Y-52963533D01*
X169629167Y-52963533D02*
X169629167Y-52868295D01*
X169629167Y-52868295D02*
X169676786Y-52773057D01*
X169676786Y-52773057D02*
X169724405Y-52725438D01*
X169724405Y-52725438D02*
X169819643Y-52677819D01*
X169819643Y-52677819D02*
X170057738Y-52677819D01*
X170057738Y-52677819D02*
X170200595Y-52725438D01*
X170533929Y-52677819D02*
X170772024Y-53677819D01*
X170772024Y-53677819D02*
X170962500Y-52963533D01*
X170962500Y-52963533D02*
X171152976Y-53677819D01*
X171152976Y-53677819D02*
X171391072Y-52677819D01*
X172295833Y-53677819D02*
X171724405Y-53677819D01*
X172010119Y-53677819D02*
X172010119Y-52677819D01*
X172010119Y-52677819D02*
X171914881Y-52820676D01*
X171914881Y-52820676D02*
X171819643Y-52915914D01*
X171819643Y-52915914D02*
X171724405Y-52963533D01*
D14*
X197678571Y-56727149D02*
X197511905Y-56489054D01*
X197392857Y-56727149D02*
X197392857Y-56227149D01*
X197392857Y-56227149D02*
X197583333Y-56227149D01*
X197583333Y-56227149D02*
X197630952Y-56250959D01*
X197630952Y-56250959D02*
X197654762Y-56274768D01*
X197654762Y-56274768D02*
X197678571Y-56322387D01*
X197678571Y-56322387D02*
X197678571Y-56393816D01*
X197678571Y-56393816D02*
X197654762Y-56441435D01*
X197654762Y-56441435D02*
X197630952Y-56465244D01*
X197630952Y-56465244D02*
X197583333Y-56489054D01*
X197583333Y-56489054D02*
X197392857Y-56489054D01*
X198154762Y-56727149D02*
X197869048Y-56727149D01*
X198011905Y-56727149D02*
X198011905Y-56227149D01*
X198011905Y-56227149D02*
X197964286Y-56298578D01*
X197964286Y-56298578D02*
X197916667Y-56346197D01*
X197916667Y-56346197D02*
X197869048Y-56370006D01*
X198583333Y-56393816D02*
X198583333Y-56727149D01*
X198464285Y-56203340D02*
X198345238Y-56560482D01*
X198345238Y-56560482D02*
X198654761Y-56560482D01*
X162011071Y-107877030D02*
X161987262Y-107900840D01*
X161987262Y-107900840D02*
X161915833Y-107924649D01*
X161915833Y-107924649D02*
X161868214Y-107924649D01*
X161868214Y-107924649D02*
X161796786Y-107900840D01*
X161796786Y-107900840D02*
X161749167Y-107853220D01*
X161749167Y-107853220D02*
X161725357Y-107805601D01*
X161725357Y-107805601D02*
X161701548Y-107710363D01*
X161701548Y-107710363D02*
X161701548Y-107638935D01*
X161701548Y-107638935D02*
X161725357Y-107543697D01*
X161725357Y-107543697D02*
X161749167Y-107496078D01*
X161749167Y-107496078D02*
X161796786Y-107448459D01*
X161796786Y-107448459D02*
X161868214Y-107424649D01*
X161868214Y-107424649D02*
X161915833Y-107424649D01*
X161915833Y-107424649D02*
X161987262Y-107448459D01*
X161987262Y-107448459D02*
X162011071Y-107472268D01*
X162201548Y-107472268D02*
X162225357Y-107448459D01*
X162225357Y-107448459D02*
X162272976Y-107424649D01*
X162272976Y-107424649D02*
X162392024Y-107424649D01*
X162392024Y-107424649D02*
X162439643Y-107448459D01*
X162439643Y-107448459D02*
X162463452Y-107472268D01*
X162463452Y-107472268D02*
X162487262Y-107519887D01*
X162487262Y-107519887D02*
X162487262Y-107567506D01*
X162487262Y-107567506D02*
X162463452Y-107638935D01*
X162463452Y-107638935D02*
X162177738Y-107924649D01*
X162177738Y-107924649D02*
X162487262Y-107924649D01*
X162653928Y-107424649D02*
X162963452Y-107424649D01*
X162963452Y-107424649D02*
X162796785Y-107615125D01*
X162796785Y-107615125D02*
X162868214Y-107615125D01*
X162868214Y-107615125D02*
X162915833Y-107638935D01*
X162915833Y-107638935D02*
X162939642Y-107662744D01*
X162939642Y-107662744D02*
X162963452Y-107710363D01*
X162963452Y-107710363D02*
X162963452Y-107829411D01*
X162963452Y-107829411D02*
X162939642Y-107877030D01*
X162939642Y-107877030D02*
X162915833Y-107900840D01*
X162915833Y-107900840D02*
X162868214Y-107924649D01*
X162868214Y-107924649D02*
X162725357Y-107924649D01*
X162725357Y-107924649D02*
X162677738Y-107900840D01*
X162677738Y-107900840D02*
X162653928Y-107877030D01*
X207768571Y-107924649D02*
X207601905Y-107686554D01*
X207482857Y-107924649D02*
X207482857Y-107424649D01*
X207482857Y-107424649D02*
X207673333Y-107424649D01*
X207673333Y-107424649D02*
X207720952Y-107448459D01*
X207720952Y-107448459D02*
X207744762Y-107472268D01*
X207744762Y-107472268D02*
X207768571Y-107519887D01*
X207768571Y-107519887D02*
X207768571Y-107591316D01*
X207768571Y-107591316D02*
X207744762Y-107638935D01*
X207744762Y-107638935D02*
X207720952Y-107662744D01*
X207720952Y-107662744D02*
X207673333Y-107686554D01*
X207673333Y-107686554D02*
X207482857Y-107686554D01*
X207959048Y-107472268D02*
X207982857Y-107448459D01*
X207982857Y-107448459D02*
X208030476Y-107424649D01*
X208030476Y-107424649D02*
X208149524Y-107424649D01*
X208149524Y-107424649D02*
X208197143Y-107448459D01*
X208197143Y-107448459D02*
X208220952Y-107472268D01*
X208220952Y-107472268D02*
X208244762Y-107519887D01*
X208244762Y-107519887D02*
X208244762Y-107567506D01*
X208244762Y-107567506D02*
X208220952Y-107638935D01*
X208220952Y-107638935D02*
X207935238Y-107924649D01*
X207935238Y-107924649D02*
X208244762Y-107924649D01*
X208697142Y-107424649D02*
X208459047Y-107424649D01*
X208459047Y-107424649D02*
X208435238Y-107662744D01*
X208435238Y-107662744D02*
X208459047Y-107638935D01*
X208459047Y-107638935D02*
X208506666Y-107615125D01*
X208506666Y-107615125D02*
X208625714Y-107615125D01*
X208625714Y-107615125D02*
X208673333Y-107638935D01*
X208673333Y-107638935D02*
X208697142Y-107662744D01*
X208697142Y-107662744D02*
X208720952Y-107710363D01*
X208720952Y-107710363D02*
X208720952Y-107829411D01*
X208720952Y-107829411D02*
X208697142Y-107877030D01*
X208697142Y-107877030D02*
X208673333Y-107900840D01*
X208673333Y-107900840D02*
X208625714Y-107924649D01*
X208625714Y-107924649D02*
X208506666Y-107924649D01*
X208506666Y-107924649D02*
X208459047Y-107900840D01*
X208459047Y-107900840D02*
X208435238Y-107877030D01*
D13*
X185930476Y-121954819D02*
X185930476Y-122669104D01*
X185930476Y-122669104D02*
X185882857Y-122811961D01*
X185882857Y-122811961D02*
X185787619Y-122907200D01*
X185787619Y-122907200D02*
X185644762Y-122954819D01*
X185644762Y-122954819D02*
X185549524Y-122954819D01*
X186359048Y-122050057D02*
X186406667Y-122002438D01*
X186406667Y-122002438D02*
X186501905Y-121954819D01*
X186501905Y-121954819D02*
X186740000Y-121954819D01*
X186740000Y-121954819D02*
X186835238Y-122002438D01*
X186835238Y-122002438D02*
X186882857Y-122050057D01*
X186882857Y-122050057D02*
X186930476Y-122145295D01*
X186930476Y-122145295D02*
X186930476Y-122240533D01*
X186930476Y-122240533D02*
X186882857Y-122383390D01*
X186882857Y-122383390D02*
X186311429Y-122954819D01*
X186311429Y-122954819D02*
X186930476Y-122954819D01*
X187787619Y-122288152D02*
X187787619Y-122954819D01*
X187549524Y-121907200D02*
X187311429Y-122621485D01*
X187311429Y-122621485D02*
X187930476Y-122621485D01*
D14*
X126469976Y-52953649D02*
X126231881Y-52953649D01*
X126231881Y-52953649D02*
X126231881Y-52453649D01*
X126636643Y-52691744D02*
X126803310Y-52691744D01*
X126874738Y-52953649D02*
X126636643Y-52953649D01*
X126636643Y-52953649D02*
X126636643Y-52453649D01*
X126636643Y-52453649D02*
X126874738Y-52453649D01*
X127089024Y-52953649D02*
X127089024Y-52453649D01*
X127089024Y-52453649D02*
X127208072Y-52453649D01*
X127208072Y-52453649D02*
X127279500Y-52477459D01*
X127279500Y-52477459D02*
X127327119Y-52525078D01*
X127327119Y-52525078D02*
X127350929Y-52572697D01*
X127350929Y-52572697D02*
X127374738Y-52667935D01*
X127374738Y-52667935D02*
X127374738Y-52739363D01*
X127374738Y-52739363D02*
X127350929Y-52834601D01*
X127350929Y-52834601D02*
X127327119Y-52882220D01*
X127327119Y-52882220D02*
X127279500Y-52929840D01*
X127279500Y-52929840D02*
X127208072Y-52953649D01*
X127208072Y-52953649D02*
X127089024Y-52953649D01*
X127565215Y-52501268D02*
X127589024Y-52477459D01*
X127589024Y-52477459D02*
X127636643Y-52453649D01*
X127636643Y-52453649D02*
X127755691Y-52453649D01*
X127755691Y-52453649D02*
X127803310Y-52477459D01*
X127803310Y-52477459D02*
X127827119Y-52501268D01*
X127827119Y-52501268D02*
X127850929Y-52548887D01*
X127850929Y-52548887D02*
X127850929Y-52596506D01*
X127850929Y-52596506D02*
X127827119Y-52667935D01*
X127827119Y-52667935D02*
X127541405Y-52953649D01*
X127541405Y-52953649D02*
X127850929Y-52953649D01*
D13*
X169574167Y-57705700D02*
X169717024Y-57753319D01*
X169717024Y-57753319D02*
X169955119Y-57753319D01*
X169955119Y-57753319D02*
X170050357Y-57705700D01*
X170050357Y-57705700D02*
X170097976Y-57658080D01*
X170097976Y-57658080D02*
X170145595Y-57562842D01*
X170145595Y-57562842D02*
X170145595Y-57467604D01*
X170145595Y-57467604D02*
X170097976Y-57372366D01*
X170097976Y-57372366D02*
X170050357Y-57324747D01*
X170050357Y-57324747D02*
X169955119Y-57277128D01*
X169955119Y-57277128D02*
X169764643Y-57229509D01*
X169764643Y-57229509D02*
X169669405Y-57181890D01*
X169669405Y-57181890D02*
X169621786Y-57134271D01*
X169621786Y-57134271D02*
X169574167Y-57039033D01*
X169574167Y-57039033D02*
X169574167Y-56943795D01*
X169574167Y-56943795D02*
X169621786Y-56848557D01*
X169621786Y-56848557D02*
X169669405Y-56800938D01*
X169669405Y-56800938D02*
X169764643Y-56753319D01*
X169764643Y-56753319D02*
X170002738Y-56753319D01*
X170002738Y-56753319D02*
X170145595Y-56800938D01*
X170478929Y-56753319D02*
X170717024Y-57753319D01*
X170717024Y-57753319D02*
X170907500Y-57039033D01*
X170907500Y-57039033D02*
X171097976Y-57753319D01*
X171097976Y-57753319D02*
X171336072Y-56753319D01*
X171669405Y-56848557D02*
X171717024Y-56800938D01*
X171717024Y-56800938D02*
X171812262Y-56753319D01*
X171812262Y-56753319D02*
X172050357Y-56753319D01*
X172050357Y-56753319D02*
X172145595Y-56800938D01*
X172145595Y-56800938D02*
X172193214Y-56848557D01*
X172193214Y-56848557D02*
X172240833Y-56943795D01*
X172240833Y-56943795D02*
X172240833Y-57039033D01*
X172240833Y-57039033D02*
X172193214Y-57181890D01*
X172193214Y-57181890D02*
X171621786Y-57753319D01*
X171621786Y-57753319D02*
X172240833Y-57753319D01*
D14*
X97227149Y-71583333D02*
X96989054Y-71749999D01*
X97227149Y-71869047D02*
X96727149Y-71869047D01*
X96727149Y-71869047D02*
X96727149Y-71678571D01*
X96727149Y-71678571D02*
X96750959Y-71630952D01*
X96750959Y-71630952D02*
X96774768Y-71607142D01*
X96774768Y-71607142D02*
X96822387Y-71583333D01*
X96822387Y-71583333D02*
X96893816Y-71583333D01*
X96893816Y-71583333D02*
X96941435Y-71607142D01*
X96941435Y-71607142D02*
X96965244Y-71630952D01*
X96965244Y-71630952D02*
X96989054Y-71678571D01*
X96989054Y-71678571D02*
X96989054Y-71869047D01*
X96774768Y-71392856D02*
X96750959Y-71369047D01*
X96750959Y-71369047D02*
X96727149Y-71321428D01*
X96727149Y-71321428D02*
X96727149Y-71202380D01*
X96727149Y-71202380D02*
X96750959Y-71154761D01*
X96750959Y-71154761D02*
X96774768Y-71130952D01*
X96774768Y-71130952D02*
X96822387Y-71107142D01*
X96822387Y-71107142D02*
X96870006Y-71107142D01*
X96870006Y-71107142D02*
X96941435Y-71130952D01*
X96941435Y-71130952D02*
X97227149Y-71416666D01*
X97227149Y-71416666D02*
X97227149Y-71107142D01*
D13*
X113738095Y-71806819D02*
X114309523Y-71806819D01*
X114023809Y-72806819D02*
X114023809Y-71806819D01*
X114642857Y-72806819D02*
X114642857Y-71806819D01*
X114642857Y-71806819D02*
X115023809Y-71806819D01*
X115023809Y-71806819D02*
X115119047Y-71854438D01*
X115119047Y-71854438D02*
X115166666Y-71902057D01*
X115166666Y-71902057D02*
X115214285Y-71997295D01*
X115214285Y-71997295D02*
X115214285Y-72140152D01*
X115214285Y-72140152D02*
X115166666Y-72235390D01*
X115166666Y-72235390D02*
X115119047Y-72283009D01*
X115119047Y-72283009D02*
X115023809Y-72330628D01*
X115023809Y-72330628D02*
X114642857Y-72330628D01*
X115547619Y-71806819D02*
X116166666Y-71806819D01*
X116166666Y-71806819D02*
X115833333Y-72187771D01*
X115833333Y-72187771D02*
X115976190Y-72187771D01*
X115976190Y-72187771D02*
X116071428Y-72235390D01*
X116071428Y-72235390D02*
X116119047Y-72283009D01*
X116119047Y-72283009D02*
X116166666Y-72378247D01*
X116166666Y-72378247D02*
X116166666Y-72616342D01*
X116166666Y-72616342D02*
X116119047Y-72711580D01*
X116119047Y-72711580D02*
X116071428Y-72759200D01*
X116071428Y-72759200D02*
X115976190Y-72806819D01*
X115976190Y-72806819D02*
X115690476Y-72806819D01*
X115690476Y-72806819D02*
X115595238Y-72759200D01*
X115595238Y-72759200D02*
X115547619Y-72711580D01*
X113738095Y-71804819D02*
X114309523Y-71804819D01*
X114023809Y-72804819D02*
X114023809Y-71804819D01*
X114642857Y-72804819D02*
X114642857Y-71804819D01*
X114642857Y-71804819D02*
X115023809Y-71804819D01*
X115023809Y-71804819D02*
X115119047Y-71852438D01*
X115119047Y-71852438D02*
X115166666Y-71900057D01*
X115166666Y-71900057D02*
X115214285Y-71995295D01*
X115214285Y-71995295D02*
X115214285Y-72138152D01*
X115214285Y-72138152D02*
X115166666Y-72233390D01*
X115166666Y-72233390D02*
X115119047Y-72281009D01*
X115119047Y-72281009D02*
X115023809Y-72328628D01*
X115023809Y-72328628D02*
X114642857Y-72328628D01*
X115547619Y-71804819D02*
X116166666Y-71804819D01*
X116166666Y-71804819D02*
X115833333Y-72185771D01*
X115833333Y-72185771D02*
X115976190Y-72185771D01*
X115976190Y-72185771D02*
X116071428Y-72233390D01*
X116071428Y-72233390D02*
X116119047Y-72281009D01*
X116119047Y-72281009D02*
X116166666Y-72376247D01*
X116166666Y-72376247D02*
X116166666Y-72614342D01*
X116166666Y-72614342D02*
X116119047Y-72709580D01*
X116119047Y-72709580D02*
X116071428Y-72757200D01*
X116071428Y-72757200D02*
X115976190Y-72804819D01*
X115976190Y-72804819D02*
X115690476Y-72804819D01*
X115690476Y-72804819D02*
X115595238Y-72757200D01*
X115595238Y-72757200D02*
X115547619Y-72709580D01*
X163628571Y-114572319D02*
X163295238Y-114096128D01*
X163057143Y-114572319D02*
X163057143Y-113572319D01*
X163057143Y-113572319D02*
X163438095Y-113572319D01*
X163438095Y-113572319D02*
X163533333Y-113619938D01*
X163533333Y-113619938D02*
X163580952Y-113667557D01*
X163580952Y-113667557D02*
X163628571Y-113762795D01*
X163628571Y-113762795D02*
X163628571Y-113905652D01*
X163628571Y-113905652D02*
X163580952Y-114000890D01*
X163580952Y-114000890D02*
X163533333Y-114048509D01*
X163533333Y-114048509D02*
X163438095Y-114096128D01*
X163438095Y-114096128D02*
X163057143Y-114096128D01*
X163914286Y-113572319D02*
X164247619Y-114572319D01*
X164247619Y-114572319D02*
X164580952Y-113572319D01*
X164866667Y-113667557D02*
X164914286Y-113619938D01*
X164914286Y-113619938D02*
X165009524Y-113572319D01*
X165009524Y-113572319D02*
X165247619Y-113572319D01*
X165247619Y-113572319D02*
X165342857Y-113619938D01*
X165342857Y-113619938D02*
X165390476Y-113667557D01*
X165390476Y-113667557D02*
X165438095Y-113762795D01*
X165438095Y-113762795D02*
X165438095Y-113858033D01*
X165438095Y-113858033D02*
X165390476Y-114000890D01*
X165390476Y-114000890D02*
X164819048Y-114572319D01*
X164819048Y-114572319D02*
X165438095Y-114572319D01*
X165771429Y-113572319D02*
X166390476Y-113572319D01*
X166390476Y-113572319D02*
X166057143Y-113953271D01*
X166057143Y-113953271D02*
X166200000Y-113953271D01*
X166200000Y-113953271D02*
X166295238Y-114000890D01*
X166295238Y-114000890D02*
X166342857Y-114048509D01*
X166342857Y-114048509D02*
X166390476Y-114143747D01*
X166390476Y-114143747D02*
X166390476Y-114381842D01*
X166390476Y-114381842D02*
X166342857Y-114477080D01*
X166342857Y-114477080D02*
X166295238Y-114524700D01*
X166295238Y-114524700D02*
X166200000Y-114572319D01*
X166200000Y-114572319D02*
X165914286Y-114572319D01*
X165914286Y-114572319D02*
X165819048Y-114524700D01*
X165819048Y-114524700D02*
X165771429Y-114477080D01*
X82931009Y-60933333D02*
X82931009Y-61266666D01*
X83454819Y-61266666D02*
X82454819Y-61266666D01*
X82454819Y-61266666D02*
X82454819Y-60790476D01*
X82550057Y-60457142D02*
X82502438Y-60409523D01*
X82502438Y-60409523D02*
X82454819Y-60314285D01*
X82454819Y-60314285D02*
X82454819Y-60076190D01*
X82454819Y-60076190D02*
X82502438Y-59980952D01*
X82502438Y-59980952D02*
X82550057Y-59933333D01*
X82550057Y-59933333D02*
X82645295Y-59885714D01*
X82645295Y-59885714D02*
X82740533Y-59885714D01*
X82740533Y-59885714D02*
X82883390Y-59933333D01*
X82883390Y-59933333D02*
X83454819Y-60504761D01*
X83454819Y-60504761D02*
X83454819Y-59885714D01*
X140288095Y-103649938D02*
X140192857Y-103602319D01*
X140192857Y-103602319D02*
X140050000Y-103602319D01*
X140050000Y-103602319D02*
X139907143Y-103649938D01*
X139907143Y-103649938D02*
X139811905Y-103745176D01*
X139811905Y-103745176D02*
X139764286Y-103840414D01*
X139764286Y-103840414D02*
X139716667Y-104030890D01*
X139716667Y-104030890D02*
X139716667Y-104173747D01*
X139716667Y-104173747D02*
X139764286Y-104364223D01*
X139764286Y-104364223D02*
X139811905Y-104459461D01*
X139811905Y-104459461D02*
X139907143Y-104554700D01*
X139907143Y-104554700D02*
X140050000Y-104602319D01*
X140050000Y-104602319D02*
X140145238Y-104602319D01*
X140145238Y-104602319D02*
X140288095Y-104554700D01*
X140288095Y-104554700D02*
X140335714Y-104507080D01*
X140335714Y-104507080D02*
X140335714Y-104173747D01*
X140335714Y-104173747D02*
X140145238Y-104173747D01*
X141240476Y-103602319D02*
X140764286Y-103602319D01*
X140764286Y-103602319D02*
X140716667Y-104078509D01*
X140716667Y-104078509D02*
X140764286Y-104030890D01*
X140764286Y-104030890D02*
X140859524Y-103983271D01*
X140859524Y-103983271D02*
X141097619Y-103983271D01*
X141097619Y-103983271D02*
X141192857Y-104030890D01*
X141192857Y-104030890D02*
X141240476Y-104078509D01*
X141240476Y-104078509D02*
X141288095Y-104173747D01*
X141288095Y-104173747D02*
X141288095Y-104411842D01*
X141288095Y-104411842D02*
X141240476Y-104507080D01*
X141240476Y-104507080D02*
X141192857Y-104554700D01*
X141192857Y-104554700D02*
X141097619Y-104602319D01*
X141097619Y-104602319D02*
X140859524Y-104602319D01*
X140859524Y-104602319D02*
X140764286Y-104554700D01*
X140764286Y-104554700D02*
X140716667Y-104507080D01*
X142192857Y-104602319D02*
X141716667Y-104602319D01*
X141716667Y-104602319D02*
X141716667Y-103602319D01*
X142526191Y-104078509D02*
X142859524Y-104078509D01*
X143002381Y-104602319D02*
X142526191Y-104602319D01*
X142526191Y-104602319D02*
X142526191Y-103602319D01*
X142526191Y-103602319D02*
X143002381Y-103602319D01*
X143430953Y-104221366D02*
X144192858Y-104221366D01*
X145192857Y-104602319D02*
X144621429Y-104602319D01*
X144907143Y-104602319D02*
X144907143Y-103602319D01*
X144907143Y-103602319D02*
X144811905Y-103745176D01*
X144811905Y-103745176D02*
X144716667Y-103840414D01*
X144716667Y-103840414D02*
X144621429Y-103888033D01*
X145621429Y-104221366D02*
X146383334Y-104221366D01*
X146859524Y-104602319D02*
X146859524Y-103602319D01*
X146859524Y-103602319D02*
X147097619Y-103602319D01*
X147097619Y-103602319D02*
X147240476Y-103649938D01*
X147240476Y-103649938D02*
X147335714Y-103745176D01*
X147335714Y-103745176D02*
X147383333Y-103840414D01*
X147383333Y-103840414D02*
X147430952Y-104030890D01*
X147430952Y-104030890D02*
X147430952Y-104173747D01*
X147430952Y-104173747D02*
X147383333Y-104364223D01*
X147383333Y-104364223D02*
X147335714Y-104459461D01*
X147335714Y-104459461D02*
X147240476Y-104554700D01*
X147240476Y-104554700D02*
X147097619Y-104602319D01*
X147097619Y-104602319D02*
X146859524Y-104602319D01*
X148430952Y-104507080D02*
X148383333Y-104554700D01*
X148383333Y-104554700D02*
X148240476Y-104602319D01*
X148240476Y-104602319D02*
X148145238Y-104602319D01*
X148145238Y-104602319D02*
X148002381Y-104554700D01*
X148002381Y-104554700D02*
X147907143Y-104459461D01*
X147907143Y-104459461D02*
X147859524Y-104364223D01*
X147859524Y-104364223D02*
X147811905Y-104173747D01*
X147811905Y-104173747D02*
X147811905Y-104030890D01*
X147811905Y-104030890D02*
X147859524Y-103840414D01*
X147859524Y-103840414D02*
X147907143Y-103745176D01*
X147907143Y-103745176D02*
X148002381Y-103649938D01*
X148002381Y-103649938D02*
X148145238Y-103602319D01*
X148145238Y-103602319D02*
X148240476Y-103602319D01*
X148240476Y-103602319D02*
X148383333Y-103649938D01*
X148383333Y-103649938D02*
X148430952Y-103697557D01*
X149335714Y-103602319D02*
X148859524Y-103602319D01*
X148859524Y-103602319D02*
X148811905Y-104078509D01*
X148811905Y-104078509D02*
X148859524Y-104030890D01*
X148859524Y-104030890D02*
X148954762Y-103983271D01*
X148954762Y-103983271D02*
X149192857Y-103983271D01*
X149192857Y-103983271D02*
X149288095Y-104030890D01*
X149288095Y-104030890D02*
X149335714Y-104078509D01*
X149335714Y-104078509D02*
X149383333Y-104173747D01*
X149383333Y-104173747D02*
X149383333Y-104411842D01*
X149383333Y-104411842D02*
X149335714Y-104507080D01*
X149335714Y-104507080D02*
X149288095Y-104554700D01*
X149288095Y-104554700D02*
X149192857Y-104602319D01*
X149192857Y-104602319D02*
X148954762Y-104602319D01*
X148954762Y-104602319D02*
X148859524Y-104554700D01*
X148859524Y-104554700D02*
X148811905Y-104507080D01*
X143335714Y-92352319D02*
X143335714Y-91352319D01*
X143907142Y-92352319D02*
X143478571Y-91780890D01*
X143907142Y-91352319D02*
X143335714Y-91923747D01*
X144288095Y-91447557D02*
X144335714Y-91399938D01*
X144335714Y-91399938D02*
X144430952Y-91352319D01*
X144430952Y-91352319D02*
X144669047Y-91352319D01*
X144669047Y-91352319D02*
X144764285Y-91399938D01*
X144764285Y-91399938D02*
X144811904Y-91447557D01*
X144811904Y-91447557D02*
X144859523Y-91542795D01*
X144859523Y-91542795D02*
X144859523Y-91638033D01*
X144859523Y-91638033D02*
X144811904Y-91780890D01*
X144811904Y-91780890D02*
X144240476Y-92352319D01*
X144240476Y-92352319D02*
X144859523Y-92352319D01*
X145240476Y-91447557D02*
X145288095Y-91399938D01*
X145288095Y-91399938D02*
X145383333Y-91352319D01*
X145383333Y-91352319D02*
X145621428Y-91352319D01*
X145621428Y-91352319D02*
X145716666Y-91399938D01*
X145716666Y-91399938D02*
X145764285Y-91447557D01*
X145764285Y-91447557D02*
X145811904Y-91542795D01*
X145811904Y-91542795D02*
X145811904Y-91638033D01*
X145811904Y-91638033D02*
X145764285Y-91780890D01*
X145764285Y-91780890D02*
X145192857Y-92352319D01*
X145192857Y-92352319D02*
X145811904Y-92352319D01*
D14*
X197874166Y-59248649D02*
X197707500Y-59010554D01*
X197588452Y-59248649D02*
X197588452Y-58748649D01*
X197588452Y-58748649D02*
X197778928Y-58748649D01*
X197778928Y-58748649D02*
X197826547Y-58772459D01*
X197826547Y-58772459D02*
X197850357Y-58796268D01*
X197850357Y-58796268D02*
X197874166Y-58843887D01*
X197874166Y-58843887D02*
X197874166Y-58915316D01*
X197874166Y-58915316D02*
X197850357Y-58962935D01*
X197850357Y-58962935D02*
X197826547Y-58986744D01*
X197826547Y-58986744D02*
X197778928Y-59010554D01*
X197778928Y-59010554D02*
X197588452Y-59010554D01*
X198112262Y-59248649D02*
X198207500Y-59248649D01*
X198207500Y-59248649D02*
X198255119Y-59224840D01*
X198255119Y-59224840D02*
X198278928Y-59201030D01*
X198278928Y-59201030D02*
X198326547Y-59129601D01*
X198326547Y-59129601D02*
X198350357Y-59034363D01*
X198350357Y-59034363D02*
X198350357Y-58843887D01*
X198350357Y-58843887D02*
X198326547Y-58796268D01*
X198326547Y-58796268D02*
X198302738Y-58772459D01*
X198302738Y-58772459D02*
X198255119Y-58748649D01*
X198255119Y-58748649D02*
X198159881Y-58748649D01*
X198159881Y-58748649D02*
X198112262Y-58772459D01*
X198112262Y-58772459D02*
X198088452Y-58796268D01*
X198088452Y-58796268D02*
X198064643Y-58843887D01*
X198064643Y-58843887D02*
X198064643Y-58962935D01*
X198064643Y-58962935D02*
X198088452Y-59010554D01*
X198088452Y-59010554D02*
X198112262Y-59034363D01*
X198112262Y-59034363D02*
X198159881Y-59058173D01*
X198159881Y-59058173D02*
X198255119Y-59058173D01*
X198255119Y-59058173D02*
X198302738Y-59034363D01*
X198302738Y-59034363D02*
X198326547Y-59010554D01*
X198326547Y-59010554D02*
X198350357Y-58962935D01*
D13*
X165610476Y-121954819D02*
X165610476Y-122669104D01*
X165610476Y-122669104D02*
X165562857Y-122811961D01*
X165562857Y-122811961D02*
X165467619Y-122907200D01*
X165467619Y-122907200D02*
X165324762Y-122954819D01*
X165324762Y-122954819D02*
X165229524Y-122954819D01*
X166039048Y-122050057D02*
X166086667Y-122002438D01*
X166086667Y-122002438D02*
X166181905Y-121954819D01*
X166181905Y-121954819D02*
X166420000Y-121954819D01*
X166420000Y-121954819D02*
X166515238Y-122002438D01*
X166515238Y-122002438D02*
X166562857Y-122050057D01*
X166562857Y-122050057D02*
X166610476Y-122145295D01*
X166610476Y-122145295D02*
X166610476Y-122240533D01*
X166610476Y-122240533D02*
X166562857Y-122383390D01*
X166562857Y-122383390D02*
X165991429Y-122954819D01*
X165991429Y-122954819D02*
X166610476Y-122954819D01*
X166943810Y-121954819D02*
X167562857Y-121954819D01*
X167562857Y-121954819D02*
X167229524Y-122335771D01*
X167229524Y-122335771D02*
X167372381Y-122335771D01*
X167372381Y-122335771D02*
X167467619Y-122383390D01*
X167467619Y-122383390D02*
X167515238Y-122431009D01*
X167515238Y-122431009D02*
X167562857Y-122526247D01*
X167562857Y-122526247D02*
X167562857Y-122764342D01*
X167562857Y-122764342D02*
X167515238Y-122859580D01*
X167515238Y-122859580D02*
X167467619Y-122907200D01*
X167467619Y-122907200D02*
X167372381Y-122954819D01*
X167372381Y-122954819D02*
X167086667Y-122954819D01*
X167086667Y-122954819D02*
X166991429Y-122907200D01*
X166991429Y-122907200D02*
X166943810Y-122859580D01*
X143308571Y-114572319D02*
X142975238Y-114096128D01*
X142737143Y-114572319D02*
X142737143Y-113572319D01*
X142737143Y-113572319D02*
X143118095Y-113572319D01*
X143118095Y-113572319D02*
X143213333Y-113619938D01*
X143213333Y-113619938D02*
X143260952Y-113667557D01*
X143260952Y-113667557D02*
X143308571Y-113762795D01*
X143308571Y-113762795D02*
X143308571Y-113905652D01*
X143308571Y-113905652D02*
X143260952Y-114000890D01*
X143260952Y-114000890D02*
X143213333Y-114048509D01*
X143213333Y-114048509D02*
X143118095Y-114096128D01*
X143118095Y-114096128D02*
X142737143Y-114096128D01*
X143594286Y-113572319D02*
X143927619Y-114572319D01*
X143927619Y-114572319D02*
X144260952Y-113572319D01*
X144546667Y-113667557D02*
X144594286Y-113619938D01*
X144594286Y-113619938D02*
X144689524Y-113572319D01*
X144689524Y-113572319D02*
X144927619Y-113572319D01*
X144927619Y-113572319D02*
X145022857Y-113619938D01*
X145022857Y-113619938D02*
X145070476Y-113667557D01*
X145070476Y-113667557D02*
X145118095Y-113762795D01*
X145118095Y-113762795D02*
X145118095Y-113858033D01*
X145118095Y-113858033D02*
X145070476Y-114000890D01*
X145070476Y-114000890D02*
X144499048Y-114572319D01*
X144499048Y-114572319D02*
X145118095Y-114572319D01*
X145499048Y-113667557D02*
X145546667Y-113619938D01*
X145546667Y-113619938D02*
X145641905Y-113572319D01*
X145641905Y-113572319D02*
X145880000Y-113572319D01*
X145880000Y-113572319D02*
X145975238Y-113619938D01*
X145975238Y-113619938D02*
X146022857Y-113667557D01*
X146022857Y-113667557D02*
X146070476Y-113762795D01*
X146070476Y-113762795D02*
X146070476Y-113858033D01*
X146070476Y-113858033D02*
X146022857Y-114000890D01*
X146022857Y-114000890D02*
X145451429Y-114572319D01*
X145451429Y-114572319D02*
X146070476Y-114572319D01*
D14*
X131788071Y-52953649D02*
X131621405Y-52715554D01*
X131502357Y-52953649D02*
X131502357Y-52453649D01*
X131502357Y-52453649D02*
X131692833Y-52453649D01*
X131692833Y-52453649D02*
X131740452Y-52477459D01*
X131740452Y-52477459D02*
X131764262Y-52501268D01*
X131764262Y-52501268D02*
X131788071Y-52548887D01*
X131788071Y-52548887D02*
X131788071Y-52620316D01*
X131788071Y-52620316D02*
X131764262Y-52667935D01*
X131764262Y-52667935D02*
X131740452Y-52691744D01*
X131740452Y-52691744D02*
X131692833Y-52715554D01*
X131692833Y-52715554D02*
X131502357Y-52715554D01*
X132264262Y-52953649D02*
X131978548Y-52953649D01*
X132121405Y-52953649D02*
X132121405Y-52453649D01*
X132121405Y-52453649D02*
X132073786Y-52525078D01*
X132073786Y-52525078D02*
X132026167Y-52572697D01*
X132026167Y-52572697D02*
X131978548Y-52596506D01*
X132454738Y-52501268D02*
X132478547Y-52477459D01*
X132478547Y-52477459D02*
X132526166Y-52453649D01*
X132526166Y-52453649D02*
X132645214Y-52453649D01*
X132645214Y-52453649D02*
X132692833Y-52477459D01*
X132692833Y-52477459D02*
X132716642Y-52501268D01*
X132716642Y-52501268D02*
X132740452Y-52548887D01*
X132740452Y-52548887D02*
X132740452Y-52596506D01*
X132740452Y-52596506D02*
X132716642Y-52667935D01*
X132716642Y-52667935D02*
X132430928Y-52953649D01*
X132430928Y-52953649D02*
X132740452Y-52953649D01*
D13*
X204148571Y-114432319D02*
X203815238Y-113956128D01*
X203577143Y-114432319D02*
X203577143Y-113432319D01*
X203577143Y-113432319D02*
X203958095Y-113432319D01*
X203958095Y-113432319D02*
X204053333Y-113479938D01*
X204053333Y-113479938D02*
X204100952Y-113527557D01*
X204100952Y-113527557D02*
X204148571Y-113622795D01*
X204148571Y-113622795D02*
X204148571Y-113765652D01*
X204148571Y-113765652D02*
X204100952Y-113860890D01*
X204100952Y-113860890D02*
X204053333Y-113908509D01*
X204053333Y-113908509D02*
X203958095Y-113956128D01*
X203958095Y-113956128D02*
X203577143Y-113956128D01*
X204434286Y-113432319D02*
X204767619Y-114432319D01*
X204767619Y-114432319D02*
X205100952Y-113432319D01*
X205386667Y-113527557D02*
X205434286Y-113479938D01*
X205434286Y-113479938D02*
X205529524Y-113432319D01*
X205529524Y-113432319D02*
X205767619Y-113432319D01*
X205767619Y-113432319D02*
X205862857Y-113479938D01*
X205862857Y-113479938D02*
X205910476Y-113527557D01*
X205910476Y-113527557D02*
X205958095Y-113622795D01*
X205958095Y-113622795D02*
X205958095Y-113718033D01*
X205958095Y-113718033D02*
X205910476Y-113860890D01*
X205910476Y-113860890D02*
X205339048Y-114432319D01*
X205339048Y-114432319D02*
X205958095Y-114432319D01*
X206862857Y-113432319D02*
X206386667Y-113432319D01*
X206386667Y-113432319D02*
X206339048Y-113908509D01*
X206339048Y-113908509D02*
X206386667Y-113860890D01*
X206386667Y-113860890D02*
X206481905Y-113813271D01*
X206481905Y-113813271D02*
X206720000Y-113813271D01*
X206720000Y-113813271D02*
X206815238Y-113860890D01*
X206815238Y-113860890D02*
X206862857Y-113908509D01*
X206862857Y-113908509D02*
X206910476Y-114003747D01*
X206910476Y-114003747D02*
X206910476Y-114241842D01*
X206910476Y-114241842D02*
X206862857Y-114337080D01*
X206862857Y-114337080D02*
X206815238Y-114384700D01*
X206815238Y-114384700D02*
X206720000Y-114432319D01*
X206720000Y-114432319D02*
X206481905Y-114432319D01*
X206481905Y-114432319D02*
X206386667Y-114384700D01*
X206386667Y-114384700D02*
X206339048Y-114337080D01*
X167369319Y-69793404D02*
X168178842Y-69793404D01*
X168178842Y-69793404D02*
X168274080Y-69745785D01*
X168274080Y-69745785D02*
X168321700Y-69698166D01*
X168321700Y-69698166D02*
X168369319Y-69602928D01*
X168369319Y-69602928D02*
X168369319Y-69412452D01*
X168369319Y-69412452D02*
X168321700Y-69317214D01*
X168321700Y-69317214D02*
X168274080Y-69269595D01*
X168274080Y-69269595D02*
X168178842Y-69221976D01*
X168178842Y-69221976D02*
X167369319Y-69221976D01*
X167369319Y-68269595D02*
X167369319Y-68745785D01*
X167369319Y-68745785D02*
X167845509Y-68793404D01*
X167845509Y-68793404D02*
X167797890Y-68745785D01*
X167797890Y-68745785D02*
X167750271Y-68650547D01*
X167750271Y-68650547D02*
X167750271Y-68412452D01*
X167750271Y-68412452D02*
X167797890Y-68317214D01*
X167797890Y-68317214D02*
X167845509Y-68269595D01*
X167845509Y-68269595D02*
X167940747Y-68221976D01*
X167940747Y-68221976D02*
X168178842Y-68221976D01*
X168178842Y-68221976D02*
X168274080Y-68269595D01*
X168274080Y-68269595D02*
X168321700Y-68317214D01*
X168321700Y-68317214D02*
X168369319Y-68412452D01*
X168369319Y-68412452D02*
X168369319Y-68650547D01*
X168369319Y-68650547D02*
X168321700Y-68745785D01*
X168321700Y-68745785D02*
X168274080Y-68793404D01*
X59045180Y-59166666D02*
X58330895Y-59166666D01*
X58330895Y-59166666D02*
X58188038Y-59119047D01*
X58188038Y-59119047D02*
X58092800Y-59023809D01*
X58092800Y-59023809D02*
X58045180Y-58880952D01*
X58045180Y-58880952D02*
X58045180Y-58785714D01*
X59045180Y-59547619D02*
X59045180Y-60166666D01*
X59045180Y-60166666D02*
X58664228Y-59833333D01*
X58664228Y-59833333D02*
X58664228Y-59976190D01*
X58664228Y-59976190D02*
X58616609Y-60071428D01*
X58616609Y-60071428D02*
X58568990Y-60119047D01*
X58568990Y-60119047D02*
X58473752Y-60166666D01*
X58473752Y-60166666D02*
X58235657Y-60166666D01*
X58235657Y-60166666D02*
X58140419Y-60119047D01*
X58140419Y-60119047D02*
X58092800Y-60071428D01*
X58092800Y-60071428D02*
X58045180Y-59976190D01*
X58045180Y-59976190D02*
X58045180Y-59690476D01*
X58045180Y-59690476D02*
X58092800Y-59595238D01*
X58092800Y-59595238D02*
X58140419Y-59547619D01*
D14*
X197678571Y-54227149D02*
X197511905Y-53989054D01*
X197392857Y-54227149D02*
X197392857Y-53727149D01*
X197392857Y-53727149D02*
X197583333Y-53727149D01*
X197583333Y-53727149D02*
X197630952Y-53750959D01*
X197630952Y-53750959D02*
X197654762Y-53774768D01*
X197654762Y-53774768D02*
X197678571Y-53822387D01*
X197678571Y-53822387D02*
X197678571Y-53893816D01*
X197678571Y-53893816D02*
X197654762Y-53941435D01*
X197654762Y-53941435D02*
X197630952Y-53965244D01*
X197630952Y-53965244D02*
X197583333Y-53989054D01*
X197583333Y-53989054D02*
X197392857Y-53989054D01*
X198154762Y-54227149D02*
X197869048Y-54227149D01*
X198011905Y-54227149D02*
X198011905Y-53727149D01*
X198011905Y-53727149D02*
X197964286Y-53798578D01*
X197964286Y-53798578D02*
X197916667Y-53846197D01*
X197916667Y-53846197D02*
X197869048Y-53870006D01*
X198321428Y-53727149D02*
X198630952Y-53727149D01*
X198630952Y-53727149D02*
X198464285Y-53917625D01*
X198464285Y-53917625D02*
X198535714Y-53917625D01*
X198535714Y-53917625D02*
X198583333Y-53941435D01*
X198583333Y-53941435D02*
X198607142Y-53965244D01*
X198607142Y-53965244D02*
X198630952Y-54012863D01*
X198630952Y-54012863D02*
X198630952Y-54131911D01*
X198630952Y-54131911D02*
X198607142Y-54179530D01*
X198607142Y-54179530D02*
X198583333Y-54203340D01*
X198583333Y-54203340D02*
X198535714Y-54227149D01*
X198535714Y-54227149D02*
X198392857Y-54227149D01*
X198392857Y-54227149D02*
X198345238Y-54203340D01*
X198345238Y-54203340D02*
X198321428Y-54179530D01*
D13*
X108738095Y-71806819D02*
X109309523Y-71806819D01*
X109023809Y-72806819D02*
X109023809Y-71806819D01*
X109642857Y-72806819D02*
X109642857Y-71806819D01*
X109642857Y-71806819D02*
X110023809Y-71806819D01*
X110023809Y-71806819D02*
X110119047Y-71854438D01*
X110119047Y-71854438D02*
X110166666Y-71902057D01*
X110166666Y-71902057D02*
X110214285Y-71997295D01*
X110214285Y-71997295D02*
X110214285Y-72140152D01*
X110214285Y-72140152D02*
X110166666Y-72235390D01*
X110166666Y-72235390D02*
X110119047Y-72283009D01*
X110119047Y-72283009D02*
X110023809Y-72330628D01*
X110023809Y-72330628D02*
X109642857Y-72330628D01*
X110595238Y-71902057D02*
X110642857Y-71854438D01*
X110642857Y-71854438D02*
X110738095Y-71806819D01*
X110738095Y-71806819D02*
X110976190Y-71806819D01*
X110976190Y-71806819D02*
X111071428Y-71854438D01*
X111071428Y-71854438D02*
X111119047Y-71902057D01*
X111119047Y-71902057D02*
X111166666Y-71997295D01*
X111166666Y-71997295D02*
X111166666Y-72092533D01*
X111166666Y-72092533D02*
X111119047Y-72235390D01*
X111119047Y-72235390D02*
X110547619Y-72806819D01*
X110547619Y-72806819D02*
X111166666Y-72806819D01*
X108738095Y-71804819D02*
X109309523Y-71804819D01*
X109023809Y-72804819D02*
X109023809Y-71804819D01*
X109642857Y-72804819D02*
X109642857Y-71804819D01*
X109642857Y-71804819D02*
X110023809Y-71804819D01*
X110023809Y-71804819D02*
X110119047Y-71852438D01*
X110119047Y-71852438D02*
X110166666Y-71900057D01*
X110166666Y-71900057D02*
X110214285Y-71995295D01*
X110214285Y-71995295D02*
X110214285Y-72138152D01*
X110214285Y-72138152D02*
X110166666Y-72233390D01*
X110166666Y-72233390D02*
X110119047Y-72281009D01*
X110119047Y-72281009D02*
X110023809Y-72328628D01*
X110023809Y-72328628D02*
X109642857Y-72328628D01*
X110595238Y-71900057D02*
X110642857Y-71852438D01*
X110642857Y-71852438D02*
X110738095Y-71804819D01*
X110738095Y-71804819D02*
X110976190Y-71804819D01*
X110976190Y-71804819D02*
X111071428Y-71852438D01*
X111071428Y-71852438D02*
X111119047Y-71900057D01*
X111119047Y-71900057D02*
X111166666Y-71995295D01*
X111166666Y-71995295D02*
X111166666Y-72090533D01*
X111166666Y-72090533D02*
X111119047Y-72233390D01*
X111119047Y-72233390D02*
X110547619Y-72804819D01*
X110547619Y-72804819D02*
X111166666Y-72804819D01*
D14*
X162966166Y-56509649D02*
X162799500Y-56271554D01*
X162680452Y-56509649D02*
X162680452Y-56009649D01*
X162680452Y-56009649D02*
X162870928Y-56009649D01*
X162870928Y-56009649D02*
X162918547Y-56033459D01*
X162918547Y-56033459D02*
X162942357Y-56057268D01*
X162942357Y-56057268D02*
X162966166Y-56104887D01*
X162966166Y-56104887D02*
X162966166Y-56176316D01*
X162966166Y-56176316D02*
X162942357Y-56223935D01*
X162942357Y-56223935D02*
X162918547Y-56247744D01*
X162918547Y-56247744D02*
X162870928Y-56271554D01*
X162870928Y-56271554D02*
X162680452Y-56271554D01*
X163132833Y-56009649D02*
X163466166Y-56009649D01*
X163466166Y-56009649D02*
X163251881Y-56509649D01*
X197916666Y-51679530D02*
X197892857Y-51703340D01*
X197892857Y-51703340D02*
X197821428Y-51727149D01*
X197821428Y-51727149D02*
X197773809Y-51727149D01*
X197773809Y-51727149D02*
X197702381Y-51703340D01*
X197702381Y-51703340D02*
X197654762Y-51655720D01*
X197654762Y-51655720D02*
X197630952Y-51608101D01*
X197630952Y-51608101D02*
X197607143Y-51512863D01*
X197607143Y-51512863D02*
X197607143Y-51441435D01*
X197607143Y-51441435D02*
X197630952Y-51346197D01*
X197630952Y-51346197D02*
X197654762Y-51298578D01*
X197654762Y-51298578D02*
X197702381Y-51250959D01*
X197702381Y-51250959D02*
X197773809Y-51227149D01*
X197773809Y-51227149D02*
X197821428Y-51227149D01*
X197821428Y-51227149D02*
X197892857Y-51250959D01*
X197892857Y-51250959D02*
X197916666Y-51274768D01*
X198345238Y-51393816D02*
X198345238Y-51727149D01*
X198226190Y-51203340D02*
X198107143Y-51560482D01*
X198107143Y-51560482D02*
X198416666Y-51560482D01*
X197961666Y-66748649D02*
X197795000Y-66510554D01*
X197675952Y-66748649D02*
X197675952Y-66248649D01*
X197675952Y-66248649D02*
X197866428Y-66248649D01*
X197866428Y-66248649D02*
X197914047Y-66272459D01*
X197914047Y-66272459D02*
X197937857Y-66296268D01*
X197937857Y-66296268D02*
X197961666Y-66343887D01*
X197961666Y-66343887D02*
X197961666Y-66415316D01*
X197961666Y-66415316D02*
X197937857Y-66462935D01*
X197937857Y-66462935D02*
X197914047Y-66486744D01*
X197914047Y-66486744D02*
X197866428Y-66510554D01*
X197866428Y-66510554D02*
X197675952Y-66510554D01*
X198390238Y-66248649D02*
X198295000Y-66248649D01*
X198295000Y-66248649D02*
X198247381Y-66272459D01*
X198247381Y-66272459D02*
X198223571Y-66296268D01*
X198223571Y-66296268D02*
X198175952Y-66367697D01*
X198175952Y-66367697D02*
X198152143Y-66462935D01*
X198152143Y-66462935D02*
X198152143Y-66653411D01*
X198152143Y-66653411D02*
X198175952Y-66701030D01*
X198175952Y-66701030D02*
X198199762Y-66724840D01*
X198199762Y-66724840D02*
X198247381Y-66748649D01*
X198247381Y-66748649D02*
X198342619Y-66748649D01*
X198342619Y-66748649D02*
X198390238Y-66724840D01*
X198390238Y-66724840D02*
X198414047Y-66701030D01*
X198414047Y-66701030D02*
X198437857Y-66653411D01*
X198437857Y-66653411D02*
X198437857Y-66534363D01*
X198437857Y-66534363D02*
X198414047Y-66486744D01*
X198414047Y-66486744D02*
X198390238Y-66462935D01*
X198390238Y-66462935D02*
X198342619Y-66439125D01*
X198342619Y-66439125D02*
X198247381Y-66439125D01*
X198247381Y-66439125D02*
X198199762Y-66462935D01*
X198199762Y-66462935D02*
X198175952Y-66486744D01*
X198175952Y-66486744D02*
X198152143Y-66534363D01*
D13*
X160608095Y-103649938D02*
X160512857Y-103602319D01*
X160512857Y-103602319D02*
X160370000Y-103602319D01*
X160370000Y-103602319D02*
X160227143Y-103649938D01*
X160227143Y-103649938D02*
X160131905Y-103745176D01*
X160131905Y-103745176D02*
X160084286Y-103840414D01*
X160084286Y-103840414D02*
X160036667Y-104030890D01*
X160036667Y-104030890D02*
X160036667Y-104173747D01*
X160036667Y-104173747D02*
X160084286Y-104364223D01*
X160084286Y-104364223D02*
X160131905Y-104459461D01*
X160131905Y-104459461D02*
X160227143Y-104554700D01*
X160227143Y-104554700D02*
X160370000Y-104602319D01*
X160370000Y-104602319D02*
X160465238Y-104602319D01*
X160465238Y-104602319D02*
X160608095Y-104554700D01*
X160608095Y-104554700D02*
X160655714Y-104507080D01*
X160655714Y-104507080D02*
X160655714Y-104173747D01*
X160655714Y-104173747D02*
X160465238Y-104173747D01*
X161560476Y-103602319D02*
X161084286Y-103602319D01*
X161084286Y-103602319D02*
X161036667Y-104078509D01*
X161036667Y-104078509D02*
X161084286Y-104030890D01*
X161084286Y-104030890D02*
X161179524Y-103983271D01*
X161179524Y-103983271D02*
X161417619Y-103983271D01*
X161417619Y-103983271D02*
X161512857Y-104030890D01*
X161512857Y-104030890D02*
X161560476Y-104078509D01*
X161560476Y-104078509D02*
X161608095Y-104173747D01*
X161608095Y-104173747D02*
X161608095Y-104411842D01*
X161608095Y-104411842D02*
X161560476Y-104507080D01*
X161560476Y-104507080D02*
X161512857Y-104554700D01*
X161512857Y-104554700D02*
X161417619Y-104602319D01*
X161417619Y-104602319D02*
X161179524Y-104602319D01*
X161179524Y-104602319D02*
X161084286Y-104554700D01*
X161084286Y-104554700D02*
X161036667Y-104507080D01*
X162512857Y-104602319D02*
X162036667Y-104602319D01*
X162036667Y-104602319D02*
X162036667Y-103602319D01*
X162846191Y-104078509D02*
X163179524Y-104078509D01*
X163322381Y-104602319D02*
X162846191Y-104602319D01*
X162846191Y-104602319D02*
X162846191Y-103602319D01*
X162846191Y-103602319D02*
X163322381Y-103602319D01*
X163750953Y-104221366D02*
X164512858Y-104221366D01*
X165512857Y-104602319D02*
X164941429Y-104602319D01*
X165227143Y-104602319D02*
X165227143Y-103602319D01*
X165227143Y-103602319D02*
X165131905Y-103745176D01*
X165131905Y-103745176D02*
X165036667Y-103840414D01*
X165036667Y-103840414D02*
X164941429Y-103888033D01*
X165941429Y-104221366D02*
X166703334Y-104221366D01*
X167179524Y-104602319D02*
X167179524Y-103602319D01*
X167179524Y-103602319D02*
X167417619Y-103602319D01*
X167417619Y-103602319D02*
X167560476Y-103649938D01*
X167560476Y-103649938D02*
X167655714Y-103745176D01*
X167655714Y-103745176D02*
X167703333Y-103840414D01*
X167703333Y-103840414D02*
X167750952Y-104030890D01*
X167750952Y-104030890D02*
X167750952Y-104173747D01*
X167750952Y-104173747D02*
X167703333Y-104364223D01*
X167703333Y-104364223D02*
X167655714Y-104459461D01*
X167655714Y-104459461D02*
X167560476Y-104554700D01*
X167560476Y-104554700D02*
X167417619Y-104602319D01*
X167417619Y-104602319D02*
X167179524Y-104602319D01*
X168750952Y-104507080D02*
X168703333Y-104554700D01*
X168703333Y-104554700D02*
X168560476Y-104602319D01*
X168560476Y-104602319D02*
X168465238Y-104602319D01*
X168465238Y-104602319D02*
X168322381Y-104554700D01*
X168322381Y-104554700D02*
X168227143Y-104459461D01*
X168227143Y-104459461D02*
X168179524Y-104364223D01*
X168179524Y-104364223D02*
X168131905Y-104173747D01*
X168131905Y-104173747D02*
X168131905Y-104030890D01*
X168131905Y-104030890D02*
X168179524Y-103840414D01*
X168179524Y-103840414D02*
X168227143Y-103745176D01*
X168227143Y-103745176D02*
X168322381Y-103649938D01*
X168322381Y-103649938D02*
X168465238Y-103602319D01*
X168465238Y-103602319D02*
X168560476Y-103602319D01*
X168560476Y-103602319D02*
X168703333Y-103649938D01*
X168703333Y-103649938D02*
X168750952Y-103697557D01*
X169655714Y-103602319D02*
X169179524Y-103602319D01*
X169179524Y-103602319D02*
X169131905Y-104078509D01*
X169131905Y-104078509D02*
X169179524Y-104030890D01*
X169179524Y-104030890D02*
X169274762Y-103983271D01*
X169274762Y-103983271D02*
X169512857Y-103983271D01*
X169512857Y-103983271D02*
X169608095Y-104030890D01*
X169608095Y-104030890D02*
X169655714Y-104078509D01*
X169655714Y-104078509D02*
X169703333Y-104173747D01*
X169703333Y-104173747D02*
X169703333Y-104411842D01*
X169703333Y-104411842D02*
X169655714Y-104507080D01*
X169655714Y-104507080D02*
X169608095Y-104554700D01*
X169608095Y-104554700D02*
X169512857Y-104602319D01*
X169512857Y-104602319D02*
X169274762Y-104602319D01*
X169274762Y-104602319D02*
X169179524Y-104554700D01*
X169179524Y-104554700D02*
X169131905Y-104507080D01*
X163655714Y-92352319D02*
X163655714Y-91352319D01*
X164227142Y-92352319D02*
X163798571Y-91780890D01*
X164227142Y-91352319D02*
X163655714Y-91923747D01*
X164608095Y-91447557D02*
X164655714Y-91399938D01*
X164655714Y-91399938D02*
X164750952Y-91352319D01*
X164750952Y-91352319D02*
X164989047Y-91352319D01*
X164989047Y-91352319D02*
X165084285Y-91399938D01*
X165084285Y-91399938D02*
X165131904Y-91447557D01*
X165131904Y-91447557D02*
X165179523Y-91542795D01*
X165179523Y-91542795D02*
X165179523Y-91638033D01*
X165179523Y-91638033D02*
X165131904Y-91780890D01*
X165131904Y-91780890D02*
X164560476Y-92352319D01*
X164560476Y-92352319D02*
X165179523Y-92352319D01*
X165512857Y-91352319D02*
X166131904Y-91352319D01*
X166131904Y-91352319D02*
X165798571Y-91733271D01*
X165798571Y-91733271D02*
X165941428Y-91733271D01*
X165941428Y-91733271D02*
X166036666Y-91780890D01*
X166036666Y-91780890D02*
X166084285Y-91828509D01*
X166084285Y-91828509D02*
X166131904Y-91923747D01*
X166131904Y-91923747D02*
X166131904Y-92161842D01*
X166131904Y-92161842D02*
X166084285Y-92257080D01*
X166084285Y-92257080D02*
X166036666Y-92304700D01*
X166036666Y-92304700D02*
X165941428Y-92352319D01*
X165941428Y-92352319D02*
X165655714Y-92352319D01*
X165655714Y-92352319D02*
X165560476Y-92304700D01*
X165560476Y-92304700D02*
X165512857Y-92257080D01*
X90339164Y-74107143D02*
X90339164Y-74535714D01*
X90339164Y-74321429D02*
X89589164Y-74321429D01*
X89589164Y-74321429D02*
X89696307Y-74392857D01*
X89696307Y-74392857D02*
X89767735Y-74464286D01*
X89767735Y-74464286D02*
X89803450Y-74535714D01*
X90339164Y-73785714D02*
X89589164Y-73785714D01*
X89589164Y-73785714D02*
X90339164Y-73357143D01*
X90339164Y-73357143D02*
X89589164Y-73357143D01*
X89839164Y-72678572D02*
X90339164Y-72678572D01*
X89553450Y-72857143D02*
X90089164Y-73035714D01*
X90089164Y-73035714D02*
X90089164Y-72571429D01*
X90339164Y-71892857D02*
X90339164Y-72321428D01*
X90339164Y-72107143D02*
X89589164Y-72107143D01*
X89589164Y-72107143D02*
X89696307Y-72178571D01*
X89696307Y-72178571D02*
X89767735Y-72250000D01*
X89767735Y-72250000D02*
X89803450Y-72321428D01*
X89839164Y-71250000D02*
X90339164Y-71250000D01*
X89553450Y-71428571D02*
X90089164Y-71607142D01*
X90089164Y-71607142D02*
X90089164Y-71142857D01*
X89910592Y-70749999D02*
X89874878Y-70821428D01*
X89874878Y-70821428D02*
X89839164Y-70857142D01*
X89839164Y-70857142D02*
X89767735Y-70892856D01*
X89767735Y-70892856D02*
X89732021Y-70892856D01*
X89732021Y-70892856D02*
X89660592Y-70857142D01*
X89660592Y-70857142D02*
X89624878Y-70821428D01*
X89624878Y-70821428D02*
X89589164Y-70749999D01*
X89589164Y-70749999D02*
X89589164Y-70607142D01*
X89589164Y-70607142D02*
X89624878Y-70535714D01*
X89624878Y-70535714D02*
X89660592Y-70499999D01*
X89660592Y-70499999D02*
X89732021Y-70464285D01*
X89732021Y-70464285D02*
X89767735Y-70464285D01*
X89767735Y-70464285D02*
X89839164Y-70499999D01*
X89839164Y-70499999D02*
X89874878Y-70535714D01*
X89874878Y-70535714D02*
X89910592Y-70607142D01*
X89910592Y-70607142D02*
X89910592Y-70749999D01*
X89910592Y-70749999D02*
X89946307Y-70821428D01*
X89946307Y-70821428D02*
X89982021Y-70857142D01*
X89982021Y-70857142D02*
X90053450Y-70892856D01*
X90053450Y-70892856D02*
X90196307Y-70892856D01*
X90196307Y-70892856D02*
X90267735Y-70857142D01*
X90267735Y-70857142D02*
X90303450Y-70821428D01*
X90303450Y-70821428D02*
X90339164Y-70749999D01*
X90339164Y-70749999D02*
X90339164Y-70607142D01*
X90339164Y-70607142D02*
X90303450Y-70535714D01*
X90303450Y-70535714D02*
X90267735Y-70499999D01*
X90267735Y-70499999D02*
X90196307Y-70464285D01*
X90196307Y-70464285D02*
X90053450Y-70464285D01*
X90053450Y-70464285D02*
X89982021Y-70499999D01*
X89982021Y-70499999D02*
X89946307Y-70535714D01*
X89946307Y-70535714D02*
X89910592Y-70607142D01*
X145290476Y-121954819D02*
X145290476Y-122669104D01*
X145290476Y-122669104D02*
X145242857Y-122811961D01*
X145242857Y-122811961D02*
X145147619Y-122907200D01*
X145147619Y-122907200D02*
X145004762Y-122954819D01*
X145004762Y-122954819D02*
X144909524Y-122954819D01*
X145719048Y-122050057D02*
X145766667Y-122002438D01*
X145766667Y-122002438D02*
X145861905Y-121954819D01*
X145861905Y-121954819D02*
X146100000Y-121954819D01*
X146100000Y-121954819D02*
X146195238Y-122002438D01*
X146195238Y-122002438D02*
X146242857Y-122050057D01*
X146242857Y-122050057D02*
X146290476Y-122145295D01*
X146290476Y-122145295D02*
X146290476Y-122240533D01*
X146290476Y-122240533D02*
X146242857Y-122383390D01*
X146242857Y-122383390D02*
X145671429Y-122954819D01*
X145671429Y-122954819D02*
X146290476Y-122954819D01*
X146671429Y-122050057D02*
X146719048Y-122002438D01*
X146719048Y-122002438D02*
X146814286Y-121954819D01*
X146814286Y-121954819D02*
X147052381Y-121954819D01*
X147052381Y-121954819D02*
X147147619Y-122002438D01*
X147147619Y-122002438D02*
X147195238Y-122050057D01*
X147195238Y-122050057D02*
X147242857Y-122145295D01*
X147242857Y-122145295D02*
X147242857Y-122240533D01*
X147242857Y-122240533D02*
X147195238Y-122383390D01*
X147195238Y-122383390D02*
X146623810Y-122954819D01*
X146623810Y-122954819D02*
X147242857Y-122954819D01*
D14*
X167128571Y-107924649D02*
X166961905Y-107686554D01*
X166842857Y-107924649D02*
X166842857Y-107424649D01*
X166842857Y-107424649D02*
X167033333Y-107424649D01*
X167033333Y-107424649D02*
X167080952Y-107448459D01*
X167080952Y-107448459D02*
X167104762Y-107472268D01*
X167104762Y-107472268D02*
X167128571Y-107519887D01*
X167128571Y-107519887D02*
X167128571Y-107591316D01*
X167128571Y-107591316D02*
X167104762Y-107638935D01*
X167104762Y-107638935D02*
X167080952Y-107662744D01*
X167080952Y-107662744D02*
X167033333Y-107686554D01*
X167033333Y-107686554D02*
X166842857Y-107686554D01*
X167319048Y-107472268D02*
X167342857Y-107448459D01*
X167342857Y-107448459D02*
X167390476Y-107424649D01*
X167390476Y-107424649D02*
X167509524Y-107424649D01*
X167509524Y-107424649D02*
X167557143Y-107448459D01*
X167557143Y-107448459D02*
X167580952Y-107472268D01*
X167580952Y-107472268D02*
X167604762Y-107519887D01*
X167604762Y-107519887D02*
X167604762Y-107567506D01*
X167604762Y-107567506D02*
X167580952Y-107638935D01*
X167580952Y-107638935D02*
X167295238Y-107924649D01*
X167295238Y-107924649D02*
X167604762Y-107924649D01*
X167771428Y-107424649D02*
X168080952Y-107424649D01*
X168080952Y-107424649D02*
X167914285Y-107615125D01*
X167914285Y-107615125D02*
X167985714Y-107615125D01*
X167985714Y-107615125D02*
X168033333Y-107638935D01*
X168033333Y-107638935D02*
X168057142Y-107662744D01*
X168057142Y-107662744D02*
X168080952Y-107710363D01*
X168080952Y-107710363D02*
X168080952Y-107829411D01*
X168080952Y-107829411D02*
X168057142Y-107877030D01*
X168057142Y-107877030D02*
X168033333Y-107900840D01*
X168033333Y-107900840D02*
X167985714Y-107924649D01*
X167985714Y-107924649D02*
X167842857Y-107924649D01*
X167842857Y-107924649D02*
X167795238Y-107900840D01*
X167795238Y-107900840D02*
X167771428Y-107877030D01*
D13*
X212666666Y-50454819D02*
X212333333Y-49978628D01*
X212095238Y-50454819D02*
X212095238Y-49454819D01*
X212095238Y-49454819D02*
X212476190Y-49454819D01*
X212476190Y-49454819D02*
X212571428Y-49502438D01*
X212571428Y-49502438D02*
X212619047Y-49550057D01*
X212619047Y-49550057D02*
X212666666Y-49645295D01*
X212666666Y-49645295D02*
X212666666Y-49788152D01*
X212666666Y-49788152D02*
X212619047Y-49883390D01*
X212619047Y-49883390D02*
X212571428Y-49931009D01*
X212571428Y-49931009D02*
X212476190Y-49978628D01*
X212476190Y-49978628D02*
X212095238Y-49978628D01*
X213095238Y-49931009D02*
X213428571Y-49931009D01*
X213571428Y-50454819D02*
X213095238Y-50454819D01*
X213095238Y-50454819D02*
X213095238Y-49454819D01*
X213095238Y-49454819D02*
X213571428Y-49454819D01*
X214333333Y-49931009D02*
X214000000Y-49931009D01*
X214000000Y-50454819D02*
X214000000Y-49454819D01*
X214000000Y-49454819D02*
X214476190Y-49454819D01*
X215000000Y-49454819D02*
X215000000Y-49692914D01*
X214761905Y-49597676D02*
X215000000Y-49692914D01*
X215000000Y-49692914D02*
X215238095Y-49597676D01*
X214857143Y-49883390D02*
X215000000Y-49692914D01*
X215000000Y-49692914D02*
X215142857Y-49883390D01*
X215761905Y-49454819D02*
X215761905Y-49692914D01*
X215523810Y-49597676D02*
X215761905Y-49692914D01*
X215761905Y-49692914D02*
X216000000Y-49597676D01*
X215619048Y-49883390D02*
X215761905Y-49692914D01*
X215761905Y-49692914D02*
X215904762Y-49883390D01*
X212666666Y-127454819D02*
X212333333Y-126978628D01*
X212095238Y-127454819D02*
X212095238Y-126454819D01*
X212095238Y-126454819D02*
X212476190Y-126454819D01*
X212476190Y-126454819D02*
X212571428Y-126502438D01*
X212571428Y-126502438D02*
X212619047Y-126550057D01*
X212619047Y-126550057D02*
X212666666Y-126645295D01*
X212666666Y-126645295D02*
X212666666Y-126788152D01*
X212666666Y-126788152D02*
X212619047Y-126883390D01*
X212619047Y-126883390D02*
X212571428Y-126931009D01*
X212571428Y-126931009D02*
X212476190Y-126978628D01*
X212476190Y-126978628D02*
X212095238Y-126978628D01*
X213095238Y-126931009D02*
X213428571Y-126931009D01*
X213571428Y-127454819D02*
X213095238Y-127454819D01*
X213095238Y-127454819D02*
X213095238Y-126454819D01*
X213095238Y-126454819D02*
X213571428Y-126454819D01*
X214333333Y-126931009D02*
X214000000Y-126931009D01*
X214000000Y-127454819D02*
X214000000Y-126454819D01*
X214000000Y-126454819D02*
X214476190Y-126454819D01*
X215000000Y-126454819D02*
X215000000Y-126692914D01*
X214761905Y-126597676D02*
X215000000Y-126692914D01*
X215000000Y-126692914D02*
X215238095Y-126597676D01*
X214857143Y-126883390D02*
X215000000Y-126692914D01*
X215000000Y-126692914D02*
X215142857Y-126883390D01*
X215761905Y-126454819D02*
X215761905Y-126692914D01*
X215523810Y-126597676D02*
X215761905Y-126692914D01*
X215761905Y-126692914D02*
X216000000Y-126597676D01*
X215619048Y-126883390D02*
X215761905Y-126692914D01*
X215761905Y-126692914D02*
X215904762Y-126883390D01*
X146197595Y-61881319D02*
X146197595Y-62690842D01*
X146197595Y-62690842D02*
X146245214Y-62786080D01*
X146245214Y-62786080D02*
X146292833Y-62833700D01*
X146292833Y-62833700D02*
X146388071Y-62881319D01*
X146388071Y-62881319D02*
X146578547Y-62881319D01*
X146578547Y-62881319D02*
X146673785Y-62833700D01*
X146673785Y-62833700D02*
X146721404Y-62786080D01*
X146721404Y-62786080D02*
X146769023Y-62690842D01*
X146769023Y-62690842D02*
X146769023Y-61881319D01*
X147673785Y-62214652D02*
X147673785Y-62881319D01*
X147435690Y-61833700D02*
X147197595Y-62547985D01*
X147197595Y-62547985D02*
X147816642Y-62547985D01*
D14*
X182331071Y-107877030D02*
X182307262Y-107900840D01*
X182307262Y-107900840D02*
X182235833Y-107924649D01*
X182235833Y-107924649D02*
X182188214Y-107924649D01*
X182188214Y-107924649D02*
X182116786Y-107900840D01*
X182116786Y-107900840D02*
X182069167Y-107853220D01*
X182069167Y-107853220D02*
X182045357Y-107805601D01*
X182045357Y-107805601D02*
X182021548Y-107710363D01*
X182021548Y-107710363D02*
X182021548Y-107638935D01*
X182021548Y-107638935D02*
X182045357Y-107543697D01*
X182045357Y-107543697D02*
X182069167Y-107496078D01*
X182069167Y-107496078D02*
X182116786Y-107448459D01*
X182116786Y-107448459D02*
X182188214Y-107424649D01*
X182188214Y-107424649D02*
X182235833Y-107424649D01*
X182235833Y-107424649D02*
X182307262Y-107448459D01*
X182307262Y-107448459D02*
X182331071Y-107472268D01*
X182521548Y-107472268D02*
X182545357Y-107448459D01*
X182545357Y-107448459D02*
X182592976Y-107424649D01*
X182592976Y-107424649D02*
X182712024Y-107424649D01*
X182712024Y-107424649D02*
X182759643Y-107448459D01*
X182759643Y-107448459D02*
X182783452Y-107472268D01*
X182783452Y-107472268D02*
X182807262Y-107519887D01*
X182807262Y-107519887D02*
X182807262Y-107567506D01*
X182807262Y-107567506D02*
X182783452Y-107638935D01*
X182783452Y-107638935D02*
X182497738Y-107924649D01*
X182497738Y-107924649D02*
X182807262Y-107924649D01*
X183235833Y-107591316D02*
X183235833Y-107924649D01*
X183116785Y-107400840D02*
X182997738Y-107757982D01*
X182997738Y-107757982D02*
X183307261Y-107757982D01*
D13*
X180928095Y-103649938D02*
X180832857Y-103602319D01*
X180832857Y-103602319D02*
X180690000Y-103602319D01*
X180690000Y-103602319D02*
X180547143Y-103649938D01*
X180547143Y-103649938D02*
X180451905Y-103745176D01*
X180451905Y-103745176D02*
X180404286Y-103840414D01*
X180404286Y-103840414D02*
X180356667Y-104030890D01*
X180356667Y-104030890D02*
X180356667Y-104173747D01*
X180356667Y-104173747D02*
X180404286Y-104364223D01*
X180404286Y-104364223D02*
X180451905Y-104459461D01*
X180451905Y-104459461D02*
X180547143Y-104554700D01*
X180547143Y-104554700D02*
X180690000Y-104602319D01*
X180690000Y-104602319D02*
X180785238Y-104602319D01*
X180785238Y-104602319D02*
X180928095Y-104554700D01*
X180928095Y-104554700D02*
X180975714Y-104507080D01*
X180975714Y-104507080D02*
X180975714Y-104173747D01*
X180975714Y-104173747D02*
X180785238Y-104173747D01*
X181880476Y-103602319D02*
X181404286Y-103602319D01*
X181404286Y-103602319D02*
X181356667Y-104078509D01*
X181356667Y-104078509D02*
X181404286Y-104030890D01*
X181404286Y-104030890D02*
X181499524Y-103983271D01*
X181499524Y-103983271D02*
X181737619Y-103983271D01*
X181737619Y-103983271D02*
X181832857Y-104030890D01*
X181832857Y-104030890D02*
X181880476Y-104078509D01*
X181880476Y-104078509D02*
X181928095Y-104173747D01*
X181928095Y-104173747D02*
X181928095Y-104411842D01*
X181928095Y-104411842D02*
X181880476Y-104507080D01*
X181880476Y-104507080D02*
X181832857Y-104554700D01*
X181832857Y-104554700D02*
X181737619Y-104602319D01*
X181737619Y-104602319D02*
X181499524Y-104602319D01*
X181499524Y-104602319D02*
X181404286Y-104554700D01*
X181404286Y-104554700D02*
X181356667Y-104507080D01*
X182832857Y-104602319D02*
X182356667Y-104602319D01*
X182356667Y-104602319D02*
X182356667Y-103602319D01*
X183166191Y-104078509D02*
X183499524Y-104078509D01*
X183642381Y-104602319D02*
X183166191Y-104602319D01*
X183166191Y-104602319D02*
X183166191Y-103602319D01*
X183166191Y-103602319D02*
X183642381Y-103602319D01*
X184070953Y-104221366D02*
X184832858Y-104221366D01*
X185832857Y-104602319D02*
X185261429Y-104602319D01*
X185547143Y-104602319D02*
X185547143Y-103602319D01*
X185547143Y-103602319D02*
X185451905Y-103745176D01*
X185451905Y-103745176D02*
X185356667Y-103840414D01*
X185356667Y-103840414D02*
X185261429Y-103888033D01*
X186261429Y-104221366D02*
X187023334Y-104221366D01*
X187499524Y-104602319D02*
X187499524Y-103602319D01*
X187499524Y-103602319D02*
X187737619Y-103602319D01*
X187737619Y-103602319D02*
X187880476Y-103649938D01*
X187880476Y-103649938D02*
X187975714Y-103745176D01*
X187975714Y-103745176D02*
X188023333Y-103840414D01*
X188023333Y-103840414D02*
X188070952Y-104030890D01*
X188070952Y-104030890D02*
X188070952Y-104173747D01*
X188070952Y-104173747D02*
X188023333Y-104364223D01*
X188023333Y-104364223D02*
X187975714Y-104459461D01*
X187975714Y-104459461D02*
X187880476Y-104554700D01*
X187880476Y-104554700D02*
X187737619Y-104602319D01*
X187737619Y-104602319D02*
X187499524Y-104602319D01*
X189070952Y-104507080D02*
X189023333Y-104554700D01*
X189023333Y-104554700D02*
X188880476Y-104602319D01*
X188880476Y-104602319D02*
X188785238Y-104602319D01*
X188785238Y-104602319D02*
X188642381Y-104554700D01*
X188642381Y-104554700D02*
X188547143Y-104459461D01*
X188547143Y-104459461D02*
X188499524Y-104364223D01*
X188499524Y-104364223D02*
X188451905Y-104173747D01*
X188451905Y-104173747D02*
X188451905Y-104030890D01*
X188451905Y-104030890D02*
X188499524Y-103840414D01*
X188499524Y-103840414D02*
X188547143Y-103745176D01*
X188547143Y-103745176D02*
X188642381Y-103649938D01*
X188642381Y-103649938D02*
X188785238Y-103602319D01*
X188785238Y-103602319D02*
X188880476Y-103602319D01*
X188880476Y-103602319D02*
X189023333Y-103649938D01*
X189023333Y-103649938D02*
X189070952Y-103697557D01*
X189975714Y-103602319D02*
X189499524Y-103602319D01*
X189499524Y-103602319D02*
X189451905Y-104078509D01*
X189451905Y-104078509D02*
X189499524Y-104030890D01*
X189499524Y-104030890D02*
X189594762Y-103983271D01*
X189594762Y-103983271D02*
X189832857Y-103983271D01*
X189832857Y-103983271D02*
X189928095Y-104030890D01*
X189928095Y-104030890D02*
X189975714Y-104078509D01*
X189975714Y-104078509D02*
X190023333Y-104173747D01*
X190023333Y-104173747D02*
X190023333Y-104411842D01*
X190023333Y-104411842D02*
X189975714Y-104507080D01*
X189975714Y-104507080D02*
X189928095Y-104554700D01*
X189928095Y-104554700D02*
X189832857Y-104602319D01*
X189832857Y-104602319D02*
X189594762Y-104602319D01*
X189594762Y-104602319D02*
X189499524Y-104554700D01*
X189499524Y-104554700D02*
X189451905Y-104507080D01*
X183975714Y-92352319D02*
X183975714Y-91352319D01*
X184547142Y-92352319D02*
X184118571Y-91780890D01*
X184547142Y-91352319D02*
X183975714Y-91923747D01*
X184928095Y-91447557D02*
X184975714Y-91399938D01*
X184975714Y-91399938D02*
X185070952Y-91352319D01*
X185070952Y-91352319D02*
X185309047Y-91352319D01*
X185309047Y-91352319D02*
X185404285Y-91399938D01*
X185404285Y-91399938D02*
X185451904Y-91447557D01*
X185451904Y-91447557D02*
X185499523Y-91542795D01*
X185499523Y-91542795D02*
X185499523Y-91638033D01*
X185499523Y-91638033D02*
X185451904Y-91780890D01*
X185451904Y-91780890D02*
X184880476Y-92352319D01*
X184880476Y-92352319D02*
X185499523Y-92352319D01*
X186356666Y-91685652D02*
X186356666Y-92352319D01*
X186118571Y-91304700D02*
X185880476Y-92018985D01*
X185880476Y-92018985D02*
X186499523Y-92018985D01*
D14*
X146808571Y-107924649D02*
X146641905Y-107686554D01*
X146522857Y-107924649D02*
X146522857Y-107424649D01*
X146522857Y-107424649D02*
X146713333Y-107424649D01*
X146713333Y-107424649D02*
X146760952Y-107448459D01*
X146760952Y-107448459D02*
X146784762Y-107472268D01*
X146784762Y-107472268D02*
X146808571Y-107519887D01*
X146808571Y-107519887D02*
X146808571Y-107591316D01*
X146808571Y-107591316D02*
X146784762Y-107638935D01*
X146784762Y-107638935D02*
X146760952Y-107662744D01*
X146760952Y-107662744D02*
X146713333Y-107686554D01*
X146713333Y-107686554D02*
X146522857Y-107686554D01*
X146999048Y-107472268D02*
X147022857Y-107448459D01*
X147022857Y-107448459D02*
X147070476Y-107424649D01*
X147070476Y-107424649D02*
X147189524Y-107424649D01*
X147189524Y-107424649D02*
X147237143Y-107448459D01*
X147237143Y-107448459D02*
X147260952Y-107472268D01*
X147260952Y-107472268D02*
X147284762Y-107519887D01*
X147284762Y-107519887D02*
X147284762Y-107567506D01*
X147284762Y-107567506D02*
X147260952Y-107638935D01*
X147260952Y-107638935D02*
X146975238Y-107924649D01*
X146975238Y-107924649D02*
X147284762Y-107924649D01*
X147475238Y-107472268D02*
X147499047Y-107448459D01*
X147499047Y-107448459D02*
X147546666Y-107424649D01*
X147546666Y-107424649D02*
X147665714Y-107424649D01*
X147665714Y-107424649D02*
X147713333Y-107448459D01*
X147713333Y-107448459D02*
X147737142Y-107472268D01*
X147737142Y-107472268D02*
X147760952Y-107519887D01*
X147760952Y-107519887D02*
X147760952Y-107567506D01*
X147760952Y-107567506D02*
X147737142Y-107638935D01*
X147737142Y-107638935D02*
X147451428Y-107924649D01*
X147451428Y-107924649D02*
X147760952Y-107924649D01*
D13*
X85476666Y-121954819D02*
X85476666Y-122669104D01*
X85476666Y-122669104D02*
X85429047Y-122811961D01*
X85429047Y-122811961D02*
X85333809Y-122907200D01*
X85333809Y-122907200D02*
X85190952Y-122954819D01*
X85190952Y-122954819D02*
X85095714Y-122954819D01*
X86476666Y-122954819D02*
X85905238Y-122954819D01*
X86190952Y-122954819D02*
X86190952Y-121954819D01*
X86190952Y-121954819D02*
X86095714Y-122097676D01*
X86095714Y-122097676D02*
X86000476Y-122192914D01*
X86000476Y-122192914D02*
X85905238Y-122240533D01*
X55666666Y-50454819D02*
X55333333Y-49978628D01*
X55095238Y-50454819D02*
X55095238Y-49454819D01*
X55095238Y-49454819D02*
X55476190Y-49454819D01*
X55476190Y-49454819D02*
X55571428Y-49502438D01*
X55571428Y-49502438D02*
X55619047Y-49550057D01*
X55619047Y-49550057D02*
X55666666Y-49645295D01*
X55666666Y-49645295D02*
X55666666Y-49788152D01*
X55666666Y-49788152D02*
X55619047Y-49883390D01*
X55619047Y-49883390D02*
X55571428Y-49931009D01*
X55571428Y-49931009D02*
X55476190Y-49978628D01*
X55476190Y-49978628D02*
X55095238Y-49978628D01*
X56095238Y-49931009D02*
X56428571Y-49931009D01*
X56571428Y-50454819D02*
X56095238Y-50454819D01*
X56095238Y-50454819D02*
X56095238Y-49454819D01*
X56095238Y-49454819D02*
X56571428Y-49454819D01*
X57333333Y-49931009D02*
X57000000Y-49931009D01*
X57000000Y-50454819D02*
X57000000Y-49454819D01*
X57000000Y-49454819D02*
X57476190Y-49454819D01*
X58000000Y-49454819D02*
X58000000Y-49692914D01*
X57761905Y-49597676D02*
X58000000Y-49692914D01*
X58000000Y-49692914D02*
X58238095Y-49597676D01*
X57857143Y-49883390D02*
X58000000Y-49692914D01*
X58000000Y-49692914D02*
X58142857Y-49883390D01*
X58761905Y-49454819D02*
X58761905Y-49692914D01*
X58523810Y-49597676D02*
X58761905Y-49692914D01*
X58761905Y-49692914D02*
X59000000Y-49597676D01*
X58619048Y-49883390D02*
X58761905Y-49692914D01*
X58761905Y-49692914D02*
X58904762Y-49883390D01*
D14*
X162966166Y-52445649D02*
X162799500Y-52207554D01*
X162680452Y-52445649D02*
X162680452Y-51945649D01*
X162680452Y-51945649D02*
X162870928Y-51945649D01*
X162870928Y-51945649D02*
X162918547Y-51969459D01*
X162918547Y-51969459D02*
X162942357Y-51993268D01*
X162942357Y-51993268D02*
X162966166Y-52040887D01*
X162966166Y-52040887D02*
X162966166Y-52112316D01*
X162966166Y-52112316D02*
X162942357Y-52159935D01*
X162942357Y-52159935D02*
X162918547Y-52183744D01*
X162918547Y-52183744D02*
X162870928Y-52207554D01*
X162870928Y-52207554D02*
X162680452Y-52207554D01*
X163132833Y-51945649D02*
X163442357Y-51945649D01*
X163442357Y-51945649D02*
X163275690Y-52136125D01*
X163275690Y-52136125D02*
X163347119Y-52136125D01*
X163347119Y-52136125D02*
X163394738Y-52159935D01*
X163394738Y-52159935D02*
X163418547Y-52183744D01*
X163418547Y-52183744D02*
X163442357Y-52231363D01*
X163442357Y-52231363D02*
X163442357Y-52350411D01*
X163442357Y-52350411D02*
X163418547Y-52398030D01*
X163418547Y-52398030D02*
X163394738Y-52421840D01*
X163394738Y-52421840D02*
X163347119Y-52445649D01*
X163347119Y-52445649D02*
X163204262Y-52445649D01*
X163204262Y-52445649D02*
X163156643Y-52421840D01*
X163156643Y-52421840D02*
X163132833Y-52398030D01*
X101051071Y-107877030D02*
X101027262Y-107900840D01*
X101027262Y-107900840D02*
X100955833Y-107924649D01*
X100955833Y-107924649D02*
X100908214Y-107924649D01*
X100908214Y-107924649D02*
X100836786Y-107900840D01*
X100836786Y-107900840D02*
X100789167Y-107853220D01*
X100789167Y-107853220D02*
X100765357Y-107805601D01*
X100765357Y-107805601D02*
X100741548Y-107710363D01*
X100741548Y-107710363D02*
X100741548Y-107638935D01*
X100741548Y-107638935D02*
X100765357Y-107543697D01*
X100765357Y-107543697D02*
X100789167Y-107496078D01*
X100789167Y-107496078D02*
X100836786Y-107448459D01*
X100836786Y-107448459D02*
X100908214Y-107424649D01*
X100908214Y-107424649D02*
X100955833Y-107424649D01*
X100955833Y-107424649D02*
X101027262Y-107448459D01*
X101027262Y-107448459D02*
X101051071Y-107472268D01*
X101241548Y-107472268D02*
X101265357Y-107448459D01*
X101265357Y-107448459D02*
X101312976Y-107424649D01*
X101312976Y-107424649D02*
X101432024Y-107424649D01*
X101432024Y-107424649D02*
X101479643Y-107448459D01*
X101479643Y-107448459D02*
X101503452Y-107472268D01*
X101503452Y-107472268D02*
X101527262Y-107519887D01*
X101527262Y-107519887D02*
X101527262Y-107567506D01*
X101527262Y-107567506D02*
X101503452Y-107638935D01*
X101503452Y-107638935D02*
X101217738Y-107924649D01*
X101217738Y-107924649D02*
X101527262Y-107924649D01*
X101836785Y-107424649D02*
X101884404Y-107424649D01*
X101884404Y-107424649D02*
X101932023Y-107448459D01*
X101932023Y-107448459D02*
X101955833Y-107472268D01*
X101955833Y-107472268D02*
X101979642Y-107519887D01*
X101979642Y-107519887D02*
X102003452Y-107615125D01*
X102003452Y-107615125D02*
X102003452Y-107734173D01*
X102003452Y-107734173D02*
X101979642Y-107829411D01*
X101979642Y-107829411D02*
X101955833Y-107877030D01*
X101955833Y-107877030D02*
X101932023Y-107900840D01*
X101932023Y-107900840D02*
X101884404Y-107924649D01*
X101884404Y-107924649D02*
X101836785Y-107924649D01*
X101836785Y-107924649D02*
X101789166Y-107900840D01*
X101789166Y-107900840D02*
X101765357Y-107877030D01*
X101765357Y-107877030D02*
X101741547Y-107829411D01*
X101741547Y-107829411D02*
X101717738Y-107734173D01*
X101717738Y-107734173D02*
X101717738Y-107615125D01*
X101717738Y-107615125D02*
X101741547Y-107519887D01*
X101741547Y-107519887D02*
X101765357Y-107472268D01*
X101765357Y-107472268D02*
X101789166Y-107448459D01*
X101789166Y-107448459D02*
X101836785Y-107424649D01*
D13*
X102668571Y-114572319D02*
X102335238Y-114096128D01*
X102097143Y-114572319D02*
X102097143Y-113572319D01*
X102097143Y-113572319D02*
X102478095Y-113572319D01*
X102478095Y-113572319D02*
X102573333Y-113619938D01*
X102573333Y-113619938D02*
X102620952Y-113667557D01*
X102620952Y-113667557D02*
X102668571Y-113762795D01*
X102668571Y-113762795D02*
X102668571Y-113905652D01*
X102668571Y-113905652D02*
X102620952Y-114000890D01*
X102620952Y-114000890D02*
X102573333Y-114048509D01*
X102573333Y-114048509D02*
X102478095Y-114096128D01*
X102478095Y-114096128D02*
X102097143Y-114096128D01*
X102954286Y-113572319D02*
X103287619Y-114572319D01*
X103287619Y-114572319D02*
X103620952Y-113572319D01*
X103906667Y-113667557D02*
X103954286Y-113619938D01*
X103954286Y-113619938D02*
X104049524Y-113572319D01*
X104049524Y-113572319D02*
X104287619Y-113572319D01*
X104287619Y-113572319D02*
X104382857Y-113619938D01*
X104382857Y-113619938D02*
X104430476Y-113667557D01*
X104430476Y-113667557D02*
X104478095Y-113762795D01*
X104478095Y-113762795D02*
X104478095Y-113858033D01*
X104478095Y-113858033D02*
X104430476Y-114000890D01*
X104430476Y-114000890D02*
X103859048Y-114572319D01*
X103859048Y-114572319D02*
X104478095Y-114572319D01*
X105097143Y-113572319D02*
X105192381Y-113572319D01*
X105192381Y-113572319D02*
X105287619Y-113619938D01*
X105287619Y-113619938D02*
X105335238Y-113667557D01*
X105335238Y-113667557D02*
X105382857Y-113762795D01*
X105382857Y-113762795D02*
X105430476Y-113953271D01*
X105430476Y-113953271D02*
X105430476Y-114191366D01*
X105430476Y-114191366D02*
X105382857Y-114381842D01*
X105382857Y-114381842D02*
X105335238Y-114477080D01*
X105335238Y-114477080D02*
X105287619Y-114524700D01*
X105287619Y-114524700D02*
X105192381Y-114572319D01*
X105192381Y-114572319D02*
X105097143Y-114572319D01*
X105097143Y-114572319D02*
X105001905Y-114524700D01*
X105001905Y-114524700D02*
X104954286Y-114477080D01*
X104954286Y-114477080D02*
X104906667Y-114381842D01*
X104906667Y-114381842D02*
X104859048Y-114191366D01*
X104859048Y-114191366D02*
X104859048Y-113953271D01*
X104859048Y-113953271D02*
X104906667Y-113762795D01*
X104906667Y-113762795D02*
X104954286Y-113667557D01*
X104954286Y-113667557D02*
X105001905Y-113619938D01*
X105001905Y-113619938D02*
X105097143Y-113572319D01*
D14*
X197961666Y-64248649D02*
X197795000Y-64010554D01*
X197675952Y-64248649D02*
X197675952Y-63748649D01*
X197675952Y-63748649D02*
X197866428Y-63748649D01*
X197866428Y-63748649D02*
X197914047Y-63772459D01*
X197914047Y-63772459D02*
X197937857Y-63796268D01*
X197937857Y-63796268D02*
X197961666Y-63843887D01*
X197961666Y-63843887D02*
X197961666Y-63915316D01*
X197961666Y-63915316D02*
X197937857Y-63962935D01*
X197937857Y-63962935D02*
X197914047Y-63986744D01*
X197914047Y-63986744D02*
X197866428Y-64010554D01*
X197866428Y-64010554D02*
X197675952Y-64010554D01*
X198414047Y-63748649D02*
X198175952Y-63748649D01*
X198175952Y-63748649D02*
X198152143Y-63986744D01*
X198152143Y-63986744D02*
X198175952Y-63962935D01*
X198175952Y-63962935D02*
X198223571Y-63939125D01*
X198223571Y-63939125D02*
X198342619Y-63939125D01*
X198342619Y-63939125D02*
X198390238Y-63962935D01*
X198390238Y-63962935D02*
X198414047Y-63986744D01*
X198414047Y-63986744D02*
X198437857Y-64034363D01*
X198437857Y-64034363D02*
X198437857Y-64153411D01*
X198437857Y-64153411D02*
X198414047Y-64201030D01*
X198414047Y-64201030D02*
X198390238Y-64224840D01*
X198390238Y-64224840D02*
X198342619Y-64248649D01*
X198342619Y-64248649D02*
X198223571Y-64248649D01*
X198223571Y-64248649D02*
X198175952Y-64224840D01*
X198175952Y-64224840D02*
X198152143Y-64201030D01*
D13*
X94454819Y-64531904D02*
X95264342Y-64531904D01*
X95264342Y-64531904D02*
X95359580Y-64484285D01*
X95359580Y-64484285D02*
X95407200Y-64436666D01*
X95407200Y-64436666D02*
X95454819Y-64341428D01*
X95454819Y-64341428D02*
X95454819Y-64150952D01*
X95454819Y-64150952D02*
X95407200Y-64055714D01*
X95407200Y-64055714D02*
X95359580Y-64008095D01*
X95359580Y-64008095D02*
X95264342Y-63960476D01*
X95264342Y-63960476D02*
X94454819Y-63960476D01*
X94550057Y-63531904D02*
X94502438Y-63484285D01*
X94502438Y-63484285D02*
X94454819Y-63389047D01*
X94454819Y-63389047D02*
X94454819Y-63150952D01*
X94454819Y-63150952D02*
X94502438Y-63055714D01*
X94502438Y-63055714D02*
X94550057Y-63008095D01*
X94550057Y-63008095D02*
X94645295Y-62960476D01*
X94645295Y-62960476D02*
X94740533Y-62960476D01*
X94740533Y-62960476D02*
X94883390Y-63008095D01*
X94883390Y-63008095D02*
X95454819Y-63579523D01*
X95454819Y-63579523D02*
X95454819Y-62960476D01*
X203299819Y-60604833D02*
X204014104Y-60604833D01*
X204014104Y-60604833D02*
X204156961Y-60652452D01*
X204156961Y-60652452D02*
X204252200Y-60747690D01*
X204252200Y-60747690D02*
X204299819Y-60890547D01*
X204299819Y-60890547D02*
X204299819Y-60985785D01*
X203633152Y-59700071D02*
X204299819Y-59700071D01*
X203252200Y-59938166D02*
X203966485Y-60176261D01*
X203966485Y-60176261D02*
X203966485Y-59557214D01*
X183948571Y-114572319D02*
X183615238Y-114096128D01*
X183377143Y-114572319D02*
X183377143Y-113572319D01*
X183377143Y-113572319D02*
X183758095Y-113572319D01*
X183758095Y-113572319D02*
X183853333Y-113619938D01*
X183853333Y-113619938D02*
X183900952Y-113667557D01*
X183900952Y-113667557D02*
X183948571Y-113762795D01*
X183948571Y-113762795D02*
X183948571Y-113905652D01*
X183948571Y-113905652D02*
X183900952Y-114000890D01*
X183900952Y-114000890D02*
X183853333Y-114048509D01*
X183853333Y-114048509D02*
X183758095Y-114096128D01*
X183758095Y-114096128D02*
X183377143Y-114096128D01*
X184234286Y-113572319D02*
X184567619Y-114572319D01*
X184567619Y-114572319D02*
X184900952Y-113572319D01*
X185186667Y-113667557D02*
X185234286Y-113619938D01*
X185234286Y-113619938D02*
X185329524Y-113572319D01*
X185329524Y-113572319D02*
X185567619Y-113572319D01*
X185567619Y-113572319D02*
X185662857Y-113619938D01*
X185662857Y-113619938D02*
X185710476Y-113667557D01*
X185710476Y-113667557D02*
X185758095Y-113762795D01*
X185758095Y-113762795D02*
X185758095Y-113858033D01*
X185758095Y-113858033D02*
X185710476Y-114000890D01*
X185710476Y-114000890D02*
X185139048Y-114572319D01*
X185139048Y-114572319D02*
X185758095Y-114572319D01*
X186615238Y-113905652D02*
X186615238Y-114572319D01*
X186377143Y-113524700D02*
X186139048Y-114238985D01*
X186139048Y-114238985D02*
X186758095Y-114238985D01*
X99648095Y-103649938D02*
X99552857Y-103602319D01*
X99552857Y-103602319D02*
X99410000Y-103602319D01*
X99410000Y-103602319D02*
X99267143Y-103649938D01*
X99267143Y-103649938D02*
X99171905Y-103745176D01*
X99171905Y-103745176D02*
X99124286Y-103840414D01*
X99124286Y-103840414D02*
X99076667Y-104030890D01*
X99076667Y-104030890D02*
X99076667Y-104173747D01*
X99076667Y-104173747D02*
X99124286Y-104364223D01*
X99124286Y-104364223D02*
X99171905Y-104459461D01*
X99171905Y-104459461D02*
X99267143Y-104554700D01*
X99267143Y-104554700D02*
X99410000Y-104602319D01*
X99410000Y-104602319D02*
X99505238Y-104602319D01*
X99505238Y-104602319D02*
X99648095Y-104554700D01*
X99648095Y-104554700D02*
X99695714Y-104507080D01*
X99695714Y-104507080D02*
X99695714Y-104173747D01*
X99695714Y-104173747D02*
X99505238Y-104173747D01*
X100600476Y-103602319D02*
X100124286Y-103602319D01*
X100124286Y-103602319D02*
X100076667Y-104078509D01*
X100076667Y-104078509D02*
X100124286Y-104030890D01*
X100124286Y-104030890D02*
X100219524Y-103983271D01*
X100219524Y-103983271D02*
X100457619Y-103983271D01*
X100457619Y-103983271D02*
X100552857Y-104030890D01*
X100552857Y-104030890D02*
X100600476Y-104078509D01*
X100600476Y-104078509D02*
X100648095Y-104173747D01*
X100648095Y-104173747D02*
X100648095Y-104411842D01*
X100648095Y-104411842D02*
X100600476Y-104507080D01*
X100600476Y-104507080D02*
X100552857Y-104554700D01*
X100552857Y-104554700D02*
X100457619Y-104602319D01*
X100457619Y-104602319D02*
X100219524Y-104602319D01*
X100219524Y-104602319D02*
X100124286Y-104554700D01*
X100124286Y-104554700D02*
X100076667Y-104507080D01*
X101552857Y-104602319D02*
X101076667Y-104602319D01*
X101076667Y-104602319D02*
X101076667Y-103602319D01*
X101886191Y-104078509D02*
X102219524Y-104078509D01*
X102362381Y-104602319D02*
X101886191Y-104602319D01*
X101886191Y-104602319D02*
X101886191Y-103602319D01*
X101886191Y-103602319D02*
X102362381Y-103602319D01*
X102790953Y-104221366D02*
X103552858Y-104221366D01*
X104552857Y-104602319D02*
X103981429Y-104602319D01*
X104267143Y-104602319D02*
X104267143Y-103602319D01*
X104267143Y-103602319D02*
X104171905Y-103745176D01*
X104171905Y-103745176D02*
X104076667Y-103840414D01*
X104076667Y-103840414D02*
X103981429Y-103888033D01*
X104981429Y-104221366D02*
X105743334Y-104221366D01*
X106219524Y-104602319D02*
X106219524Y-103602319D01*
X106219524Y-103602319D02*
X106457619Y-103602319D01*
X106457619Y-103602319D02*
X106600476Y-103649938D01*
X106600476Y-103649938D02*
X106695714Y-103745176D01*
X106695714Y-103745176D02*
X106743333Y-103840414D01*
X106743333Y-103840414D02*
X106790952Y-104030890D01*
X106790952Y-104030890D02*
X106790952Y-104173747D01*
X106790952Y-104173747D02*
X106743333Y-104364223D01*
X106743333Y-104364223D02*
X106695714Y-104459461D01*
X106695714Y-104459461D02*
X106600476Y-104554700D01*
X106600476Y-104554700D02*
X106457619Y-104602319D01*
X106457619Y-104602319D02*
X106219524Y-104602319D01*
X107790952Y-104507080D02*
X107743333Y-104554700D01*
X107743333Y-104554700D02*
X107600476Y-104602319D01*
X107600476Y-104602319D02*
X107505238Y-104602319D01*
X107505238Y-104602319D02*
X107362381Y-104554700D01*
X107362381Y-104554700D02*
X107267143Y-104459461D01*
X107267143Y-104459461D02*
X107219524Y-104364223D01*
X107219524Y-104364223D02*
X107171905Y-104173747D01*
X107171905Y-104173747D02*
X107171905Y-104030890D01*
X107171905Y-104030890D02*
X107219524Y-103840414D01*
X107219524Y-103840414D02*
X107267143Y-103745176D01*
X107267143Y-103745176D02*
X107362381Y-103649938D01*
X107362381Y-103649938D02*
X107505238Y-103602319D01*
X107505238Y-103602319D02*
X107600476Y-103602319D01*
X107600476Y-103602319D02*
X107743333Y-103649938D01*
X107743333Y-103649938D02*
X107790952Y-103697557D01*
X108695714Y-103602319D02*
X108219524Y-103602319D01*
X108219524Y-103602319D02*
X108171905Y-104078509D01*
X108171905Y-104078509D02*
X108219524Y-104030890D01*
X108219524Y-104030890D02*
X108314762Y-103983271D01*
X108314762Y-103983271D02*
X108552857Y-103983271D01*
X108552857Y-103983271D02*
X108648095Y-104030890D01*
X108648095Y-104030890D02*
X108695714Y-104078509D01*
X108695714Y-104078509D02*
X108743333Y-104173747D01*
X108743333Y-104173747D02*
X108743333Y-104411842D01*
X108743333Y-104411842D02*
X108695714Y-104507080D01*
X108695714Y-104507080D02*
X108648095Y-104554700D01*
X108648095Y-104554700D02*
X108552857Y-104602319D01*
X108552857Y-104602319D02*
X108314762Y-104602319D01*
X108314762Y-104602319D02*
X108219524Y-104554700D01*
X108219524Y-104554700D02*
X108171905Y-104507080D01*
X102695714Y-92352319D02*
X102695714Y-91352319D01*
X103267142Y-92352319D02*
X102838571Y-91780890D01*
X103267142Y-91352319D02*
X102695714Y-91923747D01*
X103648095Y-91447557D02*
X103695714Y-91399938D01*
X103695714Y-91399938D02*
X103790952Y-91352319D01*
X103790952Y-91352319D02*
X104029047Y-91352319D01*
X104029047Y-91352319D02*
X104124285Y-91399938D01*
X104124285Y-91399938D02*
X104171904Y-91447557D01*
X104171904Y-91447557D02*
X104219523Y-91542795D01*
X104219523Y-91542795D02*
X104219523Y-91638033D01*
X104219523Y-91638033D02*
X104171904Y-91780890D01*
X104171904Y-91780890D02*
X103600476Y-92352319D01*
X103600476Y-92352319D02*
X104219523Y-92352319D01*
X104838571Y-91352319D02*
X104933809Y-91352319D01*
X104933809Y-91352319D02*
X105029047Y-91399938D01*
X105029047Y-91399938D02*
X105076666Y-91447557D01*
X105076666Y-91447557D02*
X105124285Y-91542795D01*
X105124285Y-91542795D02*
X105171904Y-91733271D01*
X105171904Y-91733271D02*
X105171904Y-91971366D01*
X105171904Y-91971366D02*
X105124285Y-92161842D01*
X105124285Y-92161842D02*
X105076666Y-92257080D01*
X105076666Y-92257080D02*
X105029047Y-92304700D01*
X105029047Y-92304700D02*
X104933809Y-92352319D01*
X104933809Y-92352319D02*
X104838571Y-92352319D01*
X104838571Y-92352319D02*
X104743333Y-92304700D01*
X104743333Y-92304700D02*
X104695714Y-92257080D01*
X104695714Y-92257080D02*
X104648095Y-92161842D01*
X104648095Y-92161842D02*
X104600476Y-91971366D01*
X104600476Y-91971366D02*
X104600476Y-91733271D01*
X104600476Y-91733271D02*
X104648095Y-91542795D01*
X104648095Y-91542795D02*
X104695714Y-91447557D01*
X104695714Y-91447557D02*
X104743333Y-91399938D01*
X104743333Y-91399938D02*
X104838571Y-91352319D01*
%TO.C,J21*%
D12*
X123880000Y-123000000D02*
X123080000Y-121800000D01*
X124680000Y-121800000D02*
X123880000Y-123000000D01*
X121280000Y-121800000D02*
X130290000Y-121800000D01*
X130290000Y-131000000D01*
X121280000Y-131000000D01*
X121280000Y-121800000D01*
%TO.C,C2*%
X131122000Y-62286500D02*
X133122000Y-62286500D01*
X133122000Y-63536500D01*
X131122000Y-63536500D01*
X131122000Y-62286500D01*
%TO.C,R8*%
X162049500Y-57689500D02*
X164049500Y-57689500D01*
X164049500Y-58939500D01*
X162049500Y-58939500D01*
X162049500Y-57689500D01*
%TO.C,C22*%
X141012500Y-107072500D02*
X143012500Y-107072500D01*
X143012500Y-108322500D01*
X141012500Y-108322500D01*
X141012500Y-107072500D01*
%TO.C,J5*%
X180751500Y-61171500D02*
X181376500Y-62171500D01*
X181376500Y-62171500D02*
X182001500Y-61171500D01*
X178926500Y-61171500D02*
X191326500Y-61171500D01*
X191326500Y-66921500D01*
X178926500Y-66921500D01*
X178926500Y-61171500D01*
%TO.C,LED1*%
X125909500Y-57206500D02*
X125909500Y-58406500D01*
X125909500Y-58406500D02*
X127609500Y-58406500D01*
X127609500Y-58406500D02*
X127909500Y-58106500D01*
X127909500Y-57206500D02*
X125909500Y-57206500D01*
X127909500Y-58106500D02*
X127909500Y-57206500D01*
%TO.C,R11*%
X130989500Y-57181500D02*
X132989500Y-57181500D01*
X132989500Y-58431500D01*
X130989500Y-58431500D01*
X130989500Y-57181500D01*
%TO.C,R20*%
X105490000Y-107072500D02*
X107490000Y-107072500D01*
X107490000Y-108322500D01*
X105490000Y-108322500D01*
X105490000Y-107072500D01*
%TO.C,J2*%
X54500000Y-108900000D02*
X54900000Y-108500000D01*
X54500000Y-118500000D02*
X54500000Y-108900000D01*
X54900000Y-108500000D02*
X54900000Y-118500000D01*
X54900000Y-108500000D02*
X63500000Y-108500000D01*
X56000000Y-108500000D02*
X56000000Y-118500000D01*
X60773000Y-112517000D02*
X57983000Y-109727000D01*
X60773000Y-117517000D02*
X57983000Y-114727000D01*
X61017000Y-112273000D02*
X58227000Y-109483000D01*
X61017000Y-117273000D02*
X58227000Y-114483000D01*
X63500000Y-108500000D02*
X63500000Y-118500000D01*
X63500000Y-118500000D02*
X54500000Y-118500000D01*
X61500000Y-111000000D02*
G75*
G02*
X57500000Y-111000000I-2000000J0D01*
G01*
X57500000Y-111000000D02*
G75*
G02*
X61500000Y-111000000I2000000J0D01*
G01*
X61500000Y-116000000D02*
G75*
G02*
X57500000Y-116000000I-2000000J0D01*
G01*
X57500000Y-116000000D02*
G75*
G02*
X61500000Y-116000000I2000000J0D01*
G01*
%TO.C,F1*%
X66100000Y-104200000D02*
X75900000Y-104200000D01*
X75900000Y-129600000D01*
X66100000Y-129600000D01*
X66100000Y-104200000D01*
%TO.C,U3*%
X55250000Y-100860000D02*
X55250000Y-67060000D01*
X75750000Y-67060000D01*
X75750000Y-101860000D01*
X56250000Y-101860000D01*
X55250000Y-100860000D01*
%TO.C,RV21*%
X116310000Y-111417500D02*
X116310000Y-116817500D01*
X116310000Y-111417500D02*
X131810000Y-111417500D01*
X116310000Y-116817500D02*
X131810000Y-116817500D01*
X131810000Y-111417500D02*
X131810000Y-116817500D01*
%TO.C,R10*%
X197045000Y-60896500D02*
X199045000Y-60896500D01*
X199045000Y-62146500D01*
X197045000Y-62146500D01*
X197045000Y-60896500D01*
%TO.C,C25*%
X201972500Y-107072500D02*
X203972500Y-107072500D01*
X203972500Y-108322500D01*
X201972500Y-108322500D01*
X201972500Y-107072500D01*
%TO.C,R1*%
X92375000Y-70500000D02*
X93625000Y-70500000D01*
X93625000Y-72500000D01*
X92375000Y-72500000D01*
X92375000Y-70500000D01*
%TO.C,R4*%
X162049500Y-53625500D02*
X164049500Y-53625500D01*
X164049500Y-54875500D01*
X162049500Y-54875500D01*
X162049500Y-53625500D01*
%TO.C,U1*%
X126464500Y-68681500D02*
X126464500Y-72381500D01*
X132164500Y-68681500D02*
X126464500Y-68681500D01*
X132164500Y-68681500D02*
X133164500Y-69681500D01*
X133164500Y-69681500D02*
X133164500Y-72381500D01*
X133164500Y-72381500D02*
X126464500Y-72381500D01*
%TO.C,K21*%
X115980000Y-80647500D02*
X123230000Y-80647500D01*
X115980000Y-103147500D02*
X115980000Y-80647500D01*
X119730000Y-85197500D02*
X128730000Y-85197500D01*
X123230000Y-80647500D02*
X124230000Y-81647500D01*
X124230000Y-81647500D02*
X125230000Y-80647500D01*
X125230000Y-80647500D02*
X132480000Y-80647500D01*
X132480000Y-80647500D02*
X132480000Y-103147500D01*
X132480000Y-103147500D02*
X115980000Y-103147500D01*
%TO.C,R21*%
X125810000Y-107072500D02*
X127810000Y-107072500D01*
X127810000Y-108322500D01*
X125810000Y-108322500D01*
X125810000Y-107072500D01*
%TO.C,C21*%
X120692500Y-107072500D02*
X122692500Y-107072500D01*
X122692500Y-108322500D01*
X120692500Y-108322500D01*
X120692500Y-107072500D01*
%TO.C,J20*%
X103560000Y-123000000D02*
X102760000Y-121800000D01*
X104360000Y-121800000D02*
X103560000Y-123000000D01*
X100960000Y-121800000D02*
X109970000Y-121800000D01*
X109970000Y-131000000D01*
X100960000Y-131000000D01*
X100960000Y-121800000D01*
%TO.C,R24*%
X186770000Y-107072500D02*
X188770000Y-107072500D01*
X188770000Y-108322500D01*
X186770000Y-108322500D01*
X186770000Y-107072500D01*
%TO.C,J25*%
X202184000Y-123000000D02*
X201384000Y-121800000D01*
X202984000Y-121800000D02*
X202184000Y-123000000D01*
X199584000Y-121800000D02*
X208594000Y-121800000D01*
X208594000Y-131000000D01*
X199584000Y-131000000D01*
X199584000Y-121800000D01*
%TO.C,C1*%
X126006500Y-62286500D02*
X128006500Y-62286500D01*
X128006500Y-63536500D01*
X126006500Y-63536500D01*
X126006500Y-62286500D01*
%TO.C,J6*%
X180751500Y-52281500D02*
X181376500Y-53281500D01*
X181376500Y-53281500D02*
X182001500Y-52281500D01*
X178926500Y-52281500D02*
X191326500Y-52281500D01*
X191326500Y-58031500D01*
X178926500Y-58031500D01*
X178926500Y-52281500D01*
%TO.C,K25*%
X197260000Y-80647500D02*
X204510000Y-80647500D01*
X197260000Y-103147500D02*
X197260000Y-80647500D01*
X201010000Y-85197500D02*
X210010000Y-85197500D01*
X204510000Y-80647500D02*
X205510000Y-81647500D01*
X205510000Y-81647500D02*
X206510000Y-80647500D01*
X206510000Y-80647500D02*
X213760000Y-80647500D01*
X213760000Y-80647500D02*
X213760000Y-103147500D01*
X213760000Y-103147500D02*
X197260000Y-103147500D01*
%TO.C,SW1*%
X169012500Y-51773000D02*
X172912500Y-51773000D01*
X169012500Y-54673000D02*
X169012500Y-51773000D01*
X172912500Y-51773000D02*
X172912500Y-54673000D01*
X172912500Y-54673000D02*
X169012500Y-54673000D01*
X171962500Y-53223000D02*
G75*
G02*
X169962500Y-53223000I-1000000J0D01*
G01*
X169962500Y-53223000D02*
G75*
G02*
X171962500Y-53223000I1000000J0D01*
G01*
%TO.C,R14*%
X197000000Y-55875000D02*
X199000000Y-55875000D01*
X199000000Y-57125000D01*
X197000000Y-57125000D01*
X197000000Y-55875000D01*
%TO.C,C23*%
X161332500Y-107072500D02*
X163332500Y-107072500D01*
X163332500Y-108322500D01*
X161332500Y-108322500D01*
X161332500Y-107072500D01*
%TO.C,R25*%
X207090000Y-107072500D02*
X209090000Y-107072500D01*
X209090000Y-108322500D01*
X207090000Y-108322500D01*
X207090000Y-107072500D01*
%TO.C,J24*%
X184840000Y-123000000D02*
X184040000Y-121800000D01*
X185640000Y-121800000D02*
X184840000Y-123000000D01*
X182240000Y-121800000D02*
X191250000Y-121800000D01*
X191250000Y-131000000D01*
X182240000Y-131000000D01*
X182240000Y-121800000D01*
%TO.C,LED2*%
X126029500Y-52126500D02*
X126029500Y-53326500D01*
X126029500Y-53326500D02*
X127729500Y-53326500D01*
X127729500Y-53326500D02*
X128029500Y-53026500D01*
X128029500Y-52126500D02*
X126029500Y-52126500D01*
X128029500Y-53026500D02*
X128029500Y-52126500D01*
%TO.C,SW2*%
X168957500Y-55848500D02*
X172857500Y-55848500D01*
X168957500Y-58748500D02*
X168957500Y-55848500D01*
X172857500Y-55848500D02*
X172857500Y-58748500D01*
X172857500Y-58748500D02*
X168957500Y-58748500D01*
X171907500Y-57298500D02*
G75*
G02*
X169907500Y-57298500I-1000000J0D01*
G01*
X169907500Y-57298500D02*
G75*
G02*
X171907500Y-57298500I1000000J0D01*
G01*
%TO.C,C3*%
X99375000Y-70500000D02*
X100625000Y-70500000D01*
X100625000Y-72500000D01*
X99375000Y-72500000D01*
X99375000Y-70500000D01*
%TO.C,R2*%
X96375000Y-70500000D02*
X97625000Y-70500000D01*
X97625000Y-72500000D01*
X96375000Y-72500000D01*
X96375000Y-70500000D01*
%TO.C,RV23*%
X156950000Y-111417500D02*
X156950000Y-116817500D01*
X156950000Y-111417500D02*
X172450000Y-111417500D01*
X156950000Y-116817500D02*
X172450000Y-116817500D01*
X172450000Y-111417500D02*
X172450000Y-116817500D01*
%TO.C,K1*%
D16*
X81650000Y-76090000D02*
X81650000Y-100590000D01*
X81650000Y-100590000D02*
X87150000Y-100590000D01*
X87150000Y-76090000D02*
X81650000Y-76090000D01*
X87150000Y-100590000D02*
X87150000Y-76090000D01*
D11*
X83230000Y-101270000D02*
G75*
G02*
X83030000Y-101270000I-100000J0D01*
G01*
X83030000Y-101270000D02*
G75*
G02*
X83230000Y-101270000I100000J0D01*
G01*
%TO.C,F2*%
D12*
X78100000Y-47300000D02*
X87900000Y-47300000D01*
X87900000Y-72700000D01*
X78100000Y-72700000D01*
X78100000Y-47300000D01*
%TO.C,K22*%
X136300000Y-80647500D02*
X143550000Y-80647500D01*
X136300000Y-103147500D02*
X136300000Y-80647500D01*
X140050000Y-85197500D02*
X149050000Y-85197500D01*
X143550000Y-80647500D02*
X144550000Y-81647500D01*
X144550000Y-81647500D02*
X145550000Y-80647500D01*
X145550000Y-80647500D02*
X152800000Y-80647500D01*
X152800000Y-80647500D02*
X152800000Y-103147500D01*
X152800000Y-103147500D02*
X136300000Y-103147500D01*
%TO.C,R9*%
X196957500Y-58396500D02*
X198957500Y-58396500D01*
X198957500Y-59646500D01*
X196957500Y-59646500D01*
X196957500Y-58396500D01*
%TO.C,J23*%
X164520000Y-123000000D02*
X163720000Y-121800000D01*
X165320000Y-121800000D02*
X164520000Y-123000000D01*
X161920000Y-121800000D02*
X170930000Y-121800000D01*
X170930000Y-131000000D01*
X161920000Y-131000000D01*
X161920000Y-121800000D01*
%TO.C,RV22*%
X136630000Y-111417500D02*
X136630000Y-116817500D01*
X136630000Y-111417500D02*
X152130000Y-111417500D01*
X136630000Y-116817500D02*
X152130000Y-116817500D01*
X152130000Y-111417500D02*
X152130000Y-116817500D01*
%TO.C,R12*%
X131109500Y-52101500D02*
X133109500Y-52101500D01*
X133109500Y-53351500D01*
X131109500Y-53351500D01*
X131109500Y-52101500D01*
%TO.C,RV25*%
X197470000Y-111277500D02*
X197470000Y-116677500D01*
X197470000Y-111277500D02*
X212970000Y-111277500D01*
X197470000Y-116677500D02*
X212970000Y-116677500D01*
X212970000Y-111277500D02*
X212970000Y-116677500D01*
%TO.C,U5*%
X173689500Y-66281500D02*
X173689500Y-72781500D01*
X162139500Y-72781500D01*
X162139500Y-65281500D01*
X172689500Y-65281500D01*
X173689500Y-66281500D01*
%TO.C,J3*%
X57000000Y-54900000D02*
X57400000Y-54500000D01*
X57000000Y-64500000D02*
X57000000Y-54900000D01*
X57400000Y-54500000D02*
X57400000Y-64500000D01*
X57400000Y-54500000D02*
X66000000Y-54500000D01*
X58500000Y-54500000D02*
X58500000Y-64500000D01*
X63273000Y-58517000D02*
X60483000Y-55727000D01*
X63273000Y-63517000D02*
X60483000Y-60727000D01*
X63517000Y-58273000D02*
X60727000Y-55483000D01*
X63517000Y-63273000D02*
X60727000Y-60483000D01*
X66000000Y-54500000D02*
X66000000Y-64500000D01*
X66000000Y-64500000D02*
X57000000Y-64500000D01*
X64000000Y-57000000D02*
G75*
G02*
X60000000Y-57000000I-2000000J0D01*
G01*
X60000000Y-57000000D02*
G75*
G02*
X64000000Y-57000000I2000000J0D01*
G01*
X64000000Y-62000000D02*
G75*
G02*
X60000000Y-62000000I-2000000J0D01*
G01*
X60000000Y-62000000D02*
G75*
G02*
X64000000Y-62000000I2000000J0D01*
G01*
%TO.C,R13*%
X197000000Y-53375000D02*
X199000000Y-53375000D01*
X199000000Y-54625000D01*
X197000000Y-54625000D01*
X197000000Y-53375000D01*
%TO.C,R7*%
X162049500Y-55657500D02*
X164049500Y-55657500D01*
X164049500Y-56907500D01*
X162049500Y-56907500D01*
X162049500Y-55657500D01*
%TO.C,C4*%
X197000000Y-50875000D02*
X199000000Y-50875000D01*
X199000000Y-52125000D01*
X197000000Y-52125000D01*
X197000000Y-50875000D01*
%TO.C,R6*%
X197045000Y-65896500D02*
X199045000Y-65896500D01*
X199045000Y-67146500D01*
X197045000Y-67146500D01*
X197045000Y-65896500D01*
%TO.C,K23*%
X156620000Y-80647500D02*
X163870000Y-80647500D01*
X156620000Y-103147500D02*
X156620000Y-80647500D01*
X160370000Y-85197500D02*
X169370000Y-85197500D01*
X163870000Y-80647500D02*
X164870000Y-81647500D01*
X164870000Y-81647500D02*
X165870000Y-80647500D01*
X165870000Y-80647500D02*
X173120000Y-80647500D01*
X173120000Y-80647500D02*
X173120000Y-103147500D01*
X173120000Y-103147500D02*
X156620000Y-103147500D01*
%TO.C,D1*%
X89400000Y-70500000D02*
X89400000Y-72200000D01*
X89400000Y-72200000D02*
X89700000Y-72500000D01*
X89700000Y-72500000D02*
X90600000Y-72500000D01*
X90600000Y-70500000D02*
X89400000Y-70500000D01*
X90600000Y-72500000D02*
X90600000Y-70500000D01*
%TO.C,J22*%
X144200000Y-123000000D02*
X143400000Y-121800000D01*
X145000000Y-121800000D02*
X144200000Y-123000000D01*
X141600000Y-121800000D02*
X150610000Y-121800000D01*
X150610000Y-131000000D01*
X141600000Y-131000000D01*
X141600000Y-121800000D01*
%TO.C,R23*%
X166450000Y-107072500D02*
X168450000Y-107072500D01*
X168450000Y-108322500D01*
X166450000Y-108322500D01*
X166450000Y-107072500D01*
%TO.C,U4*%
X137959500Y-52826500D02*
X137959500Y-53426500D01*
X137959500Y-52826500D02*
X155959500Y-52826500D01*
X137959500Y-54426500D02*
X137959500Y-72026500D01*
X137959500Y-54426500D02*
X138459500Y-53926500D01*
X137959500Y-72026500D02*
X155959500Y-72026500D01*
X138459500Y-53926500D02*
X137959500Y-53426500D01*
X155959500Y-72026500D02*
X155959500Y-52826500D01*
%TO.C,C24*%
X181652500Y-107072500D02*
X183652500Y-107072500D01*
X183652500Y-108322500D01*
X181652500Y-108322500D01*
X181652500Y-107072500D01*
%TO.C,K24*%
X176940000Y-80647500D02*
X184190000Y-80647500D01*
X176940000Y-103147500D02*
X176940000Y-80647500D01*
X180690000Y-85197500D02*
X189690000Y-85197500D01*
X184190000Y-80647500D02*
X185190000Y-81647500D01*
X185190000Y-81647500D02*
X186190000Y-80647500D01*
X186190000Y-80647500D02*
X193440000Y-80647500D01*
X193440000Y-80647500D02*
X193440000Y-103147500D01*
X193440000Y-103147500D02*
X176940000Y-103147500D01*
%TO.C,R22*%
X146130000Y-107072500D02*
X148130000Y-107072500D01*
X148130000Y-108322500D01*
X146130000Y-108322500D01*
X146130000Y-107072500D01*
%TO.C,J1*%
X82000000Y-123000000D02*
X81200000Y-121800000D01*
X82800000Y-121800000D02*
X82000000Y-123000000D01*
X79400000Y-121800000D02*
X92220000Y-121800000D01*
X92220000Y-131000000D01*
X79400000Y-131000000D01*
X79400000Y-121800000D01*
%TO.C,R3*%
X162049500Y-51593500D02*
X164049500Y-51593500D01*
X164049500Y-52843500D01*
X162049500Y-52843500D01*
X162049500Y-51593500D01*
%TO.C,C20*%
X100372500Y-107072500D02*
X102372500Y-107072500D01*
X102372500Y-108322500D01*
X100372500Y-108322500D01*
X100372500Y-107072500D01*
%TO.C,RV20*%
X95990000Y-111417500D02*
X95990000Y-116817500D01*
X95990000Y-111417500D02*
X111490000Y-111417500D01*
X95990000Y-116817500D02*
X111490000Y-116817500D01*
X111490000Y-111417500D02*
X111490000Y-116817500D01*
%TO.C,R5*%
X197045000Y-63396500D02*
X199045000Y-63396500D01*
X199045000Y-64646500D01*
X197045000Y-64646500D01*
X197045000Y-63396500D01*
%TO.C,U2*%
X94050000Y-61720000D02*
X96900000Y-61720000D01*
X96900000Y-65820000D01*
X93100000Y-65820000D01*
X93100000Y-62670000D01*
X94050000Y-61720000D01*
%TO.C,J4*%
X207895000Y-54021500D02*
X208895000Y-54646500D01*
X208895000Y-53396500D02*
X207895000Y-54021500D01*
X203145000Y-51571500D02*
X208895000Y-51571500D01*
X208895000Y-68971500D01*
X203145000Y-68971500D01*
X203145000Y-51571500D01*
%TO.C,RV24*%
X177270000Y-111417500D02*
X177270000Y-116817500D01*
X177270000Y-111417500D02*
X192770000Y-111417500D01*
X177270000Y-116817500D02*
X192770000Y-116817500D01*
X192770000Y-111417500D02*
X192770000Y-116817500D01*
%TO.C,K20*%
X95660000Y-80647500D02*
X102910000Y-80647500D01*
X95660000Y-103147500D02*
X95660000Y-80647500D01*
X99410000Y-85197500D02*
X108410000Y-85197500D01*
X102910000Y-80647500D02*
X103910000Y-81647500D01*
X103910000Y-81647500D02*
X104910000Y-80647500D01*
X104910000Y-80647500D02*
X112160000Y-80647500D01*
X112160000Y-80647500D02*
X112160000Y-103147500D01*
X112160000Y-103147500D02*
X95660000Y-103147500D01*
%TD*%
M02*
