%TF.GenerationSoftware,KiCad,Pcbnew,10.0.3*%
%TF.CreationDate,2026-06-24T21:58:34+08:00*%
%TF.ProjectId,Sprinkler System,53707269-6e6b-46c6-9572-205379737465,rev?*%
%TF.SameCoordinates,Original*%
%TF.FileFunction,Other,User*%
%FSLAX46Y46*%
G04 Gerber Fmt 4.6, Leading zero omitted, Abs format (unit mm)*
G04 Created by KiCad (PCBNEW 10.0.3) date 2026-06-24 21:58:34*
%MOMM*%
%LPD*%
G01*
G04 APERTURE LIST*
%ADD10C,0.050000*%
%ADD11C,0.100000*%
G04 APERTURE END LIST*
%TO.C,J21*%
D10*
X120670000Y-120700000D02*
X130790000Y-120700000D01*
X130790000Y-131500000D01*
X120670000Y-131500000D01*
X120670000Y-120700000D01*
%TO.C,C2*%
X130157500Y-64520000D02*
X133917500Y-64520000D01*
X133917500Y-66480000D01*
X130157500Y-66480000D01*
X130157500Y-64520000D01*
%TO.C,TP1*%
X106250000Y-74000000D02*
G75*
G02*
X103750000Y-74000000I-1250000J0D01*
G01*
X103750000Y-74000000D02*
G75*
G02*
X106250000Y-74000000I1250000J0D01*
G01*
%TO.C,R7*%
X161199500Y-57364500D02*
X164899500Y-57364500D01*
X164899500Y-59264500D01*
X161199500Y-59264500D01*
X161199500Y-57364500D01*
%TO.C,C22*%
X140132500Y-106717500D02*
X143892500Y-106717500D01*
X143892500Y-108677500D01*
X140132500Y-108677500D01*
X140132500Y-106717500D01*
%TO.C,J5*%
X178426500Y-60671500D02*
X191826500Y-60671500D01*
X191826500Y-67421500D01*
X178426500Y-67421500D01*
X178426500Y-60671500D01*
%TO.C,LED1*%
X125150000Y-54550000D02*
X128850000Y-54550000D01*
X128850000Y-56450000D01*
X125150000Y-56450000D01*
X125150000Y-54550000D01*
%TO.C,R9*%
X130150000Y-54550000D02*
X133850000Y-54550000D01*
X133850000Y-56450000D01*
X130150000Y-56450000D01*
X130150000Y-54550000D01*
%TO.C,R20*%
X104640000Y-106747500D02*
X108340000Y-106747500D01*
X108340000Y-108647500D01*
X104640000Y-108647500D01*
X104640000Y-106747500D01*
%TO.C,J2*%
X54000000Y-106000000D02*
X64000000Y-106000000D01*
X64000000Y-117000000D01*
X54000000Y-117000000D01*
X54000000Y-106000000D01*
%TO.C,RV2*%
X78270000Y-105750000D02*
X82780000Y-105750000D01*
X78270000Y-118250000D02*
X78270000Y-105750000D01*
X78270000Y-118250000D02*
X82780000Y-118250000D01*
X82780000Y-118250000D02*
X82780000Y-105750000D01*
%TO.C,H3*%
X60100000Y-127000000D02*
G75*
G02*
X53900000Y-127000000I-3100000J0D01*
G01*
X53900000Y-127000000D02*
G75*
G02*
X60100000Y-127000000I3100000J0D01*
G01*
%TO.C,F1*%
D11*
X65800000Y-103900000D02*
X76200000Y-103900000D01*
X76200000Y-129900000D01*
X65800000Y-129900000D01*
X65800000Y-103900000D01*
%TO.C,U3*%
D10*
X54000000Y-65810000D02*
X77000000Y-65810000D01*
X77000000Y-103110000D01*
X54000000Y-103110000D01*
X54000000Y-65810000D01*
%TO.C,RV21*%
X116060000Y-111167500D02*
X116060000Y-117067500D01*
X116060000Y-111167500D02*
X132060000Y-111167500D01*
X116060000Y-117067500D02*
X132060000Y-117067500D01*
X132060000Y-111167500D02*
X132060000Y-117067500D01*
%TO.C,R11*%
X196195000Y-60571500D02*
X199895000Y-60571500D01*
X199895000Y-62471500D01*
X196195000Y-62471500D01*
X196195000Y-60571500D01*
%TO.C,C25*%
X201092500Y-106717500D02*
X204852500Y-106717500D01*
X204852500Y-108677500D01*
X201092500Y-108677500D01*
X201092500Y-106717500D01*
%TO.C,R1*%
X92050000Y-69650000D02*
X93950000Y-69650000D01*
X93950000Y-73350000D01*
X92050000Y-73350000D01*
X92050000Y-69650000D01*
%TO.C,R4*%
X161199500Y-53300500D02*
X164899500Y-53300500D01*
X164899500Y-55200500D01*
X161199500Y-55200500D01*
X161199500Y-53300500D01*
%TO.C,U1*%
X125250000Y-68100000D02*
X125250000Y-75300000D01*
X125250000Y-75300000D02*
X134050000Y-75300000D01*
X134050000Y-68100000D02*
X125250000Y-68100000D01*
X134050000Y-75300000D02*
X134050000Y-68100000D01*
%TO.C,K21*%
X115730000Y-80397500D02*
X115730000Y-103397500D01*
X115730000Y-103397500D02*
X132730000Y-103397500D01*
X132730000Y-80397500D02*
X115730000Y-80397500D01*
X132730000Y-103397500D02*
X132730000Y-80397500D01*
%TO.C,R21*%
X124960000Y-106747500D02*
X128660000Y-106747500D01*
X128660000Y-108647500D01*
X124960000Y-108647500D01*
X124960000Y-106747500D01*
%TO.C,C21*%
X119812500Y-106717500D02*
X123572500Y-106717500D01*
X123572500Y-108677500D01*
X119812500Y-108677500D01*
X119812500Y-106717500D01*
%TO.C,J20*%
X100350000Y-120700000D02*
X110470000Y-120700000D01*
X110470000Y-131500000D01*
X100350000Y-131500000D01*
X100350000Y-120700000D01*
%TO.C,R24*%
X185920000Y-106747500D02*
X189620000Y-106747500D01*
X189620000Y-108647500D01*
X185920000Y-108647500D01*
X185920000Y-106747500D01*
%TO.C,J25*%
X198974000Y-120700000D02*
X209094000Y-120700000D01*
X209094000Y-131500000D01*
X198974000Y-131500000D01*
X198974000Y-120700000D01*
%TO.C,C1*%
X125082500Y-64520000D02*
X128842500Y-64520000D01*
X128842500Y-66480000D01*
X125082500Y-66480000D01*
X125082500Y-64520000D01*
%TO.C,J6*%
X178426500Y-51781500D02*
X191826500Y-51781500D01*
X191826500Y-58531500D01*
X178426500Y-58531500D01*
X178426500Y-51781500D01*
%TO.C,K25*%
X197010000Y-80397500D02*
X197010000Y-103397500D01*
X197010000Y-103397500D02*
X214010000Y-103397500D01*
X214010000Y-80397500D02*
X197010000Y-80397500D01*
X214010000Y-103397500D02*
X214010000Y-80397500D01*
%TO.C,SW1*%
X168212500Y-51523000D02*
X173712500Y-51523000D01*
X168212500Y-54923000D02*
X168212500Y-51523000D01*
X173712500Y-51523000D02*
X173712500Y-54923000D01*
X173712500Y-54923000D02*
X168212500Y-54923000D01*
%TO.C,R14*%
X196150000Y-55550000D02*
X199850000Y-55550000D01*
X199850000Y-57450000D01*
X196150000Y-57450000D01*
X196150000Y-55550000D01*
%TO.C,C23*%
X160452500Y-106717500D02*
X164212500Y-106717500D01*
X164212500Y-108677500D01*
X160452500Y-108677500D01*
X160452500Y-106717500D01*
%TO.C,R25*%
X206240000Y-106747500D02*
X209940000Y-106747500D01*
X209940000Y-108647500D01*
X206240000Y-108647500D01*
X206240000Y-106747500D01*
%TO.C,J24*%
X181630000Y-120700000D02*
X191750000Y-120700000D01*
X191750000Y-131500000D01*
X181630000Y-131500000D01*
X181630000Y-120700000D01*
%TO.C,LED2*%
X125150000Y-49550000D02*
X128850000Y-49550000D01*
X128850000Y-51450000D01*
X125150000Y-51450000D01*
X125150000Y-49550000D01*
%TO.C,SW2*%
X168157500Y-55598500D02*
X173657500Y-55598500D01*
X168157500Y-58998500D02*
X168157500Y-55598500D01*
X173657500Y-55598500D02*
X173657500Y-58998500D01*
X173657500Y-58998500D02*
X168157500Y-58998500D01*
%TO.C,C3*%
X99020000Y-69620000D02*
X100980000Y-69620000D01*
X100980000Y-73380000D01*
X99020000Y-73380000D01*
X99020000Y-69620000D01*
%TO.C,R2*%
X96050000Y-69650000D02*
X97950000Y-69650000D01*
X97950000Y-73350000D01*
X96050000Y-73350000D01*
X96050000Y-69650000D01*
%TO.C,TP3*%
X116250000Y-74000000D02*
G75*
G02*
X113750000Y-74000000I-1250000J0D01*
G01*
X113750000Y-74000000D02*
G75*
G02*
X116250000Y-74000000I1250000J0D01*
G01*
%TO.C,RV23*%
X156700000Y-111167500D02*
X156700000Y-117067500D01*
X156700000Y-111167500D02*
X172700000Y-111167500D01*
X156700000Y-117067500D02*
X172700000Y-117067500D01*
X172700000Y-111167500D02*
X172700000Y-117067500D01*
%TO.C,K1*%
X81400000Y-75840000D02*
X87400000Y-75840000D01*
X81400000Y-100840000D02*
X81400000Y-75840000D01*
X87400000Y-75840000D02*
X87400000Y-100840000D01*
X87400000Y-100840000D02*
X81400000Y-100840000D01*
%TO.C,F2*%
D11*
X77800000Y-47000000D02*
X88200000Y-47000000D01*
X88200000Y-73000000D01*
X77800000Y-73000000D01*
X77800000Y-47000000D01*
%TO.C,K22*%
D10*
X136050000Y-80397500D02*
X136050000Y-103397500D01*
X136050000Y-103397500D02*
X153050000Y-103397500D01*
X153050000Y-80397500D02*
X136050000Y-80397500D01*
X153050000Y-103397500D02*
X153050000Y-80397500D01*
%TO.C,R10*%
X196107500Y-58071500D02*
X199807500Y-58071500D01*
X199807500Y-59971500D01*
X196107500Y-59971500D01*
X196107500Y-58071500D01*
%TO.C,J23*%
X161310000Y-120700000D02*
X171430000Y-120700000D01*
X171430000Y-131500000D01*
X161310000Y-131500000D01*
X161310000Y-120700000D01*
%TO.C,RV22*%
X136380000Y-111167500D02*
X136380000Y-117067500D01*
X136380000Y-111167500D02*
X152380000Y-111167500D01*
X136380000Y-117067500D02*
X152380000Y-117067500D01*
X152380000Y-111167500D02*
X152380000Y-117067500D01*
%TO.C,R12*%
X130150000Y-49550000D02*
X133850000Y-49550000D01*
X133850000Y-51450000D01*
X130150000Y-51450000D01*
X130150000Y-49550000D01*
%TO.C,C6*%
X125120000Y-59520000D02*
X128880000Y-59520000D01*
X128880000Y-61480000D01*
X125120000Y-61480000D01*
X125120000Y-59520000D01*
%TO.C,RV25*%
X197220000Y-111027500D02*
X197220000Y-116927500D01*
X197220000Y-111027500D02*
X213220000Y-111027500D01*
X197220000Y-116927500D02*
X213220000Y-116927500D01*
X213220000Y-111027500D02*
X213220000Y-116927500D01*
%TO.C,U5*%
X165390000Y-65031500D02*
X165790000Y-65031500D01*
X165390000Y-73031500D02*
X165390000Y-65031500D01*
X165790000Y-63101500D02*
X177050000Y-63101500D01*
X165790000Y-65031500D02*
X165790000Y-63101500D01*
X165790000Y-73031500D02*
X165390000Y-73031500D01*
X165790000Y-74961500D02*
X165790000Y-73031500D01*
X177050000Y-63101500D02*
X177050000Y-65031500D01*
X177050000Y-65031500D02*
X177450000Y-65031500D01*
X177050000Y-73031500D02*
X177050000Y-74961500D01*
X177050000Y-74961500D02*
X165790000Y-74961500D01*
X177450000Y-65031500D02*
X177450000Y-73031500D01*
X177450000Y-73031500D02*
X177050000Y-73031500D01*
%TO.C,R13*%
X196150000Y-53050000D02*
X199850000Y-53050000D01*
X199850000Y-54950000D01*
X196150000Y-54950000D01*
X196150000Y-53050000D01*
%TO.C,TP2*%
X111250000Y-74000000D02*
G75*
G02*
X108750000Y-74000000I-1250000J0D01*
G01*
X108750000Y-74000000D02*
G75*
G02*
X111250000Y-74000000I1250000J0D01*
G01*
%TO.C,R6*%
X161199500Y-55332500D02*
X164899500Y-55332500D01*
X164899500Y-57232500D01*
X161199500Y-57232500D01*
X161199500Y-55332500D01*
%TO.C,C7*%
X196120000Y-50520000D02*
X199880000Y-50520000D01*
X199880000Y-52480000D01*
X196120000Y-52480000D01*
X196120000Y-50520000D01*
%TO.C,R8*%
X196195000Y-65571500D02*
X199895000Y-65571500D01*
X199895000Y-67471500D01*
X196195000Y-67471500D01*
X196195000Y-65571500D01*
%TO.C,K23*%
X156370000Y-80397500D02*
X156370000Y-103397500D01*
X156370000Y-103397500D02*
X173370000Y-103397500D01*
X173370000Y-80397500D02*
X156370000Y-80397500D01*
X173370000Y-103397500D02*
X173370000Y-80397500D01*
%TO.C,D1*%
X89050000Y-69650000D02*
X90950000Y-69650000D01*
X90950000Y-73350000D01*
X89050000Y-73350000D01*
X89050000Y-69650000D01*
%TO.C,J22*%
X140990000Y-120700000D02*
X151110000Y-120700000D01*
X151110000Y-131500000D01*
X140990000Y-131500000D01*
X140990000Y-120700000D01*
%TO.C,C4*%
X130120000Y-59520000D02*
X133880000Y-59520000D01*
X133880000Y-61480000D01*
X130120000Y-61480000D01*
X130120000Y-59520000D01*
%TO.C,R23*%
X165600000Y-106747500D02*
X169300000Y-106747500D01*
X169300000Y-108647500D01*
X165600000Y-108647500D01*
X165600000Y-106747500D01*
%TO.C,H2*%
X217100000Y-50000000D02*
G75*
G02*
X210900000Y-50000000I-3100000J0D01*
G01*
X210900000Y-50000000D02*
G75*
G02*
X217100000Y-50000000I3100000J0D01*
G01*
%TO.C,H4*%
X217100000Y-127000000D02*
G75*
G02*
X210900000Y-127000000I-3100000J0D01*
G01*
X210900000Y-127000000D02*
G75*
G02*
X217100000Y-127000000I3100000J0D01*
G01*
%TO.C,U4*%
X137209500Y-72776500D02*
X137209500Y-52576500D01*
X137209500Y-72776500D02*
X156709500Y-72776500D01*
X156709500Y-52576500D02*
X137209500Y-52576500D01*
X156709500Y-52576500D02*
X156709500Y-72776500D01*
%TO.C,C24*%
X180772500Y-106717500D02*
X184532500Y-106717500D01*
X184532500Y-108677500D01*
X180772500Y-108677500D01*
X180772500Y-106717500D01*
%TO.C,K24*%
X176690000Y-80397500D02*
X176690000Y-103397500D01*
X176690000Y-103397500D02*
X193690000Y-103397500D01*
X193690000Y-80397500D02*
X176690000Y-80397500D01*
X193690000Y-103397500D02*
X193690000Y-80397500D01*
%TO.C,R22*%
X145280000Y-106747500D02*
X148980000Y-106747500D01*
X148980000Y-108647500D01*
X145280000Y-108647500D01*
X145280000Y-106747500D01*
%TO.C,J1*%
X79000000Y-120000000D02*
X95000000Y-120000000D01*
X95000000Y-130000000D01*
X79000000Y-130000000D01*
X79000000Y-120000000D01*
%TO.C,H1*%
X60100000Y-50000000D02*
G75*
G02*
X53900000Y-50000000I-3100000J0D01*
G01*
X53900000Y-50000000D02*
G75*
G02*
X60100000Y-50000000I3100000J0D01*
G01*
%TO.C,R3*%
X161199500Y-51268500D02*
X164899500Y-51268500D01*
X164899500Y-53168500D01*
X161199500Y-53168500D01*
X161199500Y-51268500D01*
%TO.C,C20*%
X99492500Y-106717500D02*
X103252500Y-106717500D01*
X103252500Y-108677500D01*
X99492500Y-108677500D01*
X99492500Y-106717500D01*
%TO.C,RV20*%
X95740000Y-111167500D02*
X95740000Y-117067500D01*
X95740000Y-111167500D02*
X111740000Y-111167500D01*
X95740000Y-117067500D02*
X111740000Y-117067500D01*
X111740000Y-111167500D02*
X111740000Y-117067500D01*
%TO.C,C5*%
X164150000Y-71500000D02*
G75*
G02*
X157350000Y-71500000I-3400000J0D01*
G01*
X157350000Y-71500000D02*
G75*
G02*
X164150000Y-71500000I3400000J0D01*
G01*
%TO.C,RV1*%
X84745000Y-105750000D02*
X84745000Y-118250000D01*
X89255000Y-105750000D02*
X84745000Y-105750000D01*
X89255000Y-105750000D02*
X89255000Y-118250000D01*
X89255000Y-118250000D02*
X84745000Y-118250000D01*
%TO.C,R5*%
X196195000Y-63071500D02*
X199895000Y-63071500D01*
X199895000Y-64971500D01*
X196195000Y-64971500D01*
X196195000Y-63071500D01*
%TO.C,U2*%
X91270000Y-61970000D02*
X92850000Y-61970000D01*
X91270000Y-65570000D02*
X91270000Y-61970000D01*
X92850000Y-61470000D02*
X97150000Y-61470000D01*
X92850000Y-61970000D02*
X92850000Y-61470000D01*
X92850000Y-65570000D02*
X91270000Y-65570000D01*
X92850000Y-66070000D02*
X92850000Y-65570000D01*
X97150000Y-61470000D02*
X97150000Y-61970000D01*
X97150000Y-61970000D02*
X98730000Y-61970000D01*
X97150000Y-65570000D02*
X97150000Y-66070000D01*
X97150000Y-66070000D02*
X92850000Y-66070000D01*
X98730000Y-61970000D02*
X98730000Y-65570000D01*
X98730000Y-65570000D02*
X97150000Y-65570000D01*
%TO.C,J4*%
X202645000Y-51071500D02*
X209395000Y-51071500D01*
X209395000Y-69471500D01*
X202645000Y-69471500D01*
X202645000Y-51071500D01*
%TO.C,RV24*%
X177020000Y-111167500D02*
X177020000Y-117067500D01*
X177020000Y-111167500D02*
X193020000Y-111167500D01*
X177020000Y-117067500D02*
X193020000Y-117067500D01*
X193020000Y-111167500D02*
X193020000Y-117067500D01*
%TO.C,K20*%
X95410000Y-80397500D02*
X95410000Y-103397500D01*
X95410000Y-103397500D02*
X112410000Y-103397500D01*
X112410000Y-80397500D02*
X95410000Y-80397500D01*
X112410000Y-103397500D02*
X112410000Y-80397500D01*
%TO.C,J3*%
X52432500Y-54040000D02*
X63232500Y-54040000D01*
X63232500Y-64160000D01*
X52432500Y-64160000D01*
X52432500Y-54040000D01*
%TD*%
M02*
