%TF.GenerationSoftware,KiCad,Pcbnew,10.0.3*%
%TF.CreationDate,2026-06-26T09:28:11+08:00*%
%TF.ProjectId,Sprinkler System,53707269-6e6b-46c6-9572-205379737465,v1.0.0-1-gb064c0c*%
%TF.SameCoordinates,Original*%
%TF.FileFunction,Soldermask,Top*%
%TF.FilePolarity,Negative*%
%FSLAX46Y46*%
G04 Gerber Fmt 4.6, Leading zero omitted, Abs format (unit mm)*
G04 Created by KiCad (PCBNEW 10.0.3) date 2026-06-26 09:28:11*
%MOMM*%
%LPD*%
G01*
G04 APERTURE LIST*
G04 Aperture macros list*
%AMRoundRect*
0 Rectangle with rounded corners*
0 $1 Rounding radius*
0 $2 $3 $4 $5 $6 $7 $8 $9 X,Y pos of 4 corners*
0 Add a 4 corners polygon primitive as box body*
4,1,4,$2,$3,$4,$5,$6,$7,$8,$9,$2,$3,0*
0 Add four circle primitives for the rounded corners*
1,1,$1+$1,$2,$3*
1,1,$1+$1,$4,$5*
1,1,$1+$1,$6,$7*
1,1,$1+$1,$8,$9*
0 Add four rect primitives between the rounded corners*
20,1,$1+$1,$2,$3,$4,$5,0*
20,1,$1+$1,$4,$5,$6,$7,0*
20,1,$1+$1,$6,$7,$8,$9,0*
20,1,$1+$1,$8,$9,$2,$3,0*%
G04 Aperture macros list end*
%ADD10RoundRect,0.250000X-0.650000X-1.550000X0.650000X-1.550000X0.650000X1.550000X-0.650000X1.550000X0*%
%ADD11O,1.800000X3.600000*%
%ADD12RoundRect,0.250000X0.337500X0.475000X-0.337500X0.475000X-0.337500X-0.475000X0.337500X-0.475000X0*%
%ADD13C,1.500000*%
%ADD14RoundRect,0.250000X0.350000X0.450000X-0.350000X0.450000X-0.350000X-0.450000X0.350000X-0.450000X0*%
%ADD15RoundRect,0.250000X-0.337500X-0.475000X0.337500X-0.475000X0.337500X0.475000X-0.337500X0.475000X0*%
%ADD16RoundRect,0.250000X-0.600000X-0.725000X0.600000X-0.725000X0.600000X0.725000X-0.600000X0.725000X0*%
%ADD17O,1.700000X1.950000*%
%ADD18RoundRect,0.250000X0.325000X0.450000X-0.325000X0.450000X-0.325000X-0.450000X0.325000X-0.450000X0*%
%ADD19RoundRect,0.250000X-0.350000X-0.450000X0.350000X-0.450000X0.350000X0.450000X-0.350000X0.450000X0*%
%ADD20RoundRect,0.250000X-1.050000X1.050000X-1.050000X-1.050000X1.050000X-1.050000X1.050000X1.050000X0*%
%ADD21C,2.600000*%
%ADD22C,1.800000*%
%ADD23C,3.200000*%
%ADD24C,2.300000*%
%ADD25RoundRect,0.250000X0.750000X-0.600000X0.750000X0.600000X-0.750000X0.600000X-0.750000X-0.600000X0*%
%ADD26O,2.000000X1.700000*%
%ADD27RoundRect,0.250000X-0.450000X0.350000X-0.450000X-0.350000X0.450000X-0.350000X0.450000X0.350000X0*%
%ADD28RoundRect,0.375000X-0.625000X-0.375000X0.625000X-0.375000X0.625000X0.375000X-0.625000X0.375000X0*%
%ADD29RoundRect,0.500000X-0.500000X-1.400000X0.500000X-1.400000X0.500000X1.400000X-0.500000X1.400000X0*%
%ADD30R,2.500000X2.500000*%
%ADD31O,2.500000X2.500000*%
%ADD32RoundRect,0.200000X-0.200000X-0.800000X0.200000X-0.800000X0.200000X0.800000X-0.200000X0.800000X0*%
%ADD33RoundRect,0.250000X-0.475000X0.337500X-0.475000X-0.337500X0.475000X-0.337500X0.475000X0.337500X0*%
%ADD34RoundRect,0.102000X0.754000X-0.754000X0.754000X0.754000X-0.754000X0.754000X-0.754000X-0.754000X0*%
%ADD35C,1.712000*%
%ADD36RoundRect,0.150000X-0.150000X0.875000X-0.150000X-0.875000X0.150000X-0.875000X0.150000X0.875000X0*%
%ADD37RoundRect,0.250000X0.450000X-0.325000X0.450000X0.325000X-0.450000X0.325000X-0.450000X-0.325000X0*%
%ADD38R,1.500000X0.900000*%
%ADD39R,0.900000X1.500000*%
%ADD40C,0.600000*%
%ADD41R,3.800000X3.800000*%
%ADD42RoundRect,0.250000X-1.050000X-1.050000X1.050000X-1.050000X1.050000X1.050000X-1.050000X1.050000X0*%
%ADD43RoundRect,0.250000X0.550000X0.550000X-0.550000X0.550000X-0.550000X-0.550000X0.550000X-0.550000X0*%
%ADD44C,1.600000*%
%ADD45RoundRect,0.137500X-0.587500X-0.137500X0.587500X-0.137500X0.587500X0.137500X-0.587500X0.137500X0*%
%ADD46RoundRect,0.250000X-0.725000X0.600000X-0.725000X-0.600000X0.725000X-0.600000X0.725000X0.600000X0*%
%ADD47O,1.950000X1.700000*%
%ADD48RoundRect,0.250000X-1.550000X0.650000X-1.550000X-0.650000X1.550000X-0.650000X1.550000X0.650000X0*%
%ADD49O,3.600000X1.800000*%
G04 APERTURE END LIST*
D10*
%TO.C,J21*%
X123880000Y-123000000D03*
D11*
X127690000Y-123000000D03*
%TD*%
D12*
%TO.C,C2*%
X133075000Y-65500000D03*
X131000000Y-65500000D03*
%TD*%
D13*
%TO.C,TP1*%
X105000000Y-74000000D03*
%TD*%
D14*
%TO.C,R7*%
X164049500Y-58314500D03*
X162049500Y-58314500D03*
%TD*%
D15*
%TO.C,C22*%
X140975000Y-107697500D03*
X143050000Y-107697500D03*
%TD*%
D16*
%TO.C,J5*%
X181376500Y-63521500D03*
D17*
X183876500Y-63521500D03*
X186376500Y-63521500D03*
X188876500Y-63521500D03*
%TD*%
D18*
%TO.C,LED1*%
X128025000Y-55500000D03*
X125975000Y-55500000D03*
%TD*%
D19*
%TO.C,R9*%
X131000000Y-55500000D03*
X133000000Y-55500000D03*
%TD*%
%TO.C,R20*%
X105490000Y-107697500D03*
X107490000Y-107697500D03*
%TD*%
D20*
%TO.C,J2*%
X59500000Y-109000000D03*
D21*
X59500000Y-114000000D03*
%TD*%
D22*
%TO.C,RV2*%
X79800000Y-115750000D03*
X81250000Y-108250000D03*
%TD*%
D23*
%TO.C,H3*%
X57000000Y-127000000D03*
%TD*%
D24*
%TO.C,F1*%
X71000000Y-125000000D03*
X71000000Y-109300000D03*
%TD*%
D25*
%TO.C,U3*%
X63000000Y-99000000D03*
D26*
X68000000Y-99000000D03*
X58000000Y-69920000D03*
X73000000Y-69920000D03*
%TD*%
D22*
%TO.C,RV21*%
X120310000Y-112917500D03*
X127810000Y-115317500D03*
%TD*%
D14*
%TO.C,R11*%
X199045000Y-61521500D03*
X197045000Y-61521500D03*
%TD*%
D15*
%TO.C,C25*%
X201935000Y-107697500D03*
X204010000Y-107697500D03*
%TD*%
D27*
%TO.C,R1*%
X93000000Y-70500000D03*
X93000000Y-72500000D03*
%TD*%
D14*
%TO.C,R4*%
X164049500Y-54250500D03*
X162049500Y-54250500D03*
%TD*%
D28*
%TO.C,U1*%
X126500000Y-69400000D03*
X126500000Y-71700000D03*
D29*
X132800000Y-71700000D03*
D28*
X126500000Y-74000000D03*
%TD*%
D30*
%TO.C,K21*%
X124230000Y-83197500D03*
D31*
X118230000Y-85197500D03*
X118230000Y-97397500D03*
X130230000Y-97397500D03*
X130230000Y-85197500D03*
%TD*%
D19*
%TO.C,R21*%
X125810000Y-107697500D03*
X127810000Y-107697500D03*
%TD*%
D15*
%TO.C,C21*%
X120655000Y-107697500D03*
X122730000Y-107697500D03*
%TD*%
D10*
%TO.C,J20*%
X103560000Y-123000000D03*
D11*
X107370000Y-123000000D03*
%TD*%
D19*
%TO.C,R24*%
X186770000Y-107697500D03*
X188770000Y-107697500D03*
%TD*%
D10*
%TO.C,J25*%
X202184000Y-123000000D03*
D11*
X205994000Y-123000000D03*
%TD*%
D15*
%TO.C,C1*%
X125925000Y-65500000D03*
X128000000Y-65500000D03*
%TD*%
D16*
%TO.C,J6*%
X181376500Y-54631500D03*
D17*
X183876500Y-54631500D03*
X186376500Y-54631500D03*
X188876500Y-54631500D03*
%TD*%
D30*
%TO.C,K25*%
X205510000Y-83197500D03*
D31*
X199510000Y-85197500D03*
X199510000Y-97397500D03*
X211510000Y-97397500D03*
X211510000Y-85197500D03*
%TD*%
D32*
%TO.C,SW1*%
X168862500Y-53223000D03*
X173062500Y-53223000D03*
%TD*%
D19*
%TO.C,R14*%
X197000000Y-56500000D03*
X199000000Y-56500000D03*
%TD*%
D15*
%TO.C,C23*%
X161295000Y-107697500D03*
X163370000Y-107697500D03*
%TD*%
D19*
%TO.C,R25*%
X207090000Y-107697500D03*
X209090000Y-107697500D03*
%TD*%
D10*
%TO.C,J24*%
X184840000Y-123000000D03*
D11*
X188650000Y-123000000D03*
%TD*%
D18*
%TO.C,LED2*%
X128025000Y-50500000D03*
X125975000Y-50500000D03*
%TD*%
D32*
%TO.C,SW2*%
X168807500Y-57298500D03*
X173007500Y-57298500D03*
%TD*%
D33*
%TO.C,C3*%
X100000000Y-70462500D03*
X100000000Y-72537500D03*
%TD*%
D27*
%TO.C,R2*%
X97000000Y-70500000D03*
X97000000Y-72500000D03*
%TD*%
D13*
%TO.C,TP3*%
X115000000Y-74000000D03*
%TD*%
D22*
%TO.C,RV23*%
X160950000Y-112917500D03*
X168450000Y-115317500D03*
%TD*%
D34*
%TO.C,K1*%
X83000000Y-98500000D03*
D35*
X83000000Y-90880000D03*
X83000000Y-80720000D03*
X83000000Y-78180000D03*
%TD*%
D24*
%TO.C,F2*%
X83000000Y-68100000D03*
X83000000Y-52400000D03*
%TD*%
D30*
%TO.C,K22*%
X144550000Y-83197500D03*
D31*
X138550000Y-85197500D03*
X138550000Y-97397500D03*
X150550000Y-97397500D03*
X150550000Y-85197500D03*
%TD*%
D14*
%TO.C,R10*%
X198957500Y-59021500D03*
X196957500Y-59021500D03*
%TD*%
D10*
%TO.C,J23*%
X164520000Y-123000000D03*
D11*
X168330000Y-123000000D03*
%TD*%
D22*
%TO.C,RV22*%
X140630000Y-112917500D03*
X148130000Y-115317500D03*
%TD*%
D19*
%TO.C,R12*%
X131000000Y-50500000D03*
X133000000Y-50500000D03*
%TD*%
D12*
%TO.C,C6*%
X128037500Y-60500000D03*
X125962500Y-60500000D03*
%TD*%
D22*
%TO.C,RV25*%
X201470000Y-112777500D03*
X208970000Y-115177500D03*
%TD*%
D36*
%TO.C,U5*%
X176500000Y-64381500D03*
X175230000Y-64381500D03*
X173960000Y-64381500D03*
X172690000Y-64381500D03*
X171420000Y-64381500D03*
X170150000Y-64381500D03*
X168880000Y-64381500D03*
X167610000Y-64381500D03*
X166340000Y-64381500D03*
X166340000Y-73681500D03*
X167610000Y-73681500D03*
X168880000Y-73681500D03*
X170150000Y-73681500D03*
X171420000Y-73681500D03*
X172690000Y-73681500D03*
X173960000Y-73681500D03*
X175230000Y-73681500D03*
X176500000Y-73681500D03*
%TD*%
D19*
%TO.C,R13*%
X197000000Y-54000000D03*
X199000000Y-54000000D03*
%TD*%
D13*
%TO.C,TP2*%
X110000000Y-74000000D03*
%TD*%
D14*
%TO.C,R6*%
X164049500Y-56282500D03*
X162049500Y-56282500D03*
%TD*%
D12*
%TO.C,C7*%
X199037500Y-51500000D03*
X196962500Y-51500000D03*
%TD*%
D14*
%TO.C,R8*%
X199045000Y-66521500D03*
X197045000Y-66521500D03*
%TD*%
D30*
%TO.C,K23*%
X164870000Y-83197500D03*
D31*
X158870000Y-85197500D03*
X158870000Y-97397500D03*
X170870000Y-97397500D03*
X170870000Y-85197500D03*
%TD*%
D37*
%TO.C,D1*%
X90000000Y-72525000D03*
X90000000Y-70475000D03*
%TD*%
D10*
%TO.C,J22*%
X144200000Y-123000000D03*
D11*
X148010000Y-123000000D03*
%TD*%
D15*
%TO.C,C4*%
X130962500Y-60500000D03*
X133037500Y-60500000D03*
%TD*%
D19*
%TO.C,R23*%
X166450000Y-107697500D03*
X168450000Y-107697500D03*
%TD*%
D23*
%TO.C,H2*%
X214000000Y-50000000D03*
%TD*%
%TO.C,H4*%
X214000000Y-127000000D03*
%TD*%
D38*
%TO.C,U4*%
X138209500Y-54171500D03*
X138209500Y-55441500D03*
X138209500Y-56711500D03*
X138209500Y-57981500D03*
X138209500Y-59251500D03*
X138209500Y-60521500D03*
X138209500Y-61791500D03*
X138209500Y-63061500D03*
X138209500Y-64331500D03*
X138209500Y-65601500D03*
X138209500Y-66871500D03*
X138209500Y-68141500D03*
X138209500Y-69411500D03*
X138209500Y-70681500D03*
D39*
X141244500Y-71776500D03*
X142514500Y-71776500D03*
X143784500Y-71776500D03*
X145054500Y-71776500D03*
X146324500Y-71776500D03*
X147594500Y-71776500D03*
X148864500Y-71776500D03*
X150134500Y-71776500D03*
X151404500Y-71776500D03*
X152674500Y-71776500D03*
D38*
X155709500Y-70681500D03*
X155709500Y-69411500D03*
X155709500Y-68141500D03*
X155709500Y-66871500D03*
X155709500Y-65601500D03*
X155709500Y-64331500D03*
X155709500Y-63061500D03*
X155709500Y-61791500D03*
X155709500Y-60521500D03*
X155709500Y-59251500D03*
X155709500Y-57981500D03*
X155709500Y-56711500D03*
X155709500Y-55441500D03*
X155709500Y-54171500D03*
D40*
X144059500Y-61036500D03*
X144059500Y-62436500D03*
X144759500Y-60336500D03*
X144759500Y-61736500D03*
X144759500Y-63136500D03*
X145459500Y-61036500D03*
D41*
X145459500Y-61736500D03*
D40*
X145459500Y-62436500D03*
X146159500Y-60336500D03*
X146159500Y-61736500D03*
X146159500Y-63136500D03*
X146859500Y-61036500D03*
X146859500Y-62436500D03*
%TD*%
D15*
%TO.C,C24*%
X181615000Y-107697500D03*
X183690000Y-107697500D03*
%TD*%
D30*
%TO.C,K24*%
X185190000Y-83197500D03*
D31*
X179190000Y-85197500D03*
X179190000Y-97397500D03*
X191190000Y-97397500D03*
X191190000Y-85197500D03*
%TD*%
D19*
%TO.C,R22*%
X146130000Y-107697500D03*
X148130000Y-107697500D03*
%TD*%
D42*
%TO.C,J1*%
X82000000Y-124500000D03*
D21*
X87000000Y-124500000D03*
X92000000Y-124500000D03*
%TD*%
D23*
%TO.C,H1*%
X57000000Y-50000000D03*
%TD*%
D14*
%TO.C,R3*%
X164049500Y-52218500D03*
X162049500Y-52218500D03*
%TD*%
D15*
%TO.C,C20*%
X100335000Y-107697500D03*
X102410000Y-107697500D03*
%TD*%
D22*
%TO.C,RV20*%
X99990000Y-112917500D03*
X107490000Y-115317500D03*
%TD*%
D43*
%TO.C,C5*%
X162000000Y-71500000D03*
D44*
X159500000Y-71500000D03*
%TD*%
D22*
%TO.C,RV1*%
X87725000Y-108250000D03*
X86275000Y-115750000D03*
%TD*%
D14*
%TO.C,R5*%
X199045000Y-64021500D03*
X197045000Y-64021500D03*
%TD*%
D45*
%TO.C,U2*%
X92250000Y-62500000D03*
X92250000Y-65040000D03*
X97750000Y-65040000D03*
X97750000Y-62500000D03*
%TD*%
D46*
%TO.C,J4*%
X206545000Y-54021500D03*
D47*
X206545000Y-56521500D03*
X206545000Y-59021500D03*
X206545000Y-61521500D03*
X206545000Y-64021500D03*
X206545000Y-66521500D03*
%TD*%
D22*
%TO.C,RV24*%
X181270000Y-112917500D03*
X188770000Y-115317500D03*
%TD*%
D30*
%TO.C,K20*%
X103910000Y-83197500D03*
D31*
X97910000Y-85197500D03*
X97910000Y-97397500D03*
X109910000Y-97397500D03*
X109910000Y-85197500D03*
%TD*%
D48*
%TO.C,J3*%
X60932500Y-57250000D03*
D49*
X60932500Y-61060000D03*
%TD*%
M02*
