%TF.GenerationSoftware,KiCad,Pcbnew,10.0.3*%
%TF.CreationDate,2026-06-24T21:58:34+08:00*%
%TF.ProjectId,Sprinkler System,53707269-6e6b-46c6-9572-205379737465,rev?*%
%TF.SameCoordinates,Original*%
%TF.FileFunction,Paste,Top*%
%TF.FilePolarity,Positive*%
%FSLAX46Y46*%
G04 Gerber Fmt 4.6, Leading zero omitted, Abs format (unit mm)*
G04 Created by KiCad (PCBNEW 10.0.3) date 2026-06-24 21:58:34*
%MOMM*%
%LPD*%
G01*
G04 APERTURE LIST*
G04 Aperture macros list*
%AMRoundRect*
0 Rectangle with rounded corners*
0 $1 Rounding radius*
0 $2 $3 $4 $5 $6 $7 $8 $9 X,Y pos of 4 corners*
0 Add a 4 corners polygon primitive as box body*
4,1,4,$2,$3,$4,$5,$6,$7,$8,$9,$2,$3,0*
0 Add four circle primitives for the rounded corners*
1,1,$1+$1,$2,$3*
1,1,$1+$1,$4,$5*
1,1,$1+$1,$6,$7*
1,1,$1+$1,$8,$9*
0 Add four rect primitives between the rounded corners*
20,1,$1+$1,$2,$3,$4,$5,0*
20,1,$1+$1,$4,$5,$6,$7,0*
20,1,$1+$1,$6,$7,$8,$9,0*
20,1,$1+$1,$8,$9,$2,$3,0*%
G04 Aperture macros list end*
%ADD10RoundRect,0.250000X0.337500X0.475000X-0.337500X0.475000X-0.337500X-0.475000X0.337500X-0.475000X0*%
%ADD11RoundRect,0.250000X0.350000X0.450000X-0.350000X0.450000X-0.350000X-0.450000X0.350000X-0.450000X0*%
%ADD12RoundRect,0.250000X-0.337500X-0.475000X0.337500X-0.475000X0.337500X0.475000X-0.337500X0.475000X0*%
%ADD13RoundRect,0.250000X0.325000X0.450000X-0.325000X0.450000X-0.325000X-0.450000X0.325000X-0.450000X0*%
%ADD14RoundRect,0.250000X-0.350000X-0.450000X0.350000X-0.450000X0.350000X0.450000X-0.350000X0.450000X0*%
%ADD15RoundRect,0.250000X-0.450000X0.350000X-0.450000X-0.350000X0.450000X-0.350000X0.450000X0.350000X0*%
%ADD16RoundRect,0.375000X-0.625000X-0.375000X0.625000X-0.375000X0.625000X0.375000X-0.625000X0.375000X0*%
%ADD17RoundRect,0.500000X-0.500000X-1.400000X0.500000X-1.400000X0.500000X1.400000X-0.500000X1.400000X0*%
%ADD18RoundRect,0.200000X-0.200000X-0.800000X0.200000X-0.800000X0.200000X0.800000X-0.200000X0.800000X0*%
%ADD19RoundRect,0.250000X-0.475000X0.337500X-0.475000X-0.337500X0.475000X-0.337500X0.475000X0.337500X0*%
%ADD20RoundRect,0.150000X-0.150000X0.875000X-0.150000X-0.875000X0.150000X-0.875000X0.150000X0.875000X0*%
%ADD21RoundRect,0.250000X0.450000X-0.325000X0.450000X0.325000X-0.450000X0.325000X-0.450000X-0.325000X0*%
%ADD22R,1.500000X0.900000*%
%ADD23R,0.900000X1.500000*%
%ADD24R,0.900000X0.900000*%
%ADD25RoundRect,0.137500X-0.587500X-0.137500X0.587500X-0.137500X0.587500X0.137500X-0.587500X0.137500X0*%
G04 APERTURE END LIST*
D10*
%TO.C,C2*%
X133075000Y-65500000D03*
X131000000Y-65500000D03*
%TD*%
D11*
%TO.C,R7*%
X164049500Y-58314500D03*
X162049500Y-58314500D03*
%TD*%
D12*
%TO.C,C22*%
X140975000Y-107697500D03*
X143050000Y-107697500D03*
%TD*%
D13*
%TO.C,LED1*%
X128025000Y-55500000D03*
X125975000Y-55500000D03*
%TD*%
D14*
%TO.C,R9*%
X131000000Y-55500000D03*
X133000000Y-55500000D03*
%TD*%
%TO.C,R20*%
X105490000Y-107697500D03*
X107490000Y-107697500D03*
%TD*%
D11*
%TO.C,R11*%
X199045000Y-61521500D03*
X197045000Y-61521500D03*
%TD*%
D12*
%TO.C,C25*%
X201935000Y-107697500D03*
X204010000Y-107697500D03*
%TD*%
D15*
%TO.C,R1*%
X93000000Y-70500000D03*
X93000000Y-72500000D03*
%TD*%
D11*
%TO.C,R4*%
X164049500Y-54250500D03*
X162049500Y-54250500D03*
%TD*%
D16*
%TO.C,U1*%
X126500000Y-69400000D03*
X126500000Y-71700000D03*
D17*
X132800000Y-71700000D03*
D16*
X126500000Y-74000000D03*
%TD*%
D14*
%TO.C,R21*%
X125810000Y-107697500D03*
X127810000Y-107697500D03*
%TD*%
D12*
%TO.C,C21*%
X120655000Y-107697500D03*
X122730000Y-107697500D03*
%TD*%
D14*
%TO.C,R24*%
X186770000Y-107697500D03*
X188770000Y-107697500D03*
%TD*%
D12*
%TO.C,C1*%
X125925000Y-65500000D03*
X128000000Y-65500000D03*
%TD*%
D18*
%TO.C,SW1*%
X168862500Y-53223000D03*
X173062500Y-53223000D03*
%TD*%
D14*
%TO.C,R14*%
X197000000Y-56500000D03*
X199000000Y-56500000D03*
%TD*%
D12*
%TO.C,C23*%
X161295000Y-107697500D03*
X163370000Y-107697500D03*
%TD*%
D14*
%TO.C,R25*%
X207090000Y-107697500D03*
X209090000Y-107697500D03*
%TD*%
D13*
%TO.C,LED2*%
X128025000Y-50500000D03*
X125975000Y-50500000D03*
%TD*%
D18*
%TO.C,SW2*%
X168807500Y-57298500D03*
X173007500Y-57298500D03*
%TD*%
D19*
%TO.C,C3*%
X100000000Y-70462500D03*
X100000000Y-72537500D03*
%TD*%
D15*
%TO.C,R2*%
X97000000Y-70500000D03*
X97000000Y-72500000D03*
%TD*%
D11*
%TO.C,R10*%
X198957500Y-59021500D03*
X196957500Y-59021500D03*
%TD*%
D14*
%TO.C,R12*%
X131000000Y-50500000D03*
X133000000Y-50500000D03*
%TD*%
D10*
%TO.C,C6*%
X128037500Y-60500000D03*
X125962500Y-60500000D03*
%TD*%
D20*
%TO.C,U5*%
X176500000Y-64381500D03*
X175230000Y-64381500D03*
X173960000Y-64381500D03*
X172690000Y-64381500D03*
X171420000Y-64381500D03*
X170150000Y-64381500D03*
X168880000Y-64381500D03*
X167610000Y-64381500D03*
X166340000Y-64381500D03*
X166340000Y-73681500D03*
X167610000Y-73681500D03*
X168880000Y-73681500D03*
X170150000Y-73681500D03*
X171420000Y-73681500D03*
X172690000Y-73681500D03*
X173960000Y-73681500D03*
X175230000Y-73681500D03*
X176500000Y-73681500D03*
%TD*%
D14*
%TO.C,R13*%
X197000000Y-54000000D03*
X199000000Y-54000000D03*
%TD*%
D11*
%TO.C,R6*%
X164049500Y-56282500D03*
X162049500Y-56282500D03*
%TD*%
D10*
%TO.C,C7*%
X199037500Y-51500000D03*
X196962500Y-51500000D03*
%TD*%
D11*
%TO.C,R8*%
X199045000Y-66521500D03*
X197045000Y-66521500D03*
%TD*%
D21*
%TO.C,D1*%
X90000000Y-72525000D03*
X90000000Y-70475000D03*
%TD*%
D12*
%TO.C,C4*%
X130962500Y-60500000D03*
X133037500Y-60500000D03*
%TD*%
D14*
%TO.C,R23*%
X166450000Y-107697500D03*
X168450000Y-107697500D03*
%TD*%
D22*
%TO.C,U4*%
X138209500Y-54171500D03*
X138209500Y-55441500D03*
X138209500Y-56711500D03*
X138209500Y-57981500D03*
X138209500Y-59251500D03*
X138209500Y-60521500D03*
X138209500Y-61791500D03*
X138209500Y-63061500D03*
X138209500Y-64331500D03*
X138209500Y-65601500D03*
X138209500Y-66871500D03*
X138209500Y-68141500D03*
X138209500Y-69411500D03*
X138209500Y-70681500D03*
D23*
X141244500Y-71776500D03*
X142514500Y-71776500D03*
X143784500Y-71776500D03*
X145054500Y-71776500D03*
X146324500Y-71776500D03*
X147594500Y-71776500D03*
X148864500Y-71776500D03*
X150134500Y-71776500D03*
X151404500Y-71776500D03*
X152674500Y-71776500D03*
D22*
X155709500Y-70681500D03*
X155709500Y-69411500D03*
X155709500Y-68141500D03*
X155709500Y-66871500D03*
X155709500Y-65601500D03*
X155709500Y-64331500D03*
X155709500Y-63061500D03*
X155709500Y-61791500D03*
X155709500Y-60521500D03*
X155709500Y-59251500D03*
X155709500Y-57981500D03*
X155709500Y-56711500D03*
X155709500Y-55441500D03*
X155709500Y-54171500D03*
D24*
X144059500Y-60336500D03*
X144059500Y-61736500D03*
X144059500Y-63136500D03*
X145459500Y-60336500D03*
X145459500Y-61736500D03*
X145459500Y-63136500D03*
X146859500Y-60336500D03*
X146859500Y-61736500D03*
X146859500Y-63136500D03*
%TD*%
D12*
%TO.C,C24*%
X181615000Y-107697500D03*
X183690000Y-107697500D03*
%TD*%
D14*
%TO.C,R22*%
X146130000Y-107697500D03*
X148130000Y-107697500D03*
%TD*%
D11*
%TO.C,R3*%
X164049500Y-52218500D03*
X162049500Y-52218500D03*
%TD*%
D12*
%TO.C,C20*%
X100335000Y-107697500D03*
X102410000Y-107697500D03*
%TD*%
D11*
%TO.C,R5*%
X199045000Y-64021500D03*
X197045000Y-64021500D03*
%TD*%
D25*
%TO.C,U2*%
X92250000Y-62500000D03*
X92250000Y-65040000D03*
X97750000Y-65040000D03*
X97750000Y-62500000D03*
%TD*%
M02*
