%TF.GenerationSoftware,KiCad,Pcbnew,10.0.3*%
%TF.CreationDate,2026-06-03T05:42:01+08:00*%
%TF.ProjectId,Sprinkler System,53707269-6e6b-46c6-9572-205379737465,rev?*%
%TF.SameCoordinates,Original*%
%TF.FileFunction,Copper,L2,Bot*%
%TF.FilePolarity,Positive*%
%FSLAX46Y46*%
G04 Gerber Fmt 4.6, Leading zero omitted, Abs format (unit mm)*
G04 Created by KiCad (PCBNEW 10.0.3) date 2026-06-03 05:42:01*
%MOMM*%
%LPD*%
G01*
G04 APERTURE LIST*
G04 Aperture macros list*
%AMRoundRect*
0 Rectangle with rounded corners*
0 $1 Rounding radius*
0 $2 $3 $4 $5 $6 $7 $8 $9 X,Y pos of 4 corners*
0 Add a 4 corners polygon primitive as box body*
4,1,4,$2,$3,$4,$5,$6,$7,$8,$9,$2,$3,0*
0 Add four circle primitives for the rounded corners*
1,1,$1+$1,$2,$3*
1,1,$1+$1,$4,$5*
1,1,$1+$1,$6,$7*
1,1,$1+$1,$8,$9*
0 Add four rect primitives between the rounded corners*
20,1,$1+$1,$2,$3,$4,$5,0*
20,1,$1+$1,$4,$5,$6,$7,0*
20,1,$1+$1,$6,$7,$8,$9,0*
20,1,$1+$1,$8,$9,$2,$3,0*%
G04 Aperture macros list end*
%TA.AperFunction,ComponentPad*%
%ADD10RoundRect,0.250000X-0.650000X-1.550000X0.650000X-1.550000X0.650000X1.550000X-0.650000X1.550000X0*%
%TD*%
%TA.AperFunction,ComponentPad*%
%ADD11O,1.800000X3.600000*%
%TD*%
%TA.AperFunction,ComponentPad*%
%ADD12RoundRect,0.250000X-0.600000X-0.725000X0.600000X-0.725000X0.600000X0.725000X-0.600000X0.725000X0*%
%TD*%
%TA.AperFunction,ComponentPad*%
%ADD13O,1.700000X1.950000*%
%TD*%
%TA.AperFunction,ComponentPad*%
%ADD14RoundRect,0.250000X-1.050000X1.050000X-1.050000X-1.050000X1.050000X-1.050000X1.050000X1.050000X0*%
%TD*%
%TA.AperFunction,ComponentPad*%
%ADD15C,2.600000*%
%TD*%
%TA.AperFunction,ComponentPad*%
%ADD16C,2.300000*%
%TD*%
%TA.AperFunction,ComponentPad*%
%ADD17RoundRect,0.250000X0.750000X-0.600000X0.750000X0.600000X-0.750000X0.600000X-0.750000X-0.600000X0*%
%TD*%
%TA.AperFunction,ComponentPad*%
%ADD18O,2.000000X1.700000*%
%TD*%
%TA.AperFunction,ComponentPad*%
%ADD19C,1.800000*%
%TD*%
%TA.AperFunction,ComponentPad*%
%ADD20R,2.500000X2.500000*%
%TD*%
%TA.AperFunction,ComponentPad*%
%ADD21O,2.500000X2.500000*%
%TD*%
%TA.AperFunction,ComponentPad*%
%ADD22R,1.508000X1.508000*%
%TD*%
%TA.AperFunction,ComponentPad*%
%ADD23C,1.508000*%
%TD*%
%TA.AperFunction,HeatsinkPad*%
%ADD24C,0.600000*%
%TD*%
%TA.AperFunction,ComponentPad*%
%ADD25RoundRect,0.250000X-0.725000X0.600000X-0.725000X-0.600000X0.725000X-0.600000X0.725000X0.600000X0*%
%TD*%
%TA.AperFunction,ComponentPad*%
%ADD26O,1.950000X1.700000*%
%TD*%
%TA.AperFunction,ViaPad*%
%ADD27C,0.600000*%
%TD*%
%TA.AperFunction,Conductor*%
%ADD28C,0.600000*%
%TD*%
%TA.AperFunction,Conductor*%
%ADD29C,0.200000*%
%TD*%
%TA.AperFunction,Conductor*%
%ADD30C,0.500000*%
%TD*%
%TA.AperFunction,Conductor*%
%ADD31C,1.000000*%
%TD*%
G04 APERTURE END LIST*
D10*
%TO.P,J21,1,Pin_1_1*%
%TO.N,24V_Comm*%
X123880000Y-123000000D03*
D11*
%TO.P,J21,2,Pin_2_2*%
%TO.N,24V_S1*%
X127690000Y-123000000D03*
%TD*%
D12*
%TO.P,J5,1,Pin_1_1*%
%TO.N,GND*%
X181376500Y-63521500D03*
D13*
%TO.P,J5,2,Pin_2_2*%
%TO.N,+5V*%
X183876500Y-63521500D03*
%TO.P,J5,3,Pin_3_3*%
%TO.N,/IO3*%
X186376500Y-63521500D03*
%TO.P,J5,4,Pin_4_4*%
%TO.N,/IO1*%
X188876500Y-63521500D03*
%TD*%
D14*
%TO.P,J2,1,Pin_1_1*%
%TO.N,L_SW*%
X59500000Y-111000000D03*
D15*
%TO.P,J2,2,Pin_2_2*%
%TO.N,Neut*%
X59500000Y-116000000D03*
%TD*%
D16*
%TO.P,F1,1*%
%TO.N,L_Supply*%
X71000000Y-125000000D03*
%TO.P,F1,2*%
%TO.N,L*%
X71000000Y-109300000D03*
%TD*%
D17*
%TO.P,U3,1,AC/L_1*%
%TO.N,L*%
X63000000Y-99000000D03*
D18*
%TO.P,U3,2,AC/N_2*%
%TO.N,Neut*%
X68000000Y-99000000D03*
%TO.P,U3,3,-Vout_3*%
%TO.N,GND*%
X58000000Y-69920000D03*
%TO.P,U3,4,+Vout_4*%
%TO.N,+5V*%
X73000000Y-69920000D03*
%TD*%
D19*
%TO.P,RV21,1*%
%TO.N,24VAC*%
X120310000Y-112917500D03*
%TO.P,RV21,2*%
%TO.N,24V_S1*%
X127810000Y-115317500D03*
%TD*%
D20*
%TO.P,K21,1*%
%TO.N,24VAC*%
X124230000Y-83197500D03*
D21*
%TO.P,K21,2*%
%TO.N,/Coil1*%
X118230000Y-85197500D03*
%TO.P,K21,3*%
%TO.N,24V_S1*%
X118230000Y-97397500D03*
%TO.P,K21,4*%
%TO.N,unconnected-(K21-Pad4)*%
X130230000Y-97397500D03*
%TO.P,K21,5*%
%TO.N,+5V*%
X130230000Y-85197500D03*
%TD*%
D10*
%TO.P,J20,1,Pin_1_1*%
%TO.N,24V_Comm*%
X103560000Y-123000000D03*
D11*
%TO.P,J20,2,Pin_2_2*%
%TO.N,24V_S0*%
X107370000Y-123000000D03*
%TD*%
D10*
%TO.P,J25,1,Pin_1_1*%
%TO.N,24V_Comm*%
X202184000Y-123000000D03*
D11*
%TO.P,J25,2,Pin_2_2*%
%TO.N,24V_S5*%
X205994000Y-123000000D03*
%TD*%
D12*
%TO.P,J6,1,Pin_1_1*%
%TO.N,GND*%
X181376500Y-54631500D03*
D13*
%TO.P,J6,2,Pin_2_2*%
%TO.N,+5V*%
X183876500Y-54631500D03*
%TO.P,J6,3,Pin_3_3*%
%TO.N,/SDA*%
X186376500Y-54631500D03*
%TO.P,J6,4,Pin_4_4*%
%TO.N,/SCL*%
X188876500Y-54631500D03*
%TD*%
D20*
%TO.P,K25,1*%
%TO.N,24VAC*%
X205510000Y-83197500D03*
D21*
%TO.P,K25,2*%
%TO.N,/Coil5*%
X199510000Y-85197500D03*
%TO.P,K25,3*%
%TO.N,24V_S5*%
X199510000Y-97397500D03*
%TO.P,K25,4*%
%TO.N,unconnected-(K25-Pad4)*%
X211510000Y-97397500D03*
%TO.P,K25,5*%
%TO.N,+5V*%
X211510000Y-85197500D03*
%TD*%
D10*
%TO.P,J24,1,Pin_1_1*%
%TO.N,24V_Comm*%
X184840000Y-123000000D03*
D11*
%TO.P,J24,2,Pin_2_2*%
%TO.N,24V_S4*%
X188650000Y-123000000D03*
%TD*%
D19*
%TO.P,RV23,1*%
%TO.N,24VAC*%
X160950000Y-112917500D03*
%TO.P,RV23,2*%
%TO.N,24V_S3*%
X168450000Y-115317500D03*
%TD*%
D22*
%TO.P,K1,1*%
%TO.N,L*%
X83000000Y-98500000D03*
D23*
%TO.P,K1,2*%
%TO.N,L_SW*%
X83000000Y-90880000D03*
%TO.P,K1,3*%
%TO.N,+5V*%
X83000000Y-80720000D03*
%TO.P,K1,4*%
%TO.N,/SSR*%
X83000000Y-78180000D03*
%TD*%
D16*
%TO.P,F2,1*%
%TO.N,24VAC*%
X83000000Y-68100000D03*
%TO.P,F2,2*%
%TO.N,24V_Supply*%
X83000000Y-52400000D03*
%TD*%
D20*
%TO.P,K22,1*%
%TO.N,24VAC*%
X144550000Y-83197500D03*
D21*
%TO.P,K22,2*%
%TO.N,/Coil2*%
X138550000Y-85197500D03*
%TO.P,K22,3*%
%TO.N,24V_S2*%
X138550000Y-97397500D03*
%TO.P,K22,4*%
%TO.N,unconnected-(K22-Pad4)*%
X150550000Y-97397500D03*
%TO.P,K22,5*%
%TO.N,+5V*%
X150550000Y-85197500D03*
%TD*%
D10*
%TO.P,J23,1,Pin_1_1*%
%TO.N,24V_Comm*%
X164520000Y-123000000D03*
D11*
%TO.P,J23,2,Pin_2_2*%
%TO.N,24V_S3*%
X168330000Y-123000000D03*
%TD*%
D19*
%TO.P,RV22,1*%
%TO.N,24VAC*%
X140630000Y-112917500D03*
%TO.P,RV22,2*%
%TO.N,24V_S2*%
X148130000Y-115317500D03*
%TD*%
%TO.P,RV25,1*%
%TO.N,24VAC*%
X201470000Y-112777500D03*
%TO.P,RV25,2*%
%TO.N,24V_S5*%
X208970000Y-115177500D03*
%TD*%
D14*
%TO.P,J3,1,Pin_1_1*%
%TO.N,24V_Supply*%
X62000000Y-57000000D03*
D15*
%TO.P,J3,2,Pin_2_2*%
%TO.N,24V_Comm*%
X62000000Y-62000000D03*
%TD*%
D20*
%TO.P,K23,1*%
%TO.N,24VAC*%
X164870000Y-83197500D03*
D21*
%TO.P,K23,2*%
%TO.N,/Coil3*%
X158870000Y-85197500D03*
%TO.P,K23,3*%
%TO.N,24V_S3*%
X158870000Y-97397500D03*
%TO.P,K23,4*%
%TO.N,unconnected-(K23-Pad4)*%
X170870000Y-97397500D03*
%TO.P,K23,5*%
%TO.N,+5V*%
X170870000Y-85197500D03*
%TD*%
D10*
%TO.P,J22,1,Pin_1_1*%
%TO.N,24V_Comm*%
X144200000Y-123000000D03*
D11*
%TO.P,J22,2,Pin_2_2*%
%TO.N,24V_S2*%
X148010000Y-123000000D03*
%TD*%
D24*
%TO.P,U4,39,GND_39*%
%TO.N,GND*%
X144059500Y-61036500D03*
X144059500Y-62436500D03*
X144759500Y-60336500D03*
X144759500Y-61736500D03*
X144759500Y-63136500D03*
X145459500Y-61036500D03*
X145459500Y-62436500D03*
X146159500Y-60336500D03*
X146159500Y-61736500D03*
X146159500Y-63136500D03*
X146859500Y-61036500D03*
X146859500Y-62436500D03*
%TD*%
D20*
%TO.P,K24,1*%
%TO.N,24VAC*%
X185190000Y-83197500D03*
D21*
%TO.P,K24,2*%
%TO.N,/Coil4*%
X179190000Y-85197500D03*
%TO.P,K24,3*%
%TO.N,24V_S4*%
X179190000Y-97397500D03*
%TO.P,K24,4*%
%TO.N,unconnected-(K24-Pad4)*%
X191190000Y-97397500D03*
%TO.P,K24,5*%
%TO.N,+5V*%
X191190000Y-85197500D03*
%TD*%
D10*
%TO.P,J1,1,Pin_1_1*%
%TO.N,GND*%
X82000000Y-123000000D03*
D11*
%TO.P,J1,2,Pin_2_2*%
%TO.N,L_Supply*%
X85810000Y-123000000D03*
%TO.P,J1,3,Pin_3_3*%
%TO.N,Neut*%
X89620000Y-123000000D03*
%TD*%
D19*
%TO.P,RV20,1*%
%TO.N,24VAC*%
X99990000Y-112917500D03*
%TO.P,RV20,2*%
%TO.N,24V_S0*%
X107490000Y-115317500D03*
%TD*%
D25*
%TO.P,J4,1,Pin_1_1*%
%TO.N,GND*%
X206545000Y-54021500D03*
D26*
%TO.P,J4,2,Pin_2_2*%
%TO.N,+3V3*%
X206545000Y-56521500D03*
%TO.P,J4,3,Pin_3_3*%
%TO.N,/IO34*%
X206545000Y-59021500D03*
%TO.P,J4,4,Pin_4_4*%
%TO.N,/IO35*%
X206545000Y-61521500D03*
%TO.P,J4,5,Pin_5_5*%
%TO.N,/IO32*%
X206545000Y-64021500D03*
%TO.P,J4,6,Pin_6_6*%
%TO.N,/IO33*%
X206545000Y-66521500D03*
%TD*%
D19*
%TO.P,RV24,1*%
%TO.N,24VAC*%
X181270000Y-112917500D03*
%TO.P,RV24,2*%
%TO.N,24V_S4*%
X188770000Y-115317500D03*
%TD*%
D20*
%TO.P,K20,1*%
%TO.N,24VAC*%
X103910000Y-83197500D03*
D21*
%TO.P,K20,2*%
%TO.N,/Coil0*%
X97910000Y-85197500D03*
%TO.P,K20,3*%
%TO.N,24V_S0*%
X97910000Y-97397500D03*
%TO.P,K20,4*%
%TO.N,unconnected-(K20-Pad4)*%
X109910000Y-97397500D03*
%TO.P,K20,5*%
%TO.N,+5V*%
X109910000Y-85197500D03*
%TD*%
D27*
%TO.N,+3V3*%
X165213166Y-52215461D03*
X165166454Y-56263277D03*
%TO.N,GND*%
X139819500Y-53109000D03*
X133159500Y-65371500D03*
X89500000Y-79500000D03*
X153789500Y-54379000D03*
X98500000Y-72500000D03*
X89500000Y-87500000D03*
X160525500Y-58060500D03*
X134386500Y-52726500D03*
X141089500Y-69619000D03*
X163414500Y-66249000D03*
X195545000Y-62771500D03*
X134275500Y-57806500D03*
X194500000Y-51500000D03*
X107000000Y-74000000D03*
X160525500Y-54250500D03*
X127909500Y-64791500D03*
%TO.N,+5V*%
X162834500Y-71776500D03*
X112000000Y-74000000D03*
X122545000Y-72000000D03*
X182050500Y-49971500D03*
%TO.N,/IO3*%
X156900500Y-59457500D03*
%TO.N,/IO1*%
X156900500Y-58441500D03*
%TO.N,/IO35*%
X147594500Y-65045500D03*
%TO.N,/SDA*%
X157246500Y-66271500D03*
X157246500Y-68811500D03*
%TO.N,/Sens_24V*%
X98500000Y-67500000D03*
X139545000Y-65601500D03*
%TO.N,/IO34*%
X148102500Y-64283500D03*
%TO.N,/IO33*%
X147594500Y-66569500D03*
%TO.N,/IO32*%
X148102500Y-65807500D03*
%TD*%
%TO.N,24V_Comm*%
D28*
X144200000Y-123000000D02*
X144200000Y-119000000D01*
X184840000Y-123000000D02*
X184840000Y-119160000D01*
X80750000Y-85000000D02*
X62000000Y-66250000D01*
X164520000Y-119000000D02*
X164520000Y-123000000D01*
X123880000Y-123000000D02*
X123880000Y-119120000D01*
X185000000Y-119000000D02*
X97000000Y-119000000D01*
X200000000Y-119000000D02*
X202184000Y-121184000D01*
X93000000Y-85000000D02*
X80750000Y-85000000D01*
X202184000Y-121184000D02*
X202184000Y-123000000D01*
X62000000Y-66250000D02*
X62000000Y-62000000D01*
X97000000Y-119000000D02*
X93000000Y-115000000D01*
X185000000Y-119000000D02*
X200000000Y-119000000D01*
X103560000Y-123000000D02*
X103560000Y-119000000D01*
X93000000Y-115000000D02*
X93000000Y-85000000D01*
X184840000Y-119160000D02*
X185000000Y-119000000D01*
%TO.N,+3V3*%
D29*
X165213166Y-56216565D02*
X165166454Y-56263277D01*
X165213166Y-52215461D02*
X165213166Y-56216565D01*
%TO.N,GND*%
D30*
X89500000Y-79500000D02*
X92000000Y-77000000D01*
X82000000Y-112000000D02*
X82000000Y-123000000D01*
X92000000Y-77000000D02*
X95500000Y-77000000D01*
X89500000Y-104500000D02*
X82000000Y-112000000D01*
X89500000Y-87500000D02*
X89500000Y-104500000D01*
%TO.N,24VAC*%
D28*
X181582500Y-112917500D02*
X181722500Y-112777500D01*
X120310000Y-112917500D02*
X140630000Y-112917500D01*
X99990000Y-112917500D02*
X96917500Y-112917500D01*
X96917500Y-112917500D02*
X95000000Y-111000000D01*
X140630000Y-112917500D02*
X160950000Y-112917500D01*
X144550000Y-83197500D02*
X144550000Y-89000000D01*
X93500000Y-83500000D02*
X81500000Y-83500000D01*
X81500000Y-83500000D02*
X80000000Y-82000000D01*
X99990000Y-112917500D02*
X120310000Y-112917500D01*
X80000000Y-71100000D02*
X83000000Y-68100000D01*
X103910000Y-83197500D02*
X103910000Y-89000000D01*
X181722500Y-112777500D02*
X201470000Y-112777500D01*
X160950000Y-112917500D02*
X181270000Y-112917500D01*
X202500000Y-89000000D02*
X205510000Y-85990000D01*
X164870000Y-83197500D02*
X164870000Y-89000000D01*
X95000000Y-85000000D02*
X93500000Y-83500000D01*
X80000000Y-82000000D02*
X80000000Y-71100000D01*
X124230000Y-83197500D02*
X124230000Y-89000000D01*
X181270000Y-112917500D02*
X181582500Y-112917500D01*
X95000000Y-111000000D02*
X95000000Y-85000000D01*
X185190000Y-83197500D02*
X185190000Y-89000000D01*
X205510000Y-85990000D02*
X205510000Y-83197500D01*
X95000000Y-89000000D02*
X202500000Y-89000000D01*
%TO.N,+5V*%
D30*
X117000000Y-78105000D02*
X112000000Y-78105000D01*
X207645000Y-78105000D02*
X117000000Y-78105000D01*
X150550000Y-85197500D02*
X150550000Y-78105000D01*
X211510000Y-81970000D02*
X207645000Y-78105000D01*
X109910000Y-85197500D02*
X109910000Y-78160000D01*
X112000000Y-74000000D02*
X112000000Y-78105000D01*
X92707500Y-78105000D02*
X90092500Y-80720000D01*
X183876500Y-51797500D02*
X182050500Y-49971500D01*
X170870000Y-85197500D02*
X170870000Y-78160000D01*
X183876500Y-54631500D02*
X183876500Y-51797500D01*
X130230000Y-85197500D02*
X130230000Y-78160000D01*
X162834500Y-71776500D02*
X162834500Y-78105000D01*
X90092500Y-80720000D02*
X83000000Y-80720000D01*
X122545000Y-72000000D02*
X122545000Y-78126500D01*
X112000000Y-78105000D02*
X92707500Y-78105000D01*
X191190000Y-85197500D02*
X191190000Y-78105000D01*
X211510000Y-85197500D02*
X211510000Y-81970000D01*
%TO.N,/IO3*%
D29*
X156900500Y-59457500D02*
X158678500Y-61235500D01*
X184090500Y-61235500D02*
X186376500Y-63521500D01*
X158678500Y-61235500D02*
X184090500Y-61235500D01*
%TO.N,/IO1*%
X156900500Y-58441500D02*
X159186500Y-60727500D01*
X186082500Y-60727500D02*
X188876500Y-63521500D01*
X159186500Y-60727500D02*
X186082500Y-60727500D01*
%TO.N,L_SW*%
D31*
X61250000Y-106000000D02*
X67000000Y-106000000D01*
X82120000Y-90880000D02*
X83000000Y-90880000D01*
X67000000Y-106000000D02*
X82120000Y-90880000D01*
X59500000Y-107750000D02*
X61250000Y-106000000D01*
X59500000Y-111000000D02*
X59500000Y-107750000D01*
%TO.N,L_Supply*%
X85780000Y-122797500D02*
X85767500Y-122785000D01*
%TO.N,L*%
X72200000Y-109300000D02*
X83000000Y-98500000D01*
X71000000Y-109300000D02*
X72200000Y-109300000D01*
%TO.N,/IO35*%
D29*
X147594500Y-65045500D02*
X148298814Y-65045500D01*
X165374500Y-64537500D02*
X167914500Y-67077500D01*
X148806814Y-64537500D02*
X165374500Y-64537500D01*
X167914500Y-67077500D02*
X200989000Y-67077500D01*
X206545000Y-61521500D02*
X200989000Y-67077500D01*
X148298814Y-65045500D02*
X148806814Y-64537500D01*
%TO.N,/SDA*%
X157246500Y-68811500D02*
X157246500Y-66271500D01*
%TO.N,/Sens_24V*%
X137646500Y-67500000D02*
X98500000Y-67500000D01*
X139545000Y-65601500D02*
X137646500Y-67500000D01*
%TO.N,/IO34*%
X165628500Y-64029500D02*
X168168500Y-66569500D01*
X206545000Y-59021500D02*
X199045000Y-66521500D01*
X168168500Y-66569500D02*
X199045000Y-66569500D01*
X199045000Y-66521500D02*
X199045000Y-66569500D01*
X148356500Y-64029500D02*
X165628500Y-64029500D01*
X148102500Y-64283500D02*
X148356500Y-64029500D01*
X206929500Y-59050500D02*
X206949500Y-59050500D01*
%TO.N,/IO33*%
X164866500Y-65553500D02*
X149372500Y-65553500D01*
X148356500Y-66569500D02*
X147594500Y-66569500D01*
X206545000Y-66521500D02*
X204973000Y-68093500D01*
X204973000Y-68093500D02*
X167406500Y-68093500D01*
X167406500Y-68093500D02*
X164866500Y-65553500D01*
X149372500Y-65553500D02*
X148356500Y-66569500D01*
%TO.N,/IO32*%
X148102500Y-65807500D02*
X148864500Y-65045500D01*
X165120500Y-65045500D02*
X167660500Y-67585500D01*
X167660500Y-67585500D02*
X202981000Y-67585500D01*
X206545000Y-64021500D02*
X202981000Y-67585500D01*
X148864500Y-65045500D02*
X165120500Y-65045500D01*
%TD*%
%TA.AperFunction,Conductor*%
%TO.N,GND*%
G36*
X210443180Y-47070185D02*
G01*
X210488935Y-47122989D01*
X210500140Y-47174395D01*
X210502083Y-49592314D01*
X210505628Y-54006020D01*
X210505629Y-54006020D01*
X210505629Y-54006021D01*
X216825404Y-54000943D01*
X216892456Y-54020573D01*
X216938253Y-54073340D01*
X216949500Y-54124942D01*
X216949500Y-79375256D01*
X216929815Y-79442295D01*
X216877011Y-79488050D01*
X216825422Y-79499256D01*
X210147681Y-79495030D01*
X210080654Y-79475303D01*
X210060080Y-79458713D01*
X208632450Y-78031082D01*
X208123421Y-77522052D01*
X208123414Y-77522046D01*
X208049729Y-77472812D01*
X208049729Y-77472813D01*
X208000491Y-77439913D01*
X207863917Y-77383343D01*
X207863907Y-77383340D01*
X207718920Y-77354500D01*
X207718918Y-77354500D01*
X163709000Y-77354500D01*
X163641961Y-77334815D01*
X163596206Y-77282011D01*
X163585000Y-77230500D01*
X163585000Y-72081104D01*
X163594439Y-72033651D01*
X163604237Y-72009997D01*
X163635000Y-71855342D01*
X163635000Y-71697658D01*
X163635000Y-71697655D01*
X163634999Y-71697653D01*
X163619716Y-71620821D01*
X163604237Y-71543003D01*
X163582161Y-71489707D01*
X163543897Y-71397327D01*
X163543890Y-71397314D01*
X163456289Y-71266211D01*
X163456286Y-71266207D01*
X163344792Y-71154713D01*
X163344788Y-71154710D01*
X163213685Y-71067109D01*
X163213672Y-71067102D01*
X163068001Y-71006764D01*
X163067989Y-71006761D01*
X162913345Y-70976000D01*
X162913342Y-70976000D01*
X162755658Y-70976000D01*
X162755655Y-70976000D01*
X162601010Y-71006761D01*
X162600998Y-71006764D01*
X162455327Y-71067102D01*
X162455314Y-71067109D01*
X162324211Y-71154710D01*
X162324207Y-71154713D01*
X162212713Y-71266207D01*
X162212710Y-71266211D01*
X162125109Y-71397314D01*
X162125102Y-71397327D01*
X162064764Y-71542998D01*
X162064761Y-71543010D01*
X162034000Y-71697653D01*
X162034000Y-71855346D01*
X162064761Y-72009989D01*
X162064763Y-72009997D01*
X162074561Y-72033651D01*
X162084000Y-72081104D01*
X162084000Y-77230500D01*
X162064315Y-77297539D01*
X162011511Y-77343294D01*
X161960000Y-77354500D01*
X123419500Y-77354500D01*
X123352461Y-77334815D01*
X123306706Y-77282011D01*
X123295500Y-77230500D01*
X123295500Y-72304604D01*
X123304939Y-72257151D01*
X123314737Y-72233497D01*
X123345500Y-72078842D01*
X123345500Y-71921158D01*
X123345500Y-71921155D01*
X123345499Y-71921153D01*
X123314738Y-71766510D01*
X123314737Y-71766503D01*
X123286221Y-71697658D01*
X123254397Y-71620827D01*
X123254390Y-71620814D01*
X123166789Y-71489711D01*
X123166786Y-71489707D01*
X123055292Y-71378213D01*
X123055288Y-71378210D01*
X122924185Y-71290609D01*
X122924172Y-71290602D01*
X122778501Y-71230264D01*
X122778489Y-71230261D01*
X122623845Y-71199500D01*
X122623842Y-71199500D01*
X122466158Y-71199500D01*
X122466155Y-71199500D01*
X122311510Y-71230261D01*
X122311498Y-71230264D01*
X122165827Y-71290602D01*
X122165814Y-71290609D01*
X122034711Y-71378210D01*
X122034707Y-71378213D01*
X121923213Y-71489707D01*
X121923210Y-71489711D01*
X121835609Y-71620814D01*
X121835602Y-71620827D01*
X121775264Y-71766498D01*
X121775261Y-71766510D01*
X121744500Y-71921153D01*
X121744500Y-72078846D01*
X121775261Y-72233489D01*
X121775263Y-72233497D01*
X121785061Y-72257151D01*
X121794500Y-72304604D01*
X121794500Y-77230500D01*
X121774815Y-77297539D01*
X121722011Y-77343294D01*
X121670500Y-77354500D01*
X112874500Y-77354500D01*
X112807461Y-77334815D01*
X112761706Y-77282011D01*
X112750500Y-77230500D01*
X112750500Y-74304604D01*
X112759939Y-74257151D01*
X112769737Y-74233497D01*
X112800500Y-74078842D01*
X112800500Y-73921158D01*
X112800500Y-73921155D01*
X112800499Y-73921153D01*
X112769738Y-73766510D01*
X112769737Y-73766503D01*
X112769735Y-73766498D01*
X112709397Y-73620827D01*
X112709390Y-73620814D01*
X112621789Y-73489711D01*
X112621786Y-73489707D01*
X112510292Y-73378213D01*
X112510288Y-73378210D01*
X112379185Y-73290609D01*
X112379172Y-73290602D01*
X112233501Y-73230264D01*
X112233489Y-73230261D01*
X112078845Y-73199500D01*
X112078842Y-73199500D01*
X111921158Y-73199500D01*
X111921155Y-73199500D01*
X111766510Y-73230261D01*
X111766498Y-73230264D01*
X111620827Y-73290602D01*
X111620814Y-73290609D01*
X111489711Y-73378210D01*
X111489707Y-73378213D01*
X111378213Y-73489707D01*
X111378210Y-73489711D01*
X111290609Y-73620814D01*
X111290602Y-73620827D01*
X111230264Y-73766498D01*
X111230261Y-73766510D01*
X111199500Y-73921153D01*
X111199500Y-74078846D01*
X111230261Y-74233489D01*
X111230263Y-74233497D01*
X111240061Y-74257151D01*
X111249500Y-74304604D01*
X111249500Y-77230500D01*
X111229815Y-77297539D01*
X111177011Y-77343294D01*
X111125500Y-77354500D01*
X95114995Y-77354500D01*
X95047956Y-77334815D01*
X95002201Y-77282011D01*
X94990995Y-77230422D01*
X94997203Y-67421153D01*
X97699500Y-67421153D01*
X97699500Y-67578846D01*
X97730261Y-67733489D01*
X97730264Y-67733501D01*
X97790602Y-67879172D01*
X97790609Y-67879185D01*
X97878210Y-68010288D01*
X97878213Y-68010292D01*
X97989707Y-68121786D01*
X97989711Y-68121789D01*
X98120814Y-68209390D01*
X98120827Y-68209397D01*
X98266498Y-68269735D01*
X98266503Y-68269737D01*
X98412476Y-68298773D01*
X98421153Y-68300499D01*
X98421156Y-68300500D01*
X98421158Y-68300500D01*
X98578844Y-68300500D01*
X98578845Y-68300499D01*
X98733497Y-68269737D01*
X98879179Y-68209394D01*
X98879185Y-68209390D01*
X99010875Y-68121398D01*
X99077553Y-68100520D01*
X99079766Y-68100500D01*
X137559831Y-68100500D01*
X137559847Y-68100501D01*
X137567443Y-68100501D01*
X137725554Y-68100501D01*
X137725557Y-68100501D01*
X137878285Y-68059577D01*
X137956459Y-68014443D01*
X138015216Y-67980520D01*
X138127020Y-67868716D01*
X138127020Y-67868714D01*
X138137224Y-67858511D01*
X138137227Y-67858506D01*
X139559662Y-66436072D01*
X139620983Y-66402589D01*
X139623150Y-66402138D01*
X139681085Y-66390613D01*
X139778497Y-66371237D01*
X139924179Y-66310894D01*
X140055289Y-66223289D01*
X140166789Y-66111789D01*
X140254394Y-65980679D01*
X140314737Y-65834997D01*
X140345500Y-65680342D01*
X140345500Y-65522658D01*
X140345500Y-65522655D01*
X140345499Y-65522653D01*
X140314737Y-65368003D01*
X140314093Y-65366449D01*
X140254397Y-65222327D01*
X140254390Y-65222314D01*
X140166789Y-65091211D01*
X140166786Y-65091207D01*
X140055292Y-64979713D01*
X140055288Y-64979710D01*
X140035747Y-64966653D01*
X146794000Y-64966653D01*
X146794000Y-65124346D01*
X146824761Y-65278989D01*
X146824764Y-65279001D01*
X146885102Y-65424672D01*
X146885109Y-65424685D01*
X146972710Y-65555788D01*
X146972713Y-65555792D01*
X147084207Y-65667286D01*
X147139748Y-65704398D01*
X147184552Y-65758011D01*
X147193259Y-65827336D01*
X147163104Y-65890363D01*
X147139748Y-65910602D01*
X147084207Y-65947713D01*
X146972713Y-66059207D01*
X146972710Y-66059211D01*
X146885109Y-66190314D01*
X146885102Y-66190327D01*
X146824764Y-66335998D01*
X146824761Y-66336010D01*
X146794000Y-66490653D01*
X146794000Y-66648346D01*
X146824761Y-66802989D01*
X146824764Y-66803001D01*
X146885102Y-66948672D01*
X146885107Y-66948681D01*
X146972710Y-67079788D01*
X146972713Y-67079792D01*
X147084207Y-67191286D01*
X147084211Y-67191289D01*
X147215314Y-67278890D01*
X147215327Y-67278897D01*
X147360998Y-67339235D01*
X147361003Y-67339237D01*
X147515653Y-67369999D01*
X147515656Y-67370000D01*
X147515658Y-67370000D01*
X147673344Y-67370000D01*
X147673345Y-67369999D01*
X147827997Y-67339237D01*
X147952185Y-67287797D01*
X147973672Y-67278897D01*
X147973672Y-67278896D01*
X147973679Y-67278894D01*
X147992213Y-67266510D01*
X148105375Y-67190898D01*
X148123421Y-67185247D01*
X148139331Y-67175023D01*
X148170292Y-67170571D01*
X148172053Y-67170020D01*
X148174266Y-67170000D01*
X148269831Y-67170000D01*
X148269847Y-67170001D01*
X148277443Y-67170001D01*
X148435554Y-67170001D01*
X148435557Y-67170001D01*
X148588285Y-67129077D01*
X148638404Y-67100139D01*
X148725216Y-67050020D01*
X148837020Y-66938216D01*
X148837020Y-66938214D01*
X148847228Y-66928007D01*
X148847229Y-66928004D01*
X149584916Y-66190319D01*
X149646239Y-66156834D01*
X149672597Y-66154000D01*
X156322000Y-66154000D01*
X156389039Y-66173685D01*
X156434794Y-66226489D01*
X156446000Y-66278000D01*
X156446000Y-66350346D01*
X156476761Y-66504989D01*
X156476764Y-66505001D01*
X156537102Y-66650672D01*
X156537109Y-66650685D01*
X156625102Y-66782374D01*
X156645980Y-66849051D01*
X156646000Y-66851265D01*
X156646000Y-68231734D01*
X156626315Y-68298773D01*
X156625102Y-68300625D01*
X156537109Y-68432314D01*
X156537102Y-68432327D01*
X156476764Y-68577998D01*
X156476761Y-68578010D01*
X156446000Y-68732653D01*
X156446000Y-68890346D01*
X156476761Y-69044989D01*
X156476764Y-69045001D01*
X156537102Y-69190672D01*
X156537109Y-69190685D01*
X156624710Y-69321788D01*
X156624713Y-69321792D01*
X156736207Y-69433286D01*
X156736211Y-69433289D01*
X156867314Y-69520890D01*
X156867327Y-69520897D01*
X157012998Y-69581235D01*
X157013003Y-69581237D01*
X157167653Y-69611999D01*
X157167656Y-69612000D01*
X157167658Y-69612000D01*
X157325344Y-69612000D01*
X157325345Y-69611999D01*
X157479997Y-69581237D01*
X157625679Y-69520894D01*
X157756789Y-69433289D01*
X157868289Y-69321789D01*
X157955894Y-69190679D01*
X158016237Y-69044997D01*
X158047000Y-68890342D01*
X158047000Y-68732658D01*
X158047000Y-68732655D01*
X158046999Y-68732653D01*
X158016237Y-68578003D01*
X157966483Y-68457885D01*
X157955897Y-68432327D01*
X157955890Y-68432314D01*
X157867898Y-68300625D01*
X157847020Y-68233947D01*
X157847000Y-68231734D01*
X157847000Y-66851265D01*
X157866685Y-66784226D01*
X157867898Y-66782374D01*
X157955890Y-66650685D01*
X157955890Y-66650684D01*
X157955894Y-66650679D01*
X158016237Y-66504997D01*
X158047000Y-66350342D01*
X158047000Y-66278000D01*
X158066685Y-66210961D01*
X158119489Y-66165206D01*
X158171000Y-66154000D01*
X164566403Y-66154000D01*
X164633442Y-66173685D01*
X164654084Y-66190319D01*
X166921639Y-68457874D01*
X166921649Y-68457885D01*
X166925979Y-68462215D01*
X166925980Y-68462216D01*
X167037784Y-68574020D01*
X167037786Y-68574021D01*
X167037790Y-68574024D01*
X167174709Y-68653073D01*
X167174716Y-68653077D01*
X167286519Y-68683034D01*
X167327442Y-68694000D01*
X167327443Y-68694000D01*
X204886331Y-68694000D01*
X204886347Y-68694001D01*
X204893943Y-68694001D01*
X205052054Y-68694001D01*
X205052057Y-68694001D01*
X205204785Y-68653077D01*
X205216250Y-68646457D01*
X205259033Y-68621757D01*
X205259034Y-68621756D01*
X205341716Y-68574020D01*
X205453520Y-68462216D01*
X205453520Y-68462214D01*
X205463724Y-68452011D01*
X205463728Y-68452006D01*
X206035974Y-67879759D01*
X206097295Y-67846276D01*
X206143047Y-67844969D01*
X206313713Y-67872000D01*
X206313714Y-67872000D01*
X206776286Y-67872000D01*
X206776287Y-67872000D01*
X206986243Y-67838746D01*
X207188412Y-67773057D01*
X207377816Y-67676551D01*
X207399789Y-67660586D01*
X207549786Y-67551609D01*
X207549788Y-67551606D01*
X207549792Y-67551604D01*
X207700104Y-67401292D01*
X207700106Y-67401288D01*
X207700109Y-67401286D01*
X207825048Y-67229320D01*
X207825047Y-67229320D01*
X207825051Y-67229316D01*
X207921557Y-67039912D01*
X207987246Y-66837743D01*
X208020500Y-66627787D01*
X208020500Y-66415213D01*
X207987246Y-66205257D01*
X207921557Y-66003088D01*
X207825051Y-65813684D01*
X207825049Y-65813681D01*
X207825048Y-65813679D01*
X207700109Y-65641713D01*
X207549792Y-65491396D01*
X207385204Y-65371816D01*
X207342540Y-65316489D01*
X207336561Y-65246876D01*
X207369166Y-65185080D01*
X207385199Y-65171186D01*
X207549792Y-65051604D01*
X207700104Y-64901292D01*
X207700106Y-64901288D01*
X207700109Y-64901286D01*
X207825048Y-64729320D01*
X207825047Y-64729320D01*
X207825051Y-64729316D01*
X207921557Y-64539912D01*
X207987246Y-64337743D01*
X208020500Y-64127787D01*
X208020500Y-63915213D01*
X207987246Y-63705257D01*
X207921557Y-63503088D01*
X207825051Y-63313684D01*
X207825049Y-63313681D01*
X207825048Y-63313679D01*
X207700109Y-63141713D01*
X207549792Y-62991396D01*
X207385204Y-62871816D01*
X207342540Y-62816489D01*
X207336561Y-62746876D01*
X207369166Y-62685080D01*
X207385199Y-62671186D01*
X207549792Y-62551604D01*
X207700104Y-62401292D01*
X207700106Y-62401288D01*
X207700109Y-62401286D01*
X207825048Y-62229320D01*
X207825047Y-62229320D01*
X207825051Y-62229316D01*
X207921557Y-62039912D01*
X207987246Y-61837743D01*
X208020500Y-61627787D01*
X208020500Y-61415213D01*
X207987246Y-61205257D01*
X207921557Y-61003088D01*
X207825051Y-60813684D01*
X207825049Y-60813681D01*
X207825048Y-60813679D01*
X207700109Y-60641713D01*
X207549792Y-60491396D01*
X207385204Y-60371816D01*
X207342540Y-60316489D01*
X207336561Y-60246876D01*
X207369166Y-60185080D01*
X207385199Y-60171186D01*
X207549792Y-60051604D01*
X207700104Y-59901292D01*
X207700106Y-59901288D01*
X207700109Y-59901286D01*
X207825048Y-59729320D01*
X207825047Y-59729320D01*
X207825051Y-59729316D01*
X207921557Y-59539912D01*
X207987246Y-59337743D01*
X208020500Y-59127787D01*
X208020500Y-58915213D01*
X207987246Y-58705257D01*
X207921557Y-58503088D01*
X207825051Y-58313684D01*
X207825049Y-58313681D01*
X207825048Y-58313679D01*
X207700109Y-58141713D01*
X207549792Y-57991396D01*
X207549784Y-57991390D01*
X207385204Y-57871816D01*
X207342540Y-57816489D01*
X207336561Y-57746876D01*
X207369166Y-57685080D01*
X207385199Y-57671186D01*
X207549792Y-57551604D01*
X207700104Y-57401292D01*
X207700106Y-57401288D01*
X207700109Y-57401286D01*
X207825048Y-57229320D01*
X207825047Y-57229320D01*
X207825051Y-57229316D01*
X207921557Y-57039912D01*
X207987246Y-56837743D01*
X208020500Y-56627787D01*
X208020500Y-56415213D01*
X207987246Y-56205257D01*
X207921557Y-56003088D01*
X207825051Y-55813684D01*
X207825049Y-55813681D01*
X207825048Y-55813679D01*
X207700109Y-55641713D01*
X207560931Y-55502535D01*
X207527446Y-55441212D01*
X207532430Y-55371520D01*
X207574302Y-55315587D01*
X207583516Y-55309315D01*
X207738343Y-55213817D01*
X207862315Y-55089845D01*
X207954356Y-54940624D01*
X207954358Y-54940619D01*
X208009505Y-54774197D01*
X208009506Y-54774190D01*
X208019999Y-54671486D01*
X208020000Y-54671473D01*
X208020000Y-54271500D01*
X206949146Y-54271500D01*
X206987630Y-54204843D01*
X207020000Y-54084035D01*
X207020000Y-53958965D01*
X206987630Y-53838157D01*
X206949146Y-53771500D01*
X208019999Y-53771500D01*
X208019999Y-53371528D01*
X208019998Y-53371513D01*
X208009505Y-53268802D01*
X207954358Y-53102380D01*
X207954356Y-53102375D01*
X207862315Y-52953154D01*
X207738345Y-52829184D01*
X207589124Y-52737143D01*
X207589119Y-52737141D01*
X207422697Y-52681994D01*
X207422690Y-52681993D01*
X207319986Y-52671500D01*
X206795000Y-52671500D01*
X206795000Y-53617354D01*
X206728343Y-53578870D01*
X206607535Y-53546500D01*
X206482465Y-53546500D01*
X206361657Y-53578870D01*
X206295000Y-53617354D01*
X206295000Y-52671500D01*
X205770028Y-52671500D01*
X205770012Y-52671501D01*
X205667302Y-52681994D01*
X205500880Y-52737141D01*
X205500875Y-52737143D01*
X205351654Y-52829184D01*
X205227684Y-52953154D01*
X205135643Y-53102375D01*
X205135641Y-53102380D01*
X205080494Y-53268802D01*
X205080493Y-53268809D01*
X205070000Y-53371513D01*
X205070000Y-53771500D01*
X206140854Y-53771500D01*
X206102370Y-53838157D01*
X206070000Y-53958965D01*
X206070000Y-54084035D01*
X206102370Y-54204843D01*
X206140854Y-54271500D01*
X205070001Y-54271500D01*
X205070001Y-54671486D01*
X205080494Y-54774197D01*
X205135641Y-54940619D01*
X205135643Y-54940624D01*
X205227684Y-55089845D01*
X205351654Y-55213815D01*
X205506484Y-55309315D01*
X205553208Y-55361263D01*
X205564431Y-55430226D01*
X205536587Y-55494308D01*
X205529069Y-55502535D01*
X205389889Y-55641715D01*
X205264951Y-55813679D01*
X205168444Y-56003085D01*
X205102753Y-56205260D01*
X205081077Y-56342119D01*
X205069500Y-56415213D01*
X205069500Y-56627787D01*
X205102754Y-56837743D01*
X205118130Y-56885066D01*
X205168444Y-57039914D01*
X205264951Y-57229320D01*
X205389890Y-57401286D01*
X205540209Y-57551605D01*
X205540214Y-57551609D01*
X205704793Y-57671182D01*
X205747459Y-57726511D01*
X205753438Y-57796125D01*
X205720833Y-57857920D01*
X205704793Y-57871818D01*
X205540214Y-57991390D01*
X205540209Y-57991394D01*
X205389890Y-58141713D01*
X205264951Y-58313679D01*
X205168444Y-58503085D01*
X205102753Y-58705260D01*
X205069500Y-58915213D01*
X205069500Y-59127786D01*
X205102753Y-59337740D01*
X205147146Y-59474367D01*
X205149141Y-59544208D01*
X205116896Y-59600366D01*
X198784584Y-65932681D01*
X198723261Y-65966166D01*
X198696903Y-65969000D01*
X168468597Y-65969000D01*
X168401558Y-65949315D01*
X168380916Y-65932681D01*
X166116090Y-63667855D01*
X166116088Y-63667852D01*
X165997217Y-63548981D01*
X165997216Y-63548980D01*
X165910404Y-63498860D01*
X165910404Y-63498859D01*
X165910400Y-63498858D01*
X165860285Y-63469923D01*
X165707557Y-63428999D01*
X165549443Y-63428999D01*
X165541847Y-63428999D01*
X165541831Y-63429000D01*
X148435557Y-63429000D01*
X148277442Y-63429000D01*
X148124715Y-63469923D01*
X148124714Y-63469923D01*
X148124712Y-63469924D01*
X148117201Y-63473035D01*
X148116082Y-63470335D01*
X148068839Y-63483000D01*
X148023655Y-63483000D01*
X147869010Y-63513761D01*
X147868998Y-63513764D01*
X147723327Y-63574102D01*
X147723314Y-63574109D01*
X147592211Y-63661710D01*
X147592207Y-63661713D01*
X147480713Y-63773207D01*
X147480710Y-63773211D01*
X147393109Y-63904314D01*
X147393102Y-63904327D01*
X147332764Y-64049998D01*
X147332761Y-64050010D01*
X147302000Y-64204653D01*
X147302000Y-64217347D01*
X147282315Y-64284386D01*
X147229511Y-64330141D01*
X147225459Y-64331906D01*
X147215322Y-64336105D01*
X147215314Y-64336109D01*
X147084211Y-64423710D01*
X147084207Y-64423713D01*
X146972713Y-64535207D01*
X146972710Y-64535211D01*
X146885109Y-64666314D01*
X146885102Y-64666327D01*
X146824764Y-64811998D01*
X146824761Y-64812010D01*
X146794000Y-64966653D01*
X140035747Y-64966653D01*
X139924185Y-64892109D01*
X139924172Y-64892102D01*
X139778501Y-64831764D01*
X139778489Y-64831761D01*
X139623845Y-64801000D01*
X139623842Y-64801000D01*
X139466158Y-64801000D01*
X139466155Y-64801000D01*
X139311510Y-64831761D01*
X139311498Y-64831764D01*
X139165827Y-64892102D01*
X139165814Y-64892109D01*
X139034711Y-64979710D01*
X139034707Y-64979713D01*
X138923213Y-65091207D01*
X138923210Y-65091211D01*
X138835609Y-65222314D01*
X138835602Y-65222327D01*
X138775264Y-65367998D01*
X138775261Y-65368008D01*
X138744361Y-65523350D01*
X138711976Y-65585261D01*
X138710425Y-65586839D01*
X137434084Y-66863181D01*
X137372761Y-66896666D01*
X137346403Y-66899500D01*
X99079766Y-66899500D01*
X99012727Y-66879815D01*
X99010875Y-66878602D01*
X98879185Y-66790609D01*
X98879172Y-66790602D01*
X98733501Y-66730264D01*
X98733489Y-66730261D01*
X98578845Y-66699500D01*
X98578842Y-66699500D01*
X98421158Y-66699500D01*
X98421155Y-66699500D01*
X98266510Y-66730261D01*
X98266498Y-66730264D01*
X98120827Y-66790602D01*
X98120814Y-66790609D01*
X97989711Y-66878210D01*
X97989707Y-66878213D01*
X97878213Y-66989707D01*
X97878210Y-66989711D01*
X97790609Y-67120814D01*
X97790602Y-67120827D01*
X97730264Y-67266498D01*
X97730261Y-67266510D01*
X97699500Y-67421153D01*
X94997203Y-67421153D01*
X94997207Y-67414988D01*
X95002936Y-58362653D01*
X156100000Y-58362653D01*
X156100000Y-58520346D01*
X156130761Y-58674989D01*
X156130764Y-58675001D01*
X156191102Y-58820671D01*
X156191109Y-58820684D01*
X156231150Y-58880609D01*
X156252028Y-58947287D01*
X156233543Y-59014667D01*
X156231150Y-59018391D01*
X156191109Y-59078315D01*
X156191102Y-59078328D01*
X156130764Y-59223998D01*
X156130761Y-59224010D01*
X156100000Y-59378653D01*
X156100000Y-59536346D01*
X156130761Y-59690989D01*
X156130764Y-59691001D01*
X156191102Y-59836672D01*
X156191109Y-59836685D01*
X156278710Y-59967788D01*
X156278713Y-59967792D01*
X156390207Y-60079286D01*
X156390211Y-60079289D01*
X156521314Y-60166890D01*
X156521327Y-60166897D01*
X156666998Y-60227235D01*
X156667003Y-60227237D01*
X156731647Y-60240095D01*
X156822349Y-60258138D01*
X156884260Y-60290523D01*
X156885837Y-60292072D01*
X158309784Y-61716020D01*
X158309786Y-61716021D01*
X158309790Y-61716024D01*
X158446709Y-61795073D01*
X158446716Y-61795077D01*
X158599443Y-61836001D01*
X158599445Y-61836001D01*
X158765154Y-61836001D01*
X158765170Y-61836000D01*
X180522295Y-61836000D01*
X180589334Y-61855685D01*
X180635089Y-61908489D01*
X180645033Y-61977647D01*
X180616008Y-62041203D01*
X180561299Y-62077706D01*
X180457380Y-62112141D01*
X180457375Y-62112143D01*
X180308154Y-62204184D01*
X180184184Y-62328154D01*
X180092143Y-62477375D01*
X180092141Y-62477380D01*
X180036994Y-62643802D01*
X180036993Y-62643809D01*
X180026500Y-62746513D01*
X180026500Y-63271500D01*
X180972354Y-63271500D01*
X180933870Y-63338157D01*
X180901500Y-63458965D01*
X180901500Y-63584035D01*
X180933870Y-63704843D01*
X180972354Y-63771500D01*
X180026501Y-63771500D01*
X180026501Y-64296486D01*
X180036994Y-64399197D01*
X180092141Y-64565619D01*
X180092143Y-64565624D01*
X180184184Y-64714845D01*
X180308154Y-64838815D01*
X180457375Y-64930856D01*
X180457380Y-64930858D01*
X180623802Y-64986005D01*
X180623809Y-64986006D01*
X180726519Y-64996499D01*
X181126499Y-64996499D01*
X181126500Y-64996498D01*
X181126500Y-63925645D01*
X181193157Y-63964130D01*
X181313965Y-63996500D01*
X181439035Y-63996500D01*
X181559843Y-63964130D01*
X181626500Y-63925645D01*
X181626500Y-64996499D01*
X182026472Y-64996499D01*
X182026486Y-64996498D01*
X182129197Y-64986005D01*
X182295619Y-64930858D01*
X182295624Y-64930856D01*
X182444845Y-64838815D01*
X182568817Y-64714843D01*
X182664315Y-64560016D01*
X182716263Y-64513291D01*
X182785225Y-64502068D01*
X182849308Y-64529912D01*
X182857535Y-64537431D01*
X182996713Y-64676609D01*
X183168679Y-64801548D01*
X183168681Y-64801549D01*
X183168684Y-64801551D01*
X183358088Y-64898057D01*
X183560257Y-64963746D01*
X183770213Y-64997000D01*
X183770214Y-64997000D01*
X183982786Y-64997000D01*
X183982787Y-64997000D01*
X184192743Y-64963746D01*
X184394912Y-64898057D01*
X184584316Y-64801551D01*
X184606289Y-64785586D01*
X184756286Y-64676609D01*
X184756288Y-64676606D01*
X184756292Y-64676604D01*
X184906604Y-64526292D01*
X185026183Y-64361704D01*
X185081511Y-64319040D01*
X185151124Y-64313061D01*
X185212920Y-64345666D01*
X185226813Y-64361699D01*
X185328796Y-64502068D01*
X185346396Y-64526292D01*
X185496713Y-64676609D01*
X185668679Y-64801548D01*
X185668681Y-64801549D01*
X185668684Y-64801551D01*
X185858088Y-64898057D01*
X186060257Y-64963746D01*
X186270213Y-64997000D01*
X186270214Y-64997000D01*
X186482786Y-64997000D01*
X186482787Y-64997000D01*
X186692743Y-64963746D01*
X186894912Y-64898057D01*
X187084316Y-64801551D01*
X187106289Y-64785586D01*
X187256286Y-64676609D01*
X187256288Y-64676606D01*
X187256292Y-64676604D01*
X187406604Y-64526292D01*
X187526183Y-64361704D01*
X187581511Y-64319040D01*
X187651124Y-64313061D01*
X187712920Y-64345666D01*
X187726813Y-64361699D01*
X187828796Y-64502068D01*
X187846396Y-64526292D01*
X187996713Y-64676609D01*
X188168679Y-64801548D01*
X188168681Y-64801549D01*
X188168684Y-64801551D01*
X188358088Y-64898057D01*
X188560257Y-64963746D01*
X188770213Y-64997000D01*
X188770214Y-64997000D01*
X188982786Y-64997000D01*
X188982787Y-64997000D01*
X189192743Y-64963746D01*
X189394912Y-64898057D01*
X189584316Y-64801551D01*
X189606289Y-64785586D01*
X189756286Y-64676609D01*
X189756288Y-64676606D01*
X189756292Y-64676604D01*
X189906604Y-64526292D01*
X189906606Y-64526288D01*
X189906609Y-64526286D01*
X190031548Y-64354320D01*
X190031547Y-64354320D01*
X190031551Y-64354316D01*
X190128057Y-64164912D01*
X190193746Y-63962743D01*
X190227000Y-63752787D01*
X190227000Y-63290213D01*
X190193746Y-63080257D01*
X190128057Y-62878088D01*
X190031551Y-62688684D01*
X190031549Y-62688681D01*
X190031548Y-62688679D01*
X189906609Y-62516713D01*
X189756286Y-62366390D01*
X189584320Y-62241451D01*
X189394914Y-62144944D01*
X189394913Y-62144943D01*
X189394912Y-62144943D01*
X189192743Y-62079254D01*
X189192741Y-62079253D01*
X189192740Y-62079253D01*
X189031457Y-62053708D01*
X188982787Y-62046000D01*
X188770213Y-62046000D01*
X188721542Y-62053708D01*
X188560260Y-62079253D01*
X188560257Y-62079254D01*
X188423629Y-62123647D01*
X188353790Y-62125642D01*
X188297632Y-62093397D01*
X186570090Y-60365855D01*
X186570088Y-60365852D01*
X186451217Y-60246981D01*
X186451216Y-60246980D01*
X186364404Y-60196860D01*
X186364404Y-60196859D01*
X186364400Y-60196858D01*
X186314285Y-60167923D01*
X186161557Y-60126999D01*
X186003443Y-60126999D01*
X185995847Y-60126999D01*
X185995831Y-60127000D01*
X159486597Y-60127000D01*
X159419558Y-60107315D01*
X159398916Y-60090681D01*
X157735074Y-58426839D01*
X157701589Y-58365516D01*
X157701138Y-58363349D01*
X157670238Y-58208010D01*
X157670237Y-58208003D01*
X157642777Y-58141708D01*
X157609897Y-58062327D01*
X157609890Y-58062314D01*
X157522289Y-57931211D01*
X157522286Y-57931207D01*
X157410792Y-57819713D01*
X157410788Y-57819710D01*
X157279685Y-57732109D01*
X157279672Y-57732102D01*
X157134001Y-57671764D01*
X157133989Y-57671761D01*
X156979345Y-57641000D01*
X156979342Y-57641000D01*
X156821658Y-57641000D01*
X156821655Y-57641000D01*
X156667010Y-57671761D01*
X156666998Y-57671764D01*
X156521327Y-57732102D01*
X156521314Y-57732109D01*
X156390211Y-57819710D01*
X156390207Y-57819713D01*
X156278713Y-57931207D01*
X156278710Y-57931211D01*
X156191109Y-58062314D01*
X156191102Y-58062327D01*
X156130764Y-58207998D01*
X156130761Y-58208010D01*
X156100000Y-58362653D01*
X95002936Y-58362653D01*
X95002940Y-58356488D01*
X95004314Y-56184430D01*
X164365954Y-56184430D01*
X164365954Y-56342123D01*
X164396715Y-56496766D01*
X164396718Y-56496778D01*
X164457056Y-56642449D01*
X164457063Y-56642462D01*
X164544664Y-56773565D01*
X164544667Y-56773569D01*
X164656161Y-56885063D01*
X164656165Y-56885066D01*
X164787268Y-56972667D01*
X164787281Y-56972674D01*
X164932952Y-57033012D01*
X164932957Y-57033014D01*
X165087607Y-57063776D01*
X165087610Y-57063777D01*
X165087612Y-57063777D01*
X165245298Y-57063777D01*
X165245299Y-57063776D01*
X165399951Y-57033014D01*
X165545633Y-56972671D01*
X165676743Y-56885066D01*
X165788243Y-56773566D01*
X165875848Y-56642456D01*
X165881925Y-56627786D01*
X165936189Y-56496778D01*
X165936191Y-56496774D01*
X165966954Y-56342119D01*
X165966954Y-56184435D01*
X165966954Y-56184432D01*
X165966953Y-56184430D01*
X165944936Y-56073746D01*
X165936191Y-56029780D01*
X165925134Y-56003085D01*
X165875851Y-55884104D01*
X165875844Y-55884091D01*
X165834564Y-55822311D01*
X165813686Y-55755633D01*
X165813666Y-55753420D01*
X165813666Y-53856513D01*
X180026500Y-53856513D01*
X180026500Y-54381500D01*
X180972354Y-54381500D01*
X180933870Y-54448157D01*
X180901500Y-54568965D01*
X180901500Y-54694035D01*
X180933870Y-54814843D01*
X180972354Y-54881500D01*
X180026501Y-54881500D01*
X180026501Y-55406486D01*
X180036994Y-55509197D01*
X180092141Y-55675619D01*
X180092143Y-55675624D01*
X180184184Y-55824845D01*
X180308154Y-55948815D01*
X180457375Y-56040856D01*
X180457380Y-56040858D01*
X180623802Y-56096005D01*
X180623809Y-56096006D01*
X180726519Y-56106499D01*
X181126499Y-56106499D01*
X181126500Y-56106498D01*
X181126500Y-55035645D01*
X181193157Y-55074130D01*
X181313965Y-55106500D01*
X181439035Y-55106500D01*
X181559843Y-55074130D01*
X181626500Y-55035645D01*
X181626500Y-56106499D01*
X182026472Y-56106499D01*
X182026486Y-56106498D01*
X182129197Y-56096005D01*
X182295619Y-56040858D01*
X182295624Y-56040856D01*
X182444845Y-55948815D01*
X182568817Y-55824843D01*
X182664315Y-55670016D01*
X182716263Y-55623291D01*
X182785225Y-55612068D01*
X182849308Y-55639912D01*
X182857535Y-55647431D01*
X182996713Y-55786609D01*
X183168679Y-55911548D01*
X183168681Y-55911549D01*
X183168684Y-55911551D01*
X183358088Y-56008057D01*
X183560257Y-56073746D01*
X183770213Y-56107000D01*
X183770214Y-56107000D01*
X183982786Y-56107000D01*
X183982787Y-56107000D01*
X184192743Y-56073746D01*
X184394912Y-56008057D01*
X184584316Y-55911551D01*
X184622112Y-55884091D01*
X184756286Y-55786609D01*
X184756288Y-55786606D01*
X184756292Y-55786604D01*
X184906604Y-55636292D01*
X185026183Y-55471704D01*
X185081511Y-55429040D01*
X185151124Y-55423061D01*
X185212920Y-55455666D01*
X185226813Y-55471699D01*
X185249217Y-55502535D01*
X185346396Y-55636292D01*
X185496713Y-55786609D01*
X185668679Y-55911548D01*
X185668681Y-55911549D01*
X185668684Y-55911551D01*
X185858088Y-56008057D01*
X186060257Y-56073746D01*
X186270213Y-56107000D01*
X186270214Y-56107000D01*
X186482786Y-56107000D01*
X186482787Y-56107000D01*
X186692743Y-56073746D01*
X186894912Y-56008057D01*
X187084316Y-55911551D01*
X187122112Y-55884091D01*
X187256286Y-55786609D01*
X187256288Y-55786606D01*
X187256292Y-55786604D01*
X187406604Y-55636292D01*
X187526183Y-55471704D01*
X187581511Y-55429040D01*
X187651124Y-55423061D01*
X187712920Y-55455666D01*
X187726813Y-55471699D01*
X187749217Y-55502535D01*
X187846396Y-55636292D01*
X187996713Y-55786609D01*
X188168679Y-55911548D01*
X188168681Y-55911549D01*
X188168684Y-55911551D01*
X188358088Y-56008057D01*
X188560257Y-56073746D01*
X188770213Y-56107000D01*
X188770214Y-56107000D01*
X188982786Y-56107000D01*
X188982787Y-56107000D01*
X189192743Y-56073746D01*
X189394912Y-56008057D01*
X189584316Y-55911551D01*
X189622112Y-55884091D01*
X189756286Y-55786609D01*
X189756288Y-55786606D01*
X189756292Y-55786604D01*
X189906604Y-55636292D01*
X189906606Y-55636288D01*
X189906609Y-55636286D01*
X190031548Y-55464320D01*
X190031547Y-55464320D01*
X190031551Y-55464316D01*
X190128057Y-55274912D01*
X190193746Y-55072743D01*
X190227000Y-54862787D01*
X190227000Y-54400213D01*
X190193746Y-54190257D01*
X190128057Y-53988088D01*
X190031551Y-53798684D01*
X190031549Y-53798681D01*
X190031548Y-53798679D01*
X189906609Y-53626713D01*
X189756290Y-53476394D01*
X189756285Y-53476390D01*
X189745676Y-53468682D01*
X189584320Y-53351451D01*
X189394914Y-53254944D01*
X189394913Y-53254943D01*
X189394912Y-53254943D01*
X189192743Y-53189254D01*
X189192741Y-53189253D01*
X189192740Y-53189253D01*
X189031457Y-53163708D01*
X188982787Y-53156000D01*
X188770213Y-53156000D01*
X188721542Y-53163708D01*
X188560260Y-53189253D01*
X188358085Y-53254944D01*
X188168679Y-53351451D01*
X187996713Y-53476390D01*
X187846394Y-53626709D01*
X187846390Y-53626714D01*
X187726818Y-53791293D01*
X187671489Y-53833959D01*
X187601875Y-53839938D01*
X187540080Y-53807333D01*
X187526182Y-53791293D01*
X187406609Y-53626714D01*
X187406605Y-53626709D01*
X187256286Y-53476390D01*
X187084320Y-53351451D01*
X186894914Y-53254944D01*
X186894913Y-53254943D01*
X186894912Y-53254943D01*
X186692743Y-53189254D01*
X186692741Y-53189253D01*
X186692740Y-53189253D01*
X186531457Y-53163708D01*
X186482787Y-53156000D01*
X186270213Y-53156000D01*
X186221542Y-53163708D01*
X186060260Y-53189253D01*
X185858085Y-53254944D01*
X185668679Y-53351451D01*
X185496713Y-53476390D01*
X185346394Y-53626709D01*
X185346390Y-53626714D01*
X185226818Y-53791293D01*
X185171489Y-53833959D01*
X185101875Y-53839938D01*
X185040080Y-53807333D01*
X185026182Y-53791293D01*
X184906609Y-53626714D01*
X184906605Y-53626709D01*
X184756294Y-53476398D01*
X184756288Y-53476393D01*
X184678115Y-53419597D01*
X184635449Y-53364267D01*
X184627000Y-53319279D01*
X184627000Y-51723579D01*
X184598159Y-51578592D01*
X184598158Y-51578591D01*
X184598158Y-51578587D01*
X184568121Y-51506070D01*
X184541586Y-51442009D01*
X184541585Y-51442007D01*
X184508686Y-51392770D01*
X184508685Y-51392768D01*
X184459456Y-51319089D01*
X184459452Y-51319084D01*
X182796571Y-49656203D01*
X182769691Y-49615975D01*
X182759894Y-49592321D01*
X182759889Y-49592314D01*
X182672289Y-49461210D01*
X182560792Y-49349713D01*
X182560788Y-49349710D01*
X182429685Y-49262109D01*
X182429672Y-49262102D01*
X182284001Y-49201764D01*
X182283989Y-49201761D01*
X182129345Y-49171000D01*
X182129342Y-49171000D01*
X181971658Y-49171000D01*
X181971655Y-49171000D01*
X181817010Y-49201761D01*
X181816998Y-49201764D01*
X181671327Y-49262102D01*
X181671314Y-49262109D01*
X181540211Y-49349710D01*
X181540207Y-49349713D01*
X181428713Y-49461207D01*
X181428710Y-49461211D01*
X181341109Y-49592314D01*
X181341102Y-49592327D01*
X181280764Y-49737998D01*
X181280761Y-49738010D01*
X181250000Y-49892653D01*
X181250000Y-50050346D01*
X181280761Y-50204989D01*
X181280764Y-50205001D01*
X181341102Y-50350672D01*
X181341109Y-50350685D01*
X181428710Y-50481788D01*
X181428713Y-50481792D01*
X181540210Y-50593289D01*
X181671315Y-50680890D01*
X181671321Y-50680894D01*
X181694975Y-50690691D01*
X181735203Y-50717571D01*
X183089681Y-52072049D01*
X183123166Y-52133372D01*
X183126000Y-52159730D01*
X183126000Y-53319279D01*
X183106315Y-53386318D01*
X183074885Y-53419597D01*
X182996711Y-53476393D01*
X182857535Y-53615569D01*
X182796212Y-53649053D01*
X182726520Y-53644069D01*
X182670587Y-53602197D01*
X182664315Y-53592984D01*
X182568815Y-53438154D01*
X182444845Y-53314184D01*
X182295624Y-53222143D01*
X182295619Y-53222141D01*
X182129197Y-53166994D01*
X182129190Y-53166993D01*
X182026486Y-53156500D01*
X181626500Y-53156500D01*
X181626500Y-54227354D01*
X181559843Y-54188870D01*
X181439035Y-54156500D01*
X181313965Y-54156500D01*
X181193157Y-54188870D01*
X181126500Y-54227354D01*
X181126500Y-53156500D01*
X180726528Y-53156500D01*
X180726512Y-53156501D01*
X180623802Y-53166994D01*
X180457380Y-53222141D01*
X180457375Y-53222143D01*
X180308154Y-53314184D01*
X180184184Y-53438154D01*
X180092143Y-53587375D01*
X180092141Y-53587380D01*
X180036994Y-53753802D01*
X180036993Y-53753809D01*
X180026500Y-53856513D01*
X165813666Y-53856513D01*
X165813666Y-52795226D01*
X165833351Y-52728187D01*
X165834564Y-52726335D01*
X165864193Y-52681993D01*
X165922560Y-52594640D01*
X165982903Y-52448958D01*
X166013666Y-52294303D01*
X166013666Y-52136619D01*
X166013666Y-52136616D01*
X166013665Y-52136614D01*
X165982904Y-51981971D01*
X165982903Y-51981964D01*
X165982901Y-51981959D01*
X165922563Y-51836288D01*
X165922556Y-51836275D01*
X165834955Y-51705172D01*
X165834952Y-51705168D01*
X165723458Y-51593674D01*
X165723454Y-51593671D01*
X165592351Y-51506070D01*
X165592338Y-51506063D01*
X165446667Y-51445725D01*
X165446655Y-51445722D01*
X165292011Y-51414961D01*
X165292008Y-51414961D01*
X165134324Y-51414961D01*
X165134321Y-51414961D01*
X164979676Y-51445722D01*
X164979664Y-51445725D01*
X164833993Y-51506063D01*
X164833980Y-51506070D01*
X164702877Y-51593671D01*
X164702873Y-51593674D01*
X164591379Y-51705168D01*
X164591376Y-51705172D01*
X164503775Y-51836275D01*
X164503768Y-51836288D01*
X164443430Y-51981959D01*
X164443427Y-51981971D01*
X164412666Y-52136614D01*
X164412666Y-52294307D01*
X164443427Y-52448950D01*
X164443430Y-52448962D01*
X164503768Y-52594633D01*
X164503775Y-52594646D01*
X164591768Y-52726335D01*
X164612646Y-52793012D01*
X164612666Y-52795226D01*
X164612666Y-55633624D01*
X164592981Y-55700663D01*
X164576347Y-55721305D01*
X164544667Y-55752984D01*
X164544664Y-55752988D01*
X164457063Y-55884091D01*
X164457056Y-55884104D01*
X164396718Y-56029775D01*
X164396715Y-56029787D01*
X164365954Y-56184430D01*
X95004314Y-56184430D01*
X95004318Y-56178265D01*
X95008300Y-49886488D01*
X95010016Y-47174422D01*
X95029743Y-47107395D01*
X95082576Y-47061673D01*
X95134016Y-47050500D01*
X210376141Y-47050500D01*
X210443180Y-47070185D01*
G37*
%TD.AperFunction*%
%TD*%
M02*
