%TF.GenerationSoftware,KiCad,Pcbnew,10.0.3*%
%TF.CreationDate,2026-06-24T22:53:41+08:00*%
%TF.ProjectId,Sprinkler System,53707269-6e6b-46c6-9572-205379737465,rev?*%
%TF.SameCoordinates,Original*%
%TF.FileFunction,Legend,Bot*%
%TF.FilePolarity,Positive*%
%FSLAX46Y46*%
G04 Gerber Fmt 4.6, Leading zero omitted, Abs format (unit mm)*
G04 Created by KiCad (PCBNEW 10.0.3) date 2026-06-24 22:53:41*
%MOMM*%
%LPD*%
G01*
G04 APERTURE LIST*
%ADD10C,0.150000*%
%ADD11C,0.120000*%
G04 APERTURE END LIST*
D10*
X187083333Y-51254819D02*
X187083333Y-51969104D01*
X187083333Y-51969104D02*
X187130952Y-52111961D01*
X187130952Y-52111961D02*
X187226190Y-52207200D01*
X187226190Y-52207200D02*
X187369047Y-52254819D01*
X187369047Y-52254819D02*
X187464285Y-52254819D01*
X186607142Y-52254819D02*
X186607142Y-51254819D01*
X186607142Y-51254819D02*
X186226190Y-51254819D01*
X186226190Y-51254819D02*
X186130952Y-51302438D01*
X186130952Y-51302438D02*
X186083333Y-51350057D01*
X186083333Y-51350057D02*
X186035714Y-51445295D01*
X186035714Y-51445295D02*
X186035714Y-51588152D01*
X186035714Y-51588152D02*
X186083333Y-51683390D01*
X186083333Y-51683390D02*
X186130952Y-51731009D01*
X186130952Y-51731009D02*
X186226190Y-51778628D01*
X186226190Y-51778628D02*
X186607142Y-51778628D01*
X185083333Y-52254819D02*
X185654761Y-52254819D01*
X185369047Y-52254819D02*
X185369047Y-51254819D01*
X185369047Y-51254819D02*
X185464285Y-51397676D01*
X185464285Y-51397676D02*
X185559523Y-51492914D01*
X185559523Y-51492914D02*
X185654761Y-51540533D01*
X189035713Y-48554819D02*
X189035713Y-47554819D01*
X188607142Y-47650057D02*
X188559523Y-47602438D01*
X188559523Y-47602438D02*
X188464285Y-47554819D01*
X188464285Y-47554819D02*
X188226190Y-47554819D01*
X188226190Y-47554819D02*
X188130952Y-47602438D01*
X188130952Y-47602438D02*
X188083333Y-47650057D01*
X188083333Y-47650057D02*
X188035714Y-47745295D01*
X188035714Y-47745295D02*
X188035714Y-47840533D01*
X188035714Y-47840533D02*
X188083333Y-47983390D01*
X188083333Y-47983390D02*
X188654761Y-48554819D01*
X188654761Y-48554819D02*
X188035714Y-48554819D01*
X187035714Y-48459580D02*
X187083333Y-48507200D01*
X187083333Y-48507200D02*
X187226190Y-48554819D01*
X187226190Y-48554819D02*
X187321428Y-48554819D01*
X187321428Y-48554819D02*
X187464285Y-48507200D01*
X187464285Y-48507200D02*
X187559523Y-48411961D01*
X187559523Y-48411961D02*
X187607142Y-48316723D01*
X187607142Y-48316723D02*
X187654761Y-48126247D01*
X187654761Y-48126247D02*
X187654761Y-47983390D01*
X187654761Y-47983390D02*
X187607142Y-47792914D01*
X187607142Y-47792914D02*
X187559523Y-47697676D01*
X187559523Y-47697676D02*
X187464285Y-47602438D01*
X187464285Y-47602438D02*
X187321428Y-47554819D01*
X187321428Y-47554819D02*
X187226190Y-47554819D01*
X187226190Y-47554819D02*
X187083333Y-47602438D01*
X187083333Y-47602438D02*
X187035714Y-47650057D01*
X186845238Y-48650057D02*
X186083333Y-48650057D01*
X185988094Y-47554819D02*
X185654761Y-48554819D01*
X185654761Y-48554819D02*
X185321428Y-47554819D01*
X184416666Y-48459580D02*
X184464285Y-48507200D01*
X184464285Y-48507200D02*
X184607142Y-48554819D01*
X184607142Y-48554819D02*
X184702380Y-48554819D01*
X184702380Y-48554819D02*
X184845237Y-48507200D01*
X184845237Y-48507200D02*
X184940475Y-48411961D01*
X184940475Y-48411961D02*
X184988094Y-48316723D01*
X184988094Y-48316723D02*
X185035713Y-48126247D01*
X185035713Y-48126247D02*
X185035713Y-47983390D01*
X185035713Y-47983390D02*
X184988094Y-47792914D01*
X184988094Y-47792914D02*
X184940475Y-47697676D01*
X184940475Y-47697676D02*
X184845237Y-47602438D01*
X184845237Y-47602438D02*
X184702380Y-47554819D01*
X184702380Y-47554819D02*
X184607142Y-47554819D01*
X184607142Y-47554819D02*
X184464285Y-47602438D01*
X184464285Y-47602438D02*
X184416666Y-47650057D01*
X183416666Y-48459580D02*
X183464285Y-48507200D01*
X183464285Y-48507200D02*
X183607142Y-48554819D01*
X183607142Y-48554819D02*
X183702380Y-48554819D01*
X183702380Y-48554819D02*
X183845237Y-48507200D01*
X183845237Y-48507200D02*
X183940475Y-48411961D01*
X183940475Y-48411961D02*
X183988094Y-48316723D01*
X183988094Y-48316723D02*
X184035713Y-48126247D01*
X184035713Y-48126247D02*
X184035713Y-47983390D01*
X184035713Y-47983390D02*
X183988094Y-47792914D01*
X183988094Y-47792914D02*
X183940475Y-47697676D01*
X183940475Y-47697676D02*
X183845237Y-47602438D01*
X183845237Y-47602438D02*
X183702380Y-47554819D01*
X183702380Y-47554819D02*
X183607142Y-47554819D01*
X183607142Y-47554819D02*
X183464285Y-47602438D01*
X183464285Y-47602438D02*
X183416666Y-47650057D01*
X183940475Y-49454819D02*
X183321428Y-49454819D01*
X183321428Y-49454819D02*
X183654761Y-49835771D01*
X183654761Y-49835771D02*
X183511904Y-49835771D01*
X183511904Y-49835771D02*
X183416666Y-49883390D01*
X183416666Y-49883390D02*
X183369047Y-49931009D01*
X183369047Y-49931009D02*
X183321428Y-50026247D01*
X183321428Y-50026247D02*
X183321428Y-50264342D01*
X183321428Y-50264342D02*
X183369047Y-50359580D01*
X183369047Y-50359580D02*
X183416666Y-50407200D01*
X183416666Y-50407200D02*
X183511904Y-50454819D01*
X183511904Y-50454819D02*
X183797618Y-50454819D01*
X183797618Y-50454819D02*
X183892856Y-50407200D01*
X183892856Y-50407200D02*
X183940475Y-50359580D01*
X182988094Y-49788152D02*
X182749999Y-50454819D01*
X182749999Y-50454819D02*
X182511904Y-49788152D01*
X182226189Y-49454819D02*
X181607142Y-49454819D01*
X181607142Y-49454819D02*
X181940475Y-49835771D01*
X181940475Y-49835771D02*
X181797618Y-49835771D01*
X181797618Y-49835771D02*
X181702380Y-49883390D01*
X181702380Y-49883390D02*
X181654761Y-49931009D01*
X181654761Y-49931009D02*
X181607142Y-50026247D01*
X181607142Y-50026247D02*
X181607142Y-50264342D01*
X181607142Y-50264342D02*
X181654761Y-50359580D01*
X181654761Y-50359580D02*
X181702380Y-50407200D01*
X181702380Y-50407200D02*
X181797618Y-50454819D01*
X181797618Y-50454819D02*
X182083332Y-50454819D01*
X182083332Y-50454819D02*
X182178570Y-50407200D01*
X182178570Y-50407200D02*
X182226189Y-50359580D01*
X189690476Y-49454819D02*
X190166666Y-49454819D01*
X190166666Y-49454819D02*
X190214285Y-49931009D01*
X190214285Y-49931009D02*
X190166666Y-49883390D01*
X190166666Y-49883390D02*
X190071428Y-49835771D01*
X190071428Y-49835771D02*
X189833333Y-49835771D01*
X189833333Y-49835771D02*
X189738095Y-49883390D01*
X189738095Y-49883390D02*
X189690476Y-49931009D01*
X189690476Y-49931009D02*
X189642857Y-50026247D01*
X189642857Y-50026247D02*
X189642857Y-50264342D01*
X189642857Y-50264342D02*
X189690476Y-50359580D01*
X189690476Y-50359580D02*
X189738095Y-50407200D01*
X189738095Y-50407200D02*
X189833333Y-50454819D01*
X189833333Y-50454819D02*
X190071428Y-50454819D01*
X190071428Y-50454819D02*
X190166666Y-50407200D01*
X190166666Y-50407200D02*
X190214285Y-50359580D01*
X189357142Y-49454819D02*
X189023809Y-50454819D01*
X189023809Y-50454819D02*
X188690476Y-49454819D01*
%TO.C,JP1*%
D11*
X184200000Y-49700000D02*
X184200000Y-50300000D01*
X184850000Y-51000000D02*
X187650000Y-51000000D01*
X187650000Y-49000000D02*
X184850000Y-49000000D01*
X188300000Y-50300000D02*
X188300000Y-49700000D01*
X184200000Y-49700000D02*
G75*
G02*
X184900000Y-49000000I699999J1D01*
G01*
X184900000Y-51000000D02*
G75*
G02*
X184200000Y-50300000I-1J699999D01*
G01*
X187600000Y-49000000D02*
G75*
G02*
X188300000Y-49700000I0J-700000D01*
G01*
X188300000Y-50300000D02*
G75*
G02*
X187600000Y-51000000I-700000J0D01*
G01*
%TD*%
M02*
