%TF.GenerationSoftware,KiCad,Pcbnew,10.0.3*%
%TF.CreationDate,2026-06-03T05:42:01+08:00*%
%TF.ProjectId,Sprinkler System,53707269-6e6b-46c6-9572-205379737465,rev?*%
%TF.SameCoordinates,Original*%
%TF.FileFunction,Soldermask,Bot*%
%TF.FilePolarity,Negative*%
%FSLAX46Y46*%
G04 Gerber Fmt 4.6, Leading zero omitted, Abs format (unit mm)*
G04 Created by KiCad (PCBNEW 10.0.3) date 2026-06-03 05:42:01*
%MOMM*%
%LPD*%
G01*
G04 APERTURE LIST*
G04 Aperture macros list*
%AMRoundRect*
0 Rectangle with rounded corners*
0 $1 Rounding radius*
0 $2 $3 $4 $5 $6 $7 $8 $9 X,Y pos of 4 corners*
0 Add a 4 corners polygon primitive as box body*
4,1,4,$2,$3,$4,$5,$6,$7,$8,$9,$2,$3,0*
0 Add four circle primitives for the rounded corners*
1,1,$1+$1,$2,$3*
1,1,$1+$1,$4,$5*
1,1,$1+$1,$6,$7*
1,1,$1+$1,$8,$9*
0 Add four rect primitives between the rounded corners*
20,1,$1+$1,$2,$3,$4,$5,0*
20,1,$1+$1,$4,$5,$6,$7,0*
20,1,$1+$1,$6,$7,$8,$9,0*
20,1,$1+$1,$8,$9,$2,$3,0*%
G04 Aperture macros list end*
%ADD10RoundRect,0.250000X-0.650000X-1.550000X0.650000X-1.550000X0.650000X1.550000X-0.650000X1.550000X0*%
%ADD11O,1.800000X3.600000*%
%ADD12RoundRect,0.250000X-0.600000X-0.725000X0.600000X-0.725000X0.600000X0.725000X-0.600000X0.725000X0*%
%ADD13O,1.700000X1.950000*%
%ADD14RoundRect,0.250000X-1.050000X1.050000X-1.050000X-1.050000X1.050000X-1.050000X1.050000X1.050000X0*%
%ADD15C,2.600000*%
%ADD16C,3.200000*%
%ADD17C,2.300000*%
%ADD18RoundRect,0.250000X0.750000X-0.600000X0.750000X0.600000X-0.750000X0.600000X-0.750000X-0.600000X0*%
%ADD19O,2.000000X1.700000*%
%ADD20C,1.800000*%
%ADD21R,2.500000X2.500000*%
%ADD22O,2.500000X2.500000*%
%ADD23RoundRect,0.102000X0.754000X-0.754000X0.754000X0.754000X-0.754000X0.754000X-0.754000X-0.754000X0*%
%ADD24C,1.712000*%
%ADD25RoundRect,0.250000X-0.725000X0.600000X-0.725000X-0.600000X0.725000X-0.600000X0.725000X0.600000X0*%
%ADD26O,1.950000X1.700000*%
G04 APERTURE END LIST*
D10*
%TO.C,J21*%
X123880000Y-123000000D03*
D11*
X127690000Y-123000000D03*
%TD*%
D12*
%TO.C,J5*%
X181376500Y-63521500D03*
D13*
X183876500Y-63521500D03*
X186376500Y-63521500D03*
X188876500Y-63521500D03*
%TD*%
D14*
%TO.C,J2*%
X59500000Y-111000000D03*
D15*
X59500000Y-116000000D03*
%TD*%
D16*
%TO.C,REF\u002A\u002A*%
X57000000Y-127000000D03*
%TD*%
D17*
%TO.C,F1*%
X71000000Y-125000000D03*
X71000000Y-109300000D03*
%TD*%
D18*
%TO.C,U3*%
X63000000Y-99000000D03*
D19*
X68000000Y-99000000D03*
X58000000Y-69920000D03*
X73000000Y-69920000D03*
%TD*%
D20*
%TO.C,RV21*%
X120310000Y-112917500D03*
X127810000Y-115317500D03*
%TD*%
D21*
%TO.C,K21*%
X124230000Y-83197500D03*
D22*
X118230000Y-85197500D03*
X118230000Y-97397500D03*
X130230000Y-97397500D03*
X130230000Y-85197500D03*
%TD*%
D10*
%TO.C,J20*%
X103560000Y-123000000D03*
D11*
X107370000Y-123000000D03*
%TD*%
D10*
%TO.C,J25*%
X202184000Y-123000000D03*
D11*
X205994000Y-123000000D03*
%TD*%
D12*
%TO.C,J6*%
X181376500Y-54631500D03*
D13*
X183876500Y-54631500D03*
X186376500Y-54631500D03*
X188876500Y-54631500D03*
%TD*%
D21*
%TO.C,K25*%
X205510000Y-83197500D03*
D22*
X199510000Y-85197500D03*
X199510000Y-97397500D03*
X211510000Y-97397500D03*
X211510000Y-85197500D03*
%TD*%
D10*
%TO.C,J24*%
X184840000Y-123000000D03*
D11*
X188650000Y-123000000D03*
%TD*%
D20*
%TO.C,RV23*%
X160950000Y-112917500D03*
X168450000Y-115317500D03*
%TD*%
D23*
%TO.C,K1*%
X83000000Y-98500000D03*
D24*
X83000000Y-90880000D03*
X83000000Y-80720000D03*
X83000000Y-78180000D03*
%TD*%
D17*
%TO.C,F2*%
X83000000Y-68100000D03*
X83000000Y-52400000D03*
%TD*%
D21*
%TO.C,K22*%
X144550000Y-83197500D03*
D22*
X138550000Y-85197500D03*
X138550000Y-97397500D03*
X150550000Y-97397500D03*
X150550000Y-85197500D03*
%TD*%
D10*
%TO.C,J23*%
X164520000Y-123000000D03*
D11*
X168330000Y-123000000D03*
%TD*%
D20*
%TO.C,RV22*%
X140630000Y-112917500D03*
X148130000Y-115317500D03*
%TD*%
%TO.C,RV25*%
X201470000Y-112777500D03*
X208970000Y-115177500D03*
%TD*%
D14*
%TO.C,J3*%
X62000000Y-57000000D03*
D15*
X62000000Y-62000000D03*
%TD*%
D21*
%TO.C,K23*%
X164870000Y-83197500D03*
D22*
X158870000Y-85197500D03*
X158870000Y-97397500D03*
X170870000Y-97397500D03*
X170870000Y-85197500D03*
%TD*%
D10*
%TO.C,J22*%
X144200000Y-123000000D03*
D11*
X148010000Y-123000000D03*
%TD*%
D16*
%TO.C,REF\u002A\u002A*%
X214000000Y-50000000D03*
%TD*%
%TO.C,REF\u002A\u002A*%
X214000000Y-127000000D03*
%TD*%
D21*
%TO.C,K24*%
X185190000Y-83197500D03*
D22*
X179190000Y-85197500D03*
X179190000Y-97397500D03*
X191190000Y-97397500D03*
X191190000Y-85197500D03*
%TD*%
D10*
%TO.C,J1*%
X82000000Y-123000000D03*
D11*
X85810000Y-123000000D03*
X89620000Y-123000000D03*
%TD*%
D16*
%TO.C,REF\u002A\u002A*%
X57000000Y-50000000D03*
%TD*%
D20*
%TO.C,RV20*%
X99990000Y-112917500D03*
X107490000Y-115317500D03*
%TD*%
D25*
%TO.C,J4*%
X206545000Y-54021500D03*
D26*
X206545000Y-56521500D03*
X206545000Y-59021500D03*
X206545000Y-61521500D03*
X206545000Y-64021500D03*
X206545000Y-66521500D03*
%TD*%
D20*
%TO.C,RV24*%
X181270000Y-112917500D03*
X188770000Y-115317500D03*
%TD*%
D21*
%TO.C,K20*%
X103910000Y-83197500D03*
D22*
X97910000Y-85197500D03*
X97910000Y-97397500D03*
X109910000Y-97397500D03*
X109910000Y-85197500D03*
%TD*%
M02*
