%TF.GenerationSoftware,KiCad,Pcbnew,10.0.3*%
%TF.CreationDate,2026-06-13T18:48:25+08:00*%
%TF.ProjectId,Sprinkler System,53707269-6e6b-46c6-9572-205379737465,rev?*%
%TF.SameCoordinates,Original*%
%TF.FileFunction,AssemblyDrawing,Bot*%
%FSLAX46Y46*%
G04 Gerber Fmt 4.6, Leading zero omitted, Abs format (unit mm)*
G04 Created by KiCad (PCBNEW 10.0.3) date 2026-06-13 18:48:25*
%MOMM*%
%LPD*%
G01*
G04 APERTURE LIST*
%ADD10C,0.150000*%
%ADD11C,0.100000*%
G04 APERTURE END LIST*
D10*
X171714285Y-47778700D02*
X171571428Y-47826319D01*
X171571428Y-47826319D02*
X171333333Y-47826319D01*
X171333333Y-47826319D02*
X171238095Y-47778700D01*
X171238095Y-47778700D02*
X171190476Y-47731080D01*
X171190476Y-47731080D02*
X171142857Y-47635842D01*
X171142857Y-47635842D02*
X171142857Y-47540604D01*
X171142857Y-47540604D02*
X171190476Y-47445366D01*
X171190476Y-47445366D02*
X171238095Y-47397747D01*
X171238095Y-47397747D02*
X171333333Y-47350128D01*
X171333333Y-47350128D02*
X171523809Y-47302509D01*
X171523809Y-47302509D02*
X171619047Y-47254890D01*
X171619047Y-47254890D02*
X171666666Y-47207271D01*
X171666666Y-47207271D02*
X171714285Y-47112033D01*
X171714285Y-47112033D02*
X171714285Y-47016795D01*
X171714285Y-47016795D02*
X171666666Y-46921557D01*
X171666666Y-46921557D02*
X171619047Y-46873938D01*
X171619047Y-46873938D02*
X171523809Y-46826319D01*
X171523809Y-46826319D02*
X171285714Y-46826319D01*
X171285714Y-46826319D02*
X171142857Y-46873938D01*
X170761904Y-47778700D02*
X170619047Y-47826319D01*
X170619047Y-47826319D02*
X170380952Y-47826319D01*
X170380952Y-47826319D02*
X170285714Y-47778700D01*
X170285714Y-47778700D02*
X170238095Y-47731080D01*
X170238095Y-47731080D02*
X170190476Y-47635842D01*
X170190476Y-47635842D02*
X170190476Y-47540604D01*
X170190476Y-47540604D02*
X170238095Y-47445366D01*
X170238095Y-47445366D02*
X170285714Y-47397747D01*
X170285714Y-47397747D02*
X170380952Y-47350128D01*
X170380952Y-47350128D02*
X170571428Y-47302509D01*
X170571428Y-47302509D02*
X170666666Y-47254890D01*
X170666666Y-47254890D02*
X170714285Y-47207271D01*
X170714285Y-47207271D02*
X170761904Y-47112033D01*
X170761904Y-47112033D02*
X170761904Y-47016795D01*
X170761904Y-47016795D02*
X170714285Y-46921557D01*
X170714285Y-46921557D02*
X170666666Y-46873938D01*
X170666666Y-46873938D02*
X170571428Y-46826319D01*
X170571428Y-46826319D02*
X170333333Y-46826319D01*
X170333333Y-46826319D02*
X170190476Y-46873938D01*
X169857142Y-46826319D02*
X169238095Y-46826319D01*
X169238095Y-46826319D02*
X169571428Y-47207271D01*
X169571428Y-47207271D02*
X169428571Y-47207271D01*
X169428571Y-47207271D02*
X169333333Y-47254890D01*
X169333333Y-47254890D02*
X169285714Y-47302509D01*
X169285714Y-47302509D02*
X169238095Y-47397747D01*
X169238095Y-47397747D02*
X169238095Y-47635842D01*
X169238095Y-47635842D02*
X169285714Y-47731080D01*
X169285714Y-47731080D02*
X169333333Y-47778700D01*
X169333333Y-47778700D02*
X169428571Y-47826319D01*
X169428571Y-47826319D02*
X169714285Y-47826319D01*
X169714285Y-47826319D02*
X169809523Y-47778700D01*
X169809523Y-47778700D02*
X169857142Y-47731080D01*
X168380952Y-47159652D02*
X168380952Y-47826319D01*
X168619047Y-46778700D02*
X168857142Y-47492985D01*
X168857142Y-47492985D02*
X168238095Y-47492985D01*
X170738094Y-52926319D02*
X170738094Y-51926319D01*
X170738094Y-51926319D02*
X170499999Y-51926319D01*
X170499999Y-51926319D02*
X170357142Y-51973938D01*
X170357142Y-51973938D02*
X170261904Y-52069176D01*
X170261904Y-52069176D02*
X170214285Y-52164414D01*
X170214285Y-52164414D02*
X170166666Y-52354890D01*
X170166666Y-52354890D02*
X170166666Y-52497747D01*
X170166666Y-52497747D02*
X170214285Y-52688223D01*
X170214285Y-52688223D02*
X170261904Y-52783461D01*
X170261904Y-52783461D02*
X170357142Y-52878700D01*
X170357142Y-52878700D02*
X170499999Y-52926319D01*
X170499999Y-52926319D02*
X170738094Y-52926319D01*
X169785713Y-52021557D02*
X169738094Y-51973938D01*
X169738094Y-51973938D02*
X169642856Y-51926319D01*
X169642856Y-51926319D02*
X169404761Y-51926319D01*
X169404761Y-51926319D02*
X169309523Y-51973938D01*
X169309523Y-51973938D02*
X169261904Y-52021557D01*
X169261904Y-52021557D02*
X169214285Y-52116795D01*
X169214285Y-52116795D02*
X169214285Y-52212033D01*
X169214285Y-52212033D02*
X169261904Y-52354890D01*
X169261904Y-52354890D02*
X169833332Y-52926319D01*
X169833332Y-52926319D02*
X169214285Y-52926319D01*
X181285713Y-50354819D02*
X181285713Y-49354819D01*
X180857142Y-49450057D02*
X180809523Y-49402438D01*
X180809523Y-49402438D02*
X180714285Y-49354819D01*
X180714285Y-49354819D02*
X180476190Y-49354819D01*
X180476190Y-49354819D02*
X180380952Y-49402438D01*
X180380952Y-49402438D02*
X180333333Y-49450057D01*
X180333333Y-49450057D02*
X180285714Y-49545295D01*
X180285714Y-49545295D02*
X180285714Y-49640533D01*
X180285714Y-49640533D02*
X180333333Y-49783390D01*
X180333333Y-49783390D02*
X180904761Y-50354819D01*
X180904761Y-50354819D02*
X180285714Y-50354819D01*
X179285714Y-50259580D02*
X179333333Y-50307200D01*
X179333333Y-50307200D02*
X179476190Y-50354819D01*
X179476190Y-50354819D02*
X179571428Y-50354819D01*
X179571428Y-50354819D02*
X179714285Y-50307200D01*
X179714285Y-50307200D02*
X179809523Y-50211961D01*
X179809523Y-50211961D02*
X179857142Y-50116723D01*
X179857142Y-50116723D02*
X179904761Y-49926247D01*
X179904761Y-49926247D02*
X179904761Y-49783390D01*
X179904761Y-49783390D02*
X179857142Y-49592914D01*
X179857142Y-49592914D02*
X179809523Y-49497676D01*
X179809523Y-49497676D02*
X179714285Y-49402438D01*
X179714285Y-49402438D02*
X179571428Y-49354819D01*
X179571428Y-49354819D02*
X179476190Y-49354819D01*
X179476190Y-49354819D02*
X179333333Y-49402438D01*
X179333333Y-49402438D02*
X179285714Y-49450057D01*
X179095238Y-50450057D02*
X178333333Y-50450057D01*
X178238094Y-49354819D02*
X177904761Y-50354819D01*
X177904761Y-50354819D02*
X177571428Y-49354819D01*
X176666666Y-50259580D02*
X176714285Y-50307200D01*
X176714285Y-50307200D02*
X176857142Y-50354819D01*
X176857142Y-50354819D02*
X176952380Y-50354819D01*
X176952380Y-50354819D02*
X177095237Y-50307200D01*
X177095237Y-50307200D02*
X177190475Y-50211961D01*
X177190475Y-50211961D02*
X177238094Y-50116723D01*
X177238094Y-50116723D02*
X177285713Y-49926247D01*
X177285713Y-49926247D02*
X177285713Y-49783390D01*
X177285713Y-49783390D02*
X177238094Y-49592914D01*
X177238094Y-49592914D02*
X177190475Y-49497676D01*
X177190475Y-49497676D02*
X177095237Y-49402438D01*
X177095237Y-49402438D02*
X176952380Y-49354819D01*
X176952380Y-49354819D02*
X176857142Y-49354819D01*
X176857142Y-49354819D02*
X176714285Y-49402438D01*
X176714285Y-49402438D02*
X176666666Y-49450057D01*
X175666666Y-50259580D02*
X175714285Y-50307200D01*
X175714285Y-50307200D02*
X175857142Y-50354819D01*
X175857142Y-50354819D02*
X175952380Y-50354819D01*
X175952380Y-50354819D02*
X176095237Y-50307200D01*
X176095237Y-50307200D02*
X176190475Y-50211961D01*
X176190475Y-50211961D02*
X176238094Y-50116723D01*
X176238094Y-50116723D02*
X176285713Y-49926247D01*
X176285713Y-49926247D02*
X176285713Y-49783390D01*
X176285713Y-49783390D02*
X176238094Y-49592914D01*
X176238094Y-49592914D02*
X176190475Y-49497676D01*
X176190475Y-49497676D02*
X176095237Y-49402438D01*
X176095237Y-49402438D02*
X175952380Y-49354819D01*
X175952380Y-49354819D02*
X175857142Y-49354819D01*
X175857142Y-49354819D02*
X175714285Y-49402438D01*
X175714285Y-49402438D02*
X175666666Y-49450057D01*
%TO.C,D2*%
D11*
X167700000Y-48471500D02*
X167700000Y-51471500D01*
X169350560Y-49970480D02*
X168448860Y-49970480D01*
X169350560Y-49970480D02*
X170501180Y-49221180D01*
X169350560Y-49970480D02*
X170501180Y-50770580D01*
X169350560Y-50770580D02*
X169350560Y-49170380D01*
X170501180Y-49221180D02*
X170501180Y-50770580D01*
X170501180Y-49970480D02*
X171499400Y-49970480D01*
X172300000Y-48471500D02*
X167700000Y-48471500D01*
X172300000Y-51471500D02*
X167700000Y-51471500D01*
X172300000Y-51471500D02*
X172300000Y-48471500D01*
%TD*%
M02*
