%TF.GenerationSoftware,KiCad,Pcbnew,10.0.3*%
%TF.CreationDate,2026-06-13T18:48:25+08:00*%
%TF.ProjectId,Sprinkler System,53707269-6e6b-46c6-9572-205379737465,rev?*%
%TF.SameCoordinates,Original*%
%TF.FileFunction,Legend,Bot*%
%TF.FilePolarity,Positive*%
%FSLAX46Y46*%
G04 Gerber Fmt 4.6, Leading zero omitted, Abs format (unit mm)*
G04 Created by KiCad (PCBNEW 10.0.3) date 2026-06-13 18:48:25*
%MOMM*%
%LPD*%
G01*
G04 APERTURE LIST*
%ADD10C,0.120000*%
%ADD11C,0.150000*%
G04 APERTURE END LIST*
D10*
X175695238Y-54163855D02*
X175695238Y-53363855D01*
X175695238Y-53363855D02*
X175504762Y-53363855D01*
X175504762Y-53363855D02*
X175390476Y-53401950D01*
X175390476Y-53401950D02*
X175314286Y-53478140D01*
X175314286Y-53478140D02*
X175276191Y-53554331D01*
X175276191Y-53554331D02*
X175238095Y-53706712D01*
X175238095Y-53706712D02*
X175238095Y-53820998D01*
X175238095Y-53820998D02*
X175276191Y-53973379D01*
X175276191Y-53973379D02*
X175314286Y-54049569D01*
X175314286Y-54049569D02*
X175390476Y-54125760D01*
X175390476Y-54125760D02*
X175504762Y-54163855D01*
X175504762Y-54163855D02*
X175695238Y-54163855D01*
X174933334Y-53440045D02*
X174895238Y-53401950D01*
X174895238Y-53401950D02*
X174819048Y-53363855D01*
X174819048Y-53363855D02*
X174628572Y-53363855D01*
X174628572Y-53363855D02*
X174552381Y-53401950D01*
X174552381Y-53401950D02*
X174514286Y-53440045D01*
X174514286Y-53440045D02*
X174476191Y-53516236D01*
X174476191Y-53516236D02*
X174476191Y-53592426D01*
X174476191Y-53592426D02*
X174514286Y-53706712D01*
X174514286Y-53706712D02*
X174971429Y-54163855D01*
X174971429Y-54163855D02*
X174476191Y-54163855D01*
X174133333Y-54087664D02*
X174095238Y-54125760D01*
X174095238Y-54125760D02*
X174133333Y-54163855D01*
X174133333Y-54163855D02*
X174171429Y-54125760D01*
X174171429Y-54125760D02*
X174133333Y-54087664D01*
X174133333Y-54087664D02*
X174133333Y-54163855D01*
X174133333Y-53668617D02*
X174095238Y-53706712D01*
X174095238Y-53706712D02*
X174133333Y-53744807D01*
X174133333Y-53744807D02*
X174171429Y-53706712D01*
X174171429Y-53706712D02*
X174133333Y-53668617D01*
X174133333Y-53668617D02*
X174133333Y-53744807D01*
X173180953Y-54125760D02*
X173066667Y-54163855D01*
X173066667Y-54163855D02*
X172876191Y-54163855D01*
X172876191Y-54163855D02*
X172800000Y-54125760D01*
X172800000Y-54125760D02*
X172761905Y-54087664D01*
X172761905Y-54087664D02*
X172723810Y-54011474D01*
X172723810Y-54011474D02*
X172723810Y-53935283D01*
X172723810Y-53935283D02*
X172761905Y-53859093D01*
X172761905Y-53859093D02*
X172800000Y-53820998D01*
X172800000Y-53820998D02*
X172876191Y-53782902D01*
X172876191Y-53782902D02*
X173028572Y-53744807D01*
X173028572Y-53744807D02*
X173104762Y-53706712D01*
X173104762Y-53706712D02*
X173142857Y-53668617D01*
X173142857Y-53668617D02*
X173180953Y-53592426D01*
X173180953Y-53592426D02*
X173180953Y-53516236D01*
X173180953Y-53516236D02*
X173142857Y-53440045D01*
X173142857Y-53440045D02*
X173104762Y-53401950D01*
X173104762Y-53401950D02*
X173028572Y-53363855D01*
X173028572Y-53363855D02*
X172838095Y-53363855D01*
X172838095Y-53363855D02*
X172723810Y-53401950D01*
X172419048Y-54125760D02*
X172304762Y-54163855D01*
X172304762Y-54163855D02*
X172114286Y-54163855D01*
X172114286Y-54163855D02*
X172038095Y-54125760D01*
X172038095Y-54125760D02*
X172000000Y-54087664D01*
X172000000Y-54087664D02*
X171961905Y-54011474D01*
X171961905Y-54011474D02*
X171961905Y-53935283D01*
X171961905Y-53935283D02*
X172000000Y-53859093D01*
X172000000Y-53859093D02*
X172038095Y-53820998D01*
X172038095Y-53820998D02*
X172114286Y-53782902D01*
X172114286Y-53782902D02*
X172266667Y-53744807D01*
X172266667Y-53744807D02*
X172342857Y-53706712D01*
X172342857Y-53706712D02*
X172380952Y-53668617D01*
X172380952Y-53668617D02*
X172419048Y-53592426D01*
X172419048Y-53592426D02*
X172419048Y-53516236D01*
X172419048Y-53516236D02*
X172380952Y-53440045D01*
X172380952Y-53440045D02*
X172342857Y-53401950D01*
X172342857Y-53401950D02*
X172266667Y-53363855D01*
X172266667Y-53363855D02*
X172076190Y-53363855D01*
X172076190Y-53363855D02*
X171961905Y-53401950D01*
X171695238Y-53363855D02*
X171200000Y-53363855D01*
X171200000Y-53363855D02*
X171466666Y-53668617D01*
X171466666Y-53668617D02*
X171352381Y-53668617D01*
X171352381Y-53668617D02*
X171276190Y-53706712D01*
X171276190Y-53706712D02*
X171238095Y-53744807D01*
X171238095Y-53744807D02*
X171200000Y-53820998D01*
X171200000Y-53820998D02*
X171200000Y-54011474D01*
X171200000Y-54011474D02*
X171238095Y-54087664D01*
X171238095Y-54087664D02*
X171276190Y-54125760D01*
X171276190Y-54125760D02*
X171352381Y-54163855D01*
X171352381Y-54163855D02*
X171580952Y-54163855D01*
X171580952Y-54163855D02*
X171657143Y-54125760D01*
X171657143Y-54125760D02*
X171695238Y-54087664D01*
X170514285Y-53630521D02*
X170514285Y-54163855D01*
X170704761Y-53325760D02*
X170895238Y-53897188D01*
X170895238Y-53897188D02*
X170399999Y-53897188D01*
X169371428Y-54163855D02*
X169447618Y-54125760D01*
X169447618Y-54125760D02*
X169485713Y-54087664D01*
X169485713Y-54087664D02*
X169523809Y-54011474D01*
X169523809Y-54011474D02*
X169523809Y-53782902D01*
X169523809Y-53782902D02*
X169485713Y-53706712D01*
X169485713Y-53706712D02*
X169447618Y-53668617D01*
X169447618Y-53668617D02*
X169371428Y-53630521D01*
X169371428Y-53630521D02*
X169257142Y-53630521D01*
X169257142Y-53630521D02*
X169180951Y-53668617D01*
X169180951Y-53668617D02*
X169142856Y-53706712D01*
X169142856Y-53706712D02*
X169104761Y-53782902D01*
X169104761Y-53782902D02*
X169104761Y-54011474D01*
X169104761Y-54011474D02*
X169142856Y-54087664D01*
X169142856Y-54087664D02*
X169180951Y-54125760D01*
X169180951Y-54125760D02*
X169257142Y-54163855D01*
X169257142Y-54163855D02*
X169371428Y-54163855D01*
X168761903Y-54163855D02*
X168761903Y-53630521D01*
X168761903Y-53782902D02*
X168723808Y-53706712D01*
X168723808Y-53706712D02*
X168685713Y-53668617D01*
X168685713Y-53668617D02*
X168609522Y-53630521D01*
X168609522Y-53630521D02*
X168533332Y-53630521D01*
X167657141Y-54163855D02*
X167657141Y-53363855D01*
X167657141Y-53668617D02*
X167580951Y-53630521D01*
X167580951Y-53630521D02*
X167428570Y-53630521D01*
X167428570Y-53630521D02*
X167352379Y-53668617D01*
X167352379Y-53668617D02*
X167314284Y-53706712D01*
X167314284Y-53706712D02*
X167276189Y-53782902D01*
X167276189Y-53782902D02*
X167276189Y-54011474D01*
X167276189Y-54011474D02*
X167314284Y-54087664D01*
X167314284Y-54087664D02*
X167352379Y-54125760D01*
X167352379Y-54125760D02*
X167428570Y-54163855D01*
X167428570Y-54163855D02*
X167580951Y-54163855D01*
X167580951Y-54163855D02*
X167657141Y-54125760D01*
X166933331Y-54163855D02*
X166933331Y-53630521D01*
X166933331Y-53782902D02*
X166895236Y-53706712D01*
X166895236Y-53706712D02*
X166857141Y-53668617D01*
X166857141Y-53668617D02*
X166780950Y-53630521D01*
X166780950Y-53630521D02*
X166704760Y-53630521D01*
X166438093Y-54163855D02*
X166438093Y-53630521D01*
X166438093Y-53363855D02*
X166476189Y-53401950D01*
X166476189Y-53401950D02*
X166438093Y-53440045D01*
X166438093Y-53440045D02*
X166399998Y-53401950D01*
X166399998Y-53401950D02*
X166438093Y-53363855D01*
X166438093Y-53363855D02*
X166438093Y-53440045D01*
X165714284Y-54163855D02*
X165714284Y-53363855D01*
X165714284Y-54125760D02*
X165790475Y-54163855D01*
X165790475Y-54163855D02*
X165942856Y-54163855D01*
X165942856Y-54163855D02*
X166019046Y-54125760D01*
X166019046Y-54125760D02*
X166057141Y-54087664D01*
X166057141Y-54087664D02*
X166095237Y-54011474D01*
X166095237Y-54011474D02*
X166095237Y-53782902D01*
X166095237Y-53782902D02*
X166057141Y-53706712D01*
X166057141Y-53706712D02*
X166019046Y-53668617D01*
X166019046Y-53668617D02*
X165942856Y-53630521D01*
X165942856Y-53630521D02*
X165790475Y-53630521D01*
X165790475Y-53630521D02*
X165714284Y-53668617D01*
X164990474Y-53630521D02*
X164990474Y-54278140D01*
X164990474Y-54278140D02*
X165028569Y-54354331D01*
X165028569Y-54354331D02*
X165066665Y-54392426D01*
X165066665Y-54392426D02*
X165142855Y-54430521D01*
X165142855Y-54430521D02*
X165257141Y-54430521D01*
X165257141Y-54430521D02*
X165333331Y-54392426D01*
X164990474Y-54125760D02*
X165066665Y-54163855D01*
X165066665Y-54163855D02*
X165219046Y-54163855D01*
X165219046Y-54163855D02*
X165295236Y-54125760D01*
X165295236Y-54125760D02*
X165333331Y-54087664D01*
X165333331Y-54087664D02*
X165371427Y-54011474D01*
X165371427Y-54011474D02*
X165371427Y-53782902D01*
X165371427Y-53782902D02*
X165333331Y-53706712D01*
X165333331Y-53706712D02*
X165295236Y-53668617D01*
X165295236Y-53668617D02*
X165219046Y-53630521D01*
X165219046Y-53630521D02*
X165066665Y-53630521D01*
X165066665Y-53630521D02*
X164990474Y-53668617D01*
X164304759Y-54125760D02*
X164380950Y-54163855D01*
X164380950Y-54163855D02*
X164533331Y-54163855D01*
X164533331Y-54163855D02*
X164609521Y-54125760D01*
X164609521Y-54125760D02*
X164647617Y-54049569D01*
X164647617Y-54049569D02*
X164647617Y-53744807D01*
X164647617Y-53744807D02*
X164609521Y-53668617D01*
X164609521Y-53668617D02*
X164533331Y-53630521D01*
X164533331Y-53630521D02*
X164380950Y-53630521D01*
X164380950Y-53630521D02*
X164304759Y-53668617D01*
X164304759Y-53668617D02*
X164266664Y-53744807D01*
X164266664Y-53744807D02*
X164266664Y-53820998D01*
X164266664Y-53820998D02*
X164647617Y-53897188D01*
D11*
X170738094Y-52926319D02*
X170738094Y-51926319D01*
X170738094Y-51926319D02*
X170499999Y-51926319D01*
X170499999Y-51926319D02*
X170357142Y-51973938D01*
X170357142Y-51973938D02*
X170261904Y-52069176D01*
X170261904Y-52069176D02*
X170214285Y-52164414D01*
X170214285Y-52164414D02*
X170166666Y-52354890D01*
X170166666Y-52354890D02*
X170166666Y-52497747D01*
X170166666Y-52497747D02*
X170214285Y-52688223D01*
X170214285Y-52688223D02*
X170261904Y-52783461D01*
X170261904Y-52783461D02*
X170357142Y-52878700D01*
X170357142Y-52878700D02*
X170499999Y-52926319D01*
X170499999Y-52926319D02*
X170738094Y-52926319D01*
X169785713Y-52021557D02*
X169738094Y-51973938D01*
X169738094Y-51973938D02*
X169642856Y-51926319D01*
X169642856Y-51926319D02*
X169404761Y-51926319D01*
X169404761Y-51926319D02*
X169309523Y-51973938D01*
X169309523Y-51973938D02*
X169261904Y-52021557D01*
X169261904Y-52021557D02*
X169214285Y-52116795D01*
X169214285Y-52116795D02*
X169214285Y-52212033D01*
X169214285Y-52212033D02*
X169261904Y-52354890D01*
X169261904Y-52354890D02*
X169833332Y-52926319D01*
X169833332Y-52926319D02*
X169214285Y-52926319D01*
X179333333Y-49454819D02*
X179333333Y-50169104D01*
X179333333Y-50169104D02*
X179380952Y-50311961D01*
X179380952Y-50311961D02*
X179476190Y-50407200D01*
X179476190Y-50407200D02*
X179619047Y-50454819D01*
X179619047Y-50454819D02*
X179714285Y-50454819D01*
X178857142Y-50454819D02*
X178857142Y-49454819D01*
X178857142Y-49454819D02*
X178476190Y-49454819D01*
X178476190Y-49454819D02*
X178380952Y-49502438D01*
X178380952Y-49502438D02*
X178333333Y-49550057D01*
X178333333Y-49550057D02*
X178285714Y-49645295D01*
X178285714Y-49645295D02*
X178285714Y-49788152D01*
X178285714Y-49788152D02*
X178333333Y-49883390D01*
X178333333Y-49883390D02*
X178380952Y-49931009D01*
X178380952Y-49931009D02*
X178476190Y-49978628D01*
X178476190Y-49978628D02*
X178857142Y-49978628D01*
X177333333Y-50454819D02*
X177904761Y-50454819D01*
X177619047Y-50454819D02*
X177619047Y-49454819D01*
X177619047Y-49454819D02*
X177714285Y-49597676D01*
X177714285Y-49597676D02*
X177809523Y-49692914D01*
X177809523Y-49692914D02*
X177904761Y-49740533D01*
X176233332Y-47454819D02*
X175614285Y-47454819D01*
X175614285Y-47454819D02*
X175947618Y-47835771D01*
X175947618Y-47835771D02*
X175804761Y-47835771D01*
X175804761Y-47835771D02*
X175709523Y-47883390D01*
X175709523Y-47883390D02*
X175661904Y-47931009D01*
X175661904Y-47931009D02*
X175614285Y-48026247D01*
X175614285Y-48026247D02*
X175614285Y-48264342D01*
X175614285Y-48264342D02*
X175661904Y-48359580D01*
X175661904Y-48359580D02*
X175709523Y-48407200D01*
X175709523Y-48407200D02*
X175804761Y-48454819D01*
X175804761Y-48454819D02*
X176090475Y-48454819D01*
X176090475Y-48454819D02*
X176185713Y-48407200D01*
X176185713Y-48407200D02*
X176233332Y-48359580D01*
X180814285Y-48454819D02*
X181385713Y-48454819D01*
X181099999Y-48454819D02*
X181099999Y-47454819D01*
X181099999Y-47454819D02*
X181195237Y-47597676D01*
X181195237Y-47597676D02*
X181290475Y-47692914D01*
X181290475Y-47692914D02*
X181385713Y-47740533D01*
%TO.C,D2*%
D10*
X166490000Y-48321500D02*
X172000000Y-48321500D01*
X166490000Y-51621500D02*
X166490000Y-48321500D01*
X166490000Y-51621500D02*
X172000000Y-51621500D01*
%TO.C,JP1*%
X176450000Y-47700000D02*
X176450000Y-48300000D01*
X177100000Y-49000000D02*
X179900000Y-49000000D01*
X179900000Y-47000000D02*
X177100000Y-47000000D01*
X180550000Y-48300000D02*
X180550000Y-47700000D01*
X176450000Y-47700000D02*
G75*
G02*
X177150000Y-47000000I700000J0D01*
G01*
X177150000Y-49000000D02*
G75*
G02*
X176450000Y-48300000I0J700000D01*
G01*
X179850000Y-47000000D02*
G75*
G02*
X180550000Y-47700000I1J-699999D01*
G01*
X180550000Y-48300000D02*
G75*
G02*
X179850000Y-49000000I-699999J-1D01*
G01*
%TD*%
M02*
