%TF.GenerationSoftware,KiCad,Pcbnew,10.0.3*%
%TF.CreationDate,2026-06-25T22:05:02+08:00*%
%TF.ProjectId,Sprinkler System,53707269-6e6b-46c6-9572-205379737465,rev?*%
%TF.SameCoordinates,Original*%
%TF.FileFunction,Copper,L1,Top*%
%TF.FilePolarity,Positive*%
%FSLAX46Y46*%
G04 Gerber Fmt 4.6, Leading zero omitted, Abs format (unit mm)*
G04 Created by KiCad (PCBNEW 10.0.3) date 2026-06-25 22:05:02*
%MOMM*%
%LPD*%
G01*
G04 APERTURE LIST*
G04 Aperture macros list*
%AMRoundRect*
0 Rectangle with rounded corners*
0 $1 Rounding radius*
0 $2 $3 $4 $5 $6 $7 $8 $9 X,Y pos of 4 corners*
0 Add a 4 corners polygon primitive as box body*
4,1,4,$2,$3,$4,$5,$6,$7,$8,$9,$2,$3,0*
0 Add four circle primitives for the rounded corners*
1,1,$1+$1,$2,$3*
1,1,$1+$1,$4,$5*
1,1,$1+$1,$6,$7*
1,1,$1+$1,$8,$9*
0 Add four rect primitives between the rounded corners*
20,1,$1+$1,$2,$3,$4,$5,0*
20,1,$1+$1,$4,$5,$6,$7,0*
20,1,$1+$1,$6,$7,$8,$9,0*
20,1,$1+$1,$8,$9,$2,$3,0*%
G04 Aperture macros list end*
%TA.AperFunction,ComponentPad*%
%ADD10RoundRect,0.250000X-0.650000X-1.550000X0.650000X-1.550000X0.650000X1.550000X-0.650000X1.550000X0*%
%TD*%
%TA.AperFunction,ComponentPad*%
%ADD11O,1.800000X3.600000*%
%TD*%
%TA.AperFunction,SMDPad,CuDef*%
%ADD12RoundRect,0.250000X0.337500X0.475000X-0.337500X0.475000X-0.337500X-0.475000X0.337500X-0.475000X0*%
%TD*%
%TA.AperFunction,SMDPad,CuDef*%
%ADD13C,1.500000*%
%TD*%
%TA.AperFunction,SMDPad,CuDef*%
%ADD14RoundRect,0.250000X0.350000X0.450000X-0.350000X0.450000X-0.350000X-0.450000X0.350000X-0.450000X0*%
%TD*%
%TA.AperFunction,SMDPad,CuDef*%
%ADD15RoundRect,0.250000X-0.337500X-0.475000X0.337500X-0.475000X0.337500X0.475000X-0.337500X0.475000X0*%
%TD*%
%TA.AperFunction,ComponentPad*%
%ADD16RoundRect,0.250000X-0.600000X-0.725000X0.600000X-0.725000X0.600000X0.725000X-0.600000X0.725000X0*%
%TD*%
%TA.AperFunction,ComponentPad*%
%ADD17O,1.700000X1.950000*%
%TD*%
%TA.AperFunction,SMDPad,CuDef*%
%ADD18RoundRect,0.250000X0.325000X0.450000X-0.325000X0.450000X-0.325000X-0.450000X0.325000X-0.450000X0*%
%TD*%
%TA.AperFunction,SMDPad,CuDef*%
%ADD19RoundRect,0.250000X-0.350000X-0.450000X0.350000X-0.450000X0.350000X0.450000X-0.350000X0.450000X0*%
%TD*%
%TA.AperFunction,ComponentPad*%
%ADD20RoundRect,0.250000X-1.050000X1.050000X-1.050000X-1.050000X1.050000X-1.050000X1.050000X1.050000X0*%
%TD*%
%TA.AperFunction,ComponentPad*%
%ADD21C,2.600000*%
%TD*%
%TA.AperFunction,ComponentPad*%
%ADD22C,1.800000*%
%TD*%
%TA.AperFunction,ComponentPad*%
%ADD23C,2.300000*%
%TD*%
%TA.AperFunction,ComponentPad*%
%ADD24RoundRect,0.250000X0.750000X-0.600000X0.750000X0.600000X-0.750000X0.600000X-0.750000X-0.600000X0*%
%TD*%
%TA.AperFunction,ComponentPad*%
%ADD25O,2.000000X1.700000*%
%TD*%
%TA.AperFunction,SMDPad,CuDef*%
%ADD26RoundRect,0.250000X-0.450000X0.350000X-0.450000X-0.350000X0.450000X-0.350000X0.450000X0.350000X0*%
%TD*%
%TA.AperFunction,SMDPad,CuDef*%
%ADD27RoundRect,0.375000X-0.625000X-0.375000X0.625000X-0.375000X0.625000X0.375000X-0.625000X0.375000X0*%
%TD*%
%TA.AperFunction,SMDPad,CuDef*%
%ADD28RoundRect,0.500000X-0.500000X-1.400000X0.500000X-1.400000X0.500000X1.400000X-0.500000X1.400000X0*%
%TD*%
%TA.AperFunction,ComponentPad*%
%ADD29R,2.500000X2.500000*%
%TD*%
%TA.AperFunction,ComponentPad*%
%ADD30O,2.500000X2.500000*%
%TD*%
%TA.AperFunction,SMDPad,CuDef*%
%ADD31RoundRect,0.200000X-0.200000X-0.800000X0.200000X-0.800000X0.200000X0.800000X-0.200000X0.800000X0*%
%TD*%
%TA.AperFunction,SMDPad,CuDef*%
%ADD32RoundRect,0.250000X-0.475000X0.337500X-0.475000X-0.337500X0.475000X-0.337500X0.475000X0.337500X0*%
%TD*%
%TA.AperFunction,ComponentPad*%
%ADD33R,1.508000X1.508000*%
%TD*%
%TA.AperFunction,ComponentPad*%
%ADD34C,1.508000*%
%TD*%
%TA.AperFunction,SMDPad,CuDef*%
%ADD35RoundRect,0.150000X-0.150000X0.875000X-0.150000X-0.875000X0.150000X-0.875000X0.150000X0.875000X0*%
%TD*%
%TA.AperFunction,SMDPad,CuDef*%
%ADD36RoundRect,0.250000X0.450000X-0.325000X0.450000X0.325000X-0.450000X0.325000X-0.450000X-0.325000X0*%
%TD*%
%TA.AperFunction,SMDPad,CuDef*%
%ADD37R,1.500000X0.900000*%
%TD*%
%TA.AperFunction,SMDPad,CuDef*%
%ADD38R,0.900000X1.500000*%
%TD*%
%TA.AperFunction,SMDPad,CuDef*%
%ADD39R,0.900000X0.900000*%
%TD*%
%TA.AperFunction,HeatsinkPad*%
%ADD40C,0.600000*%
%TD*%
%TA.AperFunction,HeatsinkPad*%
%ADD41R,3.800000X3.800000*%
%TD*%
%TA.AperFunction,ComponentPad*%
%ADD42RoundRect,0.250000X-1.050000X-1.050000X1.050000X-1.050000X1.050000X1.050000X-1.050000X1.050000X0*%
%TD*%
%TA.AperFunction,ComponentPad*%
%ADD43RoundRect,0.250000X0.550000X0.550000X-0.550000X0.550000X-0.550000X-0.550000X0.550000X-0.550000X0*%
%TD*%
%TA.AperFunction,ComponentPad*%
%ADD44C,1.600000*%
%TD*%
%TA.AperFunction,SMDPad,CuDef*%
%ADD45RoundRect,0.137500X-0.587500X-0.137500X0.587500X-0.137500X0.587500X0.137500X-0.587500X0.137500X0*%
%TD*%
%TA.AperFunction,ComponentPad*%
%ADD46RoundRect,0.250000X-0.725000X0.600000X-0.725000X-0.600000X0.725000X-0.600000X0.725000X0.600000X0*%
%TD*%
%TA.AperFunction,ComponentPad*%
%ADD47O,1.950000X1.700000*%
%TD*%
%TA.AperFunction,ComponentPad*%
%ADD48RoundRect,0.250000X-1.550000X0.650000X-1.550000X-0.650000X1.550000X-0.650000X1.550000X0.650000X0*%
%TD*%
%TA.AperFunction,ComponentPad*%
%ADD49O,3.600000X1.800000*%
%TD*%
%TA.AperFunction,ViaPad*%
%ADD50C,0.600000*%
%TD*%
%TA.AperFunction,Conductor*%
%ADD51C,0.600000*%
%TD*%
%TA.AperFunction,Conductor*%
%ADD52C,0.200000*%
%TD*%
%TA.AperFunction,Conductor*%
%ADD53C,0.500000*%
%TD*%
%TA.AperFunction,Conductor*%
%ADD54C,1.000000*%
%TD*%
G04 APERTURE END LIST*
D10*
%TO.P,J21,1,Pin_1_1*%
%TO.N,24V_Comm*%
X123880000Y-123000000D03*
D11*
%TO.P,J21,2,Pin_2_2*%
%TO.N,24V_S1*%
X127690000Y-123000000D03*
%TD*%
D12*
%TO.P,C2,1*%
%TO.N,+3V3*%
X133075000Y-65500000D03*
%TO.P,C2,2*%
%TO.N,GND*%
X131000000Y-65500000D03*
%TD*%
D13*
%TO.P,TP1,1,1_1*%
%TO.N,GND*%
X105000000Y-74000000D03*
%TD*%
D14*
%TO.P,R7,1*%
%TO.N,Net-(R7-Pad1)*%
X164049500Y-58314500D03*
%TO.P,R7,2*%
%TO.N,GND*%
X162049500Y-58314500D03*
%TD*%
D15*
%TO.P,C22,1*%
%TO.N,24VAC*%
X140975000Y-107697500D03*
%TO.P,C22,2*%
%TO.N,Net-(C22-Pad2)*%
X143050000Y-107697500D03*
%TD*%
D16*
%TO.P,J5,1,Pin_1_1*%
%TO.N,GND*%
X181376500Y-63521500D03*
D17*
%TO.P,J5,2,Pin_2_2*%
%TO.N,+5V*%
X183876500Y-63521500D03*
%TO.P,J5,3,Pin_3_3*%
%TO.N,/IO3*%
X186376500Y-63521500D03*
%TO.P,J5,4,Pin_4_4*%
%TO.N,/IO1*%
X188876500Y-63521500D03*
%TD*%
D18*
%TO.P,LED1,1,K_1*%
%TO.N,Net-(LED1-K)*%
X128025000Y-55500000D03*
%TO.P,LED1,2,A_2*%
%TO.N,/IO2*%
X125975000Y-55500000D03*
%TD*%
D19*
%TO.P,R9,1*%
%TO.N,Net-(LED1-K)*%
X131000000Y-55500000D03*
%TO.P,R9,2*%
%TO.N,GND*%
X133000000Y-55500000D03*
%TD*%
%TO.P,R20,1*%
%TO.N,Net-(C20-Pad2)*%
X105490000Y-107697500D03*
%TO.P,R20,2*%
%TO.N,24V_S0*%
X107490000Y-107697500D03*
%TD*%
D20*
%TO.P,J2,1,Pin_1_1*%
%TO.N,L_SW*%
X59500000Y-109000000D03*
D21*
%TO.P,J2,2,Pin_2_2*%
%TO.N,Neut*%
X59500000Y-114000000D03*
%TD*%
D22*
%TO.P,RV2,1*%
%TO.N,L_SW*%
X79800000Y-115750000D03*
%TO.P,RV2,2*%
%TO.N,Neut*%
X81250000Y-108250000D03*
%TD*%
D23*
%TO.P,F1,1*%
%TO.N,L_Supply*%
X71000000Y-125000000D03*
%TO.P,F1,2*%
%TO.N,L*%
X71000000Y-109300000D03*
%TD*%
D24*
%TO.P,U3,1,AC/L_1*%
%TO.N,L*%
X63000000Y-99000000D03*
D25*
%TO.P,U3,2,AC/N_2*%
%TO.N,Neut*%
X68000000Y-99000000D03*
%TO.P,U3,3,-Vout_3*%
%TO.N,GND*%
X58000000Y-69920000D03*
%TO.P,U3,4,+Vout_4*%
%TO.N,+5V*%
X73000000Y-69920000D03*
%TD*%
D22*
%TO.P,RV21,1*%
%TO.N,24VAC*%
X120310000Y-112917500D03*
%TO.P,RV21,2*%
%TO.N,24V_S1*%
X127810000Y-115317500D03*
%TD*%
D14*
%TO.P,R11,1*%
%TO.N,/IO35*%
X199045000Y-61521500D03*
%TO.P,R11,2*%
%TO.N,GND*%
X197045000Y-61521500D03*
%TD*%
D15*
%TO.P,C25,1*%
%TO.N,24VAC*%
X201935000Y-107697500D03*
%TO.P,C25,2*%
%TO.N,Net-(C25-Pad2)*%
X204010000Y-107697500D03*
%TD*%
D26*
%TO.P,R1,1*%
%TO.N,Net-(R1-Pad1)*%
X93000000Y-70500000D03*
%TO.P,R1,2*%
%TO.N,Net-(D1-K)*%
X93000000Y-72500000D03*
%TD*%
D14*
%TO.P,R4,1*%
%TO.N,Net-(R4-Pad1)*%
X164049500Y-54250500D03*
%TO.P,R4,2*%
%TO.N,GND*%
X162049500Y-54250500D03*
%TD*%
D27*
%TO.P,U1,1,GND_1*%
%TO.N,GND*%
X126500000Y-69400000D03*
%TO.P,U1,2,VO_2*%
%TO.N,+3V3*%
X126500000Y-71700000D03*
D28*
X132800000Y-71700000D03*
D27*
%TO.P,U1,3,VI_3*%
%TO.N,+5V*%
X126500000Y-74000000D03*
%TD*%
D29*
%TO.P,K21,1*%
%TO.N,24VAC*%
X124230000Y-83197500D03*
D30*
%TO.P,K21,2*%
%TO.N,/Coil1*%
X118230000Y-85197500D03*
%TO.P,K21,3*%
%TO.N,24V_S1*%
X118230000Y-97397500D03*
%TO.P,K21,4*%
%TO.N,unconnected-(K21-Pad4)*%
X130230000Y-97397500D03*
%TO.P,K21,5*%
%TO.N,+5V*%
X130230000Y-85197500D03*
%TD*%
D19*
%TO.P,R21,1*%
%TO.N,Net-(C21-Pad2)*%
X125810000Y-107697500D03*
%TO.P,R21,2*%
%TO.N,24V_S1*%
X127810000Y-107697500D03*
%TD*%
D15*
%TO.P,C21,1*%
%TO.N,24VAC*%
X120655000Y-107697500D03*
%TO.P,C21,2*%
%TO.N,Net-(C21-Pad2)*%
X122730000Y-107697500D03*
%TD*%
D10*
%TO.P,J20,1,Pin_1_1*%
%TO.N,24V_Comm*%
X103560000Y-123000000D03*
D11*
%TO.P,J20,2,Pin_2_2*%
%TO.N,24V_S0*%
X107370000Y-123000000D03*
%TD*%
D19*
%TO.P,R24,1*%
%TO.N,Net-(C24-Pad2)*%
X186770000Y-107697500D03*
%TO.P,R24,2*%
%TO.N,24V_S4*%
X188770000Y-107697500D03*
%TD*%
D10*
%TO.P,J25,1,Pin_1_1*%
%TO.N,24V_Comm*%
X202184000Y-123000000D03*
D11*
%TO.P,J25,2,Pin_2_2*%
%TO.N,24V_S5*%
X205994000Y-123000000D03*
%TD*%
D15*
%TO.P,C1,1*%
%TO.N,+5V*%
X125925000Y-65500000D03*
%TO.P,C1,2*%
%TO.N,GND*%
X128000000Y-65500000D03*
%TD*%
D16*
%TO.P,J6,1,Pin_1_1*%
%TO.N,GND*%
X181376500Y-54631500D03*
D17*
%TO.P,J6,2,Pin_2_2*%
%TO.N,/VCC_I2C*%
X183876500Y-54631500D03*
%TO.P,J6,3,Pin_3_3*%
%TO.N,/SDA*%
X186376500Y-54631500D03*
%TO.P,J6,4,Pin_4_4*%
%TO.N,/SCL*%
X188876500Y-54631500D03*
%TD*%
D29*
%TO.P,K25,1*%
%TO.N,24VAC*%
X205510000Y-83197500D03*
D30*
%TO.P,K25,2*%
%TO.N,/Coil5*%
X199510000Y-85197500D03*
%TO.P,K25,3*%
%TO.N,24V_S5*%
X199510000Y-97397500D03*
%TO.P,K25,4*%
%TO.N,unconnected-(K25-Pad4)*%
X211510000Y-97397500D03*
%TO.P,K25,5*%
%TO.N,+5V*%
X211510000Y-85197500D03*
%TD*%
D31*
%TO.P,SW1,1,1_1*%
%TO.N,/EN*%
X168862500Y-53223000D03*
%TO.P,SW1,2,2_2*%
%TO.N,Net-(R4-Pad1)*%
X173062500Y-53223000D03*
%TD*%
D19*
%TO.P,R14,1*%
%TO.N,/SCL*%
X197000000Y-56500000D03*
%TO.P,R14,2*%
%TO.N,+3V3*%
X199000000Y-56500000D03*
%TD*%
D15*
%TO.P,C23,1*%
%TO.N,24VAC*%
X161295000Y-107697500D03*
%TO.P,C23,2*%
%TO.N,Net-(C23-Pad2)*%
X163370000Y-107697500D03*
%TD*%
D19*
%TO.P,R25,1*%
%TO.N,Net-(C25-Pad2)*%
X207090000Y-107697500D03*
%TO.P,R25,2*%
%TO.N,24V_S5*%
X209090000Y-107697500D03*
%TD*%
D10*
%TO.P,J24,1,Pin_1_1*%
%TO.N,24V_Comm*%
X184840000Y-123000000D03*
D11*
%TO.P,J24,2,Pin_2_2*%
%TO.N,24V_S4*%
X188650000Y-123000000D03*
%TD*%
D18*
%TO.P,LED2,1,K_1*%
%TO.N,Net-(LED2-K)*%
X128025000Y-50500000D03*
%TO.P,LED2,2,A_2*%
%TO.N,+3V3*%
X125975000Y-50500000D03*
%TD*%
D31*
%TO.P,SW2,1,1_1*%
%TO.N,/IO0*%
X168807500Y-57298500D03*
%TO.P,SW2,2,2_2*%
%TO.N,Net-(R7-Pad1)*%
X173007500Y-57298500D03*
%TD*%
D32*
%TO.P,C3,1*%
%TO.N,/Sens_24V*%
X100000000Y-70462500D03*
%TO.P,C3,2*%
%TO.N,GND*%
X100000000Y-72537500D03*
%TD*%
D26*
%TO.P,R2,1*%
%TO.N,/Sens_24V*%
X97000000Y-70500000D03*
%TO.P,R2,2*%
%TO.N,GND*%
X97000000Y-72500000D03*
%TD*%
D13*
%TO.P,TP3,1,1_1*%
%TO.N,+3V3*%
X115000000Y-74000000D03*
%TD*%
D22*
%TO.P,RV23,1*%
%TO.N,24VAC*%
X160950000Y-112917500D03*
%TO.P,RV23,2*%
%TO.N,24V_S3*%
X168450000Y-115317500D03*
%TD*%
D33*
%TO.P,K1,1*%
%TO.N,L*%
X83000000Y-98500000D03*
D34*
%TO.P,K1,2*%
%TO.N,L_SW*%
X83000000Y-90880000D03*
%TO.P,K1,3*%
%TO.N,+5V*%
X83000000Y-80720000D03*
%TO.P,K1,4*%
%TO.N,/SSR*%
X83000000Y-78180000D03*
%TD*%
D23*
%TO.P,F2,1*%
%TO.N,24VAC*%
X83000000Y-68100000D03*
%TO.P,F2,2*%
%TO.N,24V_Supply*%
X83000000Y-52400000D03*
%TD*%
D29*
%TO.P,K22,1*%
%TO.N,24VAC*%
X144550000Y-83197500D03*
D30*
%TO.P,K22,2*%
%TO.N,/Coil2*%
X138550000Y-85197500D03*
%TO.P,K22,3*%
%TO.N,24V_S2*%
X138550000Y-97397500D03*
%TO.P,K22,4*%
%TO.N,unconnected-(K22-Pad4)*%
X150550000Y-97397500D03*
%TO.P,K22,5*%
%TO.N,+5V*%
X150550000Y-85197500D03*
%TD*%
D14*
%TO.P,R10,1*%
%TO.N,/IO34*%
X198957500Y-59021500D03*
%TO.P,R10,2*%
%TO.N,GND*%
X196957500Y-59021500D03*
%TD*%
D10*
%TO.P,J23,1,Pin_1_1*%
%TO.N,24V_Comm*%
X164520000Y-123000000D03*
D11*
%TO.P,J23,2,Pin_2_2*%
%TO.N,24V_S3*%
X168330000Y-123000000D03*
%TD*%
D22*
%TO.P,RV22,1*%
%TO.N,24VAC*%
X140630000Y-112917500D03*
%TO.P,RV22,2*%
%TO.N,24V_S2*%
X148130000Y-115317500D03*
%TD*%
D19*
%TO.P,R12,1*%
%TO.N,Net-(LED2-K)*%
X131000000Y-50500000D03*
%TO.P,R12,2*%
%TO.N,GND*%
X133000000Y-50500000D03*
%TD*%
D12*
%TO.P,C6,1*%
%TO.N,GND*%
X128037500Y-60500000D03*
%TO.P,C6,2*%
%TO.N,/EN*%
X125962500Y-60500000D03*
%TD*%
D22*
%TO.P,RV25,1*%
%TO.N,24VAC*%
X201470000Y-112777500D03*
%TO.P,RV25,2*%
%TO.N,24V_S5*%
X208970000Y-115177500D03*
%TD*%
D35*
%TO.P,U5,1,I1_1*%
%TO.N,unconnected-(U5-I1-Pad1)*%
X176500000Y-64381500D03*
%TO.P,U5,2,I2_2*%
%TO.N,/Zone5*%
X175230000Y-64381500D03*
%TO.P,U5,3,I3_3*%
%TO.N,/Zone4*%
X173960000Y-64381500D03*
%TO.P,U5,4,I4_4*%
%TO.N,/Zone3*%
X172690000Y-64381500D03*
%TO.P,U5,5,I5_5*%
%TO.N,/Zone2*%
X171420000Y-64381500D03*
%TO.P,U5,6,I6_6*%
%TO.N,/Zone1*%
X170150000Y-64381500D03*
%TO.P,U5,7,I7_7*%
%TO.N,/Zone0*%
X168880000Y-64381500D03*
%TO.P,U5,8,I8_8*%
%TO.N,/24V_On*%
X167610000Y-64381500D03*
%TO.P,U5,9,GND_9*%
%TO.N,GND*%
X166340000Y-64381500D03*
%TO.P,U5,10,COM_10*%
%TO.N,+5V*%
X166340000Y-73681500D03*
%TO.P,U5,11,O8_11*%
%TO.N,/SSR*%
X167610000Y-73681500D03*
%TO.P,U5,12,O7_12*%
%TO.N,/Coil0*%
X168880000Y-73681500D03*
%TO.P,U5,13,O6_13*%
%TO.N,/Coil1*%
X170150000Y-73681500D03*
%TO.P,U5,14,O5_14*%
%TO.N,/Coil2*%
X171420000Y-73681500D03*
%TO.P,U5,15,O4_15*%
%TO.N,/Coil3*%
X172690000Y-73681500D03*
%TO.P,U5,16,O3_16*%
%TO.N,/Coil4*%
X173960000Y-73681500D03*
%TO.P,U5,17,O2_17*%
%TO.N,/Coil5*%
X175230000Y-73681500D03*
%TO.P,U5,18,O1_18*%
%TO.N,unconnected-(U5-O1-Pad18)*%
X176500000Y-73681500D03*
%TD*%
D19*
%TO.P,R13,1*%
%TO.N,/SDA*%
X197000000Y-54000000D03*
%TO.P,R13,2*%
%TO.N,+3V3*%
X199000000Y-54000000D03*
%TD*%
D13*
%TO.P,TP2,1,1_1*%
%TO.N,+5V*%
X110000000Y-74000000D03*
%TD*%
D14*
%TO.P,R6,1*%
%TO.N,+3V3*%
X164049500Y-56282500D03*
%TO.P,R6,2*%
%TO.N,/IO0*%
X162049500Y-56282500D03*
%TD*%
D12*
%TO.P,C7,1*%
%TO.N,+3V3*%
X199037500Y-51500000D03*
%TO.P,C7,2*%
%TO.N,GND*%
X196962500Y-51500000D03*
%TD*%
D14*
%TO.P,R8,1*%
%TO.N,/IO33*%
X199045000Y-66521500D03*
%TO.P,R8,2*%
%TO.N,GND*%
X197045000Y-66521500D03*
%TD*%
D29*
%TO.P,K23,1*%
%TO.N,24VAC*%
X164870000Y-83197500D03*
D30*
%TO.P,K23,2*%
%TO.N,/Coil3*%
X158870000Y-85197500D03*
%TO.P,K23,3*%
%TO.N,24V_S3*%
X158870000Y-97397500D03*
%TO.P,K23,4*%
%TO.N,unconnected-(K23-Pad4)*%
X170870000Y-97397500D03*
%TO.P,K23,5*%
%TO.N,+5V*%
X170870000Y-85197500D03*
%TD*%
D36*
%TO.P,D1,1,K_1*%
%TO.N,Net-(D1-K)*%
X90000000Y-72525000D03*
%TO.P,D1,2,A_2*%
%TO.N,24VAC*%
X90000000Y-70475000D03*
%TD*%
D10*
%TO.P,J22,1,Pin_1_1*%
%TO.N,24V_Comm*%
X144200000Y-123000000D03*
D11*
%TO.P,J22,2,Pin_2_2*%
%TO.N,24V_S2*%
X148010000Y-123000000D03*
%TD*%
D15*
%TO.P,C4,1*%
%TO.N,GND*%
X130962500Y-60500000D03*
%TO.P,C4,2*%
%TO.N,+3V3*%
X133037500Y-60500000D03*
%TD*%
D19*
%TO.P,R23,1*%
%TO.N,Net-(C23-Pad2)*%
X166450000Y-107697500D03*
%TO.P,R23,2*%
%TO.N,24V_S3*%
X168450000Y-107697500D03*
%TD*%
D37*
%TO.P,U4,1,GND_1*%
%TO.N,GND*%
X138209500Y-54171500D03*
%TO.P,U4,2,VDD_2*%
%TO.N,+3V3*%
X138209500Y-55441500D03*
%TO.P,U4,3,EN_3*%
%TO.N,/EN*%
X138209500Y-56711500D03*
%TO.P,U4,4,SENSOR_VP_4*%
%TO.N,unconnected-(U4-SENSOR_VP-Pad4)*%
X138209500Y-57981500D03*
%TO.P,U4,5,SENSOR_VN_5*%
%TO.N,unconnected-(U4-SENSOR_VN-Pad5)*%
X138209500Y-59251500D03*
%TO.P,U4,6,IO34_6*%
%TO.N,/IO34*%
X138209500Y-60521500D03*
%TO.P,U4,7,IO35_7*%
%TO.N,/IO35*%
X138209500Y-61791500D03*
%TO.P,U4,8,IO32_8*%
%TO.N,/IO32*%
X138209500Y-63061500D03*
%TO.P,U4,9,IO33_9*%
%TO.N,/IO33*%
X138209500Y-64331500D03*
%TO.P,U4,10,IO25_10*%
%TO.N,/Sens_24V*%
X138209500Y-65601500D03*
%TO.P,U4,11,IO26_11*%
%TO.N,unconnected-(U4-IO26-Pad11)*%
X138209500Y-66871500D03*
%TO.P,U4,12,IO27_12*%
%TO.N,unconnected-(U4-IO27-Pad12)*%
X138209500Y-68141500D03*
%TO.P,U4,13,IO14_13*%
%TO.N,unconnected-(U4-IO14-Pad13)*%
X138209500Y-69411500D03*
%TO.P,U4,14,IO12_14*%
%TO.N,unconnected-(U4-IO12-Pad14)*%
X138209500Y-70681500D03*
D38*
%TO.P,U4,15,GND_15*%
%TO.N,GND*%
X141244500Y-71776500D03*
%TO.P,U4,16,IO13_16*%
%TO.N,unconnected-(U4-IO13-Pad16)*%
X142514500Y-71776500D03*
%TO.P,U4,17,SHD/SD2_17*%
%TO.N,unconnected-(U4-SHD{slash}SD2-Pad17)*%
X143784500Y-71776500D03*
%TO.P,U4,18,SWP/SD3_18*%
%TO.N,unconnected-(U4-SWP{slash}SD3-Pad18)*%
X145054500Y-71776500D03*
%TO.P,U4,19,SCS/CMD_19*%
%TO.N,unconnected-(U4-SCS{slash}CMD-Pad19)*%
X146324500Y-71776500D03*
%TO.P,U4,20,SCK/CLK_20*%
%TO.N,unconnected-(U4-SCK{slash}CLK-Pad20)*%
X147594500Y-71776500D03*
%TO.P,U4,21,SDO/SD0_21*%
%TO.N,unconnected-(U4-SDO{slash}SD0-Pad21)*%
X148864500Y-71776500D03*
%TO.P,U4,22,SDI/SD1_22*%
%TO.N,unconnected-(U4-SDI{slash}SD1-Pad22)*%
X150134500Y-71776500D03*
%TO.P,U4,23,IO15_23*%
%TO.N,unconnected-(U4-IO15-Pad23)*%
X151404500Y-71776500D03*
%TO.P,U4,24,IO2_24*%
%TO.N,/IO2*%
X152674500Y-71776500D03*
D37*
%TO.P,U4,25,IO0_25*%
%TO.N,/IO0*%
X155709500Y-70681500D03*
%TO.P,U4,26,IO4_26*%
%TO.N,/SCL*%
X155709500Y-69411500D03*
%TO.P,U4,27,IO16_27*%
%TO.N,/24V_On*%
X155709500Y-68141500D03*
%TO.P,U4,28,IO17_28*%
%TO.N,/Zone0*%
X155709500Y-66871500D03*
%TO.P,U4,29,IO5_29*%
%TO.N,/SDA*%
X155709500Y-65601500D03*
%TO.P,U4,30,IO18_30*%
%TO.N,/Zone1*%
X155709500Y-64331500D03*
%TO.P,U4,31,IO19_31*%
%TO.N,/Zone2*%
X155709500Y-63061500D03*
%TO.P,U4,32,NC_32*%
%TO.N,unconnected-(U4-NC-Pad32)*%
X155709500Y-61791500D03*
%TO.P,U4,33,IO21_33*%
%TO.N,/Zone3*%
X155709500Y-60521500D03*
%TO.P,U4,34,RXD0/IO3_34*%
%TO.N,/IO3*%
X155709500Y-59251500D03*
%TO.P,U4,35,TXD0/IO1_35*%
%TO.N,/IO1*%
X155709500Y-57981500D03*
%TO.P,U4,36,IO22_36*%
%TO.N,/Zone4*%
X155709500Y-56711500D03*
%TO.P,U4,37,IO23_37*%
%TO.N,/Zone5*%
X155709500Y-55441500D03*
%TO.P,U4,38,GND_38*%
%TO.N,GND*%
X155709500Y-54171500D03*
D39*
%TO.P,U4,39,GND_39*%
X144059500Y-60336500D03*
D40*
X144059500Y-61036500D03*
D39*
X144059500Y-61736500D03*
D40*
X144059500Y-62436500D03*
D39*
X144059500Y-63136500D03*
D40*
X144759500Y-60336500D03*
X144759500Y-61736500D03*
X144759500Y-63136500D03*
D39*
X145459500Y-60336500D03*
D40*
X145459500Y-61036500D03*
D39*
X145459500Y-61736500D03*
D41*
X145459500Y-61736500D03*
D40*
X145459500Y-62436500D03*
D39*
X145459500Y-63136500D03*
D40*
X146159500Y-60336500D03*
X146159500Y-61736500D03*
X146159500Y-63136500D03*
D39*
X146859500Y-60336500D03*
D40*
X146859500Y-61036500D03*
D39*
X146859500Y-61736500D03*
D40*
X146859500Y-62436500D03*
D39*
X146859500Y-63136500D03*
%TD*%
D15*
%TO.P,C24,1*%
%TO.N,24VAC*%
X181615000Y-107697500D03*
%TO.P,C24,2*%
%TO.N,Net-(C24-Pad2)*%
X183690000Y-107697500D03*
%TD*%
D29*
%TO.P,K24,1*%
%TO.N,24VAC*%
X185190000Y-83197500D03*
D30*
%TO.P,K24,2*%
%TO.N,/Coil4*%
X179190000Y-85197500D03*
%TO.P,K24,3*%
%TO.N,24V_S4*%
X179190000Y-97397500D03*
%TO.P,K24,4*%
%TO.N,unconnected-(K24-Pad4)*%
X191190000Y-97397500D03*
%TO.P,K24,5*%
%TO.N,+5V*%
X191190000Y-85197500D03*
%TD*%
D19*
%TO.P,R22,1*%
%TO.N,Net-(C22-Pad2)*%
X146130000Y-107697500D03*
%TO.P,R22,2*%
%TO.N,24V_S2*%
X148130000Y-107697500D03*
%TD*%
D42*
%TO.P,J1,1,Pin_1_1*%
%TO.N,GND*%
X82000000Y-124500000D03*
D21*
%TO.P,J1,2,Pin_2_2*%
%TO.N,L_Supply*%
X87000000Y-124500000D03*
%TO.P,J1,3,Pin_3_3*%
%TO.N,Neut*%
X92000000Y-124500000D03*
%TD*%
D14*
%TO.P,R3,1*%
%TO.N,+3V3*%
X164049500Y-52218500D03*
%TO.P,R3,2*%
%TO.N,/EN*%
X162049500Y-52218500D03*
%TD*%
D15*
%TO.P,C20,1*%
%TO.N,24VAC*%
X100335000Y-107697500D03*
%TO.P,C20,2*%
%TO.N,Net-(C20-Pad2)*%
X102410000Y-107697500D03*
%TD*%
D22*
%TO.P,RV20,1*%
%TO.N,24VAC*%
X99990000Y-112917500D03*
%TO.P,RV20,2*%
%TO.N,24V_S0*%
X107490000Y-115317500D03*
%TD*%
D43*
%TO.P,C5,1*%
%TO.N,+5V*%
X162000000Y-71500000D03*
D44*
%TO.P,C5,2*%
%TO.N,GND*%
X159500000Y-71500000D03*
%TD*%
D22*
%TO.P,RV1,1*%
%TO.N,L*%
X87725000Y-108250000D03*
%TO.P,RV1,2*%
%TO.N,Neut*%
X86275000Y-115750000D03*
%TD*%
D14*
%TO.P,R5,1*%
%TO.N,/IO32*%
X199045000Y-64021500D03*
%TO.P,R5,2*%
%TO.N,GND*%
X197045000Y-64021500D03*
%TD*%
D45*
%TO.P,U2,1*%
%TO.N,24V_Comm*%
X92250000Y-62500000D03*
%TO.P,U2,2*%
%TO.N,Net-(R1-Pad1)*%
X92250000Y-65040000D03*
%TO.P,U2,3*%
%TO.N,/Sens_24V*%
X97750000Y-65040000D03*
%TO.P,U2,4*%
%TO.N,+3V3*%
X97750000Y-62500000D03*
%TD*%
D46*
%TO.P,J4,1,Pin_1_1*%
%TO.N,GND*%
X206545000Y-54021500D03*
D47*
%TO.P,J4,2,Pin_2_2*%
%TO.N,+3V3*%
X206545000Y-56521500D03*
%TO.P,J4,3,Pin_3_3*%
%TO.N,/IO34*%
X206545000Y-59021500D03*
%TO.P,J4,4,Pin_4_4*%
%TO.N,/IO35*%
X206545000Y-61521500D03*
%TO.P,J4,5,Pin_5_5*%
%TO.N,/IO32*%
X206545000Y-64021500D03*
%TO.P,J4,6,Pin_6_6*%
%TO.N,/IO33*%
X206545000Y-66521500D03*
%TD*%
D22*
%TO.P,RV24,1*%
%TO.N,24VAC*%
X181270000Y-112917500D03*
%TO.P,RV24,2*%
%TO.N,24V_S4*%
X188770000Y-115317500D03*
%TD*%
D29*
%TO.P,K20,1*%
%TO.N,24VAC*%
X103910000Y-83197500D03*
D30*
%TO.P,K20,2*%
%TO.N,/Coil0*%
X97910000Y-85197500D03*
%TO.P,K20,3*%
%TO.N,24V_S0*%
X97910000Y-97397500D03*
%TO.P,K20,4*%
%TO.N,unconnected-(K20-Pad4)*%
X109910000Y-97397500D03*
%TO.P,K20,5*%
%TO.N,+5V*%
X109910000Y-85197500D03*
%TD*%
D48*
%TO.P,J3,1,Pin_1_1*%
%TO.N,24V_Supply*%
X60932500Y-57250000D03*
D49*
%TO.P,J3,2,Pin_2_2*%
%TO.N,24V_Comm*%
X60932500Y-61060000D03*
%TD*%
D50*
%TO.N,+3V3*%
X128500000Y-72500000D03*
X119989250Y-74010750D03*
X165213166Y-52215461D03*
X198000000Y-49500000D03*
X165166454Y-56263277D03*
%TO.N,GND*%
X133000000Y-53000000D03*
X139819500Y-53109000D03*
X89500000Y-79500000D03*
X153789500Y-54379000D03*
X98500000Y-72500000D03*
X165000000Y-64250000D03*
X89500000Y-87500000D03*
X160525500Y-58060500D03*
X141089500Y-69619000D03*
X129500000Y-63250000D03*
X195545000Y-62771500D03*
X194500000Y-51500000D03*
X107000000Y-74000000D03*
X160525500Y-54250500D03*
%TO.N,+5V*%
X112000000Y-74000000D03*
X124000000Y-74000000D03*
X189000000Y-49750000D03*
%TO.N,/IO3*%
X156900500Y-59457500D03*
%TO.N,/IO1*%
X156900500Y-58441500D03*
%TO.N,/IO2*%
X134500000Y-58500000D03*
X136500000Y-58500000D03*
%TO.N,/IO35*%
X147594500Y-65045500D03*
%TO.N,/SDA*%
X157246500Y-66271500D03*
X157246500Y-68811500D03*
%TO.N,/EN*%
X136100000Y-57500000D03*
X126000000Y-59000000D03*
%TO.N,/Sens_24V*%
X98500000Y-67500000D03*
X139545000Y-65601500D03*
%TO.N,/IO34*%
X148102500Y-64283500D03*
%TO.N,/IO33*%
X147594500Y-66569500D03*
%TO.N,/IO32*%
X148102500Y-65807500D03*
%TD*%
%TO.N,24V_Comm*%
D51*
X82000000Y-62500000D02*
X80560000Y-61060000D01*
X92250000Y-62500000D02*
X82000000Y-62500000D01*
X80560000Y-61060000D02*
X60932500Y-61060000D01*
%TO.N,24V_S1*%
X127690000Y-123000000D02*
X127690000Y-115437500D01*
X118230000Y-97397500D02*
X121897500Y-97397500D01*
X127810000Y-103310000D02*
X127810000Y-107697500D01*
X127690000Y-115437500D02*
X127810000Y-115317500D01*
X121897500Y-97397500D02*
X127810000Y-103310000D01*
X127810000Y-115317500D02*
X127810000Y-107697500D01*
%TO.N,+3V3*%
D52*
X100500000Y-62500000D02*
X101000000Y-63000000D01*
X199037500Y-50537500D02*
X198000000Y-49500000D01*
X116978500Y-71000000D02*
X119989250Y-74010750D01*
X199037500Y-56462500D02*
X199037500Y-50537500D01*
X135500000Y-65500000D02*
X135500000Y-60500000D01*
X163500000Y-49000000D02*
X165213166Y-50713166D01*
X206949500Y-56550500D02*
X202712500Y-56550500D01*
X138209500Y-55441500D02*
X135558500Y-55441500D01*
X128500000Y-71700000D02*
X129500000Y-71700000D01*
X135500000Y-49000000D02*
X163500000Y-49000000D01*
X135558500Y-55441500D02*
X135500000Y-55500000D01*
X97750000Y-62500000D02*
X100500000Y-62500000D01*
X129500000Y-71700000D02*
X132800000Y-71700000D01*
X125975000Y-49525000D02*
X126500000Y-49000000D01*
X133075000Y-65500000D02*
X135500000Y-65500000D01*
X165224500Y-52204127D02*
X165213166Y-52215461D01*
X135500000Y-49000000D02*
X135500000Y-55500000D01*
X199000000Y-56500000D02*
X202662000Y-56500000D01*
X202662000Y-56500000D02*
X202712500Y-56550500D01*
X135500000Y-60500000D02*
X135500000Y-55500000D01*
X102750000Y-71000000D02*
X116978500Y-71000000D01*
X135500000Y-70750000D02*
X135500000Y-65500000D01*
X165166454Y-56263277D02*
X164068723Y-56263277D01*
X125975000Y-50500000D02*
X125975000Y-49525000D01*
X134550000Y-71700000D02*
X135500000Y-70750000D01*
X119989250Y-74010750D02*
X120000000Y-74021500D01*
X101000000Y-63000000D02*
X101000000Y-69250000D01*
X133075000Y-60500000D02*
X135500000Y-60500000D01*
X164068723Y-56263277D02*
X164049500Y-56282500D01*
X126500000Y-71700000D02*
X128500000Y-71700000D01*
X128500000Y-71700000D02*
X128500000Y-72500000D01*
X199000000Y-56500000D02*
X199037500Y-56462500D01*
X101000000Y-69250000D02*
X102750000Y-71000000D01*
X164052539Y-52215461D02*
X164049500Y-52218500D01*
X132800000Y-71700000D02*
X134550000Y-71700000D01*
X120000000Y-74021500D02*
X114545000Y-74021500D01*
X165213166Y-50713166D02*
X165213166Y-52215461D01*
X126500000Y-49000000D02*
X135500000Y-49000000D01*
X165213166Y-52215461D02*
X164052539Y-52215461D01*
%TO.N,GND*%
D53*
X77500000Y-83500000D02*
X63920000Y-69920000D01*
D52*
X126500000Y-69400000D02*
X126500000Y-68750000D01*
X128000000Y-67250000D02*
X128000000Y-65500000D01*
X197045000Y-64021500D02*
X195545000Y-64021500D01*
X196957500Y-59021500D02*
X196045000Y-59021500D01*
X126500000Y-68750000D02*
X128000000Y-67250000D01*
D53*
X141244500Y-71776500D02*
X141244500Y-69774000D01*
D52*
X195545000Y-59521500D02*
X195545000Y-61521500D01*
X195545000Y-61521500D02*
X195545000Y-62771500D01*
D53*
X153997000Y-54171500D02*
X153789500Y-54379000D01*
D52*
X129500000Y-60505000D02*
X130995000Y-60505000D01*
X130995000Y-60505000D02*
X131000000Y-60500000D01*
X196952500Y-64050500D02*
X196973500Y-64029500D01*
D53*
X138209500Y-54171500D02*
X138757000Y-54171500D01*
D52*
X129500000Y-60505000D02*
X129500000Y-63250000D01*
X195545000Y-66021500D02*
X195545000Y-64021500D01*
D53*
X155709500Y-54171500D02*
X153997000Y-54171500D01*
D52*
X165131500Y-64381500D02*
X165000000Y-64250000D01*
X98500000Y-72500000D02*
X97000000Y-72500000D01*
X196045000Y-66521500D02*
X195545000Y-66021500D01*
X195545000Y-64021500D02*
X195545000Y-62771500D01*
X127942500Y-60505000D02*
X129500000Y-60505000D01*
X197045000Y-61521500D02*
X195545000Y-61521500D01*
X128000000Y-65500000D02*
X129500000Y-65500000D01*
X166340000Y-64381500D02*
X165131500Y-64381500D01*
X196962500Y-51500000D02*
X194500000Y-51500000D01*
X196856500Y-59050500D02*
X196957500Y-58949500D01*
D53*
X138757000Y-54171500D02*
X139819500Y-53109000D01*
D52*
X98537500Y-72537500D02*
X100000000Y-72537500D01*
X133000000Y-50500000D02*
X133000000Y-53000000D01*
X162049500Y-54250500D02*
X160525500Y-54250500D01*
X129500000Y-65500000D02*
X131000000Y-65500000D01*
D53*
X89500000Y-83500000D02*
X77500000Y-83500000D01*
X63920000Y-69920000D02*
X58000000Y-69920000D01*
D52*
X133000000Y-55500000D02*
X133000000Y-53000000D01*
X196045000Y-59021500D02*
X195545000Y-59521500D01*
D53*
X89500000Y-79500000D02*
X89500000Y-87500000D01*
X141244500Y-69774000D02*
X141089500Y-69619000D01*
D52*
X197045000Y-66521500D02*
X196045000Y-66521500D01*
X129500000Y-63250000D02*
X129500000Y-65500000D01*
X98500000Y-72500000D02*
X98537500Y-72537500D01*
X105000000Y-74000000D02*
X107000000Y-74000000D01*
X162049500Y-58060500D02*
X160525500Y-58060500D01*
%TO.N,Net-(R7-Pad1)*%
X164049500Y-58060500D02*
X164081500Y-58060500D01*
X173007500Y-58516500D02*
X173007500Y-57425500D01*
X164081500Y-58060500D02*
X164970500Y-58949500D01*
X164970500Y-58949500D02*
X172574500Y-58949500D01*
X172574500Y-58949500D02*
X173007500Y-58516500D01*
%TO.N,24VAC*%
D51*
X120655000Y-109845000D02*
X120655000Y-107697500D01*
X181270000Y-112917500D02*
X181270000Y-110230000D01*
X201470000Y-112777500D02*
X201470000Y-110530000D01*
X140630000Y-112917500D02*
X140630000Y-110370000D01*
X140630000Y-110370000D02*
X141000000Y-110000000D01*
X99990000Y-112917500D02*
X99990000Y-110345000D01*
X201470000Y-110530000D02*
X201935000Y-110065000D01*
X100335000Y-110000000D02*
X100335000Y-107697500D01*
X140975000Y-109975000D02*
X140975000Y-107697500D01*
X181615000Y-109885000D02*
X181615000Y-107697500D01*
X201935000Y-110065000D02*
X201935000Y-107697500D01*
X160950000Y-110050000D02*
X161295000Y-109705000D01*
X181270000Y-110230000D02*
X181615000Y-109885000D01*
X120310000Y-112917500D02*
X120310000Y-110190000D01*
X141000000Y-110000000D02*
X140975000Y-109975000D01*
X161295000Y-109705000D02*
X161295000Y-107697500D01*
X83000000Y-68100000D02*
X85875000Y-70975000D01*
X99990000Y-110345000D02*
X100335000Y-110000000D01*
X160950000Y-112917500D02*
X160950000Y-110050000D01*
X120310000Y-110190000D02*
X120655000Y-109845000D01*
X85875000Y-70975000D02*
X90000000Y-70975000D01*
%TO.N,Net-(C22-Pad2)*%
D52*
X143050000Y-107697500D02*
X146130000Y-107697500D01*
%TO.N,+5V*%
D53*
X164181500Y-73681500D02*
X162000000Y-71500000D01*
X176000000Y-57500000D02*
X176000000Y-48000000D01*
X125000000Y-48000000D02*
X124000000Y-49000000D01*
X126500000Y-74000000D02*
X124000000Y-74000000D01*
X110000000Y-74000000D02*
X112000000Y-74000000D01*
X189000000Y-49750000D02*
X187250000Y-48000000D01*
X166340000Y-73681500D02*
X164181500Y-73681500D01*
X187250000Y-48000000D02*
X176000000Y-48000000D01*
X125925000Y-65500000D02*
X124000000Y-65500000D01*
X178000000Y-59500000D02*
X176000000Y-57500000D01*
X176000000Y-48000000D02*
X125000000Y-48000000D01*
X182500000Y-59500000D02*
X178000000Y-59500000D01*
X124000000Y-65500000D02*
X124000000Y-74000000D01*
X73000000Y-70720000D02*
X83000000Y-80720000D01*
X183876500Y-60876500D02*
X182500000Y-59500000D01*
X183876500Y-63521500D02*
X183876500Y-60876500D01*
X124000000Y-49000000D02*
X124000000Y-65500000D01*
%TO.N,/IO3*%
D52*
X155709500Y-59251500D02*
X156694500Y-59251500D01*
X156694500Y-59251500D02*
X156900500Y-59457500D01*
%TO.N,/IO1*%
X155709500Y-57981500D02*
X156440500Y-57981500D01*
X156440500Y-57981500D02*
X156900500Y-58441500D01*
%TO.N,Net-(LED1-K)*%
X128025000Y-55500000D02*
X131000000Y-55500000D01*
%TO.N,/IO2*%
X127500000Y-58500000D02*
X125975000Y-56975000D01*
X151973500Y-73427500D02*
X152674500Y-72726500D01*
X134500000Y-58500000D02*
X127500000Y-58500000D01*
X152674500Y-72726500D02*
X152674500Y-71776500D01*
X136500000Y-72747000D02*
X137180500Y-73427500D01*
X125975000Y-56975000D02*
X125975000Y-55500000D01*
X136500000Y-58500000D02*
X136500000Y-72747000D01*
X137180500Y-73427500D02*
X151973500Y-73427500D01*
%TO.N,Net-(C20-Pad2)*%
X102410000Y-107697500D02*
X105490000Y-107697500D01*
%TO.N,24V_S0*%
D51*
X107490000Y-111490000D02*
X107490000Y-107697500D01*
X107370000Y-123000000D02*
X107370000Y-115437500D01*
X107500000Y-111500000D02*
X107490000Y-111490000D01*
X107490000Y-103490000D02*
X107490000Y-107697500D01*
X107370000Y-115437500D02*
X107490000Y-115317500D01*
X101397500Y-97397500D02*
X107490000Y-103490000D01*
X107490000Y-111510000D02*
X107500000Y-111500000D01*
X97910000Y-97397500D02*
X101397500Y-97397500D01*
X107490000Y-115317500D02*
X107490000Y-111510000D01*
%TO.N,L_SW*%
D54*
X59500000Y-109000000D02*
X64000000Y-109000000D01*
X70750000Y-115750000D02*
X79800000Y-115750000D01*
X64000000Y-109000000D02*
X70750000Y-115750000D01*
%TO.N,Neut*%
X86275000Y-115750000D02*
X87500000Y-114525000D01*
X87500000Y-114525000D02*
X87500000Y-114500000D01*
X87500000Y-114500000D02*
X92000000Y-119000000D01*
X81250000Y-108250000D02*
X87500000Y-114500000D01*
X92000000Y-119000000D02*
X92000000Y-124500000D01*
%TO.N,L_Supply*%
X87000000Y-122000000D02*
X84500000Y-119500000D01*
X71000000Y-121500000D02*
X71000000Y-125000000D01*
X73000000Y-119500000D02*
X71000000Y-121500000D01*
X87000000Y-124500000D02*
X87000000Y-122000000D01*
X84500000Y-119500000D02*
X73000000Y-119500000D01*
%TO.N,L*%
X71000000Y-109300000D02*
X77300000Y-103000000D01*
X86000000Y-103000000D02*
X87725000Y-104725000D01*
X63000000Y-99000000D02*
X63000000Y-101300000D01*
X83000000Y-103000000D02*
X86000000Y-103000000D01*
X83000000Y-98500000D02*
X83000000Y-103000000D01*
X63000000Y-101300000D02*
X71000000Y-109300000D01*
X87725000Y-104725000D02*
X87725000Y-108250000D01*
X77300000Y-103000000D02*
X83000000Y-103000000D01*
%TO.N,/IO35*%
D52*
X147086500Y-64537500D02*
X147594500Y-65045500D01*
X142768500Y-64537500D02*
X147086500Y-64537500D01*
X142006500Y-63775500D02*
X142768500Y-64537500D01*
X199045000Y-61521500D02*
X206545000Y-61521500D01*
X141800500Y-61791500D02*
X142006500Y-61997500D01*
X142006500Y-61997500D02*
X142006500Y-63775500D01*
X138209500Y-61791500D02*
X141800500Y-61791500D01*
%TO.N,Net-(C25-Pad2)*%
X204010000Y-107697500D02*
X207090000Y-107697500D01*
%TO.N,Net-(R1-Pad1)*%
X92250000Y-68305000D02*
X92250000Y-65040000D01*
X93000000Y-70500000D02*
X93000000Y-69110000D01*
X93000000Y-69055000D02*
X92250000Y-68305000D01*
%TO.N,Net-(D1-K)*%
X90000000Y-72525000D02*
X92975000Y-72525000D01*
X92975000Y-72525000D02*
X93000000Y-72500000D01*
%TO.N,Net-(R4-Pad1)*%
X164049500Y-54250500D02*
X164938500Y-55139500D01*
X172447500Y-55139500D02*
X173062500Y-54524500D01*
X164938500Y-55139500D02*
X172447500Y-55139500D01*
X173062500Y-54524500D02*
X173062500Y-53223000D01*
%TO.N,/Coil1*%
D53*
X118230000Y-85197500D02*
X118230000Y-80770000D01*
X167151876Y-78000000D02*
X170150000Y-75001876D01*
X121000000Y-78000000D02*
X167151876Y-78000000D01*
X118230000Y-80770000D02*
X121000000Y-78000000D01*
X170150000Y-75001876D02*
X170150000Y-73681500D01*
%TO.N,Net-(C21-Pad2)*%
D52*
X122730000Y-107697500D02*
X125810000Y-107697500D01*
%TO.N,Net-(C24-Pad2)*%
X183690000Y-107697500D02*
X186770000Y-107697500D01*
%TO.N,24V_S4*%
D51*
X182897500Y-97397500D02*
X188770000Y-103270000D01*
X188650000Y-123000000D02*
X188650000Y-115437500D01*
X188650000Y-115437500D02*
X188770000Y-115317500D01*
X179190000Y-97397500D02*
X182897500Y-97397500D01*
X188770000Y-115317500D02*
X188770000Y-107697500D01*
X188770000Y-103270000D02*
X188770000Y-107697500D01*
%TO.N,24V_S5*%
X205994000Y-120506000D02*
X208970000Y-117530000D01*
X205994000Y-123000000D02*
X205994000Y-120506000D01*
X208970000Y-117530000D02*
X208970000Y-115177500D01*
X209090000Y-111410000D02*
X209090000Y-107697500D01*
X199510000Y-97397500D02*
X202897500Y-97397500D01*
X202897500Y-97397500D02*
X209090000Y-103590000D01*
X209090000Y-103590000D02*
X209090000Y-107697500D01*
X208970000Y-111530000D02*
X209090000Y-111410000D01*
X208970000Y-115177500D02*
X208970000Y-111530000D01*
%TO.N,/SDA*%
D52*
X194050000Y-53050000D02*
X195000000Y-54000000D01*
X186376500Y-54631500D02*
X187900500Y-56155500D01*
X187958000Y-53050000D02*
X186376500Y-54631500D01*
X156576500Y-65601500D02*
X155709500Y-65601500D01*
X187900500Y-56155500D02*
X191028500Y-56155500D01*
X157246500Y-66271500D02*
X156576500Y-65601500D01*
X159717186Y-67839500D02*
X159015185Y-68541500D01*
X159015185Y-68541500D02*
X157516500Y-68541500D01*
X191790500Y-56917500D02*
X191790500Y-67585500D01*
X191790500Y-67585500D02*
X191536500Y-67839500D01*
X191536500Y-67839500D02*
X159717186Y-67839500D01*
X187958000Y-53050000D02*
X194050000Y-53050000D01*
X157516500Y-68541500D02*
X157246500Y-68811500D01*
X195000000Y-54000000D02*
X197000000Y-54000000D01*
X191028500Y-56155500D02*
X191790500Y-56917500D01*
%TO.N,/SCL*%
X191790500Y-68347500D02*
X192298500Y-67839500D01*
X192298500Y-56000000D02*
X192298500Y-55647500D01*
X158710871Y-69411500D02*
X159774871Y-68347500D01*
X192298500Y-55647500D02*
X191282500Y-54631500D01*
X192298500Y-56500000D02*
X192298500Y-56000000D01*
X197000000Y-56500000D02*
X192298500Y-56500000D01*
X192298500Y-67839500D02*
X192298500Y-56500000D01*
X155709500Y-69411500D02*
X158710871Y-69411500D01*
X159774871Y-68347500D02*
X191790500Y-68347500D01*
X191282500Y-54631500D02*
X188876500Y-54631500D01*
%TO.N,/Coil5*%
D53*
X195000000Y-76000000D02*
X199510000Y-80510000D01*
X175230000Y-73681500D02*
X175230000Y-74713448D01*
X199510000Y-80510000D02*
X199510000Y-85197500D01*
X176516552Y-76000000D02*
X195000000Y-76000000D01*
X175230000Y-74713448D02*
X176516552Y-76000000D01*
%TO.N,/EN*%
D52*
X168862500Y-53223000D02*
X161276000Y-53223000D01*
X138209500Y-56711500D02*
X136888500Y-56711500D01*
X145000000Y-52000000D02*
X140288500Y-56711500D01*
X126000000Y-60462500D02*
X125962500Y-60500000D01*
X160053000Y-52000000D02*
X145000000Y-52000000D01*
X160398500Y-52345500D02*
X160053000Y-52000000D01*
X126000000Y-59000000D02*
X126000000Y-60462500D01*
X136888500Y-56711500D02*
X136100000Y-57500000D01*
X161276000Y-53223000D02*
X160398500Y-52345500D01*
X140288500Y-56711500D02*
X138209500Y-56711500D01*
X162049500Y-52345500D02*
X160398500Y-52345500D01*
%TO.N,Net-(C23-Pad2)*%
X163370000Y-107697500D02*
X166450000Y-107697500D01*
%TO.N,Net-(LED2-K)*%
X128025000Y-50500000D02*
X131000000Y-50500000D01*
%TO.N,/IO0*%
X155709500Y-70681500D02*
X154452500Y-70681500D01*
X153182500Y-53361500D02*
X157500500Y-53361500D01*
X161456186Y-57298500D02*
X160440186Y-56282500D01*
X162049500Y-56282500D02*
X160440186Y-56282500D01*
X168807500Y-57298500D02*
X161456186Y-57298500D01*
X154452500Y-70681500D02*
X153182500Y-69411500D01*
X153182500Y-69411500D02*
X153182500Y-53361500D01*
X160421500Y-56282500D02*
X160440186Y-56282500D01*
X157500500Y-53361500D02*
X160421500Y-56282500D01*
%TO.N,/Sens_24V*%
X97000000Y-70500000D02*
X97500000Y-70500000D01*
X98500000Y-70462500D02*
X97037500Y-70462500D01*
X97750000Y-66750000D02*
X98500000Y-67500000D01*
X97750000Y-65040000D02*
X97750000Y-66750000D01*
X100000000Y-70462500D02*
X98500000Y-70462500D01*
X97037500Y-70462500D02*
X97000000Y-70500000D01*
X98500000Y-67500000D02*
X98500000Y-70462500D01*
X138209500Y-65601500D02*
X139545000Y-65601500D01*
%TO.N,24V_S3*%
D51*
X168330000Y-123000000D02*
X168330000Y-115437500D01*
X168500000Y-103000000D02*
X168450000Y-103050000D01*
X158870000Y-97397500D02*
X162897500Y-97397500D01*
X168450000Y-103050000D02*
X168450000Y-107697500D01*
X168330000Y-115437500D02*
X168450000Y-115317500D01*
X162897500Y-97397500D02*
X168500000Y-103000000D01*
X168450000Y-115317500D02*
X168450000Y-107697500D01*
%TO.N,/SSR*%
D53*
X83000000Y-78180000D02*
X89320000Y-78180000D01*
X166323448Y-76000000D02*
X167610000Y-74713448D01*
X91500000Y-76000000D02*
X166323448Y-76000000D01*
X167610000Y-74713448D02*
X167610000Y-73681500D01*
X89320000Y-78180000D02*
X91500000Y-76000000D01*
%TO.N,24V_Supply*%
D51*
X65782500Y-52400000D02*
X60932500Y-57250000D01*
X83000000Y-52400000D02*
X65782500Y-52400000D01*
%TO.N,/Coil2*%
D53*
X138550000Y-81450000D02*
X140978499Y-79021501D01*
X140978499Y-79021501D02*
X167544589Y-79021501D01*
X138550000Y-85197500D02*
X138550000Y-81450000D01*
X167544589Y-79021501D02*
X171420000Y-75146090D01*
X171420000Y-75146090D02*
X171420000Y-73681500D01*
%TO.N,24V_S2*%
D51*
X148130000Y-103130000D02*
X148130000Y-107697500D01*
X138550000Y-97397500D02*
X142397500Y-97397500D01*
X148130000Y-115317500D02*
X148130000Y-107697500D01*
X148010000Y-123000000D02*
X148010000Y-115437500D01*
X142397500Y-97397500D02*
X148130000Y-103130000D01*
X148010000Y-115437500D02*
X148130000Y-115317500D01*
%TO.N,/IO34*%
D52*
X142514500Y-61235500D02*
X142514500Y-63521500D01*
X206920500Y-59021500D02*
X206949500Y-59050500D01*
X143022500Y-64029500D02*
X147848500Y-64029500D01*
X142514500Y-63521500D02*
X143022500Y-64029500D01*
X141800500Y-60521500D02*
X142514500Y-61235500D01*
X138209500Y-60521500D02*
X141800500Y-60521500D01*
X147848500Y-64029500D02*
X148102500Y-64283500D01*
X206949500Y-59050500D02*
X207050500Y-58949500D01*
X206545000Y-59021500D02*
X198957500Y-59021500D01*
%TO.N,/Zone5*%
X172465500Y-59965500D02*
X175230000Y-62730000D01*
X175230000Y-62730000D02*
X175230000Y-64381500D01*
X158008500Y-59965500D02*
X172465500Y-59965500D01*
X158008500Y-56155500D02*
X158008500Y-59965500D01*
X155709500Y-55441500D02*
X157294500Y-55441500D01*
X157294500Y-55441500D02*
X158008500Y-56155500D01*
%TO.N,/Zone4*%
X156786500Y-56711500D02*
X157500500Y-57425500D01*
X155709500Y-56711500D02*
X156786500Y-56711500D01*
X173960000Y-62710000D02*
X173960000Y-64381500D01*
X171723500Y-60473500D02*
X173960000Y-62710000D01*
X157500500Y-60473500D02*
X171723500Y-60473500D01*
X157500500Y-57425500D02*
X157500500Y-60473500D01*
%TO.N,/Zone3*%
X170981500Y-60981500D02*
X172690000Y-62690000D01*
X155709500Y-60521500D02*
X156169500Y-60981500D01*
X156169500Y-60981500D02*
X170981500Y-60981500D01*
X172690000Y-62690000D02*
X172690000Y-64381500D01*
%TO.N,/Zone2*%
X156944500Y-63061500D02*
X158516500Y-61489500D01*
X158516500Y-61489500D02*
X170123407Y-61489500D01*
X170123407Y-61489500D02*
X171420000Y-62786093D01*
X171420000Y-62786093D02*
X171420000Y-64381500D01*
X155709500Y-63061500D02*
X156944500Y-63061500D01*
%TO.N,/Zone1*%
X169247500Y-61997500D02*
X170150000Y-62900000D01*
X155709500Y-64331500D02*
X158849500Y-64331500D01*
X158849500Y-64331500D02*
X161183500Y-61997500D01*
X170150000Y-62900000D02*
X170150000Y-64381500D01*
X161183500Y-61997500D02*
X169247500Y-61997500D01*
%TO.N,/Zone0*%
X161419999Y-62505500D02*
X168505500Y-62505500D01*
X155709500Y-66871500D02*
X158849500Y-66871500D01*
X159659500Y-66061500D02*
X159659500Y-64265999D01*
X168505500Y-62505500D02*
X168880000Y-62880000D01*
X158849500Y-66871500D02*
X159659500Y-66061500D01*
X168880000Y-62880000D02*
X168880000Y-64381500D01*
X159659500Y-64265999D02*
X161419999Y-62505500D01*
%TO.N,/24V_On*%
X158849500Y-68141500D02*
X160294500Y-66696500D01*
X160294500Y-64196684D02*
X161477684Y-63013500D01*
X160294500Y-66696500D02*
X160294500Y-64196684D01*
X167610000Y-63356501D02*
X167610000Y-64381500D01*
X167266999Y-63013500D02*
X167610000Y-63356501D01*
X161477684Y-63013500D02*
X167266999Y-63013500D01*
X155709500Y-68141500D02*
X158849500Y-68141500D01*
%TO.N,/Coil0*%
D53*
X101000000Y-77000000D02*
X166737662Y-77000000D01*
X97910000Y-85197500D02*
X97910000Y-80090000D01*
X168880000Y-74857662D02*
X168880000Y-73681500D01*
X97910000Y-80090000D02*
X101000000Y-77000000D01*
X166737662Y-77000000D02*
X168880000Y-74857662D01*
%TO.N,/Coil3*%
X172690000Y-75290304D02*
X172690000Y-73681500D01*
X167958803Y-80021501D02*
X172690000Y-75290304D01*
X160000000Y-80021501D02*
X167958803Y-80021501D01*
X158870000Y-85197500D02*
X158870000Y-81151501D01*
X158870000Y-81151501D02*
X160000000Y-80021501D01*
%TO.N,/Coil4*%
X173960000Y-75535000D02*
X173960000Y-73681500D01*
X179190000Y-80765000D02*
X173960000Y-75535000D01*
X179190000Y-85197500D02*
X179190000Y-80765000D01*
%TO.N,/IO33*%
D52*
X138209500Y-64331500D02*
X141038500Y-64331500D01*
X147012815Y-66045500D02*
X147536814Y-66569500D01*
X141038500Y-64331500D02*
X142260500Y-65553500D01*
X199045000Y-66521500D02*
X206545000Y-66521500D01*
X146520814Y-65553500D02*
X147012815Y-66045500D01*
X147536814Y-66569500D02*
X147594500Y-66569500D01*
X142260500Y-65553500D02*
X146520814Y-65553500D01*
%TO.N,/IO32*%
X147891765Y-65596765D02*
X148102500Y-65807500D01*
X141498500Y-64029500D02*
X142514500Y-65045500D01*
X147178500Y-65645500D02*
X147843029Y-65645500D01*
X146578500Y-65045500D02*
X147178500Y-65645500D01*
X199045000Y-64021500D02*
X206545000Y-64021500D01*
X141498500Y-63267500D02*
X141498500Y-64029500D01*
X147843029Y-65645500D02*
X147891765Y-65596765D01*
X142514500Y-65045500D02*
X146578500Y-65045500D01*
X141292500Y-63061500D02*
X141498500Y-63267500D01*
X138209500Y-63061500D02*
X141292500Y-63061500D01*
%TD*%
M02*
